<svg width="30" height="33" viewBox="0 0 30 33" fill="none" xmlns="http://www.w3.org/2000/svg">
<g clip-path="url(#clip0_1145_12)">
<path d="M30 24.0963V8.90367C30 8.6763 29.9387 8.45302 29.8223 8.25663C29.7059 8.06025 29.5386 7.89782 29.3375 7.78594L15.6418 0.166187C15.446 0.0572487 15.2249 0 15 0C14.7751 0 14.554 0.0572487 14.3582 0.166187L0.662534 7.78594C0.461448 7.89782 0.29415 8.06025 0.177744 8.25663C0.0613384 8.45302 4.64719e-08 8.6763 0 8.90367V24.0963C-2.42258e-07 24.3237 0.0613378 24.547 0.177744 24.7434C0.294149 24.9397 0.461448 25.1022 0.662534 25.2141L14.3582 32.8338C14.554 32.9428 14.7751 33 15 33C15.2249 33 15.446 32.9428 15.6418 32.8338L29.3375 25.2141C29.5386 25.1022 29.7059 24.9397 29.8223 24.7434C29.9387 24.547 30 24.3237 30 24.0963Z" fill="#1A73E8"></path>
<path d="M18.5 20.16H11.54L10.1 23.5H7.5L13.94 9.26H16.04L22.5 23.5H19.92L18.5 20.16ZM17.64 18.16L15.02 12.06L12.4 18.16H17.64Z" fill="#FCFCFF"></path>
</g>
<defs>
<clipPath id="clip0_1145_12">
<rect width="30" height="33" fill="white"></rect>
</clipPath>
</defs>
</svg>