<svg viewBox="0 0 9 9" fill="none" xmlns="http://www.w3.org/2000/svg">
<path d="M2.93566 8.00429L0.15338 8.18977C0.0812139 8.19459 0.0279656 8.12356 0.0528154 8.05564L2.97598 0.0656418C2.99041 0.0262185 3.02792 0 3.0699 0H5.8557C5.92552 0 5.97385 0.0697377 5.94933 0.135113L3.02264 7.93962C3.00886 7.97638 2.97483 8.00168 2.93566 8.00429Z" fill="#165CB9"/>
<path d="M5.9301 0H3.1443C3.07448 0 3.02615 0.0697377 3.05067 0.135113L5.97736 7.93962C5.99114 7.97638 6.02517 8.00168 6.06434 8.00429L8.84662 8.18977C8.91879 8.19459 8.97203 8.12356 8.94718 8.05564L6.02402 0.0656418C6.00959 0.0262185 5.97208 0 5.9301 0Z" fill="#1A73E8"/>
</svg>
