<svg width="335" height="482" viewBox="0 0 335 482" fill="none" xmlns="http://www.w3.org/2000/svg">
<path d="M179.028 169.877C218.056 169.877 249.694 138.238 249.694 99.2106C249.694 60.1829 218.056 28.5447 179.028 28.5447C140 28.5447 108.362 60.1829 108.362 99.2106C108.362 138.238 140 169.877 179.028 169.877Z" fill="#FEB8B8"/>
<path d="M245.031 38.246C234.465 21.0898 217.928 8.4481 198.601 2.75431L189.925 9.0851V0.864751C185.284 0.15434 180.586 -0.119331 175.893 0.0473377L168.408 6.81954V0.609975C157.327 1.98706 146.65 5.64533 137.053 11.3541C127.455 17.0628 119.145 24.6983 112.645 33.7789C96.3911 57.2111 93.6473 89.8105 109.634 113.431C114.022 99.9436 119.349 87.2888 123.739 73.803C127.188 74.2732 130.684 74.2902 134.137 73.8534L139.476 61.3948L140.968 73.3262C157.518 71.8848 182.064 68.7188 197.753 65.8184L196.227 56.6648L205.355 64.2708C210.161 63.1646 213.015 62.1605 212.78 61.3936C224.448 80.2047 238.728 92.2192 250.395 111.03C254.827 84.5056 259.928 62.4506 245.031 38.246Z" fill="#0A2540"/>
<path d="M322.01 280.93C319.58 266.311 317.074 251.411 310.279 238.241C305.814 229.615 298.725 221.395 289.17 219.689C287.287 219.521 285.438 219.093 283.673 218.417C280.873 217.068 243.248 195.589 237.268 191.848C232.133 188.637 224.028 182.69 219.941 182.69C215.829 182.6 200.063 186.269 138.527 181.459C138.527 181.459 121.622 188.122 108.541 196.202C108.343 196.071 44.6724 230.262 42.2804 230.172C37.7503 229.982 33.5396 232.882 30.9426 236.535C28.3463 240.187 27.1283 244.709 25.8531 249.08C39.7599 280.05 52.4839 311.06 66.392 342.03C67.0432 343.196 67.3892 344.509 67.3978 345.844C67.1183 347.231 66.5266 348.535 65.6676 349.659C58.8473 360.615 59.0641 374.395 59.8092 387.272C60.5549 400.149 61.4768 413.75 55.7222 425.292C54.1569 428.461 52.1214 431.361 50.6327 434.53C47.1464 441.707 45.8865 464.661 47.9227 472.372L303.043 479.68C297.558 464.602 322.01 280.93 322.01 280.93Z" fill="#635BFF"/>
<path d="M3.80068 343.403C3.29162 347.085 3.24037 350.817 3.64809 354.512L7.30462 407.024C7.64793 411.974 7.98578 416.911 8.45034 421.848C9.32768 431.429 10.6383 440.934 12.2649 450.426C12.3016 451.773 12.8715 453.051 13.8495 453.979C14.8274 454.907 16.1336 455.409 17.4813 455.375C33.5773 458.781 50.2074 458.645 66.6345 457.717C91.7015 456.318 155.832 453.671 159.75 448.581C163.668 443.491 161.385 435.259 156.276 431.143C151.168 427.028 66.5377 416.994 66.5377 416.994C67.3647 410.441 69.8591 404.27 72.2255 398.048C76.476 387.013 80.4459 375.616 80.5222 363.795C80.5985 351.974 76.145 339.545 66.4614 332.773C58.4958 327.213 48.2401 326.182 38.5334 326.411C31.4711 326.614 19.2686 324.922 12.8179 327.683C7.71332 329.931 4.75432 338.405 3.80068 343.403Z" fill="#FBBEBE"/>
<path d="M25.1173 250.023C23.878 251.321 22.917 252.858 22.2932 254.541C12.0081 277.72 5.933 302.546 4.35255 327.856C4.3803 329.09 4.09586 330.312 3.52562 331.406C2.96327 332.135 2.33732 332.812 1.65514 333.429C1.06037 334.134 0.610284 334.95 0.330611 335.829C0.0509391 336.708 -0.0528403 337.633 0.0251609 338.552C0.103162 339.472 0.361432 340.366 0.785232 341.186C1.20903 342.005 1.79005 342.733 2.49513 343.328C2.61077 343.425 2.72946 343.519 2.85121 343.609C4.95058 339.658 9.97622 338.366 14.4434 338.023C35.8321 336.331 56.7249 346.282 78.1777 345.531C76.6641 340.301 74.4871 335.275 73.2528 329.983C67.7939 306.481 81.4092 280.893 73.0621 258.257C71.3946 253.727 68.6086 249.274 64.2192 247.289C62.4016 246.556 60.4996 246.052 58.5573 245.79C53.1365 244.811 42.3455 240.624 37.1045 242.304C35.17 242.928 34.4071 244.747 32.8036 245.846C30.3678 247.402 27.1363 247.974 25.1173 250.023Z" fill="#635BFF"/>
<path d="M322.163 327.683C315.712 324.922 303.51 326.614 296.447 326.411C286.741 326.182 276.485 327.213 268.519 332.773C258.836 339.545 254.382 351.974 254.459 363.795C254.535 375.616 258.505 387.013 262.755 398.048C265.122 404.27 267.616 410.441 268.443 416.994C268.443 416.994 183.813 427.028 178.704 431.143C173.596 435.259 171.312 443.491 175.23 448.581C179.148 453.671 301.404 458.781 317.5 455.375C318.847 455.409 320.153 454.907 321.131 453.979C322.109 453.051 322.679 451.773 322.716 450.426C324.343 440.934 325.653 431.429 326.531 421.848C326.995 416.911 327.333 411.974 327.676 407.024L331.333 354.512C331.74 350.817 331.689 347.085 331.18 343.403C330.227 338.405 327.268 329.931 322.163 327.683Z" fill="#FBBEBE"/>
<path d="M302.177 245.846C300.574 244.747 299.811 242.928 297.876 242.304C292.635 240.624 281.844 244.811 276.424 245.79C274.481 246.052 272.579 246.556 270.762 247.289C266.372 249.274 263.586 253.727 261.919 258.257C253.572 280.893 267.187 306.481 261.728 329.983C260.494 335.275 258.317 340.301 256.803 345.531C278.256 346.282 299.149 336.331 320.538 338.023C325.005 338.366 330.03 339.658 332.13 343.609C332.251 343.519 332.37 343.425 332.486 343.328C333.191 342.733 333.772 342.005 334.196 341.186C334.619 340.366 334.878 339.472 334.956 338.552C335.034 337.633 334.93 336.708 334.65 335.829C334.371 334.95 333.921 334.134 333.326 333.429C332.644 332.812 332.018 332.135 331.455 331.406C330.885 330.312 330.601 329.09 330.628 327.856C329.048 302.546 322.973 277.72 312.688 254.54C312.064 252.858 311.103 251.321 309.864 250.023C307.845 247.974 304.613 247.402 302.177 245.846Z" fill="#635BFF"/>
<path d="M149.099 457.883C159.632 457.883 168.172 449.344 168.172 438.81C168.172 428.277 159.632 419.737 149.099 419.737C138.565 419.737 130.026 428.277 130.026 438.81C130.026 449.344 138.565 457.883 149.099 457.883Z" fill="#FBBEBE"/>
<path d="M191.332 457.883C201.865 457.883 210.404 449.344 210.404 438.81C210.404 428.277 201.865 419.737 191.332 419.737C180.798 419.737 172.259 428.277 172.259 438.81C172.259 449.344 180.798 457.883 191.332 457.883Z" fill="#FBBEBE"/>
<path d="M298.57 481.788H36.5393C33.4801 481.785 30.5471 480.568 28.3839 478.405C26.2206 476.242 25.0036 473.309 25 470.25V311.283C25.0036 308.224 26.2206 305.291 28.3839 303.128C30.5471 300.964 33.4801 299.748 36.5393 299.744H298.57C301.629 299.748 304.562 300.964 306.726 303.128C308.889 305.291 310.106 308.224 310.109 311.283V470.25C310.106 473.309 308.889 476.242 306.726 478.405C304.562 480.568 301.629 481.785 298.57 481.788Z" fill="#0C2E4E"/>
<path d="M114.046 125.549C102.691 125.549 93.4866 115.597 93.4866 103.32V92.205C93.4866 79.928 102.691 69.9755 114.046 69.9755V125.549H114.046Z" fill="#635BFF"/>
<path d="M245.27 69.9756C256.624 69.9756 265.829 79.928 265.829 92.205V103.32C265.829 115.597 256.624 125.549 245.27 125.549V69.9756Z" fill="#635BFF"/>
<path d="M256.043 93.9516H252.781C252.781 49.2216 219.125 12.8309 177.755 12.8309C136.386 12.8309 102.729 49.2216 102.729 93.9516H99.467C99.467 47.2767 134.587 9.30396 177.755 9.30396C220.923 9.30398 256.043 47.2767 256.043 93.9516Z" fill="#635BFF"/>
</svg>
