<svg width="1168" height="1183" viewBox="0 0 1168 1183" fill="none" xmlns="http://www.w3.org/2000/svg">
<path d="M1009.94 578.695H979.352V1181.76H1009.94V578.695Z" fill="#0C2E4E"/>
<path d="M994.915 578.695H964.326V1181.76H994.915V578.695Z" fill="#0A2540"/>
<path d="M1108.52 578.695H1078.07V1181.76H1108.52V578.695Z" fill="#0C2E4E"/>
<path d="M1093.49 578.695H1063.05V1181.76H1093.49V578.695Z" fill="#0A2540"/>
<path d="M362.192 578.695H331.603V1181.76H362.192V578.695Z" fill="#0C2E4E"/>
<path d="M347.202 578.695H316.613V1181.76H347.202V578.695Z" fill="#0A2540"/>
<path d="M460.843 578.695H430.361V1181.76H460.843V578.695Z" fill="#0C2E4E"/>
<path d="M445.782 578.695H415.336V1181.76H445.782V578.695Z" fill="#0A2540"/>
<path d="M1167.62 553.665H204.692V613.408H1167.62V553.665Z" fill="#0A2540"/>
<path fill-rule="evenodd" clip-rule="evenodd" d="M634.695 338.717L931.011 317.846L935.744 328.245L896.872 540.253H883.245L590.3 558.255L634.695 338.717Z" fill="#0C2E4E"/>
<path d="M624.297 317.846H929.972L885.577 537.527H579.937L624.297 317.846Z" fill="#0A2540"/>
<path d="M886.508 537.133H802.63V553.665H886.508V537.133Z" fill="#0C2E4E"/>
<path d="M802.595 537.133H520.05V553.665H802.595V537.133Z" fill="#0C2E4E"/>
<path fill-rule="evenodd" clip-rule="evenodd" d="M634.696 330.576L595.428 524.653H875.105L914.336 330.576H634.696Z" fill="#3F2759"/>
<path fill-rule="evenodd" clip-rule="evenodd" d="M686.156 553.664C695.623 554.848 715.561 551.836 729.762 542.619C743.819 533.439 754.972 524.689 754.972 524.689C754.972 524.689 785.597 528.67 787.569 521.677C788.43 512.317 747.908 501.272 742.242 500.591C736.468 499.945 688.917 506.615 684.076 511.492C679.199 516.369 686.156 553.664 686.156 553.664ZM527.796 527.02C537.263 528.203 557.201 525.191 571.259 515.975C585.316 506.795 598.692 493.383 598.692 493.383C598.692 493.383 629.281 496.288 628.635 493.383C627.847 490.622 589.512 474.592 583.738 473.946C578.108 473.301 530.449 480.007 525.572 484.848C520.695 489.725 527.796 527.02 527.796 527.02Z" fill="#DDECFF"/>
<path fill-rule="evenodd" clip-rule="evenodd" d="M583.344 489.976C586.357 493.777 605.542 508.086 601.848 513.608C598.155 519.274 589.369 521.605 579.794 514.648C570.219 507.691 564.159 499.551 566.813 496.79C569.43 494.064 583.344 489.976 583.344 489.976Z" fill="#DDECFF"/>
<path fill-rule="evenodd" clip-rule="evenodd" d="M175.143 300.776C145.988 312.61 152.945 368.803 166.213 409.111C179.338 449.418 315.501 544.592 355.808 555.099C396.115 565.463 552.503 516.62 552.503 516.62C563.153 494.961 553.937 471.974 534.644 476.959C534.644 476.959 382.201 500.842 359.358 474.448C340.962 453.362 205.983 288.296 175.143 300.776Z" fill="#1567D3"/>
<path fill-rule="evenodd" clip-rule="evenodd" d="M298.54 227.764C250.881 323.727 152.946 291.703 129.816 199.936C106.722 108.277 100.661 29.1325 181.025 15.2186C268.345 0.121309 346.342 131.801 298.54 227.764Z" fill="#DDECFF"/>
<path fill-rule="evenodd" clip-rule="evenodd" d="M149.396 229.88C158.468 258.389 155.707 334.772 155.707 334.772C155.707 334.772 284.626 372.318 280.717 354.997C264.974 284.746 256.941 223.317 242.525 210.443C230.548 199.936 201.142 235.259 149.396 229.88Z" fill="#DDECFF"/>
<path d="M412.146 1094.87C412.146 1094.87 439.83 1128.37 475.691 1143.32C511.551 1158.27 527.688 1164.73 521.915 1173.91C516.141 1183.09 470.168 1178.75 435.527 1179.93C400.993 1181.12 377.612 1183.73 376.429 1172.72C375.245 1161.82 380.768 1101.29 380.768 1101.29L412.146 1094.87Z" fill="#0A2540"/>
<path fill-rule="evenodd" clip-rule="evenodd" d="M361.726 834.381C363.052 871.927 375.783 1153.5 375.783 1153.5C384.676 1163.8 443.559 1142.67 447.683 1128.4C447.683 1128.4 472.929 814.944 463.103 813.51C453.349 812.183 361.726 834.381 361.726 834.381Z" fill="#0C2E4E"/>
<path d="M714.63 1096.2C714.63 1096.2 742.314 1129.69 778.031 1144.79C813.891 1159.78 830.029 1166.05 824.255 1175.38C818.482 1184.56 772.508 1180.11 737.975 1181.3C703.298 1182.48 679.952 1185.1 678.769 1174.2C677.586 1163.19 683.108 1102.65 683.108 1102.65L714.63 1096.2Z" fill="#0A2540"/>
<path fill-rule="evenodd" clip-rule="evenodd" d="M170.661 721.062C166.465 750.324 121.962 796.153 176.183 841.983C230.404 887.813 579.542 849.084 583.989 855.252C588.436 861.312 674.86 1158.38 674.86 1158.38C674.86 1158.38 749.629 1156.01 745.684 1125.42C716.816 1045.74 721.586 791.312 663.169 763.485C604.896 735.657 170.661 721.062 170.661 721.062Z" fill="#0C2E4E"/>
<path fill-rule="evenodd" clip-rule="evenodd" d="M313.78 308.414C263.755 295.146 114.288 284.459 94.2419 327.205C47.7308 426.467 84.7388 807.916 149.503 814.191C191.137 818.279 397.694 811.932 404.651 736.984C413.687 638.367 322.458 495.75 313.78 308.414Z" fill="#1A73E8"/>
<path d="M140.932 619.648H90.2607V871.209H140.932V619.648Z" fill="white"/>
<path d="M130.138 617.64H79.4675V869.201H130.138V617.64Z" fill="#0A2540"/>
<path fill-rule="evenodd" clip-rule="evenodd" d="M313.779 308.414C284.625 320.248 291.474 376.549 304.706 416.857C317.975 457.02 454.137 552.23 494.445 562.737C534.752 573.101 695.981 552.768 695.981 552.768C706.488 531.108 697.415 508.122 677.979 513.106C677.979 513.106 520.694 508.516 497.851 482.123C479.634 460.965 344.512 295.935 313.779 308.414Z" fill="#1567D3"/>
<path d="M263.108 106.735C253.785 94.9366 279.246 144.281 271.5 165.044C271.643 142.846 217.817 116.058 238.544 176.34C241.054 183.691 244.174 215.105 244.174 215.105C243.636 228.051 177.438 267.175 155.563 252.077C135.732 240.53 104.354 194.055 84.2719 141.914C64.0466 89.7727 99.5126 64.3117 99.5126 64.3117C99.5126 64.3117 94.6715 51.0433 110.665 26.1202C123.145 6.43281 309.046 -32.5835 299.076 53.3025C296.997 71.0176 278.349 86.3659 263.108 106.735Z" fill="#0A2540"/>
<path fill-rule="evenodd" clip-rule="evenodd" d="M44.539 414.633H237.397C251.347 414.633 262.858 430.125 262.858 449.023V592.932C262.858 611.83 251.347 627.322 237.397 627.322H44.539C30.4817 627.322 18.9705 611.83 18.9705 592.932V449.023C18.9705 430.125 30.4817 414.633 44.539 414.633Z" fill="white"/>
<path d="M25.5686 415.064H218.426C232.376 415.064 243.887 430.555 243.887 449.454V593.362C243.887 612.261 232.376 627.752 218.426 627.752H25.5686C11.5112 627.752 0 612.261 0 593.362V449.454C0.0358605 430.555 11.5471 415.064 25.5686 415.064Z" fill="#0A2540"/>
<path d="M308.329 882.183H262.894V1138.62H308.329V882.183Z" fill="#0A2540"/>
<path d="M453.565 1133.06H123.612V1151.07H453.565V1133.06Z" fill="#0A2540"/>
<path d="M446.606 1179.68C459.982 1179.68 470.776 1168.92 470.776 1155.66C470.776 1142.24 460.018 1131.49 446.606 1131.49C433.338 1131.49 422.58 1142.24 422.58 1155.66C422.58 1168.92 433.338 1179.68 446.606 1179.68ZM282.688 1179.14C296.064 1179.14 306.858 1168.39 306.858 1155.12C306.858 1141.74 296.1 1130.95 282.688 1130.95C269.42 1130.95 258.661 1141.71 258.661 1155.12C258.661 1168.39 269.42 1179.14 282.688 1179.14ZM124.651 1179.68C137.919 1179.68 148.821 1168.92 148.821 1155.66C148.821 1142.24 137.919 1131.49 124.651 1131.49C111.382 1131.49 100.481 1142.24 100.481 1155.66C100.481 1168.92 111.382 1179.68 124.651 1179.68ZM72.5811 841.983H498.533C514.67 841.983 527.795 855.108 527.795 871.138C527.795 887.311 514.67 900.4 498.533 900.4H72.5811C56.5515 900.4 43.4265 887.275 43.4265 871.138C43.4624 855.144 56.5873 841.983 72.5811 841.983Z" fill="#0A2540"/>
<path fill-rule="evenodd" clip-rule="evenodd" d="M145.235 300.991C145.881 292.6 151.833 268.932 151.833 268.932C151.833 268.932 248.478 262.369 271.428 273.128C275.05 274.813 297.355 307.733 297.355 307.733C236.428 296.688 184.323 296.186 145.235 300.991Z" fill="#ACD0FF"/>
<path fill-rule="evenodd" clip-rule="evenodd" d="M634.696 330.576H914.337L912.58 339.29L632.832 339.828L634.696 330.576Z" fill="#184C80"/>
<path fill-rule="evenodd" clip-rule="evenodd" d="M873.67 360.807C873.67 362.133 872.594 363.173 871.303 363.173H650.187C648.86 363.173 647.82 362.098 647.82 360.807C647.82 359.48 648.896 358.44 650.187 358.44H871.303C872.594 358.44 873.67 359.516 873.67 360.807ZM830.243 374.326C830.243 375.653 829.382 376.693 828.306 376.693H647.031C645.955 376.693 645.095 375.617 645.095 374.326C645.095 372.999 645.955 371.959 647.031 371.959H828.306C829.346 371.959 830.243 373.035 830.243 374.326ZM827.517 391.001C827.517 392.328 826.656 393.368 825.581 393.368H644.306C643.23 393.368 642.369 392.292 642.369 391.001C642.369 389.674 643.23 388.634 644.306 388.634H825.581C826.656 388.634 827.517 389.71 827.517 391.001ZM864.633 405.632C864.633 406.959 863.557 407.999 862.266 407.999H640.899C639.572 407.999 638.532 406.923 638.532 405.632C638.532 404.305 639.608 403.265 640.899 403.265H862.266C863.593 403.265 864.633 404.341 864.633 405.632ZM856.457 440.417C856.457 441.744 855.381 442.784 854.09 442.784H632.723C631.396 442.784 630.356 441.708 630.356 440.417C630.356 439.09 631.432 438.05 632.723 438.05H854.09C855.381 438.05 856.457 439.126 856.457 440.417ZM776.308 422.128C776.308 423.455 775.627 424.495 774.838 424.495H637.026C636.201 424.495 635.556 423.419 635.556 422.128C635.556 420.801 636.201 419.761 637.026 419.761H774.838C775.663 419.761 776.308 420.837 776.308 422.128ZM730.263 455.586C730.263 456.913 729.797 457.953 729.188 457.953H629.71C629.137 457.953 628.635 456.877 628.635 455.586C628.635 454.259 629.101 453.219 629.71 453.219H729.188C729.797 453.219 730.263 454.295 730.263 455.586ZM806.18 473.911C806.18 475.238 805.319 476.278 804.28 476.278H626.196C625.156 476.278 624.296 475.202 624.296 473.911C624.296 472.584 625.156 471.544 626.196 471.544H804.28C805.355 471.544 806.18 472.62 806.18 473.911Z" fill="#184C80"/>
</svg>
