<svg width="1091" height="977" viewBox="0 0 1091 977" fill="none" xmlns="http://www.w3.org/2000/svg">
<path d="M496.5 88H594.5L1091 976.5H-0.000488281L496.5 88Z" fill="url(#paint0_linear_33_285)"/>
<path d="M544 0H546V44H544V0Z" fill="#0A2540"/>
<path d="M527.988 42H562.988L594.488 88H496.488L527.988 42Z" fill="#0A2540"/>
<path d="M595 88.5C595 92.6421 572.343 96 545.005 96C517.667 96 496 92.6421 496 88.5C496 84.3579 517.667 81 545.005 81C572.343 81 595 84.3579 595 88.5Z" fill="#C6E0FF"/>
<path d="M538 87.1098C538 83.0123 541.182 82.3759 541.182 78.5571C541.182 76.5856 543.169 76.4196 544.682 76.4196C545.988 76.4196 548.873 76.9153 548.873 78.5584C548.873 82.3759 552 83.0123 552 87.1098C552 90.9477 548.637 94.0589 544.947 94.0589C541.256 94.0589 538 90.9477 538 87.1098Z" fill="#1A73E8"/>
<path d="M542.613 73.5473C542.613 73.0348 543.996 72 545.192 72C546.388 72 547.771 73.0348 547.771 73.5473C547.771 74.0597 546.388 73.8567 545.192 73.8567C543.996 73.8567 542.613 74.0597 542.613 73.5473Z" fill="#154574"/>
<path d="M542.279 87.2913C542.521 87.5333 542.912 87.5333 543.154 87.2913L545.192 85.2533L547.23 87.2913C547.472 87.5333 547.863 87.5333 548.105 87.2913C548.347 87.0493 548.347 86.6582 548.105 86.4162L545.811 84.1219V77.5702C545.811 77.2279 545.534 76.9513 545.192 76.9513C544.85 76.9513 544.573 77.2279 544.573 77.5702V84.1219L542.279 86.4162C542.037 86.6582 542.037 87.0493 542.279 87.2913Z" fill="#C6E0FF"/>
<path d="M541.479 74.4756C541.479 73.7923 542.033 73.2378 542.717 73.2378H547.668C548.351 73.2378 548.906 73.7923 548.906 74.4756V78.189H541.479V74.4756Z" fill="#0A2540"/>
<path d="M548.906 73.8567C549.203 73.8567 549.466 74.0714 549.516 74.3741C549.572 74.7108 549.344 75.0301 549.008 75.0858L541.58 76.3236C541.244 76.3843 540.925 76.1522 540.869 75.8149C540.812 75.4782 541.04 75.1589 541.377 75.1032L548.804 73.8654C548.838 73.8592 548.873 73.8567 548.906 73.8567Z" fill="#154574"/>
<path d="M548.906 76.3324C549.203 76.3324 549.466 76.5472 549.516 76.8498C549.572 77.1865 549.344 77.5058 549.008 77.5615L541.58 78.7993C541.244 78.8594 540.925 78.6279 540.869 78.2906C540.812 77.9539 541.04 77.6346 541.377 77.5789L548.804 76.3411C548.838 76.3349 548.873 76.3324 548.906 76.3324Z" fill="#154574"/>
<rect x="534" y="65" width="22" height="16" fill="#0A2540"/>
<defs>
<linearGradient id="paint0_linear_33_285" x1="543.999" y1="87.5" x2="545" y2="976" gradientUnits="userSpaceOnUse">
<stop stop-color="#DEEBFC" stop-opacity="0.7"/>
<stop offset="0.09375" stop-color="#DEEBFC" stop-opacity="0.634375"/>
<stop offset="0.197917" stop-color="#DEEBFC" stop-opacity="0.561458"/>
<stop offset="0.3125" stop-color="#DEEBFC" stop-opacity="0.48125"/>
<stop offset="0.442708" stop-color="#DEEBFC" stop-opacity="0.390104"/>
<stop offset="0.5625" stop-color="#DEEBFC" stop-opacity="0.30625"/>
<stop offset="0.692708" stop-color="#DEEBFC" stop-opacity="0.215104"/>
<stop offset="0.854167" stop-color="#DEEBFC" stop-opacity="0.102083"/>
<stop offset="1" stop-color="#DEEBFC" stop-opacity="0"/>
</linearGradient>
</defs>
</svg>
