<svg width="1000" height="1000" viewBox="0 0 1000 1000" fill="none" xmlns="http://www.w3.org/2000/svg">
<path d="M1000 0H0V1000H1000V0Z" fill="#1A73E8" fill-opacity="0.2"/>
<path d="M789.493 666.303H169.161C164.19 666.303 160.161 662.274 160.161 657.303C160.161 652.332 164.19 648.303 169.161 648.303H789.493C794.464 648.303 798.493 652.332 798.493 657.303C798.493 662.273 794.463 666.303 789.493 666.303Z" fill="#848484" fill-opacity="0.3"/>
<path d="M285.891 573.289C276.328 573.289 268.549 565.508 268.549 555.945C268.549 546.382 276.329 538.604 285.891 538.604H383.925V573.289H285.891Z" fill="#CECECE"/>
<path d="M389.603 579.289H285.891C272.999 579.289 262.549 568.839 262.549 555.948C262.549 543.056 273 532.605 285.891 532.605H389.603V579.289Z" fill="white"/>
<path d="M279.549 550.567H383.925" stroke="#1F3969" stroke-width="4" stroke-miterlimit="10" stroke-linecap="round" stroke-linejoin="round"/>
<path d="M279.549 561.158H383.925" stroke="#1F3969" stroke-width="4" stroke-miterlimit="10" stroke-linecap="round" stroke-linejoin="round"/>
<path d="M285.891 573.289C276.328 573.289 268.549 565.508 268.549 555.945C268.549 546.382 276.329 538.604 285.891 538.604H383.925V573.289H285.891Z" stroke="#1F3969" stroke-width="4" stroke-miterlimit="10" stroke-linecap="round" stroke-linejoin="round"/>
<path d="M285.891 573.289C276.328 573.289 268.549 565.508 268.549 555.945C268.549 546.382 276.329 538.604 285.891 538.604H385.603L389.603 532.604H285.891C272.999 532.604 262.549 543.054 262.549 555.945C262.549 568.837 273 579.288 285.891 579.288H389.603L385.603 573.288H285.891V573.289Z" fill="#FF3E3E"/>
<path d="M285.891 573.289C276.328 573.289 268.549 565.508 268.549 555.945C268.549 546.382 276.329 538.604 285.891 538.604H385.603L389.603 532.604H285.891C272.999 532.604 262.549 543.054 262.549 555.945C262.549 568.837 273 579.288 285.891 579.288H389.603L385.603 573.288H285.891V573.289Z" stroke="#1F3969" stroke-width="4" stroke-miterlimit="10" stroke-linecap="round" stroke-linejoin="round"/>
<path opacity="0.28" d="M367.305 532.604H348.914V579.289H367.305V532.604Z" fill="#1F3969" stroke="#1F3969" stroke-width="4" stroke-miterlimit="10" stroke-linecap="round" stroke-linejoin="round"/>
<path d="M378.935 617.846H189.032C185.298 617.846 182.271 614.819 182.271 611.085V586.05C182.271 582.316 185.298 579.289 189.032 579.289H378.935C382.669 579.289 385.697 582.316 385.697 586.05V611.084C385.697 614.819 382.669 617.846 378.935 617.846Z" fill="#50B56F"/>
<path d="M378.935 617.846H189.032C185.298 617.846 182.271 614.819 182.271 611.085V586.05C182.271 582.316 185.298 579.289 189.032 579.289H378.935C382.669 579.289 385.697 582.316 385.697 586.05V611.084C385.697 614.819 382.669 617.846 378.935 617.846Z" stroke="#1F3969" stroke-width="4" stroke-miterlimit="10" stroke-linecap="round" stroke-linejoin="round"/>
<path opacity="0.28" d="M378.935 579.289H348.914V594.285C348.914 603.708 356.553 611.346 365.975 611.346H385.683C385.686 611.258 385.696 611.173 385.696 611.084V586.05C385.696 582.316 382.669 579.289 378.935 579.289Z" fill="#1F3969" stroke="#1F3969" stroke-width="4" stroke-miterlimit="10" stroke-linecap="round" stroke-linejoin="round"/>
<path d="M432.39 625.587H212.442C213.724 628.837 214.473 632.742 214.473 636.945C214.473 641.148 213.724 645.053 212.442 648.303H432.39C431.108 645.053 430.359 641.148 430.359 636.945C430.36 632.742 431.108 628.837 432.39 625.587Z" fill="#CECECE"/>
<path d="M438.355 619.543H206.485V625.587H438.355V619.543Z" fill="#5F5AFF"/>
<path d="M438.355 619.543H206.485V625.587H438.355V619.543Z" stroke="#1F3969" stroke-width="4" stroke-miterlimit="10" stroke-linecap="round" stroke-linejoin="round"/>
<path d="M438.355 648.303H206.485V654.347H438.355V648.303Z" fill="#F6F9FD"/>
<path d="M438.355 648.303H206.485V654.347H438.355V648.303Z" fill="#5F5AFF"/>
<path d="M438.355 648.303H206.485V654.347H438.355V648.303Z" stroke="#1F3969" stroke-width="4" stroke-miterlimit="10" stroke-linecap="round" stroke-linejoin="round"/>
<path d="M553.631 632.998L550.617 599.346H501.21L498.196 632.998C497.496 640.814 492.792 648.303 485.419 654.274L485.41 654.346H566.417L566.408 654.274C559.035 648.303 554.331 640.814 553.631 632.998Z" fill="#BFCFE2"/>
<path opacity="0.28" d="M501.21 599.346L499.401 619.543H552.426L550.618 599.346H501.21Z" fill="#1F3969" stroke="#1F3969" stroke-width="4" stroke-miterlimit="10" stroke-linecap="round" stroke-linejoin="round"/>
<path d="M553.631 632.998L550.617 599.346H501.21L498.196 632.998C497.496 640.814 492.792 648.303 485.419 654.274L485.41 654.346H566.417L566.408 654.274C559.035 648.303 554.331 640.814 553.631 632.998Z" stroke="#1F3969" stroke-width="4" stroke-miterlimit="10" stroke-linecap="round" stroke-linejoin="round"/>
<path d="M683.914 604.346H367.914C361.287 604.346 355.914 598.973 355.914 592.346V386.346C355.914 379.719 361.287 374.346 367.914 374.346H683.914C690.541 374.346 695.914 379.719 695.914 386.346V592.346C695.914 598.974 690.541 604.346 683.914 604.346Z" fill="white"/>
<path d="M683.914 604.346H367.914C361.287 604.346 355.914 598.973 355.914 592.346V386.346C355.914 379.719 361.287 374.346 367.914 374.346H683.914C690.541 374.346 695.914 379.719 695.914 386.346V592.346C695.914 598.974 690.541 604.346 683.914 604.346Z" fill="#BFCFE2"/>
<path d="M683.914 604.346H367.914C361.287 604.346 355.914 598.973 355.914 592.346V386.346C355.914 379.719 361.287 374.346 367.914 374.346H683.914C690.541 374.346 695.914 379.719 695.914 386.346V592.346C695.914 598.974 690.541 604.346 683.914 604.346Z" stroke="#1F3969" stroke-width="4" stroke-miterlimit="10" stroke-linecap="round" stroke-linejoin="round"/>
<path d="M678.914 565.937V391.346H372.914V565.937H678.914Z" fill="#F6F9FD"/>
<path opacity="0.28" d="M383.928 374.346V512.939C383.928 517.357 387.51 520.939 391.928 520.939H581.001C585.419 520.939 589.001 517.357 589.001 512.939V374.346H383.928Z" fill="#1F3969" stroke="#1F3969" stroke-width="4" stroke-miterlimit="10" stroke-linecap="round" stroke-linejoin="round"/>
<path d="M678.914 565.937V391.346H372.914V565.937H678.914Z" stroke="#1F3969" stroke-width="4" stroke-miterlimit="10" stroke-linecap="round" stroke-linejoin="round"/>
<path d="M512.468 585.048H539.36" stroke="#1F3969" stroke-width="4" stroke-miterlimit="10" stroke-linecap="round" stroke-linejoin="round"/>
<path d="M590.001 509.939H400.928C396.51 509.939 392.928 506.357 392.928 501.939V353.654C392.928 349.236 396.51 345.654 400.928 345.654H590C594.418 345.654 598 349.236 598 353.654V501.94C598.001 506.358 594.419 509.939 590.001 509.939Z" fill="#2D425E"/>
<path d="M598.001 365.108H392.928V353.654C392.928 349.236 396.51 345.654 400.928 345.654H590C594.418 345.654 598 349.236 598 353.654V365.108H598.001Z" stroke="#1F3969" stroke-width="4" stroke-miterlimit="10" stroke-linecap="round" stroke-linejoin="round"/>
<path d="M598.001 368.918H392.928V353.654C392.928 349.236 396.51 345.654 400.928 345.654H590C594.418 345.654 598 349.236 598 353.654V368.918H598.001Z" fill="#D0DDF0"/>
<path d="M598.001 368.918H392.928V353.654C392.928 349.236 396.51 345.654 400.928 345.654H590C594.418 345.654 598 349.236 598 353.654V368.918H598.001Z" stroke="#1F3969" stroke-width="4" stroke-miterlimit="10" stroke-linecap="round" stroke-linejoin="round"/>
<path d="M598.001 368.918H392.928V353.654C392.928 349.236 396.51 345.654 400.928 345.654H590C594.418 345.654 598 349.236 598 353.654V368.918H598.001Z" stroke="#1F3969" stroke-width="4" stroke-miterlimit="10" stroke-linecap="round" stroke-linejoin="round"/>
<path d="M590.001 509.939H400.928C396.51 509.939 392.928 506.357 392.928 501.939V353.654C392.928 349.236 396.51 345.654 400.928 345.654H590C594.418 345.654 598 349.236 598 353.654V501.94C598.001 506.358 594.419 509.939 590.001 509.939Z" stroke="#1F3969" stroke-width="4" stroke-miterlimit="10" stroke-linecap="round" stroke-linejoin="round"/>
<path opacity="0.28" d="M688.689 545.345H572.673C568.255 545.345 564.673 541.763 564.673 537.345V414.4C564.673 409.982 568.255 406.4 572.673 406.4H688.689C693.107 406.4 696.689 409.982 696.689 414.4V537.345C696.689 541.764 693.108 545.345 688.689 545.345Z" fill="#1F3969" stroke="#1F3969" stroke-width="4" stroke-miterlimit="10" stroke-linecap="round" stroke-linejoin="round"/>
<path d="M696.689 538.345H580.673C576.255 538.345 572.673 534.763 572.673 530.345V407.4C572.673 402.982 576.255 399.4 580.673 399.4H696.689C701.107 399.4 704.689 402.982 704.689 407.4V530.345C704.689 534.764 701.108 538.345 696.689 538.345Z" fill="#2AA1FF"/>
<path d="M696.689 538.345H580.673C576.255 538.345 572.673 534.763 572.673 530.345V407.4C572.673 402.982 576.255 399.4 580.673 399.4H696.689C701.107 399.4 704.689 402.982 704.689 407.4V530.345C704.689 534.764 701.108 538.345 696.689 538.345Z" stroke="#1F3969" stroke-width="4" stroke-miterlimit="10" stroke-linecap="round" stroke-linejoin="round"/>
<path opacity="0.34" d="M679.426 437.473H597.857C595.003 437.473 592.69 435.16 592.69 432.306V424.506C592.69 421.652 595.003 419.339 597.857 419.339H679.426C682.28 419.339 684.593 421.652 684.593 424.506V432.306C684.593 435.16 682.279 437.473 679.426 437.473Z" stroke="white" stroke-width="2" stroke-miterlimit="10" stroke-linecap="round" stroke-linejoin="round"/>
<g opacity="0.34">
<path opacity="0.34" d="M643.58 466.78H597.937C595.083 466.78 592.77 464.467 592.77 461.613V453.813C592.77 450.959 595.083 448.646 597.937 448.646H643.58C646.434 448.646 648.747 450.959 648.747 453.813V461.613C648.747 464.467 646.434 466.78 643.58 466.78ZM679.505 466.78H661.851C658.997 466.78 656.684 464.467 656.684 461.613V453.813C656.684 450.959 658.997 448.646 661.851 448.646H679.505C682.359 448.646 684.672 450.959 684.672 453.813V461.613C684.672 464.467 682.358 466.78 679.505 466.78Z" stroke="white" stroke-width="2" stroke-miterlimit="10" stroke-linecap="round" stroke-linejoin="round"/>
</g>
<path d="M592.69 497.23H684.593" stroke="white" stroke-width="2" stroke-miterlimit="10" stroke-linecap="round" stroke-linejoin="round"/>
<path d="M592.69 508.021H684.593" stroke="white" stroke-width="2" stroke-miterlimit="10" stroke-linecap="round" stroke-linejoin="round"/>
<path d="M592.69 518.811H648.667" stroke="white" stroke-width="2" stroke-miterlimit="10" stroke-linecap="round" stroke-linejoin="round"/>
<path d="M413 361.286C415.209 361.286 417 359.495 417 357.286C417 355.077 415.209 353.286 413 353.286C410.791 353.286 409 355.077 409 357.286C409 359.495 410.791 361.286 413 361.286Z" fill="#1F3969"/>
<path d="M426.886 361.286C429.095 361.286 430.886 359.495 430.886 357.286C430.886 355.077 429.095 353.286 426.886 353.286C424.677 353.286 422.886 355.077 422.886 357.286C422.886 359.495 424.677 361.286 426.886 361.286Z" fill="#1F3969"/>
<path d="M440.772 361.286C442.982 361.286 444.772 359.495 444.772 357.286C444.772 355.077 442.982 353.286 440.772 353.286C438.563 353.286 436.772 355.077 436.772 357.286C436.772 359.495 438.563 361.286 440.772 361.286Z" fill="#1F3969"/>
<path d="M510.741 387.379H523.669" stroke="white" stroke-width="4" stroke-miterlimit="10" stroke-linecap="round" stroke-linejoin="round"/>
<path d="M444.772 387.379H501.148" stroke="#7BFFA0" stroke-width="4" stroke-miterlimit="10" stroke-linecap="round" stroke-linejoin="round"/>
<path d="M417 387.379H436.772" stroke="#9169FF" stroke-width="4" stroke-miterlimit="10" stroke-linecap="round" stroke-linejoin="round"/>
<path d="M442.772 485.938H485.83" stroke="#9169FF" stroke-width="4" stroke-miterlimit="10" stroke-linecap="round" stroke-linejoin="round"/>
<path d="M417 485.938H430.885" stroke="#7BFFA0" stroke-width="4" stroke-miterlimit="10" stroke-linecap="round" stroke-linejoin="round"/>
<path d="M501.148 399.699H509.163" stroke="white" stroke-width="4" stroke-miterlimit="10" stroke-linecap="round" stroke-linejoin="round"/>
<path d="M464.278 399.699H491.505" stroke="#9169FF" stroke-width="4" stroke-miterlimit="10" stroke-linecap="round" stroke-linejoin="round"/>
<path d="M426.886 399.699H454.63" stroke="#FFC47D" stroke-width="4" stroke-miterlimit="10" stroke-linecap="round" stroke-linejoin="round"/>
<path d="M469.829 412.019H493.667" stroke="white" stroke-width="4" stroke-miterlimit="10" stroke-linecap="round" stroke-linejoin="round"/>
<path d="M439.769 412.019H462.251" stroke="#FF5757" stroke-width="4" stroke-miterlimit="10" stroke-linecap="round" stroke-linejoin="round"/>
<path d="M473.009 424.339H477.947" stroke="white" stroke-width="4" stroke-miterlimit="10" stroke-linecap="round" stroke-linejoin="round"/>
<path d="M453.188 424.339H464.278" stroke="#9169FF" stroke-width="4" stroke-miterlimit="10" stroke-linecap="round" stroke-linejoin="round"/>
<path d="M426.886 424.339H444.772" stroke="#7BFFA0" stroke-width="4" stroke-miterlimit="10" stroke-linecap="round" stroke-linejoin="round"/>
<path d="M465.288 436.659H497.182" stroke="#FFC47D" stroke-width="4" stroke-miterlimit="10" stroke-linecap="round" stroke-linejoin="round"/>
<path d="M426.886 436.659H455.513" stroke="#FF5757" stroke-width="4" stroke-miterlimit="10" stroke-linecap="round" stroke-linejoin="round"/>
<path d="M502.182 448.979H519.525" stroke="#9169FF" stroke-width="4" stroke-miterlimit="10" stroke-linecap="round" stroke-linejoin="round"/>
<path d="M465.287 448.979H493.036" stroke="#FF5757" stroke-width="4" stroke-miterlimit="10" stroke-linecap="round" stroke-linejoin="round"/>
<path d="M439.769 448.979H455.513" stroke="#7BFFA0" stroke-width="4" stroke-miterlimit="10" stroke-linecap="round" stroke-linejoin="round"/>
<path d="M477.893 461.299H493.037" stroke="white" stroke-width="4" stroke-miterlimit="10" stroke-linecap="round" stroke-linejoin="round"/>
<path d="M439.769 461.299H467.513" stroke="#9169FF" stroke-width="4" stroke-miterlimit="10" stroke-linecap="round" stroke-linejoin="round"/>
<path d="M517.205 473.618H534.497" stroke="white" stroke-width="4" stroke-miterlimit="10" stroke-linecap="round" stroke-linejoin="round"/>
<path d="M464.278 473.618H507.847" stroke="#FFC47D" stroke-width="4" stroke-miterlimit="10" stroke-linecap="round" stroke-linejoin="round"/>
<path d="M426.886 473.618H454.63" stroke="white" stroke-width="4" stroke-miterlimit="10" stroke-linecap="round" stroke-linejoin="round"/>
<path d="M214.895 632.523H430.36" stroke="#1F3969" stroke-width="4" stroke-miterlimit="10" stroke-linecap="round" stroke-linejoin="round"/>
<path d="M214.895 640.539H430.36" stroke="#1F3969" stroke-width="4" stroke-miterlimit="10" stroke-linecap="round" stroke-linejoin="round"/>
<path d="M432.39 625.587H212.442C213.724 628.837 214.473 632.742 214.473 636.945C214.473 641.148 213.724 645.053 212.442 648.303H432.39C431.108 645.053 430.359 641.148 430.359 636.945C430.36 632.742 431.108 628.837 432.39 625.587Z" stroke="#1F3969" stroke-width="4" stroke-miterlimit="10" stroke-linecap="round" stroke-linejoin="round"/>
<path d="M728.335 544.119L718.588 545.262L727.046 617.418L736.794 616.275L728.335 544.119Z" fill="#FFA364"/>
<path d="M728.329 544.118L718.582 545.261L719.442 552.6L729.19 551.458L728.329 544.118Z" fill="#2AA1FF"/>
<path d="M728.329 544.118L718.582 545.261L719.442 552.6L729.19 551.458L728.329 544.118Z" stroke="#1F3969" stroke-width="4" stroke-miterlimit="10" stroke-linecap="round" stroke-linejoin="round"/>
<path d="M728.335 544.119L718.588 545.262L727.046 617.418L736.794 616.275L728.335 544.119Z" stroke="#1F3969" stroke-width="4" stroke-miterlimit="10" stroke-linecap="round" stroke-linejoin="round"/>
<path d="M755.126 558.834L745.369 557.773L737.515 629.998L747.272 631.059L755.126 558.834Z" fill="#FF5252"/>
<path d="M755.126 558.834L745.369 557.773L737.515 629.998L747.272 631.059L755.126 558.834Z" stroke="#1F3969" stroke-width="4" stroke-miterlimit="10" stroke-linecap="round" stroke-linejoin="round"/>
<path d="M755.125 558.834L745.368 557.773L744.569 565.12L754.326 566.181L755.125 558.834Z" fill="#2D425E"/>
<path d="M755.125 558.834L745.368 557.773L744.569 565.12L754.326 566.181L755.125 558.834Z" stroke="#1F3969" stroke-width="4" stroke-miterlimit="10" stroke-linecap="round" stroke-linejoin="round"/>
<path d="M761.07 654.573H721.809L715.424 594.39H767.455L761.07 654.573Z" fill="#6567C3"/>
<path d="M715.424 594.39L715.541 595.495H755.182L748.915 654.573H761.07L767.455 594.39H715.424Z" fill="#6567C3"/>
<path d="M761.07 654.573H721.809L715.424 594.39H767.455L761.07 654.573Z" stroke="#1F3969" stroke-width="4" stroke-miterlimit="10" stroke-linecap="round" stroke-linejoin="round"/>
<path d="M240.028 605.228C238.47 605.228 237.324 604.563 236.589 603.233L237.729 602.435C238.008 602.929 238.324 603.29 238.679 603.518C239.034 603.733 239.433 603.841 239.876 603.841C240.547 603.841 241.048 603.638 241.377 603.233C241.706 602.815 241.871 602.131 241.871 601.181V592.536H243.467V601.333C243.467 602.042 243.347 602.695 243.106 603.29C242.878 603.885 242.511 604.36 242.004 604.715C241.497 605.057 240.839 605.228 240.028 605.228ZM248.986 598.027L248.397 599.927H252.14L251.551 598.027C251.323 597.33 251.108 596.64 250.905 595.956C250.702 595.259 250.5 594.55 250.297 593.828H250.221C250.031 594.55 249.835 595.259 249.632 595.956C249.429 596.64 249.214 597.33 248.986 598.027ZM245.186 605L249.404 592.536H251.19L255.408 605H253.717L252.539 601.2H247.998L246.801 605H245.186ZM259.194 605L255.204 592.536H256.895L258.89 599.262C259.118 599.997 259.314 600.687 259.479 601.333C259.656 601.966 259.865 602.65 260.106 603.385H260.182C260.41 602.65 260.613 601.966 260.79 601.333C260.967 600.687 261.164 599.997 261.379 599.262L263.374 592.536H264.989L261.037 605H259.194ZM268.58 598.027L267.991 599.927H271.734L271.145 598.027C270.917 597.33 270.701 596.64 270.499 595.956C270.296 595.259 270.093 594.55 269.891 593.828H269.815C269.625 594.55 269.428 595.259 269.226 595.956C269.023 596.64 268.808 597.33 268.58 598.027ZM264.78 605L268.998 592.536H270.784L275.002 605H273.311L272.133 601.2H267.592L266.395 605H264.78ZM280.226 605.228C279.352 605.228 278.541 605.063 277.794 604.734C277.046 604.392 276.4 603.942 275.856 603.385L276.806 602.283C277.249 602.752 277.768 603.132 278.364 603.423C278.972 603.702 279.599 603.841 280.245 603.841C281.068 603.841 281.708 603.657 282.164 603.29C282.62 602.91 282.848 602.416 282.848 601.808C282.848 601.377 282.753 601.035 282.563 600.782C282.385 600.529 282.138 600.313 281.822 600.136C281.518 599.959 281.169 599.781 280.777 599.604L278.991 598.825C278.598 598.66 278.205 598.445 277.813 598.179C277.433 597.913 277.11 597.571 276.844 597.153C276.59 596.735 276.464 596.222 276.464 595.614C276.464 594.981 276.628 594.417 276.958 593.923C277.3 593.416 277.768 593.024 278.364 592.745C278.959 592.454 279.63 592.308 280.378 592.308C281.125 592.308 281.815 592.454 282.449 592.745C283.082 593.024 283.62 593.391 284.064 593.847L283.209 594.873C282.829 594.506 282.404 594.221 281.936 594.018C281.48 593.803 280.96 593.695 280.378 593.695C279.681 593.695 279.117 593.86 278.687 594.189C278.269 594.518 278.06 594.962 278.06 595.519C278.06 595.912 278.161 596.241 278.364 596.507C278.579 596.76 278.845 596.969 279.162 597.134C279.478 597.299 279.801 597.451 280.131 597.59L281.898 598.35C282.379 598.553 282.81 598.8 283.19 599.091C283.582 599.37 283.893 599.718 284.121 600.136C284.349 600.541 284.463 601.054 284.463 601.675C284.463 602.334 284.292 602.935 283.95 603.48C283.608 604.012 283.12 604.436 282.487 604.753C281.853 605.07 281.1 605.228 280.226 605.228ZM291.629 605.228C290.59 605.228 289.659 604.975 288.836 604.468C288.025 603.949 287.379 603.208 286.898 602.245C286.429 601.282 286.195 600.123 286.195 598.768C286.195 597.425 286.436 596.273 286.917 595.31C287.398 594.347 288.057 593.606 288.893 593.087C289.729 592.568 290.673 592.308 291.724 592.308C292.484 592.308 293.155 592.466 293.738 592.783C294.321 593.087 294.789 593.442 295.144 593.847L294.289 594.873C293.96 594.518 293.586 594.233 293.168 594.018C292.75 593.803 292.275 593.695 291.743 593.695C290.958 593.695 290.267 593.904 289.672 594.322C289.089 594.727 288.633 595.304 288.304 596.051C287.987 596.798 287.829 597.691 287.829 598.73C287.829 599.769 287.987 600.674 288.304 601.447C288.621 602.207 289.064 602.796 289.634 603.214C290.217 603.632 290.901 603.841 291.686 603.841C292.281 603.841 292.813 603.714 293.282 603.461C293.751 603.208 294.181 602.866 294.574 602.435L295.448 603.423C294.954 603.993 294.397 604.436 293.776 604.753C293.155 605.07 292.44 605.228 291.629 605.228ZM297.772 605V592.536H301.667C302.515 592.536 303.269 592.65 303.928 592.878C304.586 593.093 305.099 593.461 305.467 593.98C305.847 594.487 306.037 595.171 306.037 596.032C306.037 596.995 305.783 597.774 305.277 598.369C304.77 598.952 304.086 599.351 303.225 599.566L306.398 605H304.612L301.61 599.737H299.349V605H297.772ZM299.349 598.445H301.439C302.414 598.445 303.161 598.249 303.681 597.856C304.2 597.451 304.46 596.843 304.46 596.032C304.46 595.209 304.2 594.632 303.681 594.303C303.161 593.974 302.414 593.809 301.439 593.809H299.349V598.445ZM308.589 605V592.536H310.166V605H308.589ZM313.58 605V592.536H317.133C318.07 592.536 318.887 592.65 319.584 592.878C320.281 593.106 320.825 593.492 321.218 594.037C321.611 594.569 321.807 595.291 321.807 596.203C321.807 597.508 321.383 598.477 320.534 599.11C319.685 599.743 318.577 600.06 317.209 600.06H315.157V605H313.58ZM315.157 598.768H317.019C318.108 598.768 318.913 598.565 319.432 598.16C319.964 597.742 320.23 597.09 320.23 596.203C320.23 595.304 319.951 594.683 319.394 594.341C318.849 593.986 318.032 593.809 316.943 593.809H315.157V598.768ZM326.462 605V593.866H322.7V592.536H331.82V593.866H328.058V605H326.462Z" fill="white"/>
</svg>
