<svg width="729" height="426" viewBox="0 0 729 426" fill="none" xmlns="http://www.w3.org/2000/svg">
<path d="M693.7 238.022C712.845 238.022 728.365 222.502 728.365 203.357C728.365 184.212 712.845 168.692 693.7 168.692C674.555 168.692 659.035 184.212 659.035 203.357C659.035 222.502 674.555 238.022 693.7 238.022Z" fill="url(#paint0_radial_1430_197)"/>
<path d="M34.333 217.7C53.2946 217.7 68.666 202.329 68.666 183.367C68.666 164.406 53.2946 149.034 34.333 149.034C15.3714 149.034 0 164.406 0 183.367C0 202.329 15.3714 217.7 34.333 217.7Z" fill="url(#paint1_radial_1430_197)"/>
<path d="M34.333 205.7C46.6672 205.7 56.666 195.701 56.666 183.367C56.666 171.033 46.6672 161.034 34.333 161.034C21.9988 161.034 12 171.033 12 183.367C12 195.701 21.9988 205.7 34.333 205.7Z" fill="url(#paint2_linear_1430_197)"/>
<path d="M34.333 205.7C46.6672 205.7 56.666 195.701 56.666 183.367C56.666 171.033 46.6672 161.034 34.333 161.034C21.9988 161.034 12 171.033 12 183.367C12 195.701 21.9988 205.7 34.333 205.7Z" fill="url(#paint3_linear_1430_197)"/>
<path d="M26.833 185.2C23.708 185.2 21.166 182.658 21.166 179.533C21.166 176.408 23.708 173.866 26.833 173.866C29.958 173.866 32.5 176.408 32.5 179.533C32.5 182.658 29.958 185.2 26.833 185.2ZM26.833 174.867C24.26 174.867 22.166 176.96 22.166 179.534C22.166 182.108 24.259 184.201 26.833 184.201C29.407 184.201 31.5 182.108 31.5 179.534C31.5 176.96 29.407 174.867 26.833 174.867Z" fill="#FDE1A7"/>
<path d="M43.2018 198.591C41.0748 198.591 39.2658 197.679 38.2418 196.089C36.4378 193.289 37.6888 189.26 41.0288 187.107C42.3798 186.237 43.8908 185.777 45.3998 185.777C47.5268 185.777 49.3358 186.689 50.3598 188.28C52.1638 191.08 50.9138 195.109 47.5728 197.261C46.2218 198.132 44.7108 198.591 43.2018 198.591ZM45.3988 186.777C44.0828 186.777 42.7588 187.182 41.5698 187.947C38.6928 189.801 37.5758 193.21 39.0818 195.546C39.9188 196.845 41.4198 197.59 43.2018 197.59C44.5178 197.59 45.8418 197.185 47.0308 196.42C49.9078 194.566 51.0248 191.157 49.5188 188.821C48.6818 187.522 47.1808 186.777 45.3988 186.777Z" fill="#DABACC"/>
<path d="M19.5879 200.279L18.9979 199.471C20.2229 198.576 20.9259 197.206 20.9259 195.71C20.9259 193.137 18.8329 191.043 16.2589 191.043C15.3769 191.043 14.5099 191.3 13.7519 191.786L13.2129 190.944C14.1319 190.355 15.1859 190.043 16.2589 190.043C19.3839 190.043 21.9259 192.585 21.9259 195.71C21.9259 197.529 21.0739 199.194 19.5879 200.279ZM46.3709 170.965C43.6139 170.965 41.3709 168.722 41.3709 165.965C41.3709 164.667 41.8719 163.433 42.7829 162.492L43.5019 163.187C42.7729 163.94 42.3719 164.927 42.3719 165.964C42.3719 168.17 44.1659 169.964 46.3719 169.964C47.9209 169.964 49.3019 169.086 49.9739 167.672L50.8769 168.102C50.0489 169.841 48.2809 170.965 46.3709 170.965Z" fill="#FDE1A7"/>
<path d="M693.699 227.357C706.954 227.357 717.699 216.612 717.699 203.357C717.699 190.103 706.954 179.357 693.699 179.357C680.444 179.357 669.699 190.103 669.699 203.357C669.699 216.612 680.444 227.357 693.699 227.357Z" fill="url(#paint4_linear_1430_197)"/>
<path d="M715.904 212.974C715.844 212.974 715.785 212.964 715.726 212.941C711.829 211.456 704.845 206.031 697.934 199.12C691.023 192.209 685.598 185.225 684.115 181.328C684.016 181.07 684.146 180.781 684.404 180.683C684.662 180.584 684.951 180.714 685.049 180.973C686.487 184.748 691.822 191.594 698.642 198.413C705.461 205.232 712.307 210.568 716.082 212.006C716.341 212.104 716.47 212.393 716.371 212.652C716.296 212.852 716.105 212.974 715.904 212.974Z" fill="#0090B2"/>
<path d="M717.684 204.755C717.609 204.755 717.533 204.738 717.46 204.702C713.744 202.848 708.461 198.677 703.327 193.543C698.303 188.519 694.17 183.31 692.271 179.611C692.144 179.365 692.242 179.064 692.487 178.938C692.732 178.813 693.034 178.909 693.159 179.154C695.013 182.766 699.08 187.881 704.034 192.836C709.096 197.898 714.281 201.999 717.906 203.808C718.153 203.931 718.253 204.231 718.13 204.478C718.043 204.653 717.867 204.755 717.684 204.755Z" fill="#8A69E3"/>
<path d="M272.74 425.116C269.962 425.116 267.155 424.898 264.311 424.443C247.436 421.738 235.858 411.894 229.897 395.182C220.553 368.987 228.448 332.152 235.96 323.702C236.143 323.496 236.459 323.478 236.666 323.66C236.873 323.844 236.891 324.16 236.708 324.366C230.326 331.546 221.061 367.429 230.84 394.846C236.669 411.188 247.983 420.813 264.47 423.454C267.249 423.899 269.999 424.112 272.718 424.113C300.647 424.115 325.577 401.656 351.839 378.001C373.735 358.279 396.376 337.885 423.806 326.239C463.142 309.538 498.074 311.645 523.582 313.184C536.961 313.993 548.515 314.689 557.215 312.546C572.063 308.888 584.745 300.778 597.01 292.935C603.68 288.669 610.577 284.259 617.774 280.587C643.529 267.445 664.324 265.287 670.753 275.091C678.496 286.9 664.765 298.044 651.484 308.821C640.727 317.55 629.605 326.577 629.168 336.055C628.517 350.204 648.894 355.166 649.1 355.207C649.371 355.261 649.546 355.524 649.493 355.795C649.438 356.066 649.172 356.243 648.905 356.188C648.69 356.145 627.481 350.966 628.171 336.008C628.628 326.082 639.928 316.912 650.856 308.044C664.386 297.064 677.167 286.691 669.919 275.639C663.789 266.292 643.5 268.585 618.231 281.477C611.078 285.126 604.201 289.524 597.55 293.777C585.217 301.664 572.465 309.819 557.455 313.516C548.61 315.696 536.984 314.995 523.523 314.181C498.119 312.65 463.32 310.548 424.198 327.158C396.922 338.739 374.344 359.076 352.51 378.743C326.1 402.531 301.025 425.115 272.74 425.116Z" fill="#4578BA"/>
<path d="M588.783 300.932C590.004 300.932 590.994 299.942 590.994 298.721C590.994 297.5 590.004 296.51 588.783 296.51C587.562 296.51 586.572 297.5 586.572 298.721C586.572 299.942 587.562 300.932 588.783 300.932Z" fill="#4578BA"/>
<path d="M571.732 301.92C552.211 301.92 526.347 293.173 512.388 265.76C492.388 226.484 524.479 194.042 528.752 191.6C528.988 191.463 529.296 191.545 529.435 191.786C529.572 192.026 529.489 192.331 529.248 192.468C525.06 194.862 493.617 226.695 513.278 265.307C531.78 301.638 571.47 304.694 588.607 298.254C588.864 298.153 589.154 298.288 589.251 298.546C589.349 298.805 589.218 299.093 588.959 299.19C584.48 300.873 578.485 301.92 571.732 301.92ZM677.126 290.075C676.99 290.075 676.855 290.02 676.757 289.912C676.57 289.708 676.585 289.391 676.789 289.206C680.818 285.532 681.772 276.974 680.907 274.623C680.811 274.364 680.944 274.076 681.203 273.981C681.458 273.882 681.749 274.018 681.845 274.277C682.806 276.882 681.855 285.94 677.463 289.944C677.367 290.032 677.246 290.075 677.126 290.075Z" fill="#4578BA"/>
<path d="M723.789 227.383C723.246 225.502 722.452 223.779 721.584 222.114C719.872 218.865 717.829 215.857 715.688 212.939C715.413 213.571 715.117 214.195 714.785 214.806C716.633 217.452 718.35 220.188 719.778 223.036C720.571 224.639 721.278 226.288 721.716 227.947C721.931 228.772 722.072 229.607 722.057 230.367C722.046 231.134 721.84 231.766 721.476 232.107C721.12 232.457 720.495 232.637 719.735 232.628C718.984 232.624 718.161 232.464 717.347 232.231C715.712 231.76 714.089 231.02 712.514 230.195C709.358 228.53 706.358 226.489 703.446 224.342C697.624 220.026 692.192 215.149 687.075 209.983C684.501 207.413 682.007 204.764 679.617 202.027C677.216 199.301 674.893 196.505 672.734 193.598C670.572 190.698 668.539 187.692 666.869 184.539C666.044 182.965 665.304 181.343 664.831 179.708C664.597 178.895 664.437 178.073 664.432 177.321C664.422 176.569 664.599 175.951 664.941 175.593C665.721 174.771 667.51 174.914 669.112 175.337C670.772 175.773 672.423 176.479 674.026 177.271C676.88 178.696 679.615 180.42 682.27 182.261C682.869 181.936 683.48 181.648 684.098 181.378C681.194 179.225 678.185 177.191 674.942 175.476C673.278 174.608 671.556 173.812 669.675 173.269C668.733 173.003 667.746 172.797 666.67 172.791C666.132 172.791 665.566 172.847 664.987 173.019C664.698 173.111 664.407 173.225 664.128 173.388C663.995 173.46 663.844 173.559 663.69 173.68C663.515 173.811 663.495 173.847 663.388 173.935L663.375 173.945L663.345 173.975C662.373 174.941 662.111 176.245 662.098 177.299C662.083 178.385 662.271 179.384 662.518 180.339C663.024 182.245 663.785 183.995 664.621 185.688C666.31 189.064 668.336 192.204 670.487 195.237C674.81 201.291 679.724 206.864 684.954 212.104C690.227 217.301 695.808 222.196 701.835 226.553C704.856 228.72 708.002 230.737 711.375 232.431C713.067 233.267 714.815 234.03 716.721 234.536C717.675 234.784 718.673 234.972 719.759 234.957C720.814 234.944 722.117 234.682 723.083 233.711C724.039 232.73 724.275 231.432 724.269 230.386C724.26 229.312 724.054 228.325 723.789 227.383Z" fill="url(#paint5_linear_1430_197)"/>
<path d="M686.916 363.95L698.582 358.367C698.582 358.367 700.832 363.533 700.832 370.867C700.832 378.367 697.916 383.95 697.916 383.95L686.832 378.367L686.916 363.95Z" fill="url(#paint6_radial_1430_197)"/>
<path d="M576.484 380.476C575.582 376.297 594.332 356.201 608.832 352.701C623.332 349.201 685.479 353.471 686.812 355.638C688.145 357.805 688.341 365.9 688.499 371.367C688.6 374.866 688.665 384.701 686.832 385.201C684.999 385.701 640.857 393.898 627.332 394.034C610.749 394.2 577.734 386.267 576.484 380.476Z" fill="url(#paint7_linear_1430_197)"/>
<path d="M683.667 331.366V356.7H662.417C662.417 356.7 660.537 356.117 660.5 354.533C660.459 352.784 672.5 332.95 675.688 331.7C678.224 330.705 683.667 331.366 683.667 331.366Z" fill="url(#paint8_linear_1430_197)"/>
<path d="M638.665 389.118C638.665 389.118 654.082 383.118 659.832 381.118C665.582 379.118 683.293 373.927 683.293 373.927C683.293 373.927 705.226 382.978 707.082 384.534C708.249 385.513 708.657 387.55 707.832 388.534C706.749 389.825 697.061 395.075 694.928 395.632C692.94 396.151 682.124 396.075 665.415 394.701C653.423 393.715 637.248 392.535 638.665 389.118Z" fill="url(#paint9_linear_1430_197)"/>
<path d="M676.689 395.992C676.529 395.992 676.372 395.915 676.275 395.772C676.121 395.543 676.18 395.233 676.409 395.078C682.042 391.259 696.568 384.362 704.278 382.27C704.549 382.199 704.819 382.356 704.891 382.622C704.963 382.889 704.806 383.163 704.539 383.235C696.912 385.304 682.542 392.128 676.969 395.906C676.884 395.964 676.786 395.992 676.689 395.992Z" fill="#C0EAFB"/>
<path d="M585.695 367.471C579.951 373.071 576.062 378.52 576.485 380.477C577.048 383.089 584.082 386.134 593.146 388.678C594.447 375.686 589.356 370.017 585.695 367.471Z" fill="url(#paint10_linear_1430_197)"/>
<path d="M620.166 362.867C622.611 361.161 623.508 355.101 623.83 351.421C617.335 351.552 611.969 351.944 608.833 352.701C604.029 353.86 598.761 356.847 593.893 360.468C599.598 362.285 616.321 365.55 620.166 362.867Z" fill="url(#paint11_linear_1430_197)"/>
<path d="M631.416 374.201C633.625 374.201 635.416 372.41 635.416 370.201C635.416 367.992 633.625 366.201 631.416 366.201C629.207 366.201 627.416 367.992 627.416 370.201C627.416 372.41 629.207 374.201 631.416 374.201Z" fill="url(#paint12_radial_1430_197)"/>
<path d="M644.834 372.868C646.905 372.868 648.584 371.189 648.584 369.118C648.584 367.047 646.905 365.368 644.834 365.368C642.763 365.368 641.084 367.047 641.084 369.118C641.084 371.189 642.763 372.868 644.834 372.868Z" fill="url(#paint13_radial_1430_197)"/>
<path d="M657.249 371.785C659.136 371.785 660.666 370.255 660.666 368.368C660.666 366.481 659.136 364.951 657.249 364.951C655.362 364.951 653.832 366.481 653.832 368.368C653.832 370.255 655.362 371.785 657.249 371.785Z" fill="url(#paint14_radial_1430_197)"/>
<path d="M678.875 354.992C678.599 354.992 678.375 354.768 678.375 354.492V331.155C678.375 330.879 678.599 330.655 678.875 330.655C679.151 330.655 679.375 330.879 679.375 331.155V354.492C679.375 354.768 679.151 354.992 678.875 354.992Z" fill="#C0EAFB"/>
<path d="M583.25 160.2C586.896 160.167 597.997 159.742 606 151.45C616.375 140.7 612.75 120.2 612.75 120.2C612.75 120.2 616.507 120.05 618 123.325C619.938 127.575 617.375 135.325 619 136.2C621.71 137.659 622.375 131.325 624.5 132.325C626.625 133.325 626.338 138.198 625.875 142.575C625.437 146.708 622.562 150.601 623.562 151.888C624.875 153.576 628 149.325 629 151.325C630 153.325 626.375 157.2 623.187 159.263C620.415 161.057 615.624 162.701 615.749 163.701C615.874 164.701 620.374 164.701 619.624 166.701C618.874 168.701 613.249 167.951 609.874 167.951C606.499 167.951 601.374 167.826 598.624 170.076C595.874 172.326 583.25 160.2 583.25 160.2Z" fill="url(#paint15_linear_1430_197)"/>
<path d="M596.334 140.867C596.177 140.867 596.022 140.794 595.925 140.656C595.766 140.431 595.819 140.119 596.044 139.959C596.108 139.913 602.467 135.341 602.168 130.565C601.975 127.484 600.291 125.916 598.342 124.1C597.076 122.92 595.767 121.701 594.737 119.954C590.662 113.044 595.018 107.751 597.042 106.294C597.264 106.133 597.577 106.183 597.739 106.408C597.901 106.632 597.85 106.944 597.626 107.106C595.81 108.414 591.903 113.182 595.599 119.446C596.556 121.068 597.811 122.237 599.025 123.368C601.044 125.248 602.95 127.024 603.168 130.502C603.502 135.835 596.905 140.575 596.624 140.774C596.534 140.837 596.434 140.867 596.334 140.867ZM588.667 128.033C588.566 128.033 588.465 128.003 588.377 127.941C584.971 125.52 584.024 122.255 583.83 119.943C583.556 116.679 584.647 113.679 585.813 112.513C586.008 112.318 586.325 112.318 586.52 112.513C586.715 112.708 586.715 113.025 586.52 113.22C585.499 114.241 584.586 117.004 584.826 119.859C585.003 121.961 585.863 124.927 588.957 127.126C589.182 127.286 589.234 127.598 589.074 127.823C588.978 127.96 588.823 128.033 588.667 128.033ZM627.501 165.7C627.486 165.7 627.473 165.7 627.458 165.698C627.184 165.675 626.979 165.433 627.002 165.158C627.154 163.332 629.414 162.438 633.516 160.816C634.766 160.322 636.198 159.755 637.805 159.073C640.071 158.11 641.519 156.769 642.109 155.088C642.938 152.726 641.884 150.349 641.393 149.437C641.262 149.194 641.353 148.891 641.596 148.759C641.838 148.629 642.142 148.719 642.274 148.962C642.828 149.991 644.013 152.681 643.053 155.419C642.365 157.377 640.732 158.916 638.196 159.993C636.581 160.68 635.141 161.249 633.883 161.746C630.277 163.172 628.099 164.033 627.998 165.241C627.977 165.503 627.758 165.7 627.501 165.7Z" fill="#E8878E"/>
<path d="M537.258 102.167L538.054 102.227C538.41 102.271 538.817 102.314 539.131 102.373C539.781 102.483 540.425 102.62 541.052 102.799C542.31 103.149 543.515 103.625 544.653 104.199C546.931 105.349 548.942 106.884 550.666 108.647C554.109 112.184 556.438 116.624 557.593 121.302C558.721 125.883 558.949 130.613 558.222 135.331C557.47 140.022 555.795 144.774 552.431 148.926L544.32 141.973C546.237 139.905 547.657 136.832 548.342 133.555C549.043 130.273 549.071 126.718 548.431 123.367C547.823 120.121 546.384 117.038 544.28 114.623C543.229 113.42 542.012 112.394 540.7 111.637C540.045 111.259 539.366 110.947 538.678 110.712C538.334 110.59 537.988 110.498 537.641 110.417L537.212 110.325C537.033 110.293 536.728 110.263 536.492 110.232L537.258 102.167Z" fill="url(#paint16_linear_1430_197)"/>
<path d="M545.017 116.192C544.769 116.192 544.552 116.007 544.521 115.754C544.487 115.48 544.681 115.23 544.955 115.196C546.682 114.979 549.781 113.956 551.142 109.533C551.222 109.269 551.503 109.12 551.765 109.202C552.03 109.283 552.177 109.563 552.096 109.827C550.572 114.787 547.046 115.942 545.08 116.188C545.058 116.191 545.038 116.192 545.017 116.192ZM552.086 127.014C550.761 127.014 549.528 126.799 548.651 126.54C548.386 126.462 548.235 126.184 548.313 125.919C548.39 125.654 548.666 125.501 548.934 125.581C551.115 126.223 555.752 126.607 557.675 123.46C557.818 123.224 558.124 123.149 558.363 123.294C558.598 123.438 558.674 123.746 558.53 123.982C557.097 126.33 554.446 127.014 552.086 127.014ZM554.638 138.605C550.506 138.605 548.268 136.467 547.402 135.387C547.229 135.171 547.263 134.857 547.479 134.684C547.694 134.513 548.008 134.546 548.181 134.761C549.133 135.948 551.961 138.564 557.642 137.237C557.92 137.174 558.179 137.342 558.243 137.61C558.306 137.879 558.139 138.148 557.87 138.211C556.683 138.487 555.608 138.605 554.638 138.605Z" fill="#FFA2BA"/>
<path d="M577.972 221.042C577.494 220.118 577.072 219.147 576.751 218.117C574.677 211.447 575.417 205.034 575.417 205.034C575.417 205.034 566.5 202.201 559.417 200.701C552.334 199.201 542.852 197.18 542.852 197.18C543.084 203.618 547.168 216.784 555.834 225.034C559.522 228.546 562.863 230.86 565.804 232.451C569.504 232.447 575.501 227.761 577.972 221.042Z" fill="url(#paint17_linear_1430_197)"/>
<path d="M585.583 242.867C588.312 242.2 586.833 233.45 586 231.45C585.293 229.752 580.656 226.244 577.971 221.042C575.5 227.761 569.503 232.447 565.803 232.45C572.05 235.828 576.487 235.926 578.583 237.2C580.507 238.37 582.658 243.582 585.583 242.867Z" fill="url(#paint18_linear_1430_197)"/>
<path d="M492.833 151.283C488.914 153.561 486.31 154.83 479.75 155.033C479.397 155.044 479.035 155.048 478.667 155.049C479.689 158.431 479.832 164.195 478.096 168.487C484.067 170.958 490.282 171.946 496.248 171.225C499.672 167.436 496.563 155.575 492.833 151.283Z" fill="url(#paint19_linear_1430_197)"/>
<path d="M478.667 155.049C473.428 155.049 466.825 154.024 464.083 154.116C459.75 154.262 457.187 155.949 455.312 157.887C453.709 159.543 453.291 162.845 455.124 164.012C457.419 165.472 463.166 163.366 466.332 162.949C469.498 162.532 471.999 165.949 477.999 168.449C478.03 168.462 478.062 168.472 478.095 168.486C479.832 164.195 479.689 158.431 478.667 155.049Z" fill="url(#paint20_linear_1430_197)"/>
<path d="M577.375 174.075C585.645 164.561 597.666 167.525 599.975 169.808C599.843 169.662 599.718 169.509 599.583 169.366C589.752 158.952 575.834 156.116 561.833 149.033C549.843 142.967 537.167 134.533 533.5 130.575C533.5 130.575 527.167 139.45 512.194 145.907C502.029 150.29 488.75 148.825 488.75 148.825C488.75 148.825 489.931 159.975 494.5 168.45C501.375 181.2 524.75 194.45 545.125 200.95C559.37 205.494 569.009 206.771 579.125 207.825C576.875 203.7 568.97 183.745 577.375 174.075Z" fill="url(#paint21_linear_1430_197)"/>
<path d="M576.844 175.244C576.823 175.244 576.803 175.243 576.782 175.24C543.163 171.122 525.109 145.552 522.947 140.688C522.835 140.436 522.949 140.14 523.201 140.028C523.454 139.918 523.749 140.029 523.861 140.282C525.985 145.061 543.749 170.187 576.903 174.248C577.177 174.281 577.373 174.531 577.339 174.805C577.308 175.058 577.093 175.244 576.844 175.244Z" fill="#00E2EC"/>
<path d="M612.825 212.697C610.223 204.909 610.575 181.617 599.974 169.809C597.665 167.525 585.644 164.561 577.374 174.076C568.969 183.746 576.874 203.701 579.124 207.826C584.529 216.349 590.524 221.869 595.978 225.64C600.168 224.866 610.317 218.859 612.825 212.697Z" fill="url(#paint22_linear_1430_197)"/>
<path d="M616.625 240.45C620.837 240.268 620.229 229.822 619.5 225.325C618.75 220.7 614.752 217.732 613 213.2C612.939 213.043 612.883 212.868 612.825 212.697C610.317 218.859 600.168 224.866 595.979 225.64C601.75 229.63 606.914 231.662 610.125 233.201C611.739 233.973 612.75 240.617 616.625 240.45Z" fill="url(#paint23_linear_1430_197)"/>
<path d="M606.876 220.295C606.749 220.295 606.622 220.247 606.524 220.15C585.893 199.741 587.789 180.786 588.503 173.65C588.53 173.375 588.779 173.18 589.05 173.202C589.324 173.229 589.526 173.474 589.497 173.749C588.797 180.755 586.935 199.366 607.227 219.439C607.423 219.633 607.425 219.95 607.231 220.146C607.134 220.246 607.005 220.295 606.876 220.295Z" fill="#00E2EC"/>
<path d="M546.374 151.325C542.958 147.848 535.374 145.45 528.499 148.325C519.282 152.179 511.12 164.232 505.305 170.978C508.618 171.723 513.152 173.849 515.124 177.512C516.493 180.054 516.988 182.761 517.152 184.777C527.054 182.944 538.328 178.532 544.749 172.325C553.246 164.111 549.874 154.888 546.374 151.325Z" fill="url(#paint24_linear_1430_197)"/>
<path d="M505.305 170.979C503.996 172.497 502.806 173.749 501.749 174.576C495.46 179.498 489.528 182.974 486.999 185.576C484.811 187.826 482.749 191.326 484.874 193.326C487.776 196.058 491.937 193.639 496.624 189.576C500.374 186.326 502.336 186.499 512.303 185.487C513.86 185.329 515.49 185.086 517.153 184.779C516.989 182.763 516.494 180.055 515.125 177.513C513.151 173.849 508.618 171.724 505.305 170.979Z" fill="url(#paint25_linear_1430_197)"/>
<path d="M515.124 178.013C514.917 178.013 514.724 177.884 514.651 177.677C514.561 177.416 514.699 177.132 514.96 177.042C528.349 172.395 543.802 155.634 545.921 151.113C546.039 150.863 546.338 150.756 546.586 150.874C546.836 150.991 546.944 151.289 546.827 151.539C544.595 156.299 529.166 173.17 515.288 177.986C515.233 178.005 515.179 178.013 515.124 178.013Z" fill="#00E2EC"/>
<path d="M471.258 122.938C473.376 122.887 482.876 120.137 484.501 117.325C486.126 114.513 490.001 117.137 490.001 117.137C490.001 117.137 490.439 124.825 482.063 125.075C473.687 125.325 471.258 122.938 471.258 122.938Z" fill="url(#paint26_linear_1430_197)"/>
<path d="M477.008 123.563C477.237 122.876 478.564 121.731 480.939 120.887C483.503 119.976 485.627 119.699 489.064 119.637C485.97 121.741 487.377 124.878 484.835 125.075C478.918 125.533 477.008 123.563 477.008 123.563Z" fill="#D039A3"/>
<path d="M493.836 93.033C493.503 90.366 494.087 77.45 495.17 77.116C496.253 76.782 504.002 85.283 504.086 91.783C500.503 93.7 493.836 93.033 493.836 93.033Z" fill="url(#paint27_linear_1430_197)"/>
<path d="M457.751 98.0752C458.51 97.0312 459.626 97.0752 460.751 97.0752C461.876 97.0752 483.376 97.3252 483.376 97.3252C483.376 97.3252 491.501 91.7002 497.751 90.9502C504.001 90.2002 512.376 91.0752 512.376 91.0752C512.376 91.0752 516.001 87.3252 519.126 84.5752C522.251 81.8252 525.876 78.2002 527.251 78.5752C528.626 78.9502 527.622 88.6552 526.001 93.4502C524.501 97.8882 520.876 102.325 520.876 102.325C520.876 102.325 522.251 110.7 525.501 117.825C528.331 124.03 533.501 130.575 533.501 130.575C533.501 130.575 527.133 140.582 514.251 145.2C497.688 151.138 488.751 148.825 488.751 148.825C488.751 148.825 488.554 144.45 488.626 140.7C488.714 136.142 488.876 132.325 488.876 132.325C488.876 132.325 483.3 131.586 479.001 129.825C473.813 127.7 471.376 125.762 471.258 122.938C472.305 123.258 475.256 124.041 480.126 123.075C488.314 121.45 488.751 117.825 488.751 117.825C488.751 117.825 482.851 119.588 473.501 115.825C463.251 111.7 454.752 102.2 457.751 98.0752Z" fill="url(#paint28_linear_1430_197)"/>
<path d="M467.67 97.146C464.061 97.106 461.147 97.075 460.751 97.075C459.626 97.075 458.51 97.031 457.751 98.075C456.258 100.129 457.616 103.514 460.62 106.906C463.238 105.602 467.309 102.319 467.67 97.146Z" fill="url(#paint29_linear_1430_197)"/>
<path d="M492.085 100.284C493.144 100.284 494.002 99.4259 494.002 98.3672C494.002 97.3085 493.144 96.4502 492.085 96.4502C491.026 96.4502 490.168 97.3085 490.168 98.3672C490.168 99.4259 491.026 100.284 492.085 100.284Z" fill="#212F66"/>
<path d="M491.553 98.3042C491.956 98.3042 492.282 97.9778 492.282 97.5752C492.282 97.1726 491.956 96.8462 491.553 96.8462C491.151 96.8462 490.824 97.1726 490.824 97.5752C490.824 97.9778 491.151 98.3042 491.553 98.3042Z" fill="#0090B2"/>
<path d="M504.418 104.283C505.661 104.283 506.668 103.276 506.668 102.033C506.668 100.791 505.661 99.7832 504.418 99.7832C503.175 99.7832 502.168 100.791 502.168 102.033C502.168 103.276 503.175 104.283 504.418 104.283Z" fill="#212F66"/>
<path d="M503.501 102.159C503.938 102.159 504.293 101.805 504.293 101.367C504.293 100.93 503.938 100.575 503.501 100.575C503.064 100.575 502.709 100.93 502.709 101.367C502.709 101.805 503.064 102.159 503.501 102.159Z" fill="#0090B2"/>
<path d="M519.065 64.3762C498.193 51.4012 470.753 57.8032 457.779 78.6752C444.805 99.5472 451.206 126.987 472.079 139.962C492.951 152.937 520.391 146.535 533.365 125.663C546.339 104.791 539.939 77.3512 519.065 64.3762ZM527.561 122.467C517.18 139.168 495.225 144.29 478.525 133.908C461.825 123.526 456.702 101.572 467.085 84.8712C477.466 68.1712 499.421 63.0482 516.121 73.4302C532.82 83.8112 537.943 105.766 527.561 122.467Z" fill="url(#paint30_radial_1430_197)"/>
<path opacity="0.5" d="M492.526 68.6133L491.422 68.8593L490.405 69.1303C489.716 69.3273 489.034 69.5423 488.361 69.7733C487.31 70.1353 486.165 69.5763 485.802 68.5253C485.441 67.4743 485.999 66.3293 487.051 65.9673C487.192 65.9183 487.349 65.8853 487.491 65.8693C488.283 65.7833 489.073 65.7183 489.862 65.6753L491.071 65.6333L492.202 65.6373C493.034 65.6393 493.707 66.3173 493.704 67.1493C493.703 67.8653 493.199 68.4633 492.526 68.6133ZM482.182 71.7973L481.053 72.2983L480.032 72.7943C479.34 73.1503 478.656 73.5263 477.985 73.9243C476.647 74.7263 475.365 75.6233 474.15 76.6083C471.721 78.5763 469.569 80.8963 467.772 83.4773C467.241 84.2443 466.188 84.4353 465.421 83.9033C464.669 83.3823 464.474 82.3563 464.967 81.5933C466.852 78.6953 469.15 76.0523 471.78 73.7803C473.094 72.6443 474.491 71.6003 475.956 70.6593C476.689 70.1913 477.439 69.7473 478.202 69.3253L479.39 68.7033L480.507 68.1653C481.502 67.6863 482.697 68.1043 483.177 69.0993C483.657 70.0943 483.239 71.2903 482.242 71.7693C482.226 71.7773 482.198 71.7893 482.182 71.7973Z" fill="white"/>
<path d="M536.077 132.92C535.002 132.037 534.115 131.239 533.5 130.575C533.5 130.575 532.762 129.639 531.691 128.143C521.681 142.09 504.847 148.677 488.66 146.14C488.7 147.717 488.75 148.825 488.75 148.825C488.75 148.825 488.91 150.328 489.337 152.646C506.905 154.805 524.908 147.667 536.077 132.92Z" fill="url(#paint31_linear_1430_197)"/>
<path d="M538.711 91.2473C537.387 86.1853 535.17 81.3663 532.192 77.0813C529.208 72.8023 525.472 69.0542 521.196 66.0872C516.934 63.0912 512.173 60.8353 507.146 59.4913C502.127 58.1353 496.87 57.6983 491.699 58.1683C481.348 59.0933 471.382 63.7853 464.154 71.2323C456.893 78.6363 452.353 88.6503 451.68 98.9873C450.888 109.31 453.89 119.884 460.023 128.253C466.113 136.65 475.289 142.75 485.395 145.158C495.499 147.609 506.453 146.294 515.732 141.571C520.382 139.24 524.632 136.085 528.189 132.267C531.756 128.459 534.641 124.006 536.693 119.195C534.716 124.038 531.896 128.549 528.37 132.433C524.852 136.328 520.62 139.578 515.955 142.008C506.604 146.847 495.512 148.236 485.242 145.806C474.97 143.415 465.605 137.272 459.351 128.746C453.058 120.252 449.923 109.479 450.685 98.9163C451.43 88.3463 456.123 78.1543 463.561 70.6503C470.968 63.1003 481.131 58.3893 491.64 57.5073C502.151 56.5623 512.934 59.5343 521.477 65.6893C525.752 68.7553 529.458 72.5943 532.393 76.9433C535.32 81.2993 537.465 86.1663 538.711 91.2473Z" fill="white"/>
<path d="M538.7 91.2505C537.054 91.7995 535.473 92.6345 534.039 93.7815C527.492 99.0155 526.427 108.568 531.662 115.117C533.07 116.879 534.794 118.241 536.685 119.191C540.445 110.141 541.001 100.342 538.7 91.2505Z" fill="url(#paint32_linear_1430_197)"/>
<path d="M137.687 156.34C137.09 156.923 136.379 157.881 135.73 158.901C135.077 159.929 134.467 161.044 133.909 162.193C132.793 164.497 131.884 166.945 131.187 169.434C129.795 174.418 129.262 179.589 129.703 184.568C130.136 189.552 131.551 194.334 133.838 198.678C136.117 203.03 139.251 206.949 142.948 210.404L132.302 220.746C127.977 215.949 124.252 210.41 121.699 204.293C119.129 198.191 117.799 191.555 117.805 185.028C117.797 178.491 119.055 172.097 121.278 166.151C122.397 163.175 123.751 160.302 125.389 157.548C126.211 156.171 127.102 154.823 128.114 153.5C129.139 152.184 130.229 150.864 131.814 149.561L137.687 156.34Z" fill="url(#paint33_linear_1430_197)"/>
<path d="M130.602 169.287C125.682 169.287 122.394 165.53 121.467 164.326C121.299 164.107 121.34 163.793 121.559 163.625C121.778 163.458 122.091 163.499 122.26 163.717C123.158 164.886 126.468 168.67 131.341 168.257C131.616 168.23 131.858 168.438 131.881 168.713C131.904 168.988 131.7 169.23 131.425 169.253C131.146 169.276 130.871 169.287 130.602 169.287ZM123.935 184.994C121.142 184.994 118.93 183.941 117.587 183.08C117.355 182.931 117.287 182.622 117.436 182.389C117.585 182.156 117.894 182.088 118.127 182.238C120.13 183.523 124.252 185.274 129.36 182.548C129.602 182.418 129.906 182.509 130.036 182.754C130.166 182.998 130.074 183.3 129.83 183.43C127.684 184.576 125.694 184.994 123.935 184.994ZM122.225 203.471C121.831 203.471 121.462 203.458 121.122 203.439C120.846 203.423 120.636 203.187 120.652 202.911C120.668 202.635 120.905 202.422 121.18 202.441C124.173 202.616 129.678 202.182 132.887 197.344C133.039 197.114 133.349 197.05 133.58 197.204C133.81 197.356 133.873 197.667 133.72 197.897C130.603 202.596 125.553 203.471 122.225 203.471Z" fill="#00E2EC"/>
<path d="M531.334 380.033C530.334 376.699 509.667 376.7 507 376.366C505.531 376.182 500.422 359.572 491.125 340.472C475.334 343.033 463.5 356.366 460.316 361.578L460.318 361.583C478.738 377.447 491.496 392.769 497.834 394.532C503.679 396.159 532.334 383.367 531.334 380.033Z" fill="url(#paint34_linear_1430_197)"/>
<path d="M491.125 340.472C483.538 324.887 473.163 307.646 459.697 296.315C442.009 281.431 423.667 274.7 409.333 273.367C409.333 273.367 389.92 281.627 380.167 290.867C370.667 299.867 370 307.035 368.166 319.534C386.999 320.7 403.67 325.543 427.667 338.533C439.972 345.194 450.886 353.46 460.318 361.584L460.316 361.579C463.5 356.366 475.334 343.033 491.125 340.472Z" fill="url(#paint35_linear_1430_197)"/>
<path d="M456.501 341.2C456.186 341.2 455.875 341.052 455.681 340.773C435.845 312.388 388.41 295.527 378.077 293.78C377.533 293.687 377.166 293.172 377.258 292.627C377.35 292.083 377.858 291.722 378.411 291.808C388.911 293.583 437.13 310.736 457.319 339.627C457.635 340.08 457.525 340.703 457.073 341.02C456.898 341.141 456.698 341.2 456.501 341.2Z" fill="#9F36AD"/>
<path d="M288.25 138.2C288.25 138.2 273.625 135.45 247.875 136.7C239.882 137.088 232.84 137.835 226.871 138.695C225.334 144.629 222.954 150.224 219.867 155.343C224.5 156.45 228.5 156.95 248 166.325C267.5 175.7 296.381 194.897 306.875 192.95C319 190.7 349.375 179.575 350.625 162.825C351.937 145.247 288.25 138.2 288.25 138.2Z" fill="url(#paint36_linear_1430_197)"/>
<path d="M350.625 162.825C350.923 158.828 347.854 155.377 342.944 152.428C338.508 155.496 333.052 160.89 331.334 168.45C329.805 175.178 330.696 181.017 331.427 184.081C341.283 178.859 349.969 171.619 350.625 162.825Z" fill="url(#paint37_linear_1430_197)"/>
<path d="M292.832 150.45C292.755 150.45 292.676 150.438 292.599 150.413C266.831 141.986 225.685 144.412 222.595 145.569C222.21 145.716 221.776 145.518 221.63 145.13C221.484 144.742 221.681 144.31 222.069 144.165C225.332 142.941 266.409 140.27 293.065 148.988C293.459 149.117 293.674 149.54 293.545 149.934C293.442 150.249 293.148 150.45 292.832 150.45Z" fill="#9F36AD"/>
<path d="M349.875 156.325C346.062 146.387 329.786 138.347 319.649 133.324C316.713 131.869 313.512 130.493 310.241 129.16C309.81 132.392 308.413 137.557 303.999 141.867C298.688 147.051 291.842 147.983 287.498 148.048C290.587 151.86 293.775 155.407 296.999 158.076C305.129 164.808 321.722 175.12 334.257 176.253C339.644 176.74 344.394 175.611 347.176 171.613C349.17 168.746 352.785 163.909 349.875 156.325Z" fill="url(#paint38_linear_1430_197)"/>
<path d="M347.177 171.612C349.171 168.746 352.785 163.91 349.875 156.325C349.098 154.3 347.797 152.355 346.143 150.497C341.636 152.811 333.504 158.9 331.334 168.45C330.751 171.015 330.524 173.448 330.502 175.652C331.782 175.923 333.044 176.142 334.258 176.252C339.645 176.739 344.395 175.61 347.177 171.612Z" fill="url(#paint39_linear_1430_197)"/>
<path d="M310.243 129.16C298.056 124.191 284.89 119.817 280.751 114.2C276.63 108.608 278.188 99.0123 276.376 92.2003C275.024 87.1193 270.813 81.0123 266.626 81.7003C261.531 82.5363 260.751 89.4503 261.751 94.9503C262.751 100.45 264.001 104.95 260.876 105.7C258.199 106.343 254.725 104.19 253.126 103.575C252.043 103.158 247.78 103.054 249.251 108.075C251.168 114.617 262.584 119.89 269.126 125.45C274.294 129.843 280.652 139.597 287.5 148.047C291.844 147.982 298.69 147.05 304.001 141.866C308.415 137.557 309.812 132.392 310.243 129.16Z" fill="url(#paint40_linear_1430_197)"/>
<path d="M370.5 244.95C370.5 244.95 353.667 219.033 317.375 192.2C278.055 163.128 222.766 149.962 217.5 150.2C217.5 150.2 207.25 163.45 196 170.45C184.75 177.45 161.5 178.2 161.5 178.2C161.5 178.2 165.25 210.075 181.5 248.575C186.735 260.978 192.372 270.035 199.153 281.918C219 316.7 250.5 352.7 292.75 354.95C286.667 321.033 312.5 269.7 370.5 244.95Z" fill="url(#paint41_linear_1430_197)"/>
<path d="M339.136 263.955C338.844 263.955 338.554 263.828 338.357 263.582C295.596 210.5 243.521 174.937 211.92 160.612C211.417 160.384 211.194 159.792 211.422 159.288C211.65 158.786 212.242 158.563 212.746 158.79C244.546 173.206 296.932 208.972 339.914 262.328C340.26 262.758 340.193 263.388 339.763 263.733C339.578 263.883 339.356 263.955 339.136 263.955ZM292.833 334.479C292.793 334.479 292.754 334.477 292.714 334.472C242.523 328.552 209.854 277.729 208.487 275.568C208.192 275.101 208.331 274.484 208.798 274.189C209.265 273.892 209.882 274.033 210.178 274.5C221.574 292.523 253.54 327.838 292.949 332.486C293.497 332.55 293.889 333.048 293.825 333.596C293.765 334.105 293.333 334.479 292.833 334.479Z" fill="#FFA2BA"/>
<path d="M222.166 212.034C220.333 221.034 253.833 251.576 263.499 251.576C272.878 251.576 307.236 212.799 317.609 192.377C317.529 192.318 317.454 192.259 317.374 192.201C302.974 181.554 286.433 173.042 270.99 166.539C256.795 175.144 224.176 202.168 222.166 212.034Z" fill="url(#paint42_linear_1430_197)"/>
<path d="M261.245 223.398C266.079 223.398 269.998 219.479 269.998 214.645C269.998 209.81 266.079 205.892 261.245 205.892C256.411 205.892 252.492 209.81 252.492 214.645C252.492 219.479 256.411 223.398 261.245 223.398Z" fill="#1AA9E8"/>
<path d="M274.154 205.557C276.264 205.557 277.974 203.847 277.974 201.737C277.974 199.628 276.264 197.917 274.154 197.917C272.044 197.917 270.334 199.628 270.334 201.737C270.334 203.847 272.044 205.557 274.154 205.557Z" fill="#1AA9E8"/>
<path d="M261.246 233.895C250.632 233.895 241.996 225.259 241.996 214.645C241.996 204.031 250.632 195.395 261.246 195.395C271.86 195.395 280.496 204.031 280.496 214.645C280.496 225.259 271.86 233.895 261.246 233.895ZM261.246 197.395C251.734 197.395 243.996 205.133 243.996 214.645C243.996 224.157 251.734 231.895 261.246 231.895C270.758 231.895 278.496 224.157 278.496 214.645C278.496 205.133 270.758 197.395 261.246 197.395Z" fill="#1AA9E8"/>
<path d="M283.215 196.08C282.714 196.08 282.212 195.892 281.823 195.516C281.03 194.747 281.01 193.481 281.779 192.688L296.006 178.007C296.776 177.214 298.042 177.195 298.834 177.963C299.627 178.732 299.647 179.998 298.878 180.791L284.651 195.472C284.259 195.877 283.737 196.08 283.215 196.08Z" fill="#9F36AD"/>
<path d="M274.265 188.043C273.759 188.043 273.252 187.852 272.863 187.469C272.075 186.695 272.065 185.428 272.84 184.641L285.061 172.216C285.835 171.429 287.103 171.419 287.889 172.193C288.677 172.967 288.687 174.234 287.912 175.021L275.691 187.446C275.299 187.844 274.782 188.043 274.265 188.043Z" fill="#9F36AD"/>
<path d="M293.777 203.585C293.305 203.585 292.831 203.419 292.45 203.081C291.624 202.348 291.549 201.083 292.282 200.257L306.401 184.347C307.136 183.521 308.4 183.447 309.225 184.179C310.051 184.912 310.126 186.177 309.393 187.003L295.274 202.913C294.878 203.358 294.329 203.585 293.777 203.585Z" fill="#9F36AD"/>
<path d="M487.134 262.13C458.98 252.286 423.914 238.56 400 239.45C380 240.195 370.5 244.95 370.5 244.95C312.5 269.7 286.667 321.033 292.75 354.95C366.922 358.9 388.688 315.257 428 301.7C443.513 296.35 462.665 295.734 480.164 296.087C480.164 296.086 480.163 296.085 480.163 296.084C475.993 277.801 484.667 265.867 487.134 262.13Z" fill="url(#paint43_linear_1430_197)"/>
<path d="M399.75 266.534C420.712 264.711 426.185 249.219 425.876 242.503C416.501 240.389 407.675 239.164 400 239.45C380 240.195 370.5 244.95 370.5 244.95C371.417 255.534 380.011 268.251 399.75 266.534Z" fill="url(#paint44_linear_1430_197)"/>
<path d="M397.55 258.2C396.725 258.2 396.054 257.534 396.05 256.708L395.958 239.341C395.954 238.513 396.622 237.838 397.45 237.833C397.453 237.833 397.455 237.833 397.458 237.833C398.283 237.833 398.954 238.499 398.958 239.325L399.05 256.692C399.054 257.52 398.386 258.195 397.558 258.2C397.555 258.2 397.553 258.2 397.55 258.2ZM408.922 258.184C408.097 258.184 407.426 257.517 407.422 256.692L407.336 239.754C407.332 238.925 408 238.25 408.828 238.246C408.831 238.246 408.834 238.246 408.836 238.246C409.661 238.246 410.332 238.913 410.336 239.738L410.422 256.676C410.426 257.505 409.758 258.18 408.93 258.184C408.927 258.184 408.924 258.184 408.922 258.184ZM386.429 258.263C385.625 258.263 384.96 257.626 384.931 256.817L384.362 240.847C384.333 240.019 384.98 239.324 385.807 239.294C386.628 239.256 387.329 239.911 387.36 240.739L387.929 256.709C387.958 257.537 387.311 258.232 386.484 258.262C386.465 258.263 386.446 258.263 386.429 258.263Z" fill="#9F36AD"/>
<path d="M303.92 335.123C300.214 335.123 296.478 334.915 292.715 334.472C292.167 334.408 291.775 333.91 291.839 333.362C291.904 332.813 292.402 332.423 292.949 332.486C332.799 337.189 370.12 314.804 394.815 299.994C403.729 294.648 410.769 290.426 416.152 288.431C433.716 281.92 460.12 283.445 479.177 285.87C479.725 285.94 480.113 286.44 480.043 286.988C479.973 287.536 479.48 287.918 478.925 287.854C460.087 285.456 434.029 283.936 416.847 290.305C411.639 292.236 404.319 296.625 395.843 301.708C373.23 315.27 340.128 335.123 303.92 335.123Z" fill="#FFA2BA"/>
<path d="M526.5 295.2C530.851 293.374 536.668 289.835 543.25 278.95C547.583 271.784 550.917 258.374 548.25 258.45C542.417 258.617 535.486 270.903 526 271.7C517.906 272.38 503.719 267.928 487.134 262.13C484.667 265.867 475.993 277.801 480.163 296.084C480.163 296.085 480.164 296.086 480.164 296.087C500.83 296.502 519.189 298.268 526.5 295.2Z" fill="url(#paint45_linear_1430_197)"/>
<path d="M499 289.7C502.314 289.7 505 287.014 505 283.7C505 280.386 502.314 277.7 499 277.7C495.686 277.7 493 280.386 493 283.7C493 287.014 495.686 289.7 499 289.7Z" fill="#9F36AD"/>
<path d="M193.501 309.2C195.751 287.95 202.501 276.325 203.251 259.7C204.069 241.558 198.145 188.864 164.251 181.45C158.251 180.137 151.501 181.513 151.501 181.513C137.834 200.7 124.668 228.7 125.834 264.7C127.12 304.382 150.141 330.557 163.834 344.2C163.95 344.315 164.059 344.425 164.174 344.539C168.458 340.506 178.706 333.647 193.716 333.365C192.933 325.329 192.694 316.817 193.501 309.2Z" fill="url(#paint46_linear_1430_197)"/>
<path d="M145.75 281.575C141.518 268.196 131.051 264.67 125.828 264.412C125.831 264.509 125.831 264.603 125.834 264.7C126.434 283.204 131.761 298.769 138.664 311.498C144.426 307.275 150 295.009 145.75 281.575Z" fill="url(#paint47_linear_1430_197)"/>
<path d="M129.52 289.375C128.871 289.375 128.273 288.951 128.081 288.298C127.848 287.503 128.303 286.669 129.098 286.436L139.014 283.525C139.808 283.295 140.642 283.749 140.876 284.542C141.109 285.337 140.654 286.171 139.859 286.404L129.943 289.315C129.802 289.355 129.659 289.375 129.52 289.375ZM127.734 281.352C127.085 281.352 126.487 280.928 126.295 280.275C126.062 279.48 126.517 278.646 127.312 278.413L136.752 275.642C137.547 275.411 138.38 275.865 138.614 276.659C138.847 277.454 138.392 278.288 137.597 278.521L128.157 281.292C128.016 281.333 127.874 281.352 127.734 281.352ZM131.946 297.827C131.322 297.827 130.74 297.435 130.527 296.812C130.259 296.028 130.677 295.175 131.461 294.908L140.992 291.649C141.778 291.378 142.629 291.799 142.897 292.583C143.165 293.367 142.747 294.22 141.963 294.487L132.432 297.746C132.271 297.802 132.106 297.827 131.946 297.827Z" fill="#9F36AD"/>
<path d="M170.001 329.367C169.661 329.367 169.33 329.194 169.143 328.882C168.971 328.596 168.744 328.228 168.468 327.779C149.97 297.782 145.316 271.683 144.668 255.072C143.195 217.304 154.29 190.429 161.079 180.504C161.39 180.048 162.014 179.931 162.469 180.243C162.925 180.555 163.042 181.177 162.73 181.633C156.081 191.356 145.214 217.748 146.667 254.994C147.306 271.366 151.902 297.102 170.171 326.729C170.452 327.186 170.684 327.561 170.859 327.852C171.143 328.326 170.99 328.94 170.516 329.224C170.354 329.321 170.176 329.367 170.001 329.367Z" fill="#FFA2BA"/>
<path d="M187.689 372.325C189.793 379.02 184.251 385.867 183.876 391.825C183.452 398.561 191.422 407.796 195.626 407.575C199.584 407.367 201.626 402.7 201.501 399.45C201.376 396.2 199.876 388.45 202.751 387.825C205.626 387.2 204.783 392.96 206.126 394.95C207.251 396.617 210.084 396.533 210.876 394.2C211.684 391.818 212.001 385.117 210.001 380.95C207.557 375.857 203.001 370.325 199.751 362.95C197.734 358.373 194.996 346.508 193.716 333.365C178.707 333.647 168.459 340.506 164.174 344.539C180.522 360.824 185.64 365.808 187.689 372.325Z" fill="url(#paint48_linear_1430_197)"/>
<path d="M190.624 138.325C192.055 140.575 200.249 149.7 204.874 152.2C203.499 156.45 197.874 163.2 188.999 167.325C181.735 170.701 172.686 172.075 172.686 172.075C172.686 172.075 169.248 163.7 167.123 153.762C165.68 147.013 165.123 140.699 165.123 140.699C165.123 140.699 170.936 143.887 178.248 143.699C185.452 143.515 190.624 138.325 190.624 138.325Z" fill="url(#paint49_linear_1430_197)"/>
<path d="M191.582 123.783C188.665 112.116 179.749 100.283 177.332 97.1162H170.415L145.998 112.116L145.248 124.949C145.248 124.949 148.605 129.223 153.98 134.901C151.883 135.76 150.415 137.752 150.415 140.073C150.415 143.18 153.045 145.698 156.29 145.698C158.665 145.698 160.705 144.347 161.631 142.406C170.431 149.681 182.126 149.58 187.665 145.781C193.482 141.795 194.499 135.45 191.582 123.783Z" fill="url(#paint50_linear_1430_197)"/>
<path d="M169.5 124.95C170.605 124.95 171.5 124.055 171.5 122.95C171.5 121.846 170.605 120.95 169.5 120.95C168.395 120.95 167.5 121.846 167.5 122.95C167.5 124.055 168.395 124.95 169.5 124.95Z" fill="#212F66"/>
<path d="M183.583 115.2C184.595 115.2 185.416 114.38 185.416 113.367C185.416 112.355 184.595 111.534 183.583 111.534C182.571 111.534 181.75 112.355 181.75 113.367C181.75 114.38 182.571 115.2 183.583 115.2Z" fill="#212F66"/>
<path d="M176.544 113.984C177.968 112.383 188.306 120.845 188.039 122.627C187.772 124.409 185.124 125.638 183.311 125.95C181.334 122.387 175.831 114.786 176.544 113.984Z" fill="url(#paint51_linear_1430_197)"/>
<path d="M183.719 135.784C182.552 135.784 181.45 135.401 180.534 134.677C180.317 134.506 180.281 134.191 180.452 133.975C180.623 133.758 180.938 133.722 181.154 133.893C181.892 134.476 182.779 134.785 183.718 134.785C186.01 134.785 187.874 132.907 187.874 130.597C187.874 130.313 187.846 130.028 187.79 129.752C187.735 129.481 187.91 129.217 188.18 129.163C188.452 129.106 188.715 129.283 188.769 129.553C188.839 129.895 188.874 130.246 188.874 130.597C188.875 133.457 186.563 135.784 183.719 135.784Z" fill="#954374"/>
<path d="M182.832 83.45C180.249 81.033 176.415 83.867 174.082 86.45C171.749 89.033 169.908 92.042 167.749 91.867C164.666 91.617 165.731 84.251 161.916 84.7C156.249 85.367 153.416 98.533 151.583 99.533C149.75 100.533 148.213 96.391 145.333 98.2C141.75 100.45 142.857 111.104 142.416 113.7C142.119 115.447 136.983 118.629 137.499 124.95C138.121 132.565 145.623 138.22 150.417 140.098C150.417 140.09 150.416 140.082 150.416 140.075C150.416 137.41 152.354 135.182 154.953 134.602C154.931 131.875 154.411 128.752 153.749 126.451C152.166 120.951 148.542 116.68 148.542 116.68C150.875 116.43 165.333 112.118 175.416 103.285C184.031 95.737 185.552 85.994 182.832 83.45Z" fill="url(#paint52_linear_1430_197)"/>
<path d="M165.881 75.856C148.823 75.856 133.889 84.9439 125.652 98.5419C133.414 91.5139 143.709 87.231 155.006 87.231C179.169 87.231 198.756 106.818 198.756 130.981C198.756 146.791 190.368 160.64 177.802 168.327C197.986 163.05 212.881 144.694 212.881 122.856C212.881 96.899 191.838 75.856 165.881 75.856Z" fill="url(#paint53_radial_1430_197)"/>
<path d="M177.905 163.048C162.841 163.048 146.552 157.677 138.335 146.367C123.502 125.95 132.877 88.3249 149.023 78.9839C131.398 85.7619 118.883 102.842 118.883 122.856C118.883 148.814 139.925 169.856 165.883 169.856C176.776 169.856 186.796 166.14 194.766 159.92C189.53 161.933 183.849 163.048 177.905 163.048Z" fill="url(#paint54_linear_1430_197)"/>
<path d="M131.022 140.024C128.107 140.024 125.399 140.899 123.135 142.391C127.171 151.208 133.848 158.557 142.161 163.427C144.169 160.957 145.377 157.81 145.377 154.379C145.378 146.45 138.951 140.024 131.022 140.024Z" fill="url(#paint55_linear_1430_197)"/>
<path opacity="0.5" d="M189.128 92.152L190.132 92.795L191.17 93.515C191.841 94 192.5 94.504 193.148 95.028C193.921 95.653 194.041 96.787 193.415 97.561C192.79 98.334 191.656 98.454 190.883 97.828C190.796 97.758 190.709 97.671 190.638 97.589C190.15 97.011 189.644 96.444 189.122 95.889L188.339 95.087L187.474 94.267C186.933 93.755 186.911 92.901 187.423 92.361C187.875 91.883 188.594 91.81 189.128 92.152ZM198.255 100.804C199.25 102.307 200.17 103.929 200.954 105.578C201.742 107.233 202.412 108.943 202.958 110.69C204.051 114.184 204.639 117.827 204.715 121.469C204.735 122.402 203.994 123.174 203.061 123.194C202.146 123.213 201.385 122.496 201.338 121.588C201.169 118.262 200.535 114.971 199.452 111.841C198.911 110.276 198.261 108.751 197.506 107.28C196.747 105.803 195.903 104.408 194.933 103.032C194.296 102.129 194.512 100.881 195.414 100.244C196.316 99.607 197.565 99.823 198.202 100.725C198.212 100.739 198.221 100.752 198.23 100.766L198.255 100.804Z" fill="white"/>
<path d="M226.871 138.695C218.62 139.883 212.437 141.284 208.687 142.258C201.299 158.532 184.917 169.857 165.88 169.857C164.17 169.857 162.483 169.76 160.819 169.582C156.748 174.029 152.344 180.239 149.906 183.809C155.008 185.142 160.36 185.857 165.879 185.857C195.204 185.856 219.846 165.822 226.871 138.695Z" fill="url(#paint56_linear_1430_197)"/>
<path d="M149.018 78.972C154.133 76.882 159.652 75.778 165.197 75.62C170.744 75.487 176.326 76.336 181.592 78.143C192.151 81.731 201.271 89.289 206.914 98.917C212.561 108.546 214.586 120.243 212.536 131.182C211.519 136.656 209.523 141.936 206.677 146.702C203.8 151.447 200.109 155.692 195.78 159.124C204.181 151.953 209.977 141.866 211.779 131.048C212.68 125.644 212.684 120.094 211.717 114.715C210.753 109.332 208.825 104.129 206.052 99.422C203.314 94.694 199.72 90.465 195.52 86.965C191.314 83.467 186.487 80.73 181.338 78.867C171.03 75.143 159.394 75.186 149.018 78.972Z" fill="white"/>
<path d="M274.69 109.009C274.82 109.522 274.51 110.043 273.997 110.174L257.388 114.776C256.875 114.906 256.354 114.596 256.223 114.083L245.823 77.5911C245.693 77.0791 246.003 76.5571 246.515 76.4261L264.124 70.8241C264.636 70.6941 265.158 71.0041 265.288 71.5161L274.69 109.009Z" fill="url(#paint57_linear_1430_197)"/>
<path d="M270.788 106.375L257.588 110.111L248.441 78.3259L262.569 73.6089L270.788 106.375Z" fill="url(#paint58_linear_1430_197)"/>
<path d="M295.542 34.1955C296 35.7875 295.08 37.4495 293.488 37.9075L226.245 58.2525C224.653 58.7105 222.991 57.7905 222.533 56.1985L216.592 34.5355C216.134 32.9435 217.054 31.2815 218.647 30.8235L285.889 10.9785C287.481 10.5205 289.143 11.4405 289.601 13.0335L295.542 34.1955Z" fill="#C7A0F6"/>
<path d="M286.721 12.8604C287.163 12.8604 287.558 13.1583 287.678 13.5733L293.622 34.7484C293.774 35.2784 293.467 35.8333 292.911 35.9933L225.695 56.3304C225.603 56.3564 225.51 56.3703 225.417 56.3703C224.975 56.3703 224.581 56.0723 224.464 55.6693L218.517 33.9823C218.417 33.6353 218.528 33.3573 218.603 33.2213C218.678 33.0863 218.855 32.8443 219.215 32.7403L286.444 12.8994C286.535 12.8744 286.628 12.8614 286.721 12.8604ZM286.721 10.8604C286.447 10.8604 286.168 10.8983 285.891 10.9783L218.649 30.8233C217.057 31.2813 216.137 32.9434 216.594 34.5354L222.535 56.1983C222.913 57.5133 224.113 58.3703 225.416 58.3703C225.69 58.3703 225.97 58.3323 226.247 58.2523L293.49 37.9073C295.082 37.4493 296.002 35.7873 295.544 34.1953L289.604 13.0323C289.225 11.7173 288.024 10.8604 286.721 10.8604Z" fill="#FDE1A7"/>
<path d="M257.499 89.2002C259.524 89.2002 261.166 87.5584 261.166 85.5332C261.166 83.508 259.524 81.8662 257.499 81.8662C255.474 81.8662 253.832 83.508 253.832 85.5332C253.832 87.5584 255.474 89.2002 257.499 89.2002Z" fill="#FE697A"/>
<path d="M257.5 86.2834C257.479 86.2834 257.458 86.2824 257.436 86.2814C257.023 86.2464 256.717 85.8834 256.751 85.4704L259.928 47.7714C259.963 47.3584 260.329 47.0614 260.739 47.0864C261.152 47.1214 261.458 47.4844 261.424 47.8974L258.247 85.5964C258.213 85.9884 257.886 86.2834 257.5 86.2834Z" fill="#FDE1A7"/>
<path d="M268.56 22.2183L260.824 32.0573L273.01 36.6673L268.56 22.2183Z" fill="white"/>
<path d="M266.782 22.0522L241.682 29.7832L256.745 34.8192L266.782 22.0522Z" fill="white"/>
<path d="M244.812 45.3352L252.051 34.8322L240.375 30.9292L244.812 45.3352Z" fill="white"/>
<path d="M259.854 33.2935L257.599 36.1615C257.454 36.3465 257.235 36.4485 257.009 36.4485C256.929 36.4485 256.849 36.4355 256.771 36.4095L253.533 35.3265L246.395 45.6824L271.866 37.8365L259.854 33.2935Z" fill="white"/>
<path d="M295.485 272.74C295.708 275.701 294.166 276.951 292.236 277.584L241.316 294.693C239.082 295.132 236.913 293.679 236.473 291.445L230.259 259.906C229.818 257.672 231.207 255.45 233.443 254.739C233.443 254.739 248.936 250.138 259.124 248.075C269.058 246.063 287.364 242.129 287.364 242.129C289.598 241.69 291.249 242.992 291.812 245.575L295.485 272.74Z" fill="url(#paint59_linear_1430_197)"/>
<path d="M266.832 272.783C266.748 272.783 266.664 272.769 266.582 272.74L229.928 259.774C229.537 259.636 229.333 259.208 229.471 258.817C229.609 258.427 230.038 258.221 230.428 258.36L266.589 271.151L290.124 242.712C290.387 242.395 290.862 242.35 291.18 242.612C291.499 242.877 291.544 243.349 291.28 243.669L267.411 272.512C267.265 272.686 267.052 272.783 266.832 272.783ZM238.456 294.964C238.304 294.964 238.151 294.918 238.018 294.822C237.682 294.58 237.606 294.111 237.848 293.775L253.224 272.428C253.466 272.093 253.935 272.016 254.271 272.258C254.607 272.5 254.683 272.969 254.441 273.305L239.065 294.652C238.918 294.855 238.689 294.964 238.456 294.964ZM294.801 276.596C294.701 276.596 294.6 276.576 294.503 276.534L275.7 268.388C275.32 268.223 275.145 267.782 275.31 267.402C275.475 267.021 275.915 266.845 276.296 267.011L295.099 275.157C295.479 275.322 295.654 275.763 295.489 276.143C295.367 276.427 295.091 276.596 294.801 276.596Z" fill="#C44B5F"/>
<path d="M447.763 72.1713C448.107 74.5553 446.928 75.6503 445.402 76.2693L405.148 89.9093C403.364 90.3883 401.53 89.3313 401.05 87.5483L394.289 62.3743C393.81 60.5913 394.812 58.7173 396.581 58.0193C396.581 58.0193 408.862 53.4463 416.99 51.2173C424.916 49.0443 437.51 45.8543 437.51 45.8543C439.294 45.3753 440.7 46.3393 441.298 48.3983L447.763 72.1713Z" fill="url(#paint60_linear_1430_197)"/>
<path d="M424.545 70.6743C424.5 70.6743 424.455 70.6683 424.41 70.6553L394.043 62.1803C393.777 62.1063 393.622 61.8303 393.696 61.5643C393.769 61.2983 394.042 61.1393 394.312 61.2173L424.33 69.5943L439.853 46.2503C440.005 46.0193 440.315 45.9583 440.546 46.1103C440.775 46.2633 440.838 46.5733 440.685 46.8033L424.96 70.4493C424.867 70.5933 424.709 70.6743 424.545 70.6743ZM402.808 90.1783C402.717 90.1783 402.626 90.1543 402.544 90.1033C402.309 89.9573 402.237 89.6483 402.383 89.4143L413.649 71.2993C413.795 71.0653 414.105 70.9953 414.337 71.1383C414.572 71.2843 414.644 71.5933 414.498 71.8273L403.232 89.9423C403.138 90.0943 402.975 90.1783 402.808 90.1783ZM447.381 75.2203C447.3 75.2203 447.217 75.2003 447.142 75.1593L431.483 66.6033C431.24 66.4703 431.151 66.1663 431.284 65.9243C431.416 65.6823 431.722 65.5933 431.962 65.7253L447.621 74.2813C447.864 74.4143 447.953 74.7183 447.82 74.9603C447.728 75.1263 447.558 75.2203 447.381 75.2203Z" fill="#D66976"/>
<path d="M410.182 184.498C411.121 186.617 410.314 187.941 409.063 188.912L377.599 213.838C376.071 214.746 374.095 214.246 373.187 212.718L358.353 192.653C357.443 191.125 357.883 189.128 359.341 188.019C359.341 188.019 369.528 180.576 376.48 176.389C383.258 172.306 393.189 165.616 393.189 165.616C394.716 164.707 396.271 165.233 397.362 166.985L410.182 184.498Z" fill="url(#paint61_linear_1430_197)"/>
<path d="M358.072 192.557C357.797 192.557 357.572 192.334 357.572 192.058C357.572 191.782 357.795 191.558 358.071 191.557L388.048 191.488L395.439 165.385C395.514 165.12 395.795 164.963 396.056 165.04C396.323 165.115 396.477 165.392 396.402 165.657L388.908 192.123C388.846 192.338 388.651 192.486 388.428 192.487L358.072 192.557C358.072 192.557 358.073 192.557 358.072 192.557ZM375.37 214.734C375.337 214.734 375.304 214.731 375.27 214.724C374.999 214.669 374.825 214.405 374.88 214.135L378.593 195.908C378.649 195.637 378.916 195.463 379.183 195.518C379.454 195.573 379.628 195.837 379.574 196.107L375.86 214.334C375.811 214.571 375.603 214.734 375.37 214.734ZM410.492 187.461C410.486 187.461 410.48 187.461 410.475 187.461L394.012 186.898C393.737 186.889 393.521 186.657 393.53 186.381C393.54 186.105 393.814 185.875 394.047 185.899L410.51 186.462C410.785 186.471 411.001 186.703 410.992 186.979C410.982 187.248 410.761 187.461 410.492 187.461Z" fill="#D66976"/>
<path d="M89.4737 281.343C91.4477 283.222 91.1667 285.023 90.2457 286.642L70.7977 325.887C69.5477 327.562 67.1757 327.908 65.5007 326.657L42.3507 309.545C40.6737 308.295 40.2517 305.927 41.3357 304.066C41.3357 304.066 47.0487 293.393 52.7137 285.714C58.2367 278.228 66.0107 266.486 66.0107 266.486C67.2607 264.812 69.1867 264.681 71.1597 266.094L89.4737 281.343Z" fill="url(#paint62_linear_1430_197)"/>
<path d="M41.7773 309.773C41.4753 309.773 41.1903 309.588 41.0763 309.29C40.9293 308.902 41.1243 308.47 41.5113 308.322L71.9033 296.781L68.1923 265.242C68.1433 264.831 68.4383 264.458 68.8493 264.409C69.2563 264.364 69.6333 264.654 69.6823 265.066L73.4623 297.186C73.5033 297.528 73.3053 297.853 72.9833 297.975L42.0443 309.724C41.9563 309.758 41.8663 309.773 41.7773 309.773ZM68.5553 327.82C68.3213 327.82 68.1113 327.654 68.0653 327.416L63.8893 305.944C63.8363 305.673 64.0133 305.41 64.2843 305.357C64.5533 305.307 64.8173 305.482 64.8703 305.753L69.0463 327.225C69.0993 327.496 68.9223 327.759 68.6513 327.812C68.6193 327.817 68.5873 327.82 68.5553 327.82ZM76.2883 289.18C76.0783 289.18 75.8823 289.046 75.8133 288.836C75.7273 288.573 75.8703 288.291 76.1323 288.205L90.7653 283.402C91.0293 283.313 91.3103 283.459 91.3963 283.72C91.4823 283.983 91.3393 284.265 91.0773 284.351L76.4443 289.154C76.3923 289.173 76.3393 289.18 76.2883 289.18Z" fill="#D66976"/>
<path d="M219.346 277.328C221.279 277.328 222.846 275.761 222.846 273.828C222.846 271.895 221.279 270.328 219.346 270.328C217.413 270.328 215.846 271.895 215.846 273.828C215.846 275.761 217.413 277.328 219.346 277.328Z" fill="#FE697A"/>
<path d="M354.115 208.22C356.048 208.22 357.615 206.653 357.615 204.72C357.615 202.787 356.048 201.22 354.115 201.22C352.182 201.22 350.615 202.787 350.615 204.72C350.615 206.653 352.182 208.22 354.115 208.22Z" fill="#FE697A"/>
<path d="M427.91 96.4492C429.843 96.4492 431.41 94.8822 431.41 92.9492C431.41 91.0162 429.843 89.4492 427.91 89.4492C425.977 89.4492 424.41 91.0162 424.41 92.9492C424.41 94.8822 425.977 96.4492 427.91 96.4492Z" fill="#FE697A"/>
<path d="M415.166 43.7001C414.625 43.7001 414.18 43.2681 414.166 42.7241C414.076 39.0241 413.139 36.3831 411.302 34.6491C407.458 31.0231 399.725 31.2831 389.943 31.6141L387.364 31.7001C383.558 31.8121 381.142 31.1271 379.722 29.5291C377.79 27.3551 378.28 24.0871 378.798 20.6271C379.267 17.5061 379.75 14.2781 378.581 11.6011C375.124 3.67813 354.732 3.90613 337.823 8.66313C320.3 13.5911 306.723 18.9461 306.588 18.9991C306.075 19.2011 305.493 18.9511 305.29 18.4371C305.086 17.9241 305.338 17.3431 305.852 17.1391C305.988 17.0851 319.654 11.6951 337.282 6.73714C351.525 2.73114 375.829 0.292139 380.416 10.8001C381.814 14.0051 381.264 17.6801 380.777 20.9231C380.31 24.0371 379.907 26.7261 381.217 28.2001C382.199 29.3061 384.192 29.7951 387.301 29.7011L389.874 29.6171C400.123 29.2701 408.222 28.9971 412.673 33.1961C414.919 35.3151 416.061 38.4161 416.165 42.6761C416.178 43.2281 415.741 43.6871 415.189 43.7001C415.182 43.7001 415.174 43.7001 415.166 43.7001ZM420.835 35.3521C420.429 35.3521 420.095 35.0281 420.085 34.6201C419.92 27.8311 417.134 24.6231 410.468 23.5461C410.059 23.4801 409.78 23.0951 409.847 22.6861C409.913 22.2771 410.307 22.0001 410.706 22.0651C418.048 23.2511 421.403 27.1111 421.585 34.5831C421.595 34.9971 421.268 35.3411 420.854 35.3511C420.847 35.3521 420.841 35.3521 420.835 35.3521Z" fill="#FDE1A7"/>
<path d="M311.604 8.40611C311.368 8.40611 311.135 8.29512 310.989 8.08612C310.751 7.74712 310.834 7.27911 311.173 7.04211C313.339 5.52511 324.915 -0.490883 337.883 0.0321171C338.297 0.0491171 338.619 0.398109 338.603 0.811109C338.587 1.22511 338.231 1.55611 337.824 1.53111C325.254 1.02311 314.117 6.81212 312.034 8.27112C311.903 8.36212 311.753 8.40611 311.604 8.40611Z" fill="#FDE1A7"/>
<path d="M337.728 26.2811C337.634 26.2811 337.538 26.2631 337.444 26.2251C334.851 25.1641 327.511 25.2791 325.144 25.4051C324.706 25.4161 324.377 25.1081 324.355 24.6961C324.334 24.2821 324.65 23.9291 325.063 23.9071C325.159 23.9031 334.617 23.4491 338.012 24.8371C338.395 24.9941 338.579 25.4321 338.422 25.8161C338.304 26.1051 338.024 26.2811 337.728 26.2811Z" fill="#FDE1A7"/>
<path d="M406.917 164.7C406.876 164.7 406.834 164.698 406.792 164.692C406.244 164.624 405.855 164.124 405.924 163.576C406.657 157.706 412.826 154.992 418.791 152.367C425.521 149.406 431.878 146.609 431.999 139.849C432.085 135.093 428.125 132.654 423.541 129.83C419.019 127.044 413.892 123.887 413.173 117.818C412.321 110.628 417.607 104.634 421.853 99.8182C424.176 97.1842 426.371 94.6952 426.951 92.6732C427.103 92.1432 427.657 91.8362 428.187 91.9872C428.718 92.1392 429.025 92.6932 428.873 93.2242C428.169 95.6802 425.937 98.2102 423.353 101.141C419.163 105.893 414.413 111.279 415.16 117.582C415.765 122.69 420.052 125.331 424.591 128.126C429.269 131.008 434.106 133.987 434 139.884C433.855 147.923 426.28 151.256 419.598 154.197C413.892 156.707 408.502 159.079 407.91 163.823C407.845 164.33 407.414 164.7 406.917 164.7Z" fill="#FDE1A7"/>
<path d="M401.5 127.575C401.263 127.575 401.029 127.463 400.884 127.254C395.407 119.396 398.179 111.951 400.409 109.112C400.666 108.786 401.137 108.729 401.462 108.986C401.788 109.242 401.845 109.714 401.589 110.039C401.531 110.112 395.898 117.477 402.114 126.397C402.351 126.737 402.267 127.204 401.927 127.441C401.797 127.532 401.647 127.575 401.5 127.575Z" fill="#FDE1A7"/>
<path d="M302.749 260.075C302.418 260.075 302.094 259.911 301.903 259.61C301.608 259.144 301.746 258.526 302.212 258.23C305.103 256.397 310.185 255.901 316.07 255.326C321.02 254.843 326.63 254.295 331.164 252.804C338.566 250.37 346.703 245.119 347.339 237.679C347.755 232.822 345.473 230.501 343.058 228.045C341.021 225.974 338.915 223.833 338.748 220.247C338.315 210.941 353.069 204.097 353.698 203.81C354.198 203.581 354.793 203.802 355.023 204.305C355.252 204.807 355.031 205.4 354.528 205.63C349.632 207.865 340.449 213.777 340.746 220.154C340.877 222.976 342.548 224.675 344.483 226.643C346.987 229.189 349.825 232.075 349.332 237.849C348.612 246.261 339.798 252.072 331.789 254.704C327.045 256.264 321.318 256.823 316.265 257.316C310.869 257.843 305.771 258.341 303.284 259.92C303.118 260.025 302.932 260.075 302.749 260.075Z" fill="#FDE1A7"/>
<path d="M331.499 219.075C331.461 219.075 331.424 219.073 331.386 219.069C330.837 219.007 330.443 218.512 330.504 217.964C331.781 206.6 339.952 202.034 342.993 201.234C343.527 201.092 344.075 201.413 344.215 201.947C344.355 202.481 344.036 203.028 343.502 203.169C341.01 203.825 333.637 207.992 332.491 218.189C332.435 218.698 332.001 219.075 331.499 219.075Z" fill="#FDE1A7"/>
<path d="M218.141 274.963C215.309 274.963 208.212 273.666 192.752 264.818C190.722 263.656 188.662 262.458 186.571 261.242C165.926 249.236 142.529 235.636 115.668 237.946C95.7718 239.664 86.3258 251.384 83.2218 255.236C82.9178 255.612 82.6778 255.911 82.4958 256.114C82.1288 256.527 81.4968 256.565 81.0838 256.197C80.6708 255.831 80.6338 255.198 81.0008 254.786C81.1668 254.599 81.3868 254.326 81.6648 253.981C84.9008 249.964 94.7508 237.745 115.497 235.954C142.982 233.57 166.675 247.358 187.578 259.514C189.664 260.727 191.72 261.923 193.746 263.082C213.454 274.36 218.97 272.896 219.023 272.882C219.537 272.725 220.1 273.001 220.274 273.511C220.448 274.02 220.205 274.57 219.703 274.762C219.556 274.818 219.086 274.963 218.141 274.963Z" fill="#FDE1A7"/>
<path d="M78.081 241.7C77.916 241.7 77.751 241.646 77.613 241.536C77.29 241.277 77.238 240.805 77.496 240.481C80.233 237.059 88.166 229.225 102.727 230.452C103.14 230.487 103.446 230.849 103.412 231.262C103.377 231.675 103.007 231.98 102.602 231.947C88.771 230.788 81.255 238.184 78.667 241.418C78.519 241.603 78.301 241.7 78.081 241.7Z" fill="#FDE1A7"/>
<path d="M297.578 21.2072L303.815 10.9712L308.753 25.5412L297.578 21.2072Z" fill="#FE697A"/>
<defs>
<radialGradient id="paint0_radial_1430_197" cx="0" cy="0" r="1" gradientUnits="userSpaceOnUse" gradientTransform="translate(693.7 203.357) scale(34.665)">
<stop stop-color="white" stop-opacity="0.25"/>
<stop offset="0.294" stop-color="#FDFDFE" stop-opacity="0.177"/>
<stop offset="0.437" stop-color="#F6F5FA" stop-opacity="0.141"/>
<stop offset="0.547" stop-color="#EAE8F2" stop-opacity="0.113"/>
<stop offset="0.641" stop-color="#D9D6E8" stop-opacity="0.09"/>
<stop offset="0.724" stop-color="#C3BDDA" stop-opacity="0.069"/>
<stop offset="0.8" stop-color="#A8A0CA" stop-opacity="0.05"/>
<stop offset="0.87" stop-color="#887CB6" stop-opacity="0.033"/>
<stop offset="0.935" stop-color="#63549F" stop-opacity="0.016"/>
<stop offset="0.995" stop-color="#3A2685" stop-opacity="0.01"/>
<stop offset="1" stop-color="#362283" stop-opacity="0"/>
</radialGradient>
<radialGradient id="paint1_radial_1430_197" cx="0" cy="0" r="1" gradientUnits="userSpaceOnUse" gradientTransform="translate(34.334 183.366) scale(34.334)">
<stop stop-color="white" stop-opacity="0.25"/>
<stop offset="0.321" stop-color="#FDFDFF" stop-opacity="0.17"/>
<stop offset="0.477" stop-color="#F6F5FD" stop-opacity="0.131"/>
<stop offset="0.597" stop-color="#E9E8FA" stop-opacity="0.101"/>
<stop offset="0.7" stop-color="#D8D6F6" stop-opacity="0.075"/>
<stop offset="0.79" stop-color="#C1BDF1" stop-opacity="0.052"/>
<stop offset="0.873" stop-color="#A5A0EB" stop-opacity="0.032"/>
<stop offset="0.948" stop-color="#847DE4" stop-opacity="0.013"/>
<stop offset="1" stop-color="#6860DE" stop-opacity="0"/>
</radialGradient>
<linearGradient id="paint2_linear_1430_197" x1="18.541" y1="167.575" x2="50.126" y2="199.159" gradientUnits="userSpaceOnUse">
<stop stop-color="#FFE2A8"/>
<stop offset="1" stop-color="#271068"/>
</linearGradient>
<linearGradient id="paint3_linear_1430_197" x1="18.541" y1="167.575" x2="50.126" y2="199.159" gradientUnits="userSpaceOnUse">
<stop stop-color="#FFE2A8"/>
<stop offset="1" stop-color="#A482FF"/>
</linearGradient>
<linearGradient id="paint4_linear_1430_197" x1="676.73" y1="186.387" x2="710.671" y2="220.328" gradientUnits="userSpaceOnUse">
<stop stop-color="#8C6AE2"/>
<stop offset="1" stop-color="#5A55F8"/>
</linearGradient>
<linearGradient id="paint5_linear_1430_197" x1="684.951" y1="212.106" x2="699.903" y2="197.154" gradientUnits="userSpaceOnUse">
<stop stop-color="#FFE2A8"/>
<stop offset="1" stop-color="#745B7F"/>
</linearGradient>
<radialGradient id="paint6_radial_1430_197" cx="0" cy="0" r="1" gradientUnits="userSpaceOnUse" gradientTransform="translate(688.176 371.181) rotate(89.5817) scale(14.5054 13.5016)">
<stop stop-color="#231F20"/>
<stop offset="0.102" stop-color="#262228"/>
<stop offset="0.264" stop-color="#2F2A3F"/>
<stop offset="0.465" stop-color="#3D3865"/>
<stop offset="0.699" stop-color="#504A99"/>
<stop offset="0.956" stop-color="#6962DB"/>
<stop offset="1" stop-color="#6D66E7"/>
</radialGradient>
<linearGradient id="paint7_linear_1430_197" x1="632.497" y1="394.037" x2="632.497" y2="351.371" gradientUnits="userSpaceOnUse">
<stop stop-color="#1AA9E8"/>
<stop offset="1" stop-color="#B0E1FF"/>
</linearGradient>
<linearGradient id="paint8_linear_1430_197" x1="667.918" y1="339.163" x2="684.561" y2="355.806" gradientUnits="userSpaceOnUse">
<stop stop-color="#B0E1FF"/>
<stop offset="1" stop-color="#1AA9E8"/>
</linearGradient>
<linearGradient id="paint9_linear_1430_197" x1="656.687" y1="371.098" x2="690.981" y2="405.392" gradientUnits="userSpaceOnUse">
<stop stop-color="#B0E1FF"/>
<stop offset="1" stop-color="#1AA9E8"/>
</linearGradient>
<linearGradient id="paint10_linear_1430_197" x1="584.904" y1="388.677" x2="584.904" y2="367.471" gradientUnits="userSpaceOnUse">
<stop stop-color="#6D66E7"/>
<stop offset="0.044" stop-color="#6962DB"/>
<stop offset="0.301" stop-color="#504A99"/>
<stop offset="0.535" stop-color="#3D3865"/>
<stop offset="0.736" stop-color="#2F2A3F"/>
<stop offset="0.898" stop-color="#262228"/>
<stop offset="1" stop-color="#231F20"/>
</linearGradient>
<linearGradient id="paint11_linear_1430_197" x1="599.593" y1="350.594" x2="620.657" y2="362.755" gradientUnits="userSpaceOnUse">
<stop stop-color="#6D66E7"/>
<stop offset="0.044" stop-color="#6962DB"/>
<stop offset="0.301" stop-color="#504A99"/>
<stop offset="0.535" stop-color="#3D3865"/>
<stop offset="0.736" stop-color="#2F2A3F"/>
<stop offset="0.898" stop-color="#262228"/>
<stop offset="1" stop-color="#231F20"/>
</linearGradient>
<radialGradient id="paint12_radial_1430_197" cx="0" cy="0" r="1" gradientUnits="userSpaceOnUse" gradientTransform="translate(628.124 368.409) scale(7.029)">
<stop stop-color="#231F20"/>
<stop offset="0.102" stop-color="#262228"/>
<stop offset="0.264" stop-color="#2F2A3F"/>
<stop offset="0.465" stop-color="#3D3865"/>
<stop offset="0.699" stop-color="#504A99"/>
<stop offset="0.956" stop-color="#6962DB"/>
<stop offset="1" stop-color="#6D66E7"/>
</radialGradient>
<radialGradient id="paint13_radial_1430_197" cx="0" cy="0" r="1" gradientUnits="userSpaceOnUse" gradientTransform="translate(641.521 367.868) scale(7.104)">
<stop stop-color="#231F20"/>
<stop offset="0.102" stop-color="#262228"/>
<stop offset="0.264" stop-color="#2F2A3F"/>
<stop offset="0.465" stop-color="#3D3865"/>
<stop offset="0.699" stop-color="#504A99"/>
<stop offset="0.956" stop-color="#6962DB"/>
<stop offset="1" stop-color="#6D66E7"/>
</radialGradient>
<radialGradient id="paint14_radial_1430_197" cx="0" cy="0" r="1" gradientUnits="userSpaceOnUse" gradientTransform="translate(654.062 367.368) scale(7.02398)">
<stop stop-color="#231F20"/>
<stop offset="0.102" stop-color="#262228"/>
<stop offset="0.264" stop-color="#2F2A3F"/>
<stop offset="0.465" stop-color="#3D3865"/>
<stop offset="0.699" stop-color="#504A99"/>
<stop offset="0.956" stop-color="#6962DB"/>
<stop offset="1" stop-color="#6D66E7"/>
</radialGradient>
<linearGradient id="paint15_linear_1430_197" x1="583.25" y1="145.276" x2="629.169" y2="145.276" gradientUnits="userSpaceOnUse">
<stop stop-color="#FFE2A8"/>
<stop offset="1" stop-color="#728390"/>
</linearGradient>
<linearGradient id="paint16_linear_1430_197" x1="536.49" y1="125.547" x2="558.639" y2="125.547" gradientUnits="userSpaceOnUse">
<stop stop-color="#A281FF"/>
<stop offset="1" stop-color="#FF57BD"/>
</linearGradient>
<linearGradient id="paint17_linear_1430_197" x1="542.852" y1="214.814" x2="577.972" y2="214.814" gradientUnits="userSpaceOnUse">
<stop stop-color="#FF57BD"/>
<stop offset="1" stop-color="#FE6A77"/>
</linearGradient>
<linearGradient id="paint18_linear_1430_197" x1="565.803" y1="231.988" x2="587.155" y2="231.988" gradientUnits="userSpaceOnUse">
<stop stop-color="#C5188E"/>
<stop offset="1" stop-color="#9F36AD"/>
</linearGradient>
<linearGradient id="paint19_linear_1430_197" x1="478.096" y1="161.369" x2="497.726" y2="161.369" gradientUnits="userSpaceOnUse">
<stop stop-color="#FF57BD"/>
<stop offset="1" stop-color="#FE6A77"/>
</linearGradient>
<linearGradient id="paint20_linear_1430_197" x1="453.921" y1="161.299" x2="479.422" y2="161.299" gradientUnits="userSpaceOnUse">
<stop stop-color="#C5188E"/>
<stop offset="1" stop-color="#9F36AD"/>
</linearGradient>
<linearGradient id="paint21_linear_1430_197" x1="501.596" y1="189.116" x2="594.671" y2="155.239" gradientUnits="userSpaceOnUse">
<stop stop-color="#05C5DA"/>
<stop offset="1" stop-color="#5860C4"/>
</linearGradient>
<linearGradient id="paint22_linear_1430_197" x1="573.593" y1="196.572" x2="612.825" y2="196.572" gradientUnits="userSpaceOnUse">
<stop stop-color="#00E2EC"/>
<stop offset="1" stop-color="#0090B2"/>
</linearGradient>
<linearGradient id="paint23_linear_1430_197" x1="595.98" y1="226.575" x2="620.021" y2="226.575" gradientUnits="userSpaceOnUse">
<stop stop-color="#A281FF"/>
<stop offset="1" stop-color="#FF57BD"/>
</linearGradient>
<linearGradient id="paint24_linear_1430_197" x1="518.881" y1="155.169" x2="540.396" y2="176.684" gradientUnits="userSpaceOnUse">
<stop stop-color="#00E2EC"/>
<stop offset="1" stop-color="#0090B2"/>
</linearGradient>
<linearGradient id="paint25_linear_1430_197" x1="483.982" y1="182.734" x2="517.152" y2="182.734" gradientUnits="userSpaceOnUse">
<stop stop-color="#A281FF"/>
<stop offset="1" stop-color="#FF57BD"/>
</linearGradient>
<linearGradient id="paint26_linear_1430_197" x1="471.258" y1="120.559" x2="490.005" y2="120.559" gradientUnits="userSpaceOnUse">
<stop stop-color="#9F36AD"/>
<stop offset="0.107" stop-color="#8D3399"/>
<stop offset="0.404" stop-color="#602A65"/>
<stop offset="0.662" stop-color="#3F243F"/>
<stop offset="0.87" stop-color="#2A2028"/>
<stop offset="1" stop-color="#231F20"/>
</linearGradient>
<linearGradient id="paint27_linear_1430_197" x1="490.992" y1="81.262" x2="502.8" y2="93.07" gradientUnits="userSpaceOnUse">
<stop stop-color="#FFE2A8"/>
<stop offset="1" stop-color="#728390"/>
</linearGradient>
<linearGradient id="paint28_linear_1430_197" x1="475.058" y1="80.7242" x2="529.604" y2="135.27" gradientUnits="userSpaceOnUse">
<stop stop-color="#FFE2A8"/>
<stop offset="1" stop-color="#728390"/>
</linearGradient>
<linearGradient id="paint29_linear_1430_197" x1="457.141" y1="101.99" x2="467.67" y2="101.99" gradientUnits="userSpaceOnUse">
<stop stop-color="#653271"/>
<stop offset="0.113" stop-color="#5B2F65"/>
<stop offset="0.496" stop-color="#3D263F"/>
<stop offset="0.805" stop-color="#2A2128"/>
<stop offset="1" stop-color="#231F20"/>
</linearGradient>
<radialGradient id="paint30_radial_1430_197" cx="0" cy="0" r="1" gradientUnits="userSpaceOnUse" gradientTransform="translate(495.572 102.169) scale(44.506)">
<stop stop-color="#4E40AF" stop-opacity="0"/>
<stop offset="0.11" stop-color="#5446B2" stop-opacity="0.044"/>
<stop offset="0.262" stop-color="#6558B9" stop-opacity="0.105"/>
<stop offset="0.439" stop-color="#8076C6" stop-opacity="0.175"/>
<stop offset="0.634" stop-color="#A69FD7" stop-opacity="0.254"/>
<stop offset="0.843" stop-color="#D6D3ED" stop-opacity="0.337"/>
<stop offset="1" stop-color="white" stop-opacity="0.4"/>
</radialGradient>
<linearGradient id="paint31_linear_1430_197" x1="488.66" y1="140.584" x2="536.077" y2="140.584" gradientUnits="userSpaceOnUse">
<stop stop-color="#FF57BD"/>
<stop offset="1" stop-color="#FE6A77"/>
</linearGradient>
<linearGradient id="paint32_linear_1430_197" x1="528.338" y1="105.22" x2="540.068" y2="105.22" gradientUnits="userSpaceOnUse">
<stop stop-color="#05C5DA"/>
<stop offset="1" stop-color="#0090B2"/>
</linearGradient>
<linearGradient id="paint33_linear_1430_197" x1="117.805" y1="185.153" x2="142.948" y2="185.153" gradientUnits="userSpaceOnUse">
<stop stop-color="#05C5DA"/>
<stop offset="1" stop-color="#5860C4"/>
</linearGradient>
<linearGradient id="paint34_linear_1430_197" x1="460.316" y1="367.574" x2="531.359" y2="367.574" gradientUnits="userSpaceOnUse">
<stop stop-color="#05C5DA"/>
<stop offset="1" stop-color="#5860C4"/>
</linearGradient>
<linearGradient id="paint35_linear_1430_197" x1="368.166" y1="317.475" x2="491.125" y2="317.475" gradientUnits="userSpaceOnUse">
<stop stop-color="#FF57BD"/>
<stop offset="1" stop-color="#FE6A77"/>
</linearGradient>
<linearGradient id="paint36_linear_1430_197" x1="285.256" y1="136.374" x2="285.256" y2="193.088" gradientUnits="userSpaceOnUse">
<stop stop-color="#FE6A77"/>
<stop offset="1" stop-color="#C91C91"/>
</linearGradient>
<linearGradient id="paint37_linear_1430_197" x1="330.495" y1="168.255" x2="350.645" y2="168.255" gradientUnits="userSpaceOnUse">
<stop stop-color="#05C5DA"/>
<stop offset="1" stop-color="#5860C4"/>
</linearGradient>
<linearGradient id="paint38_linear_1430_197" x1="287.499" y1="152.759" x2="350.965" y2="152.759" gradientUnits="userSpaceOnUse">
<stop stop-color="#FF57BD"/>
<stop offset="1" stop-color="#FE6A77"/>
</linearGradient>
<linearGradient id="paint39_linear_1430_197" x1="330.502" y1="163.428" x2="350.965" y2="163.428" gradientUnits="userSpaceOnUse">
<stop stop-color="#05C5DA"/>
<stop offset="1" stop-color="#0090B2"/>
</linearGradient>
<linearGradient id="paint40_linear_1430_197" x1="248.945" y1="114.847" x2="310.243" y2="114.847" gradientUnits="userSpaceOnUse">
<stop stop-color="#00E2EC"/>
<stop offset="1" stop-color="#0090B2"/>
</linearGradient>
<linearGradient id="paint41_linear_1430_197" x1="200.355" y1="289.038" x2="322.409" y2="186.622" gradientUnits="userSpaceOnUse">
<stop stop-color="#FE6A77"/>
<stop offset="1" stop-color="#FF57BD"/>
</linearGradient>
<linearGradient id="paint42_linear_1430_197" x1="237.005" y1="234.743" x2="305.167" y2="177.549" gradientUnits="userSpaceOnUse">
<stop stop-color="#C5188E"/>
<stop offset="1" stop-color="#FF57BD"/>
</linearGradient>
<linearGradient id="paint43_linear_1430_197" x1="291.881" y1="297.306" x2="487.134" y2="297.306" gradientUnits="userSpaceOnUse">
<stop stop-color="#C91C91"/>
<stop offset="1" stop-color="#FE6A77"/>
</linearGradient>
<linearGradient id="paint44_linear_1430_197" x1="370.5" y1="253.05" x2="425.888" y2="253.05" gradientUnits="userSpaceOnUse">
<stop stop-color="#00E2EC"/>
<stop offset="1" stop-color="#0090B2"/>
</linearGradient>
<linearGradient id="paint45_linear_1430_197" x1="479.047" y1="277.71" x2="549.203" y2="277.71" gradientUnits="userSpaceOnUse">
<stop stop-color="#00E2EC"/>
<stop offset="1" stop-color="#0090B2"/>
</linearGradient>
<linearGradient id="paint46_linear_1430_197" x1="125.762" y1="262.711" x2="203.321" y2="262.711" gradientUnits="userSpaceOnUse">
<stop stop-color="#FE6A77"/>
<stop offset="1" stop-color="#C91C91"/>
</linearGradient>
<linearGradient id="paint47_linear_1430_197" x1="125.828" y1="287.955" x2="147.246" y2="287.955" gradientUnits="userSpaceOnUse">
<stop stop-color="#00E2EC"/>
<stop offset="1" stop-color="#0090B2"/>
</linearGradient>
<linearGradient id="paint48_linear_1430_197" x1="164.174" y1="370.471" x2="211.502" y2="370.471" gradientUnits="userSpaceOnUse">
<stop stop-color="#00E2EC"/>
<stop offset="1" stop-color="#0090B2"/>
</linearGradient>
<linearGradient id="paint49_linear_1430_197" x1="183.238" y1="137.507" x2="188.832" y2="169.235" gradientUnits="userSpaceOnUse">
<stop stop-color="#C16846"/>
<stop offset="0.265" stop-color="#D27565"/>
<stop offset="0.531" stop-color="#DE7F7B"/>
<stop offset="0.781" stop-color="#E58589"/>
<stop offset="1" stop-color="#E8878E"/>
</linearGradient>
<linearGradient id="paint50_linear_1430_197" x1="150.769" y1="142.476" x2="188.692" y2="110.655" gradientUnits="userSpaceOnUse">
<stop stop-color="#E8878E"/>
<stop offset="1" stop-color="#F4BEA3"/>
</linearGradient>
<linearGradient id="paint51_linear_1430_197" x1="176.481" y1="119.867" x2="188.044" y2="119.867" gradientUnits="userSpaceOnUse">
<stop stop-color="#FF57BD"/>
<stop offset="1" stop-color="#FE6A77"/>
</linearGradient>
<linearGradient id="paint52_linear_1430_197" x1="137.462" y1="111.315" x2="184.059" y2="111.315" gradientUnits="userSpaceOnUse">
<stop stop-color="#994574"/>
<stop offset="1" stop-color="#43256F"/>
</linearGradient>
<radialGradient id="paint53_radial_1430_197" cx="0" cy="0" r="1" gradientUnits="userSpaceOnUse" gradientTransform="translate(165.767 122.592) scale(47.02)">
<stop stop-color="#635AD5" stop-opacity="0"/>
<stop offset="0.12" stop-color="#6960D7" stop-opacity="0.048"/>
<stop offset="0.288" stop-color="#7A72DB" stop-opacity="0.115"/>
<stop offset="0.482" stop-color="#9690E3" stop-opacity="0.193"/>
<stop offset="0.698" stop-color="#BDB9ED" stop-opacity="0.279"/>
<stop offset="0.927" stop-color="#EEEDFA" stop-opacity="0.371"/>
<stop offset="1" stop-color="white" stop-opacity="0.4"/>
</radialGradient>
<linearGradient id="paint54_linear_1430_197" x1="118.882" y1="124.42" x2="194.765" y2="124.42" gradientUnits="userSpaceOnUse">
<stop stop-color="#00E2EC"/>
<stop offset="1" stop-color="#0090B2"/>
</linearGradient>
<linearGradient id="paint55_linear_1430_197" x1="130.953" y1="154.331" x2="141.967" y2="145.089" gradientUnits="userSpaceOnUse">
<stop stop-color="#A281FF"/>
<stop offset="0.095" stop-color="#B17AF5"/>
<stop offset="0.35" stop-color="#D36BDD"/>
<stop offset="0.593" stop-color="#EB60CB"/>
<stop offset="0.816" stop-color="#FA59C1"/>
<stop offset="1" stop-color="#FF57BD"/>
</linearGradient>
<linearGradient id="paint56_linear_1430_197" x1="149.908" y1="162.275" x2="226.871" y2="162.275" gradientUnits="userSpaceOnUse">
<stop stop-color="#00E2EC"/>
<stop offset="1" stop-color="#0090B2"/>
</linearGradient>
<linearGradient id="paint57_linear_1430_197" x1="245.794" y1="92.8001" x2="274.72" y2="92.8001" gradientUnits="userSpaceOnUse">
<stop stop-color="#653271"/>
<stop offset="0.113" stop-color="#5B2F65"/>
<stop offset="0.496" stop-color="#3D263F"/>
<stop offset="0.805" stop-color="#2A2128"/>
<stop offset="1" stop-color="#231F20"/>
</linearGradient>
<linearGradient id="paint58_linear_1430_197" x1="247.494" y1="79.2749" x2="272.691" y2="104.472" gradientUnits="userSpaceOnUse">
<stop stop-color="#84DBF1"/>
<stop offset="1" stop-color="#FFE2A8"/>
</linearGradient>
<linearGradient id="paint59_linear_1430_197" x1="230.178" y1="268.408" x2="295.506" y2="268.408" gradientUnits="userSpaceOnUse">
<stop stop-color="#FDE1A7"/>
<stop offset="1" stop-color="#F9A144"/>
</linearGradient>
<linearGradient id="paint60_linear_1430_197" x1="394.17" y1="67.8783" x2="447.822" y2="67.8783" gradientUnits="userSpaceOnUse">
<stop stop-color="#FDE1A7"/>
<stop offset="1" stop-color="#F9A144"/>
</linearGradient>
<linearGradient id="paint61_linear_1430_197" x1="357.879" y1="189.734" x2="410.591" y2="189.734" gradientUnits="userSpaceOnUse">
<stop stop-color="#FDE1A7"/>
<stop offset="1" stop-color="#F9A144"/>
</linearGradient>
<linearGradient id="paint62_linear_1430_197" x1="40.7377" y1="296.266" x2="90.9537" y2="296.266" gradientUnits="userSpaceOnUse">
<stop stop-color="#FDE1A7"/>
<stop offset="1" stop-color="#F9A144"/>
</linearGradient>
</defs>
</svg>
