<svg width="1000" height="1000" viewBox="0 0 1000 1000" fill="none" xmlns="http://www.w3.org/2000/svg">
<path d="M1000 0H0V1000H1000V0Z" fill="#1A73E8" fill-opacity="0.2"/>
<path opacity="0.28" d="M837.848 666.303H162.152C157.181 666.303 153.152 662.274 153.152 657.303C153.152 652.332 157.181 648.303 162.152 648.303H837.848C842.819 648.303 846.848 652.332 846.848 657.303C846.848 662.273 842.818 666.303 837.848 666.303Z" fill="#848484"/>
<path d="M808.451 573.892C808.451 536.666 780.247 506.085 743.725 502.62V494.209H721.812V654.907H743.725V645.165C780.247 641.7 808.451 611.118 808.451 573.892ZM743.725 622.065V525.721C767.099 529.076 785.51 549.394 785.51 573.893C785.51 598.392 767.099 618.71 743.725 622.065Z" fill="#F09F54"/>
<path opacity="0.29" d="M743.725 502.62V494.209H721.812V654.907H743.725V645.165C780.247 641.7 808.451 611.119 808.451 573.893C808.451 536.667 780.247 506.085 743.725 502.62ZM743.725 637.805V646.142H723.273V501.513H743.725V509.979C775.865 513.086 801.768 540.51 801.768 573.891C801.768 607.274 775.865 634.698 743.725 637.805Z" fill="#F09F54"/>
<path d="M808.451 573.892C808.451 536.666 780.247 506.085 743.725 502.62V494.209H721.812V654.907H743.725V645.165C780.247 641.7 808.451 611.118 808.451 573.892ZM743.725 622.065V525.721C767.099 529.076 785.51 549.394 785.51 573.893C785.51 598.392 767.099 618.71 743.725 622.065Z" stroke="#444E59" stroke-width="4" stroke-miterlimit="10" stroke-linecap="round" stroke-linejoin="round"/>
<path d="M730.578 638.837H721.812" stroke="#444E59" stroke-width="3" stroke-miterlimit="10" stroke-linecap="round" stroke-linejoin="round"/>
<path d="M730.578 622.767H721.812" stroke="#444E59" stroke-width="3" stroke-miterlimit="10" stroke-linecap="round" stroke-linejoin="round"/>
<path d="M730.578 606.698H721.812" stroke="#444E59" stroke-width="3" stroke-miterlimit="10" stroke-linecap="round" stroke-linejoin="round"/>
<path d="M730.578 590.628H721.812" stroke="#444E59" stroke-width="3" stroke-miterlimit="10" stroke-linecap="round" stroke-linejoin="round"/>
<path d="M730.578 574.558H721.812" stroke="#444E59" stroke-width="3" stroke-miterlimit="10" stroke-linecap="round" stroke-linejoin="round"/>
<path d="M730.578 558.488H721.812" stroke="#444E59" stroke-width="3" stroke-miterlimit="10" stroke-linecap="round" stroke-linejoin="round"/>
<path d="M730.578 542.418H721.812" stroke="#444E59" stroke-width="3" stroke-miterlimit="10" stroke-linecap="round" stroke-linejoin="round"/>
<path d="M730.578 526.349H721.812" stroke="#444E59" stroke-width="3" stroke-miterlimit="10" stroke-linecap="round" stroke-linejoin="round"/>
<path d="M730.578 510.279H721.812" stroke="#444E59" stroke-width="3" stroke-miterlimit="10" stroke-linecap="round" stroke-linejoin="round"/>
<path d="M706.339 412.891H673.257V654.534H706.339V412.891Z" fill="#F09F54"/>
<path d="M706.339 412.891H673.257V654.534H706.339V412.891Z" fill="#F09F54"/>
<path opacity="0.29" d="M706.34 412.891H691.956V654.534H706.34V412.891Z" fill="#F09F54"/>
<path d="M706.339 412.891H673.257V654.534H706.339V412.891Z" stroke="#444E59" stroke-width="4" stroke-miterlimit="10" stroke-linecap="round" stroke-linejoin="round"/>
<path d="M684.764 630.082H673.257" stroke="#444E59" stroke-width="3" stroke-miterlimit="10" stroke-linecap="round" stroke-linejoin="round"/>
<path d="M680.449 641.589H673.257" stroke="#444E59" stroke-width="3" stroke-miterlimit="10" stroke-linecap="round" stroke-linejoin="round"/>
<path d="M684.764 607.069H673.257" stroke="#444E59" stroke-width="3" stroke-miterlimit="10" stroke-linecap="round" stroke-linejoin="round"/>
<path d="M680.449 618.576H673.257" stroke="#444E59" stroke-width="3" stroke-miterlimit="10" stroke-linecap="round" stroke-linejoin="round"/>
<path d="M684.764 584.055H673.257" stroke="#444E59" stroke-width="3" stroke-miterlimit="10" stroke-linecap="round" stroke-linejoin="round"/>
<path d="M680.449 595.562H673.257" stroke="#444E59" stroke-width="3" stroke-miterlimit="10" stroke-linecap="round" stroke-linejoin="round"/>
<path d="M684.764 561.041H673.257" stroke="#444E59" stroke-width="3" stroke-miterlimit="10" stroke-linecap="round" stroke-linejoin="round"/>
<path d="M680.449 572.548H673.257" stroke="#444E59" stroke-width="3" stroke-miterlimit="10" stroke-linecap="round" stroke-linejoin="round"/>
<path d="M684.764 538.028H673.257" stroke="#444E59" stroke-width="3" stroke-miterlimit="10" stroke-linecap="round" stroke-linejoin="round"/>
<path d="M680.449 549.535H673.257" stroke="#444E59" stroke-width="3" stroke-miterlimit="10" stroke-linecap="round" stroke-linejoin="round"/>
<path d="M684.764 515.014H673.257" stroke="#444E59" stroke-width="3" stroke-miterlimit="10" stroke-linecap="round" stroke-linejoin="round"/>
<path d="M680.449 526.521H673.257" stroke="#444E59" stroke-width="3" stroke-miterlimit="10" stroke-linecap="round" stroke-linejoin="round"/>
<path d="M684.764 492.001H673.257" stroke="#444E59" stroke-width="3" stroke-miterlimit="10" stroke-linecap="round" stroke-linejoin="round"/>
<path d="M680.449 503.507H673.257" stroke="#444E59" stroke-width="3" stroke-miterlimit="10" stroke-linecap="round" stroke-linejoin="round"/>
<path d="M684.764 468.987H673.257" stroke="#444E59" stroke-width="3" stroke-miterlimit="10" stroke-linecap="round" stroke-linejoin="round"/>
<path d="M680.449 480.494H673.257" stroke="#444E59" stroke-width="3" stroke-miterlimit="10" stroke-linecap="round" stroke-linejoin="round"/>
<path d="M684.764 445.973H673.257" stroke="#444E59" stroke-width="3" stroke-miterlimit="10" stroke-linecap="round" stroke-linejoin="round"/>
<path d="M680.449 457.48H673.257" stroke="#444E59" stroke-width="3" stroke-miterlimit="10" stroke-linecap="round" stroke-linejoin="round"/>
<path d="M684.764 422.96H673.257" stroke="#444E59" stroke-width="3" stroke-miterlimit="10" stroke-linecap="round" stroke-linejoin="round"/>
<path d="M680.449 434.467H673.257" stroke="#444E59" stroke-width="3" stroke-miterlimit="10" stroke-linecap="round" stroke-linejoin="round"/>
<path d="M625.052 471.347H612.11V505.467H625.052V471.347Z" fill="#848484"/>
<path opacity="0.25" d="M616.89 471.347H612.11V505.467H616.89V471.347Z" fill="#848484"/>
<path d="M625.052 471.347H612.11V505.467H625.052V471.347Z" stroke="#444E59" stroke-width="4" stroke-miterlimit="10" stroke-linecap="round" stroke-linejoin="round"/>
<path d="M621.523 505.467H615.64V521.939H621.523V505.467Z" fill="white"/>
<path d="M621.523 505.467H615.64V521.939H621.523V505.467Z" stroke="#444E59" stroke-width="4" stroke-miterlimit="10" stroke-linecap="round" stroke-linejoin="round"/>
<path d="M608.637 536.732L578.643 654.417L624.219 538.273L608.637 536.732Z" fill="white"/>
<path d="M608.637 536.732L578.643 654.417L624.219 538.273L608.637 536.732Z" stroke="#444E59" stroke-width="4" stroke-miterlimit="10" stroke-linecap="round" stroke-linejoin="round"/>
<path d="M628.633 536.732L658.627 654.417L613.05 538.273L628.633 536.732Z" fill="white"/>
<path d="M628.633 536.732L658.627 654.417L613.05 538.273L628.633 536.732Z" stroke="#444E59" stroke-width="4" stroke-miterlimit="10" stroke-linecap="round" stroke-linejoin="round"/>
<path d="M618.64 559.766C629.686 559.766 638.641 550.811 638.641 539.765C638.641 528.718 629.686 519.764 618.64 519.764C607.593 519.764 598.639 528.718 598.639 539.765C598.639 550.811 607.593 559.766 618.64 559.766Z" fill="#71A850"/>
<path opacity="0.4" d="M604.218 539.765C604.218 529.668 611.707 521.341 621.429 519.981C620.515 519.853 619.589 519.764 618.639 519.764C607.593 519.764 598.638 528.719 598.638 539.765C598.638 550.811 607.593 559.766 618.639 559.766C619.588 559.766 620.515 559.677 621.429 559.549C611.708 558.189 604.218 549.862 604.218 539.765Z" fill="#71A850"/>
<path d="M618.64 559.766C629.686 559.766 638.641 550.811 638.641 539.765C638.641 528.718 629.686 519.764 618.64 519.764C607.593 519.764 598.639 528.718 598.639 539.765C598.639 550.811 607.593 559.766 618.64 559.766Z" stroke="#444E59" stroke-width="4" stroke-miterlimit="10" stroke-linecap="round" stroke-linejoin="round"/>
<path d="M618.64 546.541C622.383 546.541 625.416 543.508 625.416 539.765C625.416 536.023 622.383 532.989 618.64 532.989C614.898 532.989 611.864 536.023 611.864 539.765C611.864 543.508 614.898 546.541 618.64 546.541Z" fill="#444E59"/>
<path d="M618.64 546.541C622.383 546.541 625.416 543.508 625.416 539.765C625.416 536.023 622.383 532.989 618.64 532.989C614.898 532.989 611.864 536.023 611.864 539.765C611.864 543.508 614.898 546.541 618.64 546.541Z" stroke="#444E59" stroke-width="4" stroke-miterlimit="10" stroke-linecap="round" stroke-linejoin="round"/>
<path d="M546.416 654.168H414.416C406.684 654.168 400.416 647.9 400.416 640.168V368.168C400.416 360.436 406.684 354.168 414.416 354.168H546.416C554.148 354.168 560.416 360.436 560.416 368.168V640.168C560.416 647.9 554.148 654.168 546.416 654.168Z" fill="#848484"/>
<path opacity="0.28" d="M546.416 354.168H537.96C545.692 354.168 551.96 360.436 551.96 368.168V640.168C551.96 647.9 545.692 654.168 537.96 654.168H546.416C554.148 654.168 560.416 647.9 560.416 640.168V368.168C560.416 360.436 554.148 354.168 546.416 354.168Z" fill="#848484"/>
<path opacity="0.48" d="M408.749 640.168V368.168C408.749 360.436 415.017 354.168 422.749 354.168H414.416C406.684 354.168 400.416 360.436 400.416 368.168V640.168C400.416 647.9 406.684 654.168 414.416 654.168H422.749C415.017 654.168 408.749 647.9 408.749 640.168Z" fill="#848484"/>
<path d="M546.416 654.168H414.416C406.684 654.168 400.416 647.9 400.416 640.168V368.168C400.416 360.436 406.684 354.168 414.416 354.168H546.416C554.148 354.168 560.416 360.436 560.416 368.168V640.168C560.416 647.9 554.148 654.168 546.416 654.168Z" stroke="#444E59" stroke-width="4" stroke-miterlimit="10" stroke-linecap="round" stroke-linejoin="round"/>
<path d="M560.416 615.704V391.704H400.416V615.704H560.416Z" fill="#E9FBFF"/>
<path d="M559.592 463.861H547.111C540.324 463.861 534.822 458.359 534.822 451.572V421.07C534.822 414.283 540.324 408.781 547.111 408.781H559.592V463.861ZM409.566 587.527H400.416V490.255H409.566C416.454 490.255 422.038 495.839 422.038 502.727V575.056C422.038 581.944 416.454 587.527 409.566 587.527Z" fill="#C9C9C9"/>
<path d="M560.416 615.704V391.704H400.416V615.704H560.416Z" stroke="#444E59" stroke-width="4" stroke-miterlimit="10" stroke-linecap="round" stroke-linejoin="round"/>
<path d="M502.416 374.204H509.416" stroke="#444E59" stroke-width="5" stroke-miterlimit="10" stroke-linecap="round" stroke-linejoin="round"/>
<path d="M451.416 374.204H491.416" stroke="#444E59" stroke-width="5" stroke-miterlimit="10" stroke-linecap="round" stroke-linejoin="round"/>
<path opacity="0.29" d="M480.416 643.543C486.465 643.543 491.369 638.639 491.369 632.59C491.369 626.541 486.465 621.637 480.416 621.637C474.367 621.637 469.463 626.541 469.463 632.59C469.463 638.639 474.367 643.543 480.416 643.543Z" fill="#848484"/>
<path d="M480.416 640.992C485.056 640.992 488.818 637.23 488.818 632.59C488.818 627.949 485.056 624.188 480.416 624.188C475.775 624.188 472.014 627.949 472.014 632.59C472.014 637.23 475.775 640.992 480.416 640.992Z" fill="#444E59"/>
<g opacity="0.3">
<path opacity="0.3" d="M443.856 588.891H427.856C423.438 588.891 419.856 585.309 419.856 580.891V564.891C419.856 560.473 423.438 556.891 427.856 556.891H443.856C448.274 556.891 451.856 560.473 451.856 564.891V580.891C451.856 585.31 448.274 588.891 443.856 588.891ZM532.416 588.891H516.416C511.998 588.891 508.416 585.309 508.416 580.891V564.891C508.416 560.473 511.998 556.891 516.416 556.891H532.416C536.834 556.891 540.416 560.473 540.416 564.891V580.891C540.416 585.31 536.834 588.891 532.416 588.891ZM488.416 588.891H472.416C467.998 588.891 464.416 585.309 464.416 580.891V564.891C464.416 560.473 467.998 556.891 472.416 556.891H488.416C492.834 556.891 496.416 560.473 496.416 564.891V580.891C496.416 585.31 492.834 588.891 488.416 588.891ZM443.856 540.891H427.856C423.438 540.891 419.856 537.309 419.856 532.891V516.891C419.856 512.473 423.438 508.891 427.856 508.891H443.856C448.274 508.891 451.856 512.473 451.856 516.891V532.891C451.856 537.31 448.274 540.891 443.856 540.891ZM532.416 540.891H516.416C511.998 540.891 508.416 537.309 508.416 532.891V516.891C508.416 512.473 511.998 508.891 516.416 508.891H532.416C536.834 508.891 540.416 512.473 540.416 516.891V532.891C540.416 537.31 536.834 540.891 532.416 540.891ZM488.416 540.891H472.416C467.998 540.891 464.416 537.309 464.416 532.891V516.891C464.416 512.473 467.998 508.891 472.416 508.891H488.416C492.834 508.891 496.416 512.473 496.416 516.891V532.891C496.416 537.31 492.834 540.891 488.416 540.891Z" stroke="#444E59" stroke-width="2" stroke-linecap="round" stroke-linejoin="round" stroke-dasharray="4.08 4.08"/>
<g opacity="0.3">
<path opacity="0.3" d="M443.856 492.891H427.856C423.438 492.891 419.856 489.309 419.856 484.891V468.891C419.856 464.473 423.438 460.891 427.856 460.891H443.856C448.274 460.891 451.856 464.473 451.856 468.891V484.891C451.856 489.31 448.274 492.891 443.856 492.891ZM532.416 492.891H516.416C511.998 492.891 508.416 489.309 508.416 484.891V468.891C508.416 464.473 511.998 460.891 516.416 460.891H532.416C536.834 460.891 540.416 464.473 540.416 468.891V484.891C540.416 489.31 536.834 492.891 532.416 492.891ZM488.416 492.891H472.416C467.998 492.891 464.416 489.309 464.416 484.891V468.891C464.416 464.473 467.998 460.891 472.416 460.891H488.416C492.834 460.891 496.416 464.473 496.416 468.891V484.891C496.416 489.31 492.834 492.891 488.416 492.891Z" stroke="#444E59" stroke-width="2" stroke-linecap="round" stroke-linejoin="round" stroke-dasharray="4.08 4.08"/>
</g>
<g opacity="0.3">
<path opacity="0.3" d="M443.856 444.891H427.856C423.438 444.891 419.856 441.309 419.856 436.891V420.891C419.856 416.473 423.438 412.891 427.856 412.891H443.856C448.274 412.891 451.856 416.473 451.856 420.891V436.891C451.856 441.31 448.274 444.891 443.856 444.891ZM532.416 444.891H516.416C511.998 444.891 508.416 441.309 508.416 436.891V420.891C508.416 416.473 511.998 412.891 516.416 412.891H532.416C536.834 412.891 540.416 416.473 540.416 420.891V436.891C540.416 441.31 536.834 444.891 532.416 444.891ZM488.416 444.891H472.416C467.998 444.891 464.416 441.309 464.416 436.891V420.891C464.416 416.473 467.998 412.891 472.416 412.891H488.416C492.834 412.891 496.416 416.473 496.416 420.891V436.891C496.416 441.31 492.834 444.891 488.416 444.891Z" stroke="#444E59" stroke-width="2" stroke-linecap="round" stroke-linejoin="round" stroke-dasharray="4.08 4.08"/>
</g>
</g>
<path d="M443.856 588.891H427.856C423.438 588.891 419.856 585.309 419.856 580.891V564.891C419.856 560.473 423.438 556.891 427.856 556.891H443.856C448.274 556.891 451.856 560.473 451.856 564.891V580.891C451.856 585.31 448.274 588.891 443.856 588.891Z" fill="#71A850"/>
<path opacity="0.52" d="M443.851 556.891H427.851C424.647 556.891 421.89 558.78 420.613 561.5L451.851 567.125V564.89C451.851 560.473 448.27 556.891 443.851 556.891Z" fill="#5F8C42"/>
<path d="M443.856 588.891H427.856C423.438 588.891 419.856 585.309 419.856 580.891V564.891C419.856 560.473 423.438 556.891 427.856 556.891H443.856C448.274 556.891 451.856 560.473 451.856 564.891V580.891C451.856 585.31 448.274 588.891 443.856 588.891Z" stroke="#444E59" stroke-width="4" stroke-miterlimit="10" stroke-linecap="round" stroke-linejoin="round"/>
<path d="M488.416 588.891H472.416C467.998 588.891 464.416 585.309 464.416 580.891V564.891C464.416 560.473 467.998 556.891 472.416 556.891H488.416C492.834 556.891 496.416 560.473 496.416 564.891V580.891C496.416 585.31 492.834 588.891 488.416 588.891Z" fill="#F09F54"/>
<path opacity="0.52" d="M488.416 556.891H472.416C469.212 556.891 466.455 558.78 465.178 561.5L496.416 567.125V564.89C496.416 560.473 492.834 556.891 488.416 556.891Z" fill="#D38444"/>
<path d="M488.416 588.891H472.416C467.998 588.891 464.416 585.309 464.416 580.891V564.891C464.416 560.473 467.998 556.891 472.416 556.891H488.416C492.834 556.891 496.416 560.473 496.416 564.891V580.891C496.416 585.31 492.834 588.891 488.416 588.891Z" stroke="#444E59" stroke-width="4" stroke-miterlimit="10" stroke-linecap="round" stroke-linejoin="round"/>
<path d="M532.416 540.891H516.416C511.998 540.891 508.416 537.309 508.416 532.891V516.891C508.416 512.473 511.998 508.891 516.416 508.891H532.416C536.834 508.891 540.416 512.473 540.416 516.891V532.891C540.416 537.31 536.834 540.891 532.416 540.891Z" fill="#2FA9ED"/>
<path opacity="0.52" d="M532.416 508.891H516.416C513.212 508.891 510.455 510.78 509.178 513.5L540.416 519.125V516.89C540.416 512.473 536.834 508.891 532.416 508.891Z" fill="#288FBC"/>
<path d="M532.416 540.891H516.416C511.998 540.891 508.416 537.309 508.416 532.891V516.891C508.416 512.473 511.998 508.891 516.416 508.891H532.416C536.834 508.891 540.416 512.473 540.416 516.891V532.891C540.416 537.31 536.834 540.891 532.416 540.891Z" stroke="#444E59" stroke-width="4" stroke-miterlimit="10" stroke-linecap="round" stroke-linejoin="round"/>
<path d="M488.416 492.891H472.416C467.998 492.891 464.416 489.309 464.416 484.891V468.891C464.416 464.473 467.998 460.891 472.416 460.891H488.416C492.834 460.891 496.416 464.473 496.416 468.891V484.891C496.416 489.31 492.834 492.891 488.416 492.891Z" fill="#E7534E"/>
<path opacity="0.52" d="M488.416 460.891H472.416C469.212 460.891 466.455 462.78 465.178 465.5L496.416 471.125V468.89C496.416 464.473 492.834 460.891 488.416 460.891Z" fill="#BF4040"/>
<path d="M488.416 492.891H472.416C467.998 492.891 464.416 489.309 464.416 484.891V468.891C464.416 464.473 467.998 460.891 472.416 460.891H488.416C492.834 460.891 496.416 464.473 496.416 468.891V484.891C496.416 489.31 492.834 492.891 488.416 492.891Z" stroke="#444E59" stroke-width="4" stroke-miterlimit="10" stroke-linecap="round" stroke-linejoin="round"/>
<path d="M521.811 517.865L531.005 523.173C532.328 523.937 532.328 525.846 531.005 526.609L521.811 531.917C520.488 532.681 518.835 531.726 518.835 530.199V519.583C518.835 518.056 520.488 517.101 521.811 517.865ZM484.63 566.683H476.201C474.411 566.683 472.959 568.134 472.959 569.925V576.111C472.959 577.901 474.41 579.353 476.201 579.353H476.457L475.759 582.151C475.708 582.355 475.939 582.513 476.111 582.391L480.373 579.354H484.63C486.42 579.354 487.872 577.903 487.872 576.112V569.926C487.872 568.134 486.42 566.683 484.63 566.683Z" fill="white"/>
<path d="M429.738 572.873L433.412 576.547C433.915 577.05 434.731 577.05 435.235 576.547L443.494 568.288" stroke="white" stroke-width="4" stroke-miterlimit="10" stroke-linecap="round" stroke-linejoin="round"/>
<path d="M480.416 484.347C484.534 484.347 487.872 481.008 487.872 476.891C487.872 472.773 484.534 469.435 480.416 469.435C476.298 469.435 472.96 472.773 472.96 476.891C472.96 481.008 476.298 484.347 480.416 484.347Z" stroke="white" stroke-width="4" stroke-miterlimit="10" stroke-linecap="round" stroke-linejoin="round"/>
<path d="M420.032 437.93L419.874 422.967L409.855 423.073C409.29 421.208 408.53 419.429 407.593 417.763L414.601 410.606L403.908 400.137L396.9 407.294C395.214 406.392 393.42 405.67 391.544 405.144L391.438 395.125L376.475 395.283L376.581 405.303C374.716 405.869 372.937 406.628 371.271 407.565L364.113 400.557L353.644 411.25L360.801 418.258C359.899 419.943 359.177 421.738 358.651 423.614L348.632 423.72L348.79 438.683L358.81 438.577C359.375 440.442 360.135 442.221 361.072 443.887L354.064 451.044L364.756 461.513L371.764 454.356C373.45 455.258 375.244 455.98 377.121 456.506L377.227 466.526L392.19 466.368L392.084 456.349C393.949 455.784 395.728 455.024 397.394 454.087L404.551 461.095L415.02 450.4L407.863 443.392C408.765 441.707 409.487 439.912 410.013 438.036L420.032 437.93ZM384.455 442.504C378.005 442.572 372.72 437.398 372.652 430.948C372.584 424.498 377.758 419.213 384.208 419.145C390.658 419.077 395.943 424.251 396.011 430.701C396.08 437.152 390.906 442.436 384.455 442.504Z" fill="white"/>
<path d="M420.032 437.93L419.874 422.967L409.855 423.073C409.29 421.208 408.53 419.429 407.593 417.763L414.601 410.606L403.908 400.137L396.9 407.294C395.214 406.392 393.42 405.67 391.544 405.144L391.438 395.125L376.475 395.283L376.581 405.303C374.716 405.869 372.937 406.628 371.271 407.565L364.113 400.557L353.644 411.25L360.801 418.258C359.899 419.943 359.177 421.738 358.651 423.614L348.632 423.72L348.79 438.683L358.81 438.577C359.375 440.442 360.135 442.221 361.072 443.887L354.064 451.044L364.756 461.513L371.764 454.356C373.45 455.258 375.244 455.98 377.121 456.506L377.227 466.526L392.19 466.368L392.084 456.349C393.949 455.784 395.728 455.024 397.394 454.087L404.551 461.095L415.02 450.4L407.863 443.392C408.765 441.707 409.487 439.912 410.013 438.036L420.032 437.93ZM384.455 442.504C378.005 442.572 372.72 437.398 372.652 430.948C372.584 424.498 377.758 419.213 384.208 419.145C390.658 419.077 395.943 424.251 396.011 430.701C396.08 437.152 390.906 442.436 384.455 442.504Z" fill="#F09F54"/>
<path d="M420.032 437.93L419.874 422.967L409.855 423.073C409.29 421.208 408.53 419.429 407.593 417.763L414.601 410.606L403.908 400.137L396.9 407.294C395.214 406.392 393.42 405.67 391.544 405.144L391.438 395.125L376.475 395.283L376.581 405.303C374.716 405.869 372.937 406.628 371.271 407.565L364.113 400.557L353.644 411.25L360.801 418.258C359.899 419.943 359.177 421.738 358.651 423.614L348.632 423.72L348.79 438.683L358.81 438.577C359.375 440.442 360.135 442.221 361.072 443.887L354.064 451.044L364.756 461.513L371.764 454.356C373.45 455.258 375.244 455.98 377.121 456.506L377.227 466.526L392.19 466.368L392.084 456.349C393.949 455.784 395.728 455.024 397.394 454.087L404.551 461.095L415.02 450.4L407.863 443.392C408.765 441.707 409.487 439.912 410.013 438.036L420.032 437.93ZM384.455 442.504C378.005 442.572 372.72 437.398 372.652 430.948C372.584 424.498 377.758 419.213 384.208 419.145C390.658 419.077 395.943 424.251 396.011 430.701C396.08 437.152 390.906 442.436 384.455 442.504Z" fill="#F09F54"/>
<g opacity="0.29">
<path opacity="0.29" d="M416.157 423.006C416.164 423.028 416.172 423.05 416.179 423.072L419.875 423.033L419.874 422.966L416.157 423.006ZM403.224 407.294L407.136 403.298L403.907 400.136L398.74 405.414C400.3 405.909 401.803 406.533 403.224 407.294ZM390.533 419.145C389.482 419.156 388.471 419.318 387.505 419.589C392.366 420.96 395.955 425.395 396.011 430.702C396.068 436.102 392.446 440.672 387.482 442.061C388.53 442.357 389.635 442.517 390.779 442.505C397.23 442.437 402.403 437.153 402.335 430.702C402.267 424.251 396.984 419.077 390.533 419.145ZM375.613 405.624L377.595 407.564C379.261 406.626 381.04 405.867 382.905 405.302L382.799 395.282L391.438 395.191L391.437 395.124L376.474 395.282L376.58 405.302C376.254 405.401 375.934 405.513 375.613 405.624ZM383.445 456.504C381.569 455.978 379.774 455.256 378.088 454.354L376.248 456.234C376.538 456.326 376.826 456.422 377.12 456.504L377.226 466.524L383.55 466.457L383.445 456.504ZM354.957 423.719L364.976 423.613C365.502 421.737 366.223 419.942 367.126 418.257L359.969 411.249L367.342 403.718L364.113 400.556L353.644 411.249L360.801 418.257C359.899 419.942 359.177 421.737 358.651 423.613L348.632 423.719L348.79 438.682L355.114 438.615L354.957 423.719ZM403.718 454.084C402.343 454.858 400.888 455.502 399.375 456.024L404.551 461.092L407.647 457.93L403.718 454.084ZM360.389 451.043L367.397 443.886C366.459 442.22 365.7 440.441 365.135 438.576L358.833 438.642C359.396 440.482 360.147 442.239 361.073 443.885L354.065 451.042L364.757 461.511L367.853 458.349L360.389 451.043Z" fill="#F09F54"/>
</g>
<path d="M420.032 437.93L419.874 422.967L409.855 423.073C409.29 421.208 408.53 419.429 407.593 417.763L414.601 410.606L403.908 400.137L396.9 407.294C395.214 406.392 393.42 405.67 391.544 405.144L391.438 395.125L376.475 395.283L376.581 405.303C374.716 405.869 372.937 406.628 371.271 407.565L364.113 400.557L353.644 411.25L360.801 418.258C359.899 419.943 359.177 421.738 358.651 423.614L348.632 423.72L348.79 438.683L358.81 438.577C359.375 440.442 360.135 442.221 361.072 443.887L354.064 451.044L364.756 461.513L371.764 454.356C373.45 455.258 375.244 455.98 377.121 456.506L377.227 466.526L392.19 466.368L392.084 456.349C393.949 455.784 395.728 455.024 397.394 454.087L404.551 461.095L415.02 450.4L407.863 443.392C408.765 441.707 409.487 439.912 410.013 438.036L420.032 437.93ZM384.455 442.504C378.005 442.572 372.72 437.398 372.652 430.948C372.584 424.498 377.758 419.213 384.208 419.145C390.658 419.077 395.943 424.251 396.011 430.701C396.08 437.152 390.906 442.436 384.455 442.504Z" stroke="#444E59" stroke-width="4" stroke-miterlimit="10" stroke-linecap="round" stroke-linejoin="round"/>
<path d="M357.531 654.168H233.775C229.711 654.168 226.416 650.873 226.416 646.809V562.17C226.416 558.106 229.711 554.811 233.775 554.811H357.532C361.596 554.811 364.891 558.106 364.891 562.17V646.809C364.891 650.873 361.596 654.168 357.531 654.168Z" fill="#444E59"/>
<path d="M364.891 570.891H226.416V562.17C226.416 558.106 229.711 554.811 233.775 554.811H357.531C361.596 554.811 364.891 558.106 364.891 562.171V570.891Z" fill="#BCBCBC"/>
<path d="M357.531 654.168H233.775C229.711 654.168 226.416 650.873 226.416 646.809V562.17C226.416 558.106 229.711 554.811 233.775 554.811H357.532C361.596 554.811 364.891 558.106 364.891 562.17V646.809C364.891 650.873 361.596 654.168 357.531 654.168Z" stroke="#444E59" stroke-width="4" stroke-miterlimit="10" stroke-linecap="round" stroke-linejoin="round"/>
<path d="M357.531 654.168H233.775C229.711 654.168 226.416 650.873 226.416 646.809V562.17C226.416 558.106 229.711 554.811 233.775 554.811H357.532C361.596 554.811 364.891 558.106 364.891 562.17V646.809C364.891 650.873 361.596 654.168 357.531 654.168Z" stroke="#444E59" stroke-width="4" stroke-miterlimit="10" stroke-linecap="round" stroke-linejoin="round"/>
<path d="M364.891 570.891H226.416V562.17C226.416 558.106 229.711 554.811 233.775 554.811H357.531C361.596 554.811 364.891 558.106 364.891 562.171V570.891Z" stroke="#444E59" stroke-width="4" stroke-miterlimit="10" stroke-linecap="round" stroke-linejoin="round"/>
<path d="M245.54 641.493H261.12" stroke="white" stroke-width="4" stroke-miterlimit="10" stroke-linecap="round" stroke-linejoin="round"/>
<path d="M234.507 641.493H235.594" stroke="white" stroke-width="4" stroke-miterlimit="10" stroke-linecap="round" stroke-linejoin="round"/>
<path d="M245.54 632.869H285.024" stroke="white" stroke-width="4" stroke-miterlimit="10" stroke-linecap="round" stroke-linejoin="round"/>
<path d="M234.507 632.869H235.594" stroke="white" stroke-width="4" stroke-miterlimit="10" stroke-linecap="round" stroke-linejoin="round"/>
<path d="M303.827 624.244H314.57" stroke="#64BDFF" stroke-width="4" stroke-miterlimit="10" stroke-linecap="round" stroke-linejoin="round"/>
<path d="M274.414 624.244H294.426" stroke="white" stroke-width="4" stroke-miterlimit="10" stroke-linecap="round" stroke-linejoin="round"/>
<path d="M245.54 624.244H265.282" stroke="#FF5F5F" stroke-width="4" stroke-miterlimit="10" stroke-linecap="round" stroke-linejoin="round"/>
<path d="M234.507 624.244H235.594" stroke="white" stroke-width="4" stroke-miterlimit="10" stroke-linecap="round" stroke-linejoin="round"/>
<path d="M278.846 615.619H327.009" stroke="white" stroke-width="4" stroke-miterlimit="10" stroke-linecap="round" stroke-linejoin="round"/>
<path d="M245.54 615.619H270.654" stroke="#64BDFF" stroke-width="4" stroke-miterlimit="10" stroke-linecap="round" stroke-linejoin="round"/>
<path d="M234.507 615.619H235.594" stroke="white" stroke-width="4" stroke-miterlimit="10" stroke-linecap="round" stroke-linejoin="round"/>
<path d="M278.846 606.994H296.842" stroke="#FF5F5F" stroke-width="4" stroke-miterlimit="10" stroke-linecap="round" stroke-linejoin="round"/>
<path d="M245.54 606.994H270.654" stroke="#FFBE78" stroke-width="4" stroke-miterlimit="10" stroke-linecap="round" stroke-linejoin="round"/>
<path d="M234.507 606.994H235.594" stroke="white" stroke-width="4" stroke-miterlimit="10" stroke-linecap="round" stroke-linejoin="round"/>
<path d="M282.338 598.369H287.173" stroke="#64BDFF" stroke-width="4" stroke-miterlimit="10" stroke-linecap="round" stroke-linejoin="round"/>
<path d="M263.268 598.369H274.415" stroke="#FF5F5F" stroke-width="4" stroke-miterlimit="10" stroke-linecap="round" stroke-linejoin="round"/>
<path d="M245.54 598.369H254.672" stroke="#C383F2" stroke-width="4" stroke-miterlimit="10" stroke-linecap="round" stroke-linejoin="round"/>
<path d="M234.507 598.369H235.594" stroke="white" stroke-width="4" stroke-miterlimit="10" stroke-linecap="round" stroke-linejoin="round"/>
<path d="M318.331 589.744H327.009" stroke="#64BDFF" stroke-width="4" stroke-miterlimit="10" stroke-linecap="round" stroke-linejoin="round"/>
<path d="M273.206 589.744H307.319" stroke="#FF5F5F" stroke-width="4" stroke-miterlimit="10" stroke-linecap="round" stroke-linejoin="round"/>
<path d="M245.54 589.744H265.82" stroke="#FFBE78" stroke-width="4" stroke-miterlimit="10" stroke-linecap="round" stroke-linejoin="round"/>
<path d="M234.507 589.744H235.594" stroke="white" stroke-width="4" stroke-miterlimit="10" stroke-linecap="round" stroke-linejoin="round"/>
<path d="M296.842 581.119H314.57" stroke="#FFBE78" stroke-width="4" stroke-miterlimit="10" stroke-linecap="round" stroke-linejoin="round"/>
<path d="M274.415 581.119H288.248" stroke="#6DBF7B" stroke-width="4" stroke-miterlimit="10" stroke-linecap="round" stroke-linejoin="round"/>
<path d="M259.373 581.119H267.163" stroke="#FFBE78" stroke-width="4" stroke-miterlimit="10" stroke-linecap="round" stroke-linejoin="round"/>
<path d="M245.54 581.119H251.852" stroke="#6DBF7B" stroke-width="4" stroke-miterlimit="10" stroke-linecap="round" stroke-linejoin="round"/>
<path d="M234.507 581.119H235.594" stroke="white" stroke-width="4" stroke-miterlimit="10" stroke-linecap="round" stroke-linejoin="round"/>
<path d="M240.068 565.383C241.468 565.383 242.602 564.249 242.602 562.849C242.602 561.45 241.468 560.315 240.068 560.315C238.669 560.315 237.534 561.45 237.534 562.849C237.534 564.249 238.669 565.383 240.068 565.383Z" fill="#E7534E"/>
<path d="M249.141 565.383C250.541 565.383 251.675 564.249 251.675 562.849C251.675 561.45 250.541 560.315 249.141 560.315C247.742 560.315 246.607 561.45 246.607 562.849C246.607 564.249 247.742 565.383 249.141 565.383Z" fill="#444E59"/>
<path d="M258.214 565.383C259.613 565.383 260.748 564.249 260.748 562.849C260.748 561.45 259.613 560.315 258.214 560.315C256.814 560.315 255.68 561.45 255.68 562.849C255.68 564.249 256.814 565.383 258.214 565.383Z" fill="#444E59"/>
<path d="M406.786 579.704H317.199C312.781 579.704 309.199 576.122 309.199 571.704V490.85C309.199 486.432 312.781 482.85 317.199 482.85H406.786C411.204 482.85 414.786 486.432 414.786 490.85V571.703C414.786 576.122 411.204 579.704 406.786 579.704Z" fill="white"/>
<path d="M406.786 579.704H317.199C312.781 579.704 309.199 576.122 309.199 571.704V490.85C309.199 486.432 312.781 482.85 317.199 482.85H406.786C411.204 482.85 414.786 486.432 414.786 490.85V571.703C414.786 576.122 411.204 579.704 406.786 579.704Z" fill="white"/>
<path d="M406.786 579.704H317.199C312.781 579.704 309.199 576.122 309.199 571.704V490.85C309.199 486.432 312.781 482.85 317.199 482.85H406.786C411.204 482.85 414.786 486.432 414.786 490.85V571.703C414.786 576.122 411.204 579.704 406.786 579.704Z" stroke="#444E59" stroke-width="4" stroke-miterlimit="10" stroke-linecap="round" stroke-linejoin="round"/>
<path d="M405.082 491.037H318.331V548.704H405.082V491.037Z" fill="#9483C4"/>
<path d="M405.082 491.037H318.331V548.704H405.082V491.037Z" stroke="#444E59" stroke-width="4" stroke-miterlimit="10" stroke-linecap="round" stroke-linejoin="round"/>
<path d="M318.331 557.891H373.082" stroke="#444E59" stroke-width="4" stroke-miterlimit="10" stroke-linecap="round" stroke-linejoin="round"/>
<path d="M318.331 567.126H350.749" stroke="#444E59" stroke-width="4" stroke-miterlimit="10" stroke-linecap="round" stroke-linejoin="round"/>
<path d="M327.009 538.37L345.707 519.87L363.099 537.263" stroke="#444E59" stroke-width="4" stroke-miterlimit="10" stroke-linecap="round" stroke-linejoin="round"/>
<path d="M395.749 538.37L373.082 508.891L354.957 529.12" stroke="#444E59" stroke-width="4" stroke-miterlimit="10" stroke-linecap="round" stroke-linejoin="round"/>
<path d="M395.508 566.992C398.218 566.992 400.415 564.795 400.415 562.085C400.415 559.375 398.218 557.178 395.508 557.178C392.798 557.178 390.601 559.375 390.601 562.085C390.601 564.795 392.798 566.992 395.508 566.992Z" stroke="#444E59" stroke-width="4" stroke-miterlimit="10" stroke-linecap="round" stroke-linejoin="round"/>
<path d="M351.21 515.079C354.61 515.079 357.366 512.322 357.366 508.923C357.366 505.523 354.61 502.767 351.21 502.767C347.81 502.767 345.054 505.523 345.054 508.923C345.054 512.322 347.81 515.079 351.21 515.079Z" fill="#F09F54"/>
<path d="M351.21 515.079C354.61 515.079 357.366 512.322 357.366 508.923C357.366 505.523 354.61 502.767 351.21 502.767C347.81 502.767 345.054 505.523 345.054 508.923C345.054 512.322 347.81 515.079 351.21 515.079Z" stroke="#444E59" stroke-width="4" stroke-miterlimit="10" stroke-linecap="round" stroke-linejoin="round"/>
<path d="M307.513 454.315H334.29" stroke="#444E59" stroke-width="4" stroke-miterlimit="10" stroke-linecap="round" stroke-linejoin="round"/>
<path d="M293.227 454.315H300.301" stroke="#444E59" stroke-width="4" stroke-miterlimit="10" stroke-linecap="round" stroke-linejoin="round"/>
<path d="M320.901 441.891H334.289" stroke="#444E59" stroke-width="4" stroke-miterlimit="10" stroke-linecap="round" stroke-linejoin="round"/>
<path d="M310.124 441.891H314.123" stroke="#444E59" stroke-width="4" stroke-miterlimit="10" stroke-linecap="round" stroke-linejoin="round"/>
<path d="M278.512 532.733H299.378" stroke="#444E59" stroke-width="4" stroke-miterlimit="10" stroke-linecap="round" stroke-linejoin="round"/>
<path d="M267.381 532.733H272.893" stroke="#444E59" stroke-width="4" stroke-miterlimit="10" stroke-linecap="round" stroke-linejoin="round"/>
<path d="M290.868 520.308H299.378" stroke="#444E59" stroke-width="4" stroke-miterlimit="10" stroke-linecap="round" stroke-linejoin="round"/>
<path d="M280.547 520.308H283.663" stroke="#444E59" stroke-width="4" stroke-miterlimit="10" stroke-linecap="round" stroke-linejoin="round"/>
<path d="M611.772 387.629H631.637" stroke="#444E59" stroke-width="4" stroke-miterlimit="10" stroke-linecap="round" stroke-linejoin="round"/>
<path d="M599.641 387.629H605.153" stroke="#444E59" stroke-width="4" stroke-miterlimit="10" stroke-linecap="round" stroke-linejoin="round"/>
<path d="M623.128 375.204H631.638" stroke="#444E59" stroke-width="4" stroke-miterlimit="10" stroke-linecap="round" stroke-linejoin="round"/>
<path d="M612.807 375.204H615.924" stroke="#444E59" stroke-width="4" stroke-miterlimit="10" stroke-linecap="round" stroke-linejoin="round"/>
<path d="M627.219 457.48H549.035C544.275 457.48 540.415 453.621 540.415 448.86V411.02C540.415 406.26 544.274 402.4 549.035 402.4H627.219C631.979 402.4 635.839 406.259 635.839 411.02V448.86C635.839 453.621 631.979 457.48 627.219 457.48Z" fill="#2FA9ED"/>
<path d="M627.219 457.48H549.035C544.275 457.48 540.415 453.621 540.415 448.86V411.02C540.415 406.26 544.274 402.4 549.035 402.4H627.219C631.979 402.4 635.839 406.259 635.839 411.02V448.86C635.839 453.621 631.979 457.48 627.219 457.48Z" stroke="#444E59" stroke-width="3" stroke-miterlimit="10" stroke-linecap="round" stroke-linejoin="round"/>
<path opacity="0.56" d="M588.127 417.2H621.914" stroke="white" stroke-width="3" stroke-miterlimit="10" stroke-linecap="round" stroke-linejoin="round"/>
<path opacity="0.56" d="M588.127 428.079H610.483" stroke="white" stroke-width="3" stroke-miterlimit="10" stroke-linecap="round" stroke-linejoin="round"/>
<g opacity="0.56">
<path opacity="0.56" d="M605.111 444.4H591.461C589.62 444.4 588.127 442.907 588.127 441.066C588.127 439.225 589.62 437.732 591.461 437.732H605.111C606.952 437.732 608.445 439.225 608.445 441.066C608.444 442.907 606.952 444.4 605.111 444.4Z" fill="white"/>
<path opacity="0.56" d="M605.111 444.4H591.461C589.62 444.4 588.127 442.907 588.127 441.066C588.127 439.225 589.62 437.732 591.461 437.732H605.111C606.952 437.732 608.445 439.225 608.445 441.066C608.444 442.907 606.952 444.4 605.111 444.4Z" stroke="white" stroke-width="3" stroke-miterlimit="10" stroke-linecap="round" stroke-linejoin="round"/>
</g>
<path d="M574.007 444.891H556.1C553.54 444.891 551.464 442.816 551.464 440.255V419.341C551.464 416.781 553.539 414.705 556.1 414.705H574.007C576.567 414.705 578.643 416.78 578.643 419.341V440.255C578.643 442.816 576.567 444.891 574.007 444.891Z" stroke="white" stroke-width="3" stroke-miterlimit="10" stroke-linecap="round" stroke-linejoin="round"/>
<path d="M565.054 431.172C567.699 431.172 569.844 429.027 569.844 426.382C569.844 423.736 567.699 421.592 565.054 421.592C562.408 421.592 560.264 423.736 560.264 426.382C560.264 429.027 562.408 431.172 565.054 431.172Z" stroke="white" stroke-width="3" stroke-miterlimit="10" stroke-linecap="round" stroke-linejoin="round"/>
<path d="M555.975 444.4C555.975 439.386 560.04 435.321 565.054 435.321C570.068 435.321 574.133 439.386 574.133 444.4" stroke="white" stroke-width="3" stroke-miterlimit="10" stroke-linecap="round" stroke-linejoin="round"/>
</svg>
