<svg width="1767" height="1209" viewBox="0 0 1767 1209" fill="none" xmlns="http://www.w3.org/2000/svg">
<path d="M584 578C589.2 578 589.2 581 594.4 581C599.6 581 599.6 578 604.799 578C609.998 578 609.998 581 615.198 581C620.398 581 620.398 578 625.598 578C630.797 578 630.797 581 635.996 581C641.197 581 641.197 578 646.396 578C651.597 578 651.597 581 656.797 581C661.998 581 661.998 578 667.197 578C672.397 578 672.397 581 677.597 581C682.797 581 682.797 578 687.997 578C693.197 578 693.197 581 698.396 581C703.597 581 703.597 578 708.797 578C713.998 578 713.998 581 719.198 581C724.399 581 724.399 578 729.599 578C734.799 578 734.799 581 740 581" stroke="#163747" stroke-width="2"/>
<path d="M120 844C125.2 844 125.2 847 130.4 847C135.6 847 135.6 844 140.799 844C145.998 844 145.998 847 151.198 847C156.398 847 156.398 844 161.598 844C166.797 844 166.797 847 171.996 847C177.197 847 177.197 844 182.396 844C187.597 844 187.597 847 192.797 847C197.998 847 197.998 844 203.197 844C208.397 844 208.397 847 213.597 847C218.797 847 218.797 844 223.997 844C229.197 844 229.197 847 234.396 847C239.597 847 239.597 844 244.797 844C249.998 844 249.998 847 255.198 847C260.399 847 260.399 844 265.599 844C270.799 844 270.799 847 276 847" stroke="#163747" stroke-width="2"/>
<path d="M672 1012C677.2 1012 677.2 1015 682.4 1015C687.6 1015 687.6 1012 692.799 1012C697.998 1012 697.998 1015 703.198 1015C708.398 1015 708.398 1012 713.598 1012C718.797 1012 718.797 1015 723.996 1015C729.197 1015 729.197 1012 734.396 1012C739.597 1012 739.597 1015 744.797 1015C749.998 1015 749.998 1012 755.197 1012C760.397 1012 760.397 1015 765.597 1015C770.797 1015 770.797 1012 775.997 1012C781.197 1012 781.197 1015 786.396 1015C791.597 1015 791.597 1012 796.797 1012C801.998 1012 801.998 1015 807.198 1015C812.399 1015 812.399 1012 817.599 1012C822.799 1012 822.799 1015 828 1015" stroke="#163747" stroke-width="2"/>
<path d="M0 1108C5.20021 1108 5.20018 1111 10.4004 1111C15.5995 1111 15.5995 1108 20.7987 1108C25.9985 1108 25.9985 1111 31.198 1111C36.3979 1111 36.3979 1108 41.5977 1108C46.7972 1108 46.7972 1111 51.9964 1111C57.1966 1111 57.1966 1108 62.3964 1108C67.597 1108 67.597 1111 72.7973 1111C77.9975 1111 77.9975 1108 83.1973 1108C88.3973 1108 88.3973 1111 93.597 1111C98.7968 1111 98.7968 1108 103.997 1108C109.197 1108 109.197 1111 114.396 1111C119.597 1111 119.597 1108 124.797 1108C129.998 1108 129.998 1111 135.198 1111C140.399 1111 140.399 1108 145.599 1108C150.799 1108 150.799 1111 156 1111" stroke="#163747" stroke-width="2"/>
<path d="M856 1196C861.2 1196 861.2 1199 866.4 1199C871.6 1199 871.6 1196 876.799 1196C881.998 1196 881.998 1199 887.198 1199C892.398 1199 892.398 1196 897.598 1196C902.797 1196 902.797 1199 907.996 1199C913.197 1199 913.197 1196 918.396 1196C923.597 1196 923.597 1199 928.797 1199C933.998 1199 933.998 1196 939.197 1196C944.397 1196 944.397 1199 949.597 1199C954.797 1199 954.797 1196 959.997 1196C965.197 1196 965.197 1199 970.396 1199C975.597 1199 975.597 1196 980.797 1196C985.998 1196 985.998 1199 991.198 1199C996.399 1199 996.399 1196 1001.6 1196C1006.8 1196 1006.8 1199 1012 1199" stroke="#163747" stroke-width="2"/>
<path d="M1564 1172C1569.2 1172 1569.2 1175 1574.4 1175C1579.6 1175 1579.6 1172 1584.8 1172C1590 1172 1590 1175 1595.2 1175C1600.4 1175 1600.4 1172 1605.6 1172C1610.8 1172 1610.8 1175 1616 1175C1621.2 1175 1621.2 1172 1626.4 1172C1631.6 1172 1631.6 1175 1636.8 1175C1642 1175 1642 1172 1647.2 1172C1652.4 1172 1652.4 1175 1657.6 1175C1662.8 1175 1662.8 1172 1668 1172C1673.2 1172 1673.2 1175 1678.4 1175C1683.6 1175 1683.6 1172 1688.8 1172C1694 1172 1694 1175 1699.2 1175C1704.4 1175 1704.4 1172 1709.6 1172C1714.8 1172 1714.8 1175 1720 1175" stroke="#163747" stroke-width="2"/>
<path d="M1398 37C1403.2 37 1403.2 40 1408.4 40C1413.6 40 1413.6 37 1418.8 37C1424 37 1424 40 1429.2 40C1434.4 40 1434.4 37 1439.6 37C1444.8 37 1444.8 40 1450 40C1455.2 40 1455.2 37 1460.4 37C1465.6 37 1465.6 40 1470.8 40C1476 40 1476 37 1481.2 37C1486.4 37 1486.4 40 1491.6 40C1496.8 40 1496.8 37 1502 37C1507.2 37 1507.2 40 1512.4 40C1517.6 40 1517.6 37 1522.8 37C1528 37 1528 40 1533.2 40C1538.4 40 1538.4 37 1543.6 37C1548.8 37 1548.8 40 1554 40" stroke="#163747" stroke-width="2"/>
<path d="M181 14C186.2 14 186.2 17 191.4 17C196.6 17 196.6 14 201.799 14C206.998 14 206.998 17 212.198 17C217.398 17 217.398 14 222.598 14C227.797 14 227.797 17 232.996 17C238.197 17 238.197 14 243.396 14C248.597 14 248.597 17 253.797 17C258.998 17 258.998 14 264.197 14C269.397 14 269.397 17 274.597 17C279.797 17 279.797 14 284.997 14C290.197 14 290.197 17 295.396 17C300.597 17 300.597 14 305.797 14C310.998 14 310.998 17 316.198 17C321.399 17 321.399 14 326.599 14C331.799 14 331.799 17 337 17" stroke="#163747" stroke-width="2"/>
<path d="M750 65C755.2 65 755.2 68 760.4 68C765.6 68 765.6 65 770.799 65C775.998 65 775.998 68 781.198 68C786.398 68 786.398 65 791.598 65C796.797 65 796.797 68 801.996 68C807.197 68 807.197 65 812.396 65C817.597 65 817.597 68 822.797 68C827.998 68 827.998 65 833.197 65C838.397 65 838.397 68 843.597 68C848.797 68 848.797 65 853.997 65C859.197 65 859.197 68 864.396 68C869.597 68 869.597 65 874.797 65C879.998 65 879.998 68 885.198 68C890.399 68 890.399 65 895.599 65C900.799 65 900.799 68 906 68" stroke="#163747" stroke-width="2"/>
<path d="M1026 816C1031.2 816 1031.2 819 1036.4 819C1041.6 819 1041.6 816 1046.8 816C1052 816 1052 819 1057.2 819C1062.4 819 1062.4 816 1067.6 816C1072.8 816 1072.8 819 1078 819C1083.2 819 1083.2 816 1088.4 816C1093.6 816 1093.6 819 1098.8 819C1104 819 1104 816 1109.2 816C1114.4 816 1114.4 819 1119.6 819C1124.8 819 1124.8 816 1130 816C1135.2 816 1135.2 819 1140.4 819C1145.6 819 1145.6 816 1150.8 816C1156 816 1156 819 1161.2 819C1166.4 819 1166.4 816 1171.6 816C1176.8 816 1176.8 819 1182 819" stroke="#163747" stroke-width="2"/>
<path d="M934 439C939.2 439 939.2 442 944.4 442C949.6 442 949.6 439 954.799 439C959.998 439 959.998 442 965.198 442C970.398 442 970.398 439 975.598 439C980.797 439 980.797 442 985.996 442C991.197 442 991.197 439 996.396 439C1001.6 439 1001.6 442 1006.8 442C1012 442 1012 439 1017.2 439C1022.4 439 1022.4 442 1027.6 442C1032.8 442 1032.8 439 1038 439C1043.2 439 1043.2 442 1048.4 442C1053.6 442 1053.6 439 1058.8 439C1064 439 1064 442 1069.2 442C1074.4 442 1074.4 439 1079.6 439C1084.8 439 1084.8 442 1090 442" stroke="#163747" stroke-width="2"/>
<path d="M1284 300C1289.2 300 1289.2 303 1294.4 303C1299.6 303 1299.6 300 1304.8 300C1310 300 1310 303 1315.2 303C1320.4 303 1320.4 300 1325.6 300C1330.8 300 1330.8 303 1336 303C1341.2 303 1341.2 300 1346.4 300C1351.6 300 1351.6 303 1356.8 303C1362 303 1362 300 1367.2 300C1372.4 300 1372.4 303 1377.6 303C1382.8 303 1382.8 300 1388 300C1393.2 300 1393.2 303 1398.4 303C1403.6 303 1403.6 300 1408.8 300C1414 300 1414 303 1419.2 303C1424.4 303 1424.4 300 1429.6 300C1434.8 300 1434.8 303 1440 303" stroke="#163747" stroke-width="2"/>
<path d="M1393 733C1398.2 733 1398.2 736 1403.4 736C1408.6 736 1408.6 733 1413.8 733C1419 733 1419 736 1424.2 736C1429.4 736 1429.4 733 1434.6 733C1439.8 733 1439.8 736 1445 736C1450.2 736 1450.2 733 1455.4 733C1460.6 733 1460.6 736 1465.8 736C1471 736 1471 733 1476.2 733C1481.4 733 1481.4 736 1486.6 736C1491.8 736 1491.8 733 1497 733C1502.2 733 1502.2 736 1507.4 736C1512.6 736 1512.6 733 1517.8 733C1523 733 1523 736 1528.2 736C1533.4 736 1533.4 733 1538.6 733C1543.8 733 1543.8 736 1549 736" stroke="#163747" stroke-width="2"/>
<circle cx="64.5" cy="65.5" r="1.5" fill="#163747"/>
<circle cx="68.5" cy="191.5" r="1.5" fill="#163747"/>
<circle cx="72.5" cy="317.5" r="1.5" fill="#163747"/>
<circle cx="76.5" cy="443.5" r="1.5" fill="#163747"/>
<circle cx="80.5" cy="569.5" r="1.5" fill="#163747"/>
<circle cx="84.5" cy="695.5" r="1.5" fill="#163747"/>
<circle cx="88.5" cy="821.5" r="1.5" fill="#163747"/>
<circle cx="92.5" cy="947.5" r="1.5" fill="#163747"/>
<circle cx="96.5" cy="1073.5" r="1.5" fill="#163747"/>
<circle cx="100.5" cy="1199.5" r="1.5" fill="#163747"/>
<circle cx="117.5" cy="123.5" r="1.5" fill="#163747"/>
<circle cx="121.5" cy="249.5" r="1.5" fill="#163747"/>
<circle cx="125.5" cy="375.5" r="1.5" fill="#163747"/>
<circle cx="129.5" cy="501.5" r="1.5" fill="#163747"/>
<circle cx="133.5" cy="627.5" r="1.5" fill="#163747"/>
<circle cx="137.5" cy="753.5" r="1.5" fill="#163747"/>
<circle cx="141.5" cy="879.5" r="1.5" fill="#163747"/>
<circle cx="145.5" cy="1005.5" r="1.5" fill="#163747"/>
<circle cx="149.5" cy="1131.5" r="1.5" fill="#163747"/>
<circle cx="115.5" cy="63.5" r="1.5" fill="#163747"/>
<circle cx="119.5" cy="189.5" r="1.5" fill="#163747"/>
<circle cx="123.5" cy="315.5" r="1.5" fill="#163747"/>
<circle cx="127.5" cy="441.5" r="1.5" fill="#163747"/>
<circle cx="131.5" cy="567.5" r="1.5" fill="#163747"/>
<circle cx="135.5" cy="693.5" r="1.5" fill="#163747"/>
<circle cx="139.5" cy="819.5" r="1.5" fill="#163747"/>
<circle cx="143.5" cy="945.5" r="1.5" fill="#163747"/>
<circle cx="147.5" cy="1071.5" r="1.5" fill="#163747"/>
<circle cx="151.5" cy="1197.5" r="1.5" fill="#163747"/>
<circle cx="168.5" cy="121.5" r="1.5" fill="#163747"/>
<circle cx="172.5" cy="247.5" r="1.5" fill="#163747"/>
<circle cx="176.5" cy="373.5" r="1.5" fill="#163747"/>
<circle cx="180.5" cy="499.5" r="1.5" fill="#163747"/>
<circle cx="184.5" cy="625.5" r="1.5" fill="#163747"/>
<circle cx="188.5" cy="751.5" r="1.5" fill="#163747"/>
<circle cx="192.5" cy="877.5" r="1.5" fill="#163747"/>
<circle cx="196.5" cy="1003.5" r="1.5" fill="#163747"/>
<circle cx="200.5" cy="1129.5" r="1.5" fill="#163747"/>
<circle cx="166.5" cy="61.5" r="1.5" fill="#163747"/>
<circle cx="170.5" cy="187.5" r="1.5" fill="#163747"/>
<circle cx="174.5" cy="313.5" r="1.5" fill="#163747"/>
<circle cx="178.5" cy="439.5" r="1.5" fill="#163747"/>
<circle cx="182.5" cy="565.5" r="1.5" fill="#163747"/>
<circle cx="186.5" cy="691.5" r="1.5" fill="#163747"/>
<circle cx="190.5" cy="817.5" r="1.5" fill="#163747"/>
<circle cx="194.5" cy="943.5" r="1.5" fill="#163747"/>
<circle cx="198.5" cy="1069.5" r="1.5" fill="#163747"/>
<circle cx="202.5" cy="1195.5" r="1.5" fill="#163747"/>
<circle cx="219.5" cy="119.5" r="1.5" fill="#163747"/>
<circle cx="223.5" cy="245.5" r="1.5" fill="#163747"/>
<circle cx="227.5" cy="371.5" r="1.5" fill="#163747"/>
<circle cx="231.5" cy="497.5" r="1.5" fill="#163747"/>
<circle cx="235.5" cy="623.5" r="1.5" fill="#163747"/>
<circle cx="239.5" cy="749.5" r="1.5" fill="#163747"/>
<circle cx="243.5" cy="875.5" r="1.5" fill="#163747"/>
<circle cx="247.5" cy="1001.5" r="1.5" fill="#163747"/>
<circle cx="251.5" cy="1127.5" r="1.5" fill="#163747"/>
<circle cx="217.5" cy="59.5" r="1.5" fill="#163747"/>
<circle cx="221.5" cy="185.5" r="1.5" fill="#163747"/>
<circle cx="225.5" cy="311.5" r="1.5" fill="#163747"/>
<circle cx="229.5" cy="437.5" r="1.5" fill="#163747"/>
<circle cx="233.5" cy="563.5" r="1.5" fill="#163747"/>
<circle cx="237.5" cy="689.5" r="1.5" fill="#163747"/>
<circle cx="241.5" cy="815.5" r="1.5" fill="#163747"/>
<circle cx="245.5" cy="941.5" r="1.5" fill="#163747"/>
<circle cx="249.5" cy="1067.5" r="1.5" fill="#163747"/>
<circle cx="253.5" cy="1193.5" r="1.5" fill="#163747"/>
<circle cx="270.5" cy="117.5" r="1.5" fill="#163747"/>
<circle cx="274.5" cy="243.5" r="1.5" fill="#163747"/>
<circle cx="278.5" cy="369.5" r="1.5" fill="#163747"/>
<circle cx="282.5" cy="495.5" r="1.5" fill="#163747"/>
<circle cx="286.5" cy="621.5" r="1.5" fill="#163747"/>
<circle cx="290.5" cy="747.5" r="1.5" fill="#163747"/>
<circle cx="294.5" cy="873.5" r="1.5" fill="#163747"/>
<circle cx="298.5" cy="999.5" r="1.5" fill="#163747"/>
<circle cx="302.5" cy="1125.5" r="1.5" fill="#163747"/>
<circle cx="268.5" cy="57.5" r="1.5" fill="#163747"/>
<circle cx="272.5" cy="183.5" r="1.5" fill="#163747"/>
<circle cx="276.5" cy="309.5" r="1.5" fill="#163747"/>
<circle cx="280.5" cy="435.5" r="1.5" fill="#163747"/>
<circle cx="284.5" cy="561.5" r="1.5" fill="#163747"/>
<circle cx="288.5" cy="687.5" r="1.5" fill="#163747"/>
<circle cx="292.5" cy="813.5" r="1.5" fill="#163747"/>
<circle cx="296.5" cy="939.5" r="1.5" fill="#163747"/>
<circle cx="300.5" cy="1065.5" r="1.5" fill="#163747"/>
<circle cx="304.5" cy="1191.5" r="1.5" fill="#163747"/>
<circle cx="321.5" cy="115.5" r="1.5" fill="#163747"/>
<circle cx="325.5" cy="241.5" r="1.5" fill="#163747"/>
<circle cx="329.5" cy="367.5" r="1.5" fill="#163747"/>
<circle cx="333.5" cy="493.5" r="1.5" fill="#163747"/>
<circle cx="337.5" cy="619.5" r="1.5" fill="#163747"/>
<circle cx="341.5" cy="745.5" r="1.5" fill="#163747"/>
<circle cx="345.5" cy="871.5" r="1.5" fill="#163747"/>
<circle cx="349.5" cy="997.5" r="1.5" fill="#163747"/>
<circle cx="353.5" cy="1123.5" r="1.5" fill="#163747"/>
<circle cx="319.5" cy="55.5" r="1.5" fill="#163747"/>
<circle cx="323.5" cy="181.5" r="1.5" fill="#163747"/>
<circle cx="327.5" cy="307.5" r="1.5" fill="#163747"/>
<circle cx="331.5" cy="433.5" r="1.5" fill="#163747"/>
<circle cx="335.5" cy="559.5" r="1.5" fill="#163747"/>
<circle cx="339.5" cy="685.5" r="1.5" fill="#163747"/>
<circle cx="343.5" cy="811.5" r="1.5" fill="#163747"/>
<circle cx="347.5" cy="937.5" r="1.5" fill="#163747"/>
<circle cx="351.5" cy="1063.5" r="1.5" fill="#163747"/>
<circle cx="355.5" cy="1189.5" r="1.5" fill="#163747"/>
<circle cx="372.5" cy="113.5" r="1.5" fill="#163747"/>
<circle cx="376.5" cy="239.5" r="1.5" fill="#163747"/>
<circle cx="380.5" cy="365.5" r="1.5" fill="#163747"/>
<circle cx="384.5" cy="491.5" r="1.5" fill="#163747"/>
<circle cx="388.5" cy="617.5" r="1.5" fill="#163747"/>
<circle cx="392.5" cy="743.5" r="1.5" fill="#163747"/>
<circle cx="396.5" cy="869.5" r="1.5" fill="#163747"/>
<circle cx="400.5" cy="995.5" r="1.5" fill="#163747"/>
<circle cx="404.5" cy="1121.5" r="1.5" fill="#163747"/>
<circle cx="370.5" cy="53.5" r="1.5" fill="#163747"/>
<circle cx="374.5" cy="179.5" r="1.5" fill="#163747"/>
<circle cx="378.5" cy="305.5" r="1.5" fill="#163747"/>
<circle cx="382.5" cy="431.5" r="1.5" fill="#163747"/>
<circle cx="386.5" cy="557.5" r="1.5" fill="#163747"/>
<circle cx="390.5" cy="683.5" r="1.5" fill="#163747"/>
<circle cx="394.5" cy="809.5" r="1.5" fill="#163747"/>
<circle cx="398.5" cy="935.5" r="1.5" fill="#163747"/>
<circle cx="402.5" cy="1061.5" r="1.5" fill="#163747"/>
<circle cx="406.5" cy="1187.5" r="1.5" fill="#163747"/>
<circle cx="423.5" cy="111.5" r="1.5" fill="#163747"/>
<circle cx="427.5" cy="237.5" r="1.5" fill="#163747"/>
<circle cx="431.5" cy="363.5" r="1.5" fill="#163747"/>
<circle cx="435.5" cy="489.5" r="1.5" fill="#163747"/>
<circle cx="439.5" cy="615.5" r="1.5" fill="#163747"/>
<circle cx="443.5" cy="741.5" r="1.5" fill="#163747"/>
<circle cx="447.5" cy="867.5" r="1.5" fill="#163747"/>
<circle cx="451.5" cy="993.5" r="1.5" fill="#163747"/>
<circle cx="455.5" cy="1119.5" r="1.5" fill="#163747"/>
<circle cx="421.5" cy="51.5" r="1.5" fill="#163747"/>
<circle cx="425.5" cy="177.5" r="1.5" fill="#163747"/>
<circle cx="429.5" cy="303.5" r="1.5" fill="#163747"/>
<circle cx="433.5" cy="429.5" r="1.5" fill="#163747"/>
<circle cx="437.5" cy="555.5" r="1.5" fill="#163747"/>
<circle cx="441.5" cy="681.5" r="1.5" fill="#163747"/>
<circle cx="445.5" cy="807.5" r="1.5" fill="#163747"/>
<circle cx="449.5" cy="933.5" r="1.5" fill="#163747"/>
<circle cx="453.5" cy="1059.5" r="1.5" fill="#163747"/>
<circle cx="457.5" cy="1185.5" r="1.5" fill="#163747"/>
<circle cx="474.5" cy="109.5" r="1.5" fill="#163747"/>
<circle cx="478.5" cy="235.5" r="1.5" fill="#163747"/>
<circle cx="482.5" cy="361.5" r="1.5" fill="#163747"/>
<circle cx="486.5" cy="487.5" r="1.5" fill="#163747"/>
<circle cx="490.5" cy="613.5" r="1.5" fill="#163747"/>
<circle cx="494.5" cy="739.5" r="1.5" fill="#163747"/>
<circle cx="498.5" cy="865.5" r="1.5" fill="#163747"/>
<circle cx="502.5" cy="991.5" r="1.5" fill="#163747"/>
<circle cx="506.5" cy="1117.5" r="1.5" fill="#163747"/>
<circle cx="472.5" cy="49.5" r="1.5" fill="#163747"/>
<circle cx="476.5" cy="175.5" r="1.5" fill="#163747"/>
<circle cx="480.5" cy="301.5" r="1.5" fill="#163747"/>
<circle cx="484.5" cy="427.5" r="1.5" fill="#163747"/>
<circle cx="488.5" cy="553.5" r="1.5" fill="#163747"/>
<circle cx="492.5" cy="679.5" r="1.5" fill="#163747"/>
<circle cx="496.5" cy="805.5" r="1.5" fill="#163747"/>
<circle cx="500.5" cy="931.5" r="1.5" fill="#163747"/>
<circle cx="504.5" cy="1057.5" r="1.5" fill="#163747"/>
<circle cx="508.5" cy="1183.5" r="1.5" fill="#163747"/>
<circle cx="525.5" cy="107.5" r="1.5" fill="#163747"/>
<circle cx="529.5" cy="233.5" r="1.5" fill="#163747"/>
<circle cx="533.5" cy="359.5" r="1.5" fill="#163747"/>
<circle cx="537.5" cy="485.5" r="1.5" fill="#163747"/>
<circle cx="541.5" cy="611.5" r="1.5" fill="#163747"/>
<circle cx="545.5" cy="737.5" r="1.5" fill="#163747"/>
<circle cx="549.5" cy="863.5" r="1.5" fill="#163747"/>
<circle cx="553.5" cy="989.5" r="1.5" fill="#163747"/>
<circle cx="557.5" cy="1115.5" r="1.5" fill="#163747"/>
<circle cx="523.5" cy="47.5" r="1.5" fill="#163747"/>
<circle cx="527.5" cy="173.5" r="1.5" fill="#163747"/>
<circle cx="531.5" cy="299.5" r="1.5" fill="#163747"/>
<circle cx="535.5" cy="425.5" r="1.5" fill="#163747"/>
<circle cx="539.5" cy="551.5" r="1.5" fill="#163747"/>
<circle cx="543.5" cy="677.5" r="1.5" fill="#163747"/>
<circle cx="547.5" cy="803.5" r="1.5" fill="#163747"/>
<circle cx="551.5" cy="929.5" r="1.5" fill="#163747"/>
<circle cx="555.5" cy="1055.5" r="1.5" fill="#163747"/>
<circle cx="559.5" cy="1181.5" r="1.5" fill="#163747"/>
<circle cx="576.5" cy="105.5" r="1.5" fill="#163747"/>
<circle cx="580.5" cy="231.5" r="1.5" fill="#163747"/>
<circle cx="584.5" cy="357.5" r="1.5" fill="#163747"/>
<circle cx="588.5" cy="483.5" r="1.5" fill="#163747"/>
<circle cx="592.5" cy="609.5" r="1.5" fill="#163747"/>
<circle cx="596.5" cy="735.5" r="1.5" fill="#163747"/>
<circle cx="600.5" cy="861.5" r="1.5" fill="#163747"/>
<circle cx="604.5" cy="987.5" r="1.5" fill="#163747"/>
<circle cx="608.5" cy="1113.5" r="1.5" fill="#163747"/>
<circle cx="574.5" cy="45.5" r="1.5" fill="#163747"/>
<circle cx="578.5" cy="171.5" r="1.5" fill="#163747"/>
<circle cx="582.5" cy="297.5" r="1.5" fill="#163747"/>
<circle cx="586.5" cy="423.5" r="1.5" fill="#163747"/>
<circle cx="590.5" cy="549.5" r="1.5" fill="#163747"/>
<circle cx="594.5" cy="675.5" r="1.5" fill="#163747"/>
<circle cx="598.5" cy="801.5" r="1.5" fill="#163747"/>
<circle cx="602.5" cy="927.5" r="1.5" fill="#163747"/>
<circle cx="606.5" cy="1053.5" r="1.5" fill="#163747"/>
<circle cx="610.5" cy="1179.5" r="1.5" fill="#163747"/>
<circle cx="627.5" cy="103.5" r="1.5" fill="#163747"/>
<circle cx="631.5" cy="229.5" r="1.5" fill="#163747"/>
<circle cx="635.5" cy="355.5" r="1.5" fill="#163747"/>
<circle cx="639.5" cy="481.5" r="1.5" fill="#163747"/>
<circle cx="643.5" cy="607.5" r="1.5" fill="#163747"/>
<circle cx="647.5" cy="733.5" r="1.5" fill="#163747"/>
<circle cx="651.5" cy="859.5" r="1.5" fill="#163747"/>
<circle cx="655.5" cy="985.5" r="1.5" fill="#163747"/>
<circle cx="659.5" cy="1111.5" r="1.5" fill="#163747"/>
<circle cx="625.5" cy="43.5" r="1.5" fill="#163747"/>
<circle cx="629.5" cy="169.5" r="1.5" fill="#163747"/>
<circle cx="633.5" cy="295.5" r="1.5" fill="#163747"/>
<circle cx="637.5" cy="421.5" r="1.5" fill="#163747"/>
<circle cx="641.5" cy="547.5" r="1.5" fill="#163747"/>
<circle cx="645.5" cy="673.5" r="1.5" fill="#163747"/>
<circle cx="649.5" cy="799.5" r="1.5" fill="#163747"/>
<circle cx="653.5" cy="925.5" r="1.5" fill="#163747"/>
<circle cx="657.5" cy="1051.5" r="1.5" fill="#163747"/>
<circle cx="661.5" cy="1177.5" r="1.5" fill="#163747"/>
<circle cx="678.5" cy="101.5" r="1.5" fill="#163747"/>
<circle cx="682.5" cy="227.5" r="1.5" fill="#163747"/>
<circle cx="686.5" cy="353.5" r="1.5" fill="#163747"/>
<circle cx="690.5" cy="479.5" r="1.5" fill="#163747"/>
<circle cx="694.5" cy="605.5" r="1.5" fill="#163747"/>
<circle cx="698.5" cy="731.5" r="1.5" fill="#163747"/>
<circle cx="702.5" cy="857.5" r="1.5" fill="#163747"/>
<circle cx="706.5" cy="983.5" r="1.5" fill="#163747"/>
<circle cx="710.5" cy="1109.5" r="1.5" fill="#163747"/>
<circle cx="676.5" cy="41.5" r="1.5" fill="#163747"/>
<circle cx="680.5" cy="167.5" r="1.5" fill="#163747"/>
<circle cx="684.5" cy="293.5" r="1.5" fill="#163747"/>
<circle cx="688.5" cy="419.5" r="1.5" fill="#163747"/>
<circle cx="692.5" cy="545.5" r="1.5" fill="#163747"/>
<circle cx="696.5" cy="671.5" r="1.5" fill="#163747"/>
<circle cx="700.5" cy="797.5" r="1.5" fill="#163747"/>
<circle cx="704.5" cy="923.5" r="1.5" fill="#163747"/>
<circle cx="708.5" cy="1049.5" r="1.5" fill="#163747"/>
<circle cx="712.5" cy="1175.5" r="1.5" fill="#163747"/>
<circle cx="729.5" cy="99.5" r="1.5" fill="#163747"/>
<circle cx="733.5" cy="225.5" r="1.5" fill="#163747"/>
<circle cx="737.5" cy="351.5" r="1.5" fill="#163747"/>
<circle cx="741.5" cy="477.5" r="1.5" fill="#163747"/>
<circle cx="745.5" cy="603.5" r="1.5" fill="#163747"/>
<circle cx="749.5" cy="729.5" r="1.5" fill="#163747"/>
<circle cx="753.5" cy="855.5" r="1.5" fill="#163747"/>
<circle cx="757.5" cy="981.5" r="1.5" fill="#163747"/>
<circle cx="761.5" cy="1107.5" r="1.5" fill="#163747"/>
<circle cx="727.5" cy="39.5" r="1.5" fill="#163747"/>
<circle cx="731.5" cy="165.5" r="1.5" fill="#163747"/>
<circle cx="735.5" cy="291.5" r="1.5" fill="#163747"/>
<circle cx="739.5" cy="417.5" r="1.5" fill="#163747"/>
<circle cx="743.5" cy="543.5" r="1.5" fill="#163747"/>
<circle cx="747.5" cy="669.5" r="1.5" fill="#163747"/>
<circle cx="751.5" cy="795.5" r="1.5" fill="#163747"/>
<circle cx="755.5" cy="921.5" r="1.5" fill="#163747"/>
<circle cx="759.5" cy="1047.5" r="1.5" fill="#163747"/>
<circle cx="763.5" cy="1173.5" r="1.5" fill="#163747"/>
<circle cx="780.5" cy="97.5" r="1.5" fill="#163747"/>
<circle cx="784.5" cy="223.5" r="1.5" fill="#163747"/>
<circle cx="788.5" cy="349.5" r="1.5" fill="#163747"/>
<circle cx="792.5" cy="475.5" r="1.5" fill="#163747"/>
<circle cx="796.5" cy="601.5" r="1.5" fill="#163747"/>
<circle cx="800.5" cy="727.5" r="1.5" fill="#163747"/>
<circle cx="804.5" cy="853.5" r="1.5" fill="#163747"/>
<circle cx="808.5" cy="979.5" r="1.5" fill="#163747"/>
<circle cx="812.5" cy="1105.5" r="1.5" fill="#163747"/>
<circle cx="778.5" cy="37.5" r="1.5" fill="#163747"/>
<circle cx="782.5" cy="163.5" r="1.5" fill="#163747"/>
<circle cx="786.5" cy="289.5" r="1.5" fill="#163747"/>
<circle cx="790.5" cy="415.5" r="1.5" fill="#163747"/>
<circle cx="794.5" cy="541.5" r="1.5" fill="#163747"/>
<circle cx="798.5" cy="667.5" r="1.5" fill="#163747"/>
<circle cx="802.5" cy="793.5" r="1.5" fill="#163747"/>
<circle cx="806.5" cy="919.5" r="1.5" fill="#163747"/>
<circle cx="810.5" cy="1045.5" r="1.5" fill="#163747"/>
<circle cx="814.5" cy="1171.5" r="1.5" fill="#163747"/>
<circle cx="831.5" cy="95.5" r="1.5" fill="#163747"/>
<circle cx="835.5" cy="221.5" r="1.5" fill="#163747"/>
<circle cx="839.5" cy="347.5" r="1.5" fill="#163747"/>
<circle cx="843.5" cy="473.5" r="1.5" fill="#163747"/>
<circle cx="847.5" cy="599.5" r="1.5" fill="#163747"/>
<circle cx="851.5" cy="725.5" r="1.5" fill="#163747"/>
<circle cx="855.5" cy="851.5" r="1.5" fill="#163747"/>
<circle cx="859.5" cy="977.5" r="1.5" fill="#163747"/>
<circle cx="863.5" cy="1103.5" r="1.5" fill="#163747"/>
<circle cx="829.5" cy="35.5" r="1.5" fill="#163747"/>
<circle cx="833.5" cy="161.5" r="1.5" fill="#163747"/>
<circle cx="837.5" cy="287.5" r="1.5" fill="#163747"/>
<circle cx="841.5" cy="413.5" r="1.5" fill="#163747"/>
<circle cx="845.5" cy="539.5" r="1.5" fill="#163747"/>
<circle cx="849.5" cy="665.5" r="1.5" fill="#163747"/>
<circle cx="853.5" cy="791.5" r="1.5" fill="#163747"/>
<circle cx="857.5" cy="917.5" r="1.5" fill="#163747"/>
<circle cx="861.5" cy="1043.5" r="1.5" fill="#163747"/>
<circle cx="865.5" cy="1169.5" r="1.5" fill="#163747"/>
<circle cx="882.5" cy="93.5" r="1.5" fill="#163747"/>
<circle cx="886.5" cy="219.5" r="1.5" fill="#163747"/>
<circle cx="890.5" cy="345.5" r="1.5" fill="#163747"/>
<circle cx="894.5" cy="471.5" r="1.5" fill="#163747"/>
<circle cx="898.5" cy="597.5" r="1.5" fill="#163747"/>
<circle cx="902.5" cy="723.5" r="1.5" fill="#163747"/>
<circle cx="906.5" cy="849.5" r="1.5" fill="#163747"/>
<circle cx="910.5" cy="975.5" r="1.5" fill="#163747"/>
<circle cx="914.5" cy="1101.5" r="1.5" fill="#163747"/>
<circle cx="880.5" cy="33.5" r="1.5" fill="#163747"/>
<circle cx="884.5" cy="159.5" r="1.5" fill="#163747"/>
<circle cx="888.5" cy="285.5" r="1.5" fill="#163747"/>
<circle cx="892.5" cy="411.5" r="1.5" fill="#163747"/>
<circle cx="896.5" cy="537.5" r="1.5" fill="#163747"/>
<circle cx="900.5" cy="663.5" r="1.5" fill="#163747"/>
<circle cx="904.5" cy="789.5" r="1.5" fill="#163747"/>
<circle cx="908.5" cy="915.5" r="1.5" fill="#163747"/>
<circle cx="912.5" cy="1041.5" r="1.5" fill="#163747"/>
<circle cx="916.5" cy="1167.5" r="1.5" fill="#163747"/>
<circle cx="933.5" cy="91.5" r="1.5" fill="#163747"/>
<circle cx="937.5" cy="217.5" r="1.5" fill="#163747"/>
<circle cx="941.5" cy="343.5" r="1.5" fill="#163747"/>
<circle cx="945.5" cy="469.5" r="1.5" fill="#163747"/>
<circle cx="949.5" cy="595.5" r="1.5" fill="#163747"/>
<circle cx="953.5" cy="721.5" r="1.5" fill="#163747"/>
<circle cx="957.5" cy="847.5" r="1.5" fill="#163747"/>
<circle cx="961.5" cy="973.5" r="1.5" fill="#163747"/>
<circle cx="965.5" cy="1099.5" r="1.5" fill="#163747"/>
<circle cx="931.5" cy="31.5" r="1.5" fill="#163747"/>
<circle cx="935.5" cy="157.5" r="1.5" fill="#163747"/>
<circle cx="939.5" cy="283.5" r="1.5" fill="#163747"/>
<circle cx="943.5" cy="409.5" r="1.5" fill="#163747"/>
<circle cx="947.5" cy="535.5" r="1.5" fill="#163747"/>
<circle cx="951.5" cy="661.5" r="1.5" fill="#163747"/>
<circle cx="955.5" cy="787.5" r="1.5" fill="#163747"/>
<circle cx="959.5" cy="913.5" r="1.5" fill="#163747"/>
<circle cx="963.5" cy="1039.5" r="1.5" fill="#163747"/>
<circle cx="967.5" cy="1165.5" r="1.5" fill="#163747"/>
<circle cx="984.5" cy="89.5" r="1.5" fill="#163747"/>
<circle cx="988.5" cy="215.5" r="1.5" fill="#163747"/>
<circle cx="992.5" cy="341.5" r="1.5" fill="#163747"/>
<circle cx="996.5" cy="467.5" r="1.5" fill="#163747"/>
<circle cx="1000.5" cy="593.5" r="1.5" fill="#163747"/>
<circle cx="1004.5" cy="719.5" r="1.5" fill="#163747"/>
<circle cx="1008.5" cy="845.5" r="1.5" fill="#163747"/>
<circle cx="1012.5" cy="971.5" r="1.5" fill="#163747"/>
<circle cx="1016.5" cy="1097.5" r="1.5" fill="#163747"/>
<circle cx="982.5" cy="29.5" r="1.5" fill="#163747"/>
<circle cx="986.5" cy="155.5" r="1.5" fill="#163747"/>
<circle cx="990.5" cy="281.5" r="1.5" fill="#163747"/>
<circle cx="994.5" cy="407.5" r="1.5" fill="#163747"/>
<circle cx="998.5" cy="533.5" r="1.5" fill="#163747"/>
<circle cx="1002.5" cy="659.5" r="1.5" fill="#163747"/>
<circle cx="1006.5" cy="785.5" r="1.5" fill="#163747"/>
<circle cx="1010.5" cy="911.5" r="1.5" fill="#163747"/>
<circle cx="1014.5" cy="1037.5" r="1.5" fill="#163747"/>
<circle cx="1018.5" cy="1163.5" r="1.5" fill="#163747"/>
<circle cx="1035.5" cy="87.5" r="1.5" fill="#163747"/>
<circle cx="1039.5" cy="213.5" r="1.5" fill="#163747"/>
<circle cx="1043.5" cy="339.5" r="1.5" fill="#163747"/>
<circle cx="1047.5" cy="465.5" r="1.5" fill="#163747"/>
<circle cx="1051.5" cy="591.5" r="1.5" fill="#163747"/>
<circle cx="1055.5" cy="717.5" r="1.5" fill="#163747"/>
<circle cx="1059.5" cy="843.5" r="1.5" fill="#163747"/>
<circle cx="1063.5" cy="969.5" r="1.5" fill="#163747"/>
<circle cx="1067.5" cy="1095.5" r="1.5" fill="#163747"/>
<circle cx="1033.5" cy="27.5" r="1.5" fill="#163747"/>
<circle cx="1037.5" cy="153.5" r="1.5" fill="#163747"/>
<circle cx="1041.5" cy="279.5" r="1.5" fill="#163747"/>
<circle cx="1045.5" cy="405.5" r="1.5" fill="#163747"/>
<circle cx="1049.5" cy="531.5" r="1.5" fill="#163747"/>
<circle cx="1053.5" cy="657.5" r="1.5" fill="#163747"/>
<circle cx="1057.5" cy="783.5" r="1.5" fill="#163747"/>
<circle cx="1061.5" cy="909.5" r="1.5" fill="#163747"/>
<circle cx="1065.5" cy="1035.5" r="1.5" fill="#163747"/>
<circle cx="1069.5" cy="1161.5" r="1.5" fill="#163747"/>
<circle cx="1086.5" cy="85.5" r="1.5" fill="#163747"/>
<circle cx="1090.5" cy="211.5" r="1.5" fill="#163747"/>
<circle cx="1094.5" cy="337.5" r="1.5" fill="#163747"/>
<circle cx="1098.5" cy="463.5" r="1.5" fill="#163747"/>
<circle cx="1102.5" cy="589.5" r="1.5" fill="#163747"/>
<circle cx="1106.5" cy="715.5" r="1.5" fill="#163747"/>
<circle cx="1110.5" cy="841.5" r="1.5" fill="#163747"/>
<circle cx="1114.5" cy="967.5" r="1.5" fill="#163747"/>
<circle cx="1118.5" cy="1093.5" r="1.5" fill="#163747"/>
<circle cx="1084.5" cy="25.5" r="1.5" fill="#163747"/>
<circle cx="1088.5" cy="151.5" r="1.5" fill="#163747"/>
<circle cx="1092.5" cy="277.5" r="1.5" fill="#163747"/>
<circle cx="1096.5" cy="403.5" r="1.5" fill="#163747"/>
<circle cx="1100.5" cy="529.5" r="1.5" fill="#163747"/>
<circle cx="1104.5" cy="655.5" r="1.5" fill="#163747"/>
<circle cx="1108.5" cy="781.5" r="1.5" fill="#163747"/>
<circle cx="1112.5" cy="907.5" r="1.5" fill="#163747"/>
<circle cx="1116.5" cy="1033.5" r="1.5" fill="#163747"/>
<circle cx="1120.5" cy="1159.5" r="1.5" fill="#163747"/>
<circle cx="1137.5" cy="83.5" r="1.5" fill="#163747"/>
<circle cx="1141.5" cy="209.5" r="1.5" fill="#163747"/>
<circle cx="1145.5" cy="335.5" r="1.5" fill="#163747"/>
<circle cx="1149.5" cy="461.5" r="1.5" fill="#163747"/>
<circle cx="1153.5" cy="587.5" r="1.5" fill="#163747"/>
<circle cx="1157.5" cy="713.5" r="1.5" fill="#163747"/>
<circle cx="1161.5" cy="839.5" r="1.5" fill="#163747"/>
<circle cx="1165.5" cy="965.5" r="1.5" fill="#163747"/>
<circle cx="1169.5" cy="1091.5" r="1.5" fill="#163747"/>
<circle cx="1135.5" cy="23.5" r="1.5" fill="#163747"/>
<circle cx="1139.5" cy="149.5" r="1.5" fill="#163747"/>
<circle cx="1143.5" cy="275.5" r="1.5" fill="#163747"/>
<circle cx="1147.5" cy="401.5" r="1.5" fill="#163747"/>
<circle cx="1151.5" cy="527.5" r="1.5" fill="#163747"/>
<circle cx="1155.5" cy="653.5" r="1.5" fill="#163747"/>
<circle cx="1159.5" cy="779.5" r="1.5" fill="#163747"/>
<circle cx="1163.5" cy="905.5" r="1.5" fill="#163747"/>
<circle cx="1167.5" cy="1031.5" r="1.5" fill="#163747"/>
<circle cx="1171.5" cy="1157.5" r="1.5" fill="#163747"/>
<circle cx="1188.5" cy="81.5" r="1.5" fill="#163747"/>
<circle cx="1192.5" cy="207.5" r="1.5" fill="#163747"/>
<circle cx="1196.5" cy="333.5" r="1.5" fill="#163747"/>
<circle cx="1200.5" cy="459.5" r="1.5" fill="#163747"/>
<circle cx="1204.5" cy="585.5" r="1.5" fill="#163747"/>
<circle cx="1208.5" cy="711.5" r="1.5" fill="#163747"/>
<circle cx="1212.5" cy="837.5" r="1.5" fill="#163747"/>
<circle cx="1216.5" cy="963.5" r="1.5" fill="#163747"/>
<circle cx="1220.5" cy="1089.5" r="1.5" fill="#163747"/>
<circle cx="1186.5" cy="21.5" r="1.5" fill="#163747"/>
<circle cx="1190.5" cy="147.5" r="1.5" fill="#163747"/>
<circle cx="1194.5" cy="273.5" r="1.5" fill="#163747"/>
<circle cx="1198.5" cy="399.5" r="1.5" fill="#163747"/>
<circle cx="1202.5" cy="525.5" r="1.5" fill="#163747"/>
<circle cx="1206.5" cy="651.5" r="1.5" fill="#163747"/>
<circle cx="1210.5" cy="777.5" r="1.5" fill="#163747"/>
<circle cx="1214.5" cy="903.5" r="1.5" fill="#163747"/>
<circle cx="1218.5" cy="1029.5" r="1.5" fill="#163747"/>
<circle cx="1222.5" cy="1155.5" r="1.5" fill="#163747"/>
<circle cx="1239.5" cy="79.5" r="1.5" fill="#163747"/>
<circle cx="1243.5" cy="205.5" r="1.5" fill="#163747"/>
<circle cx="1247.5" cy="331.5" r="1.5" fill="#163747"/>
<circle cx="1251.5" cy="457.5" r="1.5" fill="#163747"/>
<circle cx="1255.5" cy="583.5" r="1.5" fill="#163747"/>
<circle cx="1259.5" cy="709.5" r="1.5" fill="#163747"/>
<circle cx="1263.5" cy="835.5" r="1.5" fill="#163747"/>
<circle cx="1267.5" cy="961.5" r="1.5" fill="#163747"/>
<circle cx="1271.5" cy="1087.5" r="1.5" fill="#163747"/>
<circle cx="1237.5" cy="19.5" r="1.5" fill="#163747"/>
<circle cx="1241.5" cy="145.5" r="1.5" fill="#163747"/>
<circle cx="1245.5" cy="271.5" r="1.5" fill="#163747"/>
<circle cx="1249.5" cy="397.5" r="1.5" fill="#163747"/>
<circle cx="1253.5" cy="523.5" r="1.5" fill="#163747"/>
<circle cx="1257.5" cy="649.5" r="1.5" fill="#163747"/>
<circle cx="1261.5" cy="775.5" r="1.5" fill="#163747"/>
<circle cx="1265.5" cy="901.5" r="1.5" fill="#163747"/>
<circle cx="1269.5" cy="1027.5" r="1.5" fill="#163747"/>
<circle cx="1273.5" cy="1153.5" r="1.5" fill="#163747"/>
<circle cx="1290.5" cy="77.5" r="1.5" fill="#163747"/>
<circle cx="1294.5" cy="203.5" r="1.5" fill="#163747"/>
<circle cx="1298.5" cy="329.5" r="1.5" fill="#163747"/>
<circle cx="1302.5" cy="455.5" r="1.5" fill="#163747"/>
<circle cx="1306.5" cy="581.5" r="1.5" fill="#163747"/>
<circle cx="1310.5" cy="707.5" r="1.5" fill="#163747"/>
<circle cx="1314.5" cy="833.5" r="1.5" fill="#163747"/>
<circle cx="1318.5" cy="959.5" r="1.5" fill="#163747"/>
<circle cx="1322.5" cy="1085.5" r="1.5" fill="#163747"/>
<circle cx="1288.5" cy="17.5" r="1.5" fill="#163747"/>
<circle cx="1292.5" cy="143.5" r="1.5" fill="#163747"/>
<circle cx="1296.5" cy="269.5" r="1.5" fill="#163747"/>
<circle cx="1300.5" cy="395.5" r="1.5" fill="#163747"/>
<circle cx="1304.5" cy="521.5" r="1.5" fill="#163747"/>
<circle cx="1308.5" cy="647.5" r="1.5" fill="#163747"/>
<circle cx="1312.5" cy="773.5" r="1.5" fill="#163747"/>
<circle cx="1316.5" cy="899.5" r="1.5" fill="#163747"/>
<circle cx="1320.5" cy="1025.5" r="1.5" fill="#163747"/>
<circle cx="1324.5" cy="1151.5" r="1.5" fill="#163747"/>
<circle cx="1341.5" cy="75.5" r="1.5" fill="#163747"/>
<circle cx="1345.5" cy="201.5" r="1.5" fill="#163747"/>
<circle cx="1349.5" cy="327.5" r="1.5" fill="#163747"/>
<circle cx="1353.5" cy="453.5" r="1.5" fill="#163747"/>
<circle cx="1357.5" cy="579.5" r="1.5" fill="#163747"/>
<circle cx="1361.5" cy="705.5" r="1.5" fill="#163747"/>
<circle cx="1365.5" cy="831.5" r="1.5" fill="#163747"/>
<circle cx="1369.5" cy="957.5" r="1.5" fill="#163747"/>
<circle cx="1373.5" cy="1083.5" r="1.5" fill="#163747"/>
<circle cx="1339.5" cy="15.5" r="1.5" fill="#163747"/>
<circle cx="1343.5" cy="141.5" r="1.5" fill="#163747"/>
<circle cx="1347.5" cy="267.5" r="1.5" fill="#163747"/>
<circle cx="1351.5" cy="393.5" r="1.5" fill="#163747"/>
<circle cx="1355.5" cy="519.5" r="1.5" fill="#163747"/>
<circle cx="1359.5" cy="645.5" r="1.5" fill="#163747"/>
<circle cx="1363.5" cy="771.5" r="1.5" fill="#163747"/>
<circle cx="1367.5" cy="897.5" r="1.5" fill="#163747"/>
<circle cx="1371.5" cy="1023.5" r="1.5" fill="#163747"/>
<circle cx="1375.5" cy="1149.5" r="1.5" fill="#163747"/>
<circle cx="1392.5" cy="73.5" r="1.5" fill="#163747"/>
<circle cx="1396.5" cy="199.5" r="1.5" fill="#163747"/>
<circle cx="1400.5" cy="325.5" r="1.5" fill="#163747"/>
<circle cx="1404.5" cy="451.5" r="1.5" fill="#163747"/>
<circle cx="1408.5" cy="577.5" r="1.5" fill="#163747"/>
<circle cx="1412.5" cy="703.5" r="1.5" fill="#163747"/>
<circle cx="1416.5" cy="829.5" r="1.5" fill="#163747"/>
<circle cx="1420.5" cy="955.5" r="1.5" fill="#163747"/>
<circle cx="1424.5" cy="1081.5" r="1.5" fill="#163747"/>
<circle cx="1428.5" cy="1207.5" r="1.5" fill="#163747"/>
<circle cx="1390.5" cy="13.5" r="1.5" fill="#163747"/>
<circle cx="1394.5" cy="139.5" r="1.5" fill="#163747"/>
<circle cx="1398.5" cy="265.5" r="1.5" fill="#163747"/>
<circle cx="1402.5" cy="391.5" r="1.5" fill="#163747"/>
<circle cx="1406.5" cy="517.5" r="1.5" fill="#163747"/>
<circle cx="1410.5" cy="643.5" r="1.5" fill="#163747"/>
<circle cx="1414.5" cy="769.5" r="1.5" fill="#163747"/>
<circle cx="1418.5" cy="895.5" r="1.5" fill="#163747"/>
<circle cx="1422.5" cy="1021.5" r="1.5" fill="#163747"/>
<circle cx="1426.5" cy="1147.5" r="1.5" fill="#163747"/>
<circle cx="1443.5" cy="71.5" r="1.5" fill="#163747"/>
<circle cx="1447.5" cy="197.5" r="1.5" fill="#163747"/>
<circle cx="1451.5" cy="323.5" r="1.5" fill="#163747"/>
<circle cx="1455.5" cy="449.5" r="1.5" fill="#163747"/>
<circle cx="1459.5" cy="575.5" r="1.5" fill="#163747"/>
<circle cx="1463.5" cy="701.5" r="1.5" fill="#163747"/>
<circle cx="1467.5" cy="827.5" r="1.5" fill="#163747"/>
<circle cx="1471.5" cy="953.5" r="1.5" fill="#163747"/>
<circle cx="1475.5" cy="1079.5" r="1.5" fill="#163747"/>
<circle cx="1479.5" cy="1205.5" r="1.5" fill="#163747"/>
<circle cx="1441.5" cy="11.5" r="1.5" fill="#163747"/>
<circle cx="1445.5" cy="137.5" r="1.5" fill="#163747"/>
<circle cx="1449.5" cy="263.5" r="1.5" fill="#163747"/>
<circle cx="1453.5" cy="389.5" r="1.5" fill="#163747"/>
<circle cx="1457.5" cy="515.5" r="1.5" fill="#163747"/>
<circle cx="1461.5" cy="641.5" r="1.5" fill="#163747"/>
<circle cx="1465.5" cy="767.5" r="1.5" fill="#163747"/>
<circle cx="1469.5" cy="893.5" r="1.5" fill="#163747"/>
<circle cx="1473.5" cy="1019.5" r="1.5" fill="#163747"/>
<circle cx="1477.5" cy="1145.5" r="1.5" fill="#163747"/>
<circle cx="1494.5" cy="69.5" r="1.5" fill="#163747"/>
<circle cx="1498.5" cy="195.5" r="1.5" fill="#163747"/>
<circle cx="1502.5" cy="321.5" r="1.5" fill="#163747"/>
<circle cx="1506.5" cy="447.5" r="1.5" fill="#163747"/>
<circle cx="1510.5" cy="573.5" r="1.5" fill="#163747"/>
<circle cx="1514.5" cy="699.5" r="1.5" fill="#163747"/>
<circle cx="1518.5" cy="825.5" r="1.5" fill="#163747"/>
<circle cx="1522.5" cy="951.5" r="1.5" fill="#163747"/>
<circle cx="1526.5" cy="1077.5" r="1.5" fill="#163747"/>
<circle cx="1530.5" cy="1203.5" r="1.5" fill="#163747"/>
<circle cx="1492.5" cy="9.5" r="1.5" fill="#163747"/>
<circle cx="1496.5" cy="135.5" r="1.5" fill="#163747"/>
<circle cx="1500.5" cy="261.5" r="1.5" fill="#163747"/>
<circle cx="1504.5" cy="387.5" r="1.5" fill="#163747"/>
<circle cx="1508.5" cy="513.5" r="1.5" fill="#163747"/>
<circle cx="1512.5" cy="639.5" r="1.5" fill="#163747"/>
<circle cx="1516.5" cy="765.5" r="1.5" fill="#163747"/>
<circle cx="1520.5" cy="891.5" r="1.5" fill="#163747"/>
<circle cx="1524.5" cy="1017.5" r="1.5" fill="#163747"/>
<circle cx="1528.5" cy="1143.5" r="1.5" fill="#163747"/>
<circle cx="1545.5" cy="67.5" r="1.5" fill="#163747"/>
<circle cx="1549.5" cy="193.5" r="1.5" fill="#163747"/>
<circle cx="1553.5" cy="319.5" r="1.5" fill="#163747"/>
<circle cx="1557.5" cy="445.5" r="1.5" fill="#163747"/>
<circle cx="1561.5" cy="571.5" r="1.5" fill="#163747"/>
<circle cx="1565.5" cy="697.5" r="1.5" fill="#163747"/>
<circle cx="1569.5" cy="823.5" r="1.5" fill="#163747"/>
<circle cx="1573.5" cy="949.5" r="1.5" fill="#163747"/>
<circle cx="1577.5" cy="1075.5" r="1.5" fill="#163747"/>
<circle cx="1581.5" cy="1201.5" r="1.5" fill="#163747"/>
<circle cx="1543.5" cy="7.5" r="1.5" fill="#163747"/>
<circle cx="1547.5" cy="133.5" r="1.5" fill="#163747"/>
<circle cx="1551.5" cy="259.5" r="1.5" fill="#163747"/>
<circle cx="1555.5" cy="385.5" r="1.5" fill="#163747"/>
<circle cx="1559.5" cy="511.5" r="1.5" fill="#163747"/>
<circle cx="1563.5" cy="637.5" r="1.5" fill="#163747"/>
<circle cx="1567.5" cy="763.5" r="1.5" fill="#163747"/>
<circle cx="1571.5" cy="889.5" r="1.5" fill="#163747"/>
<circle cx="1575.5" cy="1015.5" r="1.5" fill="#163747"/>
<circle cx="1579.5" cy="1141.5" r="1.5" fill="#163747"/>
<circle cx="1596.5" cy="65.5" r="1.5" fill="#163747"/>
<circle cx="1600.5" cy="191.5" r="1.5" fill="#163747"/>
<circle cx="1604.5" cy="317.5" r="1.5" fill="#163747"/>
<circle cx="1608.5" cy="443.5" r="1.5" fill="#163747"/>
<circle cx="1612.5" cy="569.5" r="1.5" fill="#163747"/>
<circle cx="1616.5" cy="695.5" r="1.5" fill="#163747"/>
<circle cx="1620.5" cy="821.5" r="1.5" fill="#163747"/>
<circle cx="1624.5" cy="947.5" r="1.5" fill="#163747"/>
<circle cx="1628.5" cy="1073.5" r="1.5" fill="#163747"/>
<circle cx="1632.5" cy="1199.5" r="1.5" fill="#163747"/>
<circle cx="1594.5" cy="5.5" r="1.5" fill="#163747"/>
<circle cx="1598.5" cy="131.5" r="1.5" fill="#163747"/>
<circle cx="1602.5" cy="257.5" r="1.5" fill="#163747"/>
<circle cx="1606.5" cy="383.5" r="1.5" fill="#163747"/>
<circle cx="1610.5" cy="509.5" r="1.5" fill="#163747"/>
<circle cx="1614.5" cy="635.5" r="1.5" fill="#163747"/>
<circle cx="1618.5" cy="761.5" r="1.5" fill="#163747"/>
<circle cx="1622.5" cy="887.5" r="1.5" fill="#163747"/>
<circle cx="1626.5" cy="1013.5" r="1.5" fill="#163747"/>
<circle cx="1630.5" cy="1139.5" r="1.5" fill="#163747"/>
<circle cx="1647.5" cy="63.5" r="1.5" fill="#163747"/>
<circle cx="1651.5" cy="189.5" r="1.5" fill="#163747"/>
<circle cx="1655.5" cy="315.5" r="1.5" fill="#163747"/>
<circle cx="1659.5" cy="441.5" r="1.5" fill="#163747"/>
<circle cx="1663.5" cy="567.5" r="1.5" fill="#163747"/>
<circle cx="1667.5" cy="693.5" r="1.5" fill="#163747"/>
<circle cx="1671.5" cy="819.5" r="1.5" fill="#163747"/>
<circle cx="1675.5" cy="945.5" r="1.5" fill="#163747"/>
<circle cx="1679.5" cy="1071.5" r="1.5" fill="#163747"/>
<circle cx="1683.5" cy="1197.5" r="1.5" fill="#163747"/>
<circle cx="1645.5" cy="3.5" r="1.5" fill="#163747"/>
<circle cx="1649.5" cy="129.5" r="1.5" fill="#163747"/>
<circle cx="1653.5" cy="255.5" r="1.5" fill="#163747"/>
<circle cx="1657.5" cy="381.5" r="1.5" fill="#163747"/>
<circle cx="1661.5" cy="507.5" r="1.5" fill="#163747"/>
<circle cx="1665.5" cy="633.5" r="1.5" fill="#163747"/>
<circle cx="1669.5" cy="759.5" r="1.5" fill="#163747"/>
<circle cx="1673.5" cy="885.5" r="1.5" fill="#163747"/>
<circle cx="1677.5" cy="1011.5" r="1.5" fill="#163747"/>
<circle cx="1681.5" cy="1137.5" r="1.5" fill="#163747"/>
<circle cx="1698.5" cy="61.5" r="1.5" fill="#163747"/>
<circle cx="1702.5" cy="187.5" r="1.5" fill="#163747"/>
<circle cx="1706.5" cy="313.5" r="1.5" fill="#163747"/>
<circle cx="1710.5" cy="439.5" r="1.5" fill="#163747"/>
<circle cx="1714.5" cy="565.5" r="1.5" fill="#163747"/>
<circle cx="1718.5" cy="691.5" r="1.5" fill="#163747"/>
<circle cx="1722.5" cy="817.5" r="1.5" fill="#163747"/>
<circle cx="1726.5" cy="943.5" r="1.5" fill="#163747"/>
<circle cx="1730.5" cy="1069.5" r="1.5" fill="#163747"/>
<circle cx="1734.5" cy="1195.5" r="1.5" fill="#163747"/>
<circle cx="1696.5" cy="1.5" r="1.5" fill="#163747"/>
<circle cx="1700.5" cy="127.5" r="1.5" fill="#163747"/>
<circle cx="1704.5" cy="253.5" r="1.5" fill="#163747"/>
<circle cx="1708.5" cy="379.5" r="1.5" fill="#163747"/>
<circle cx="1712.5" cy="505.5" r="1.5" fill="#163747"/>
<circle cx="1716.5" cy="631.5" r="1.5" fill="#163747"/>
<circle cx="1720.5" cy="757.5" r="1.5" fill="#163747"/>
<circle cx="1724.5" cy="883.5" r="1.5" fill="#163747"/>
<circle cx="1728.5" cy="1009.5" r="1.5" fill="#163747"/>
<circle cx="1732.5" cy="1135.5" r="1.5" fill="#163747"/>
<circle cx="1749.5" cy="59.5" r="1.5" fill="#163747"/>
<circle cx="1753.5" cy="185.5" r="1.5" fill="#163747"/>
<circle cx="1757.5" cy="311.5" r="1.5" fill="#163747"/>
<circle cx="1761.5" cy="437.5" r="1.5" fill="#163747"/>
<circle cx="1765.5" cy="563.5" r="1.5" fill="#163747"/>
<circle cx="13.5" cy="65.5" r="1.5" fill="#163747"/>
<circle cx="17.5" cy="191.5" r="1.5" fill="#163747"/>
<circle cx="21.5" cy="317.5" r="1.5" fill="#163747"/>
<circle cx="25.5" cy="443.5" r="1.5" fill="#163747"/>
<circle cx="29.5" cy="569.5" r="1.5" fill="#163747"/>
<circle cx="33.5" cy="695.5" r="1.5" fill="#163747"/>
<circle cx="37.5" cy="821.5" r="1.5" fill="#163747"/>
<circle cx="41.5" cy="947.5" r="1.5" fill="#163747"/>
<circle cx="45.5" cy="1073.5" r="1.5" fill="#163747"/>
<circle cx="49.5" cy="1199.5" r="1.5" fill="#163747"/>
<circle cx="66.5" cy="123.5" r="1.5" fill="#163747"/>
<circle cx="70.5" cy="249.5" r="1.5" fill="#163747"/>
<circle cx="74.5" cy="375.5" r="1.5" fill="#163747"/>
<circle cx="78.5" cy="501.5" r="1.5" fill="#163747"/>
<circle cx="82.5" cy="627.5" r="1.5" fill="#163747"/>
<circle cx="86.5" cy="753.5" r="1.5" fill="#163747"/>
<circle cx="90.5" cy="879.5" r="1.5" fill="#163747"/>
<circle cx="94.5" cy="1005.5" r="1.5" fill="#163747"/>
<circle cx="98.5" cy="1131.5" r="1.5" fill="#163747"/>
</svg>
