<svg width="151" height="67" viewBox="0 0 151 67" fill="none" xmlns="http://www.w3.org/2000/svg">
<path d="M58.4156 58.499C61.2421 59.3393 64.8294 61.1642 66.2234 66.2562" stroke="black" stroke-linecap="round"/>
<path d="M66.2234 66.2562C67.0636 63.4297 68.8886 59.8425 73.9806 58.4485" stroke="black" stroke-linecap="round"/>
<path d="M85 25.0356C87.8265 25.8758 91.4138 27.7008 92.8077 32.7928" stroke="black" stroke-linecap="round"/>
<path d="M92.8077 32.7928C93.648 29.9663 95.4729 26.379 100.565 24.9851" stroke="black" stroke-linecap="round"/>
<path d="M1 1.08337C3.82649 1.92363 7.41376 3.74858 8.80773 8.8406" stroke="black" stroke-linecap="round"/>
<path d="M8.80774 8.84058C9.64799 6.01409 11.4729 2.42681 16.565 1.03285" stroke="black" stroke-linecap="round"/>
<path d="M134 44.0356C136.826 44.8758 140.414 46.7008 141.808 51.7928" stroke="black" stroke-linecap="round"/>
<path d="M141.808 51.7928C142.648 48.9663 144.473 45.379 149.565 43.9851" stroke="black" stroke-linecap="round"/>
<path d="M114 5.03558C116.826 5.87584 120.414 7.70079 121.808 12.7928" stroke="black" stroke-linecap="round"/>
<path d="M121.808 12.7928C122.648 9.9663 124.473 6.37902 129.565 4.98506" stroke="black" stroke-linecap="round"/>
</svg>
