  <svg id="boat" xmlns="http://www.w3.org/2000/svg" version="1.1" xmlns:xlink="http://www.w3.org/1999/xlink" xmlns:svgjs="http://svgjs.com/svgjs" width="512" height="512" x="0" y="0" viewBox="0 0 32 32" style="enable-background:new 0 0 512 512" xml:space="preserve" class=""><g><g xmlns="http://www.w3.org/2000/svg" id="Sail_Boat" data-name="Sail Boat"><path d="M25,30H7a1,1,0,0,1-.832-.4453l-4-6A1,1,0,0,1,3,22H29a1,1,0,0,1,.832,1.5547l-4,6A1,1,0,0,1,25,30ZM7.5352,28h16.93l2.667-4H4.8682Z" fill="#f5f5f5" data-original="#000000" style="" class=""></path><path d="M16,20H8a1,1,0,0,1-.707-1.707A33.5385,33.5385,0,0,0,15.0518,6.6836,1,1,0,0,1,17,7V19A1,1,0,0,1,16,20Zm-5.6846-2H15V11.4673A38.2424,38.2424,0,0,1,10.3154,18Z" fill="#f5f5f5" data-original="#000000" style="" class=""></path><path d="M24,20H16a1,1,0,0,1-1-1V3a1,1,0,0,1,1.6406-.7681c.2559.2134,6.3018,5.3614,8.3428,16.5894A1,1,0,0,1,24,20Zm-7-2h5.7813A29.5717,29.5717,0,0,0,17,5.5234Z" fill="#f5f5f5" data-original="#000000" style="" class=""></path><path d="M16,24a1,1,0,0,1-1-1V19a1,1,0,0,1,2,0v4A1,1,0,0,1,16,24Z" fill="#f5f5f5" data-original="#000000" style="" class=""></path></g></g></svg>