<svg viewBox="0 0 124 124" fill="none" xmlns="http://www.w3.org/2000/svg">
<g id="contact-section-svg-title">
<circle id="Ellipse 68" r="1" transform="matrix(-0.966306 0.257395 -0.26025 -0.965541 13.3723 63.2687)" fill="#F5F5F5"/>
<circle id="Ellipse 69" r="1" transform="matrix(-0.966306 0.257395 -0.26025 -0.965541 111.735 61.4549)" fill="#F5F5F5"/>
<path id="C" d="M20.3549 45.1592C19.9352 46.2484 19.3354 47.1115 18.5556 47.7483C17.7693 48.3705 16.8583 48.7331 15.8228 48.8359C14.7872 48.9388 13.6763 48.7643 12.4901 48.3126C11.3144 47.8649 10.3759 47.2589 9.67448 46.4946C8.97307 45.7303 8.54421 44.8575 8.3879 43.8763C8.23566 42.8845 8.36941 41.844 8.78915 40.7548C9.08663 39.9828 9.4835 39.3153 9.97976 38.7524C10.4695 38.1749 11.0297 37.7455 11.6604 37.4642L12.6477 38.495C12.0097 38.8584 11.4956 39.2629 11.1052 39.7085C10.7084 40.1395 10.3938 40.6564 10.1615 41.2592C9.70921 42.4331 9.74004 43.4877 10.254 44.4232C10.7721 45.3482 11.7355 46.0788 13.1441 46.6153C14.5634 47.1557 15.7818 47.2559 16.7995 46.9158C17.8107 46.5611 18.5424 45.7969 18.9947 44.623C19.227 44.0202 19.3456 43.4287 19.3506 42.8485C19.349 42.2537 19.233 41.6092 19.0025 40.915L20.43 40.8038C20.7102 41.4319 20.8437 42.1255 20.8306 42.8845C20.811 43.629 20.6524 44.3872 20.3549 45.1592Z" fill="#F5F5F5"/>
<path id="O" d="M29.331 31.1626C28.5333 31.9836 27.6585 32.5262 26.7064 32.7904C25.7541 33.0387 24.7809 33.0076 23.7868 32.6972C22.8005 32.3787 21.8537 31.7838 20.9463 30.9125C20.0307 30.0333 19.3957 29.1093 19.0413 28.1405C18.6869 27.1717 18.626 26.2098 18.8586 25.2548C19.0913 24.2998 19.6064 23.4118 20.4041 22.5908C21.2097 21.7618 22.0845 21.2192 23.0286 20.963C23.9807 20.6988 24.9498 20.726 25.936 21.0445C26.9223 21.363 27.8691 21.958 28.7765 22.8293C29.6921 23.7084 30.3271 24.6324 30.6815 25.6012C31.036 26.57 31.1009 27.5358 30.8765 28.4987C30.6438 29.4537 30.1287 30.3417 29.331 31.1626ZM28.301 30.1736C29.146 29.3039 29.5032 28.3427 29.3724 27.2901C29.2495 26.2294 28.6362 25.1692 27.5326 24.1095C26.4372 23.0576 25.3583 22.493 24.2958 22.4155C23.2331 22.322 22.2792 22.7102 21.4341 23.5799C20.5891 24.4496 20.2319 25.4108 20.3627 26.4634C20.4853 27.5081 21.0943 28.5564 22.1898 29.6083C23.2934 30.668 24.3765 31.2446 25.4393 31.338C26.5099 31.4233 27.4638 31.0352 28.301 30.1736Z" fill="#F5F5F5"/>
<path id="N" d="M44.539 7.46061L49.1565 18.6492L47.913 19.1564L38.0015 13.3215L41.4906 21.7758L39.9637 22.3985L35.3462 11.2099L36.574 10.7091L46.5077 16.5534L43.0121 8.08335L44.539 7.46061Z" fill="#F5F5F5"/>
<path id="T" d="M59.9557 6.43918L55.8588 6.47762L55.845 5.01569L65.8065 4.92222L65.8204 6.38415L61.7236 6.42259L61.8246 17.0641L60.0567 17.0807L59.9557 6.43918Z" fill="#F5F5F5"/>
<path id="A" d="M81.625 18.2234L75.9157 16.0191L73.6217 18.3406L71.9565 17.6977L81.3884 8.36456L82.7681 8.89726L83.4067 22.1185L81.7415 21.4756L81.625 18.2234ZM81.5772 16.7107L81.3748 10.4549L76.9781 14.935L81.5772 16.7107Z" fill="#F5F5F5"/>
<path id="C_2" d="M93.0766 29.7624C92.2293 28.9595 91.6616 28.0779 91.3733 27.1177C91.1011 26.1571 91.118 25.1816 91.424 24.1912C91.73 23.2008 92.3222 22.2476 93.2008 21.3314C94.0715 20.4234 94.9971 19.7939 95.9776 19.4428C96.9582 19.0917 97.9336 19.0324 98.9039 19.265C99.8825 19.5053 100.795 20.027 101.643 20.83C102.243 21.3991 102.708 22.0194 103.038 22.6909C103.383 23.362 103.565 24.041 103.581 24.728L102.242 25.2395C102.153 24.5143 101.977 23.8871 101.715 23.3579C101.469 22.8283 101.112 22.3413 100.643 21.8969C99.73 21.0316 98.7402 20.6556 97.6736 20.769C96.6152 20.8902 95.5644 21.4947 94.5211 22.5827C93.4699 23.6788 92.9048 24.7593 92.8258 25.8241C92.7627 26.8886 93.1878 27.8536 94.1009 28.7189C94.5698 29.1633 95.0722 29.499 95.6083 29.7259C96.1604 29.9525 96.8029 30.093 97.5358 30.1474L97.0858 31.5009C96.3948 31.5174 95.6999 31.3742 95.0013 31.0712C94.3187 30.7678 93.6771 30.3315 93.0766 29.7624Z" fill="#F5F5F5"/>
<path id="T_2" d="M111.478 36.7636L109.722 33.0618L111.046 32.4414L115.315 41.4424L113.991 42.0628L112.236 38.361L102.6 42.8775L101.842 41.28L111.478 36.7636Z" fill="#F5F5F5"/>
<path id="C_3" d="M103.288 78.3003C103.718 77.215 104.326 76.3576 105.112 75.728C105.904 75.113 106.818 74.7589 107.855 74.6656C108.891 74.5723 110 74.757 111.182 75.2196C112.354 75.6781 113.287 76.2927 113.981 77.0634C114.675 77.8342 115.096 78.7108 115.243 79.6934C115.386 80.6865 115.243 81.7257 114.813 82.811C114.509 83.5802 114.105 84.244 113.604 84.8022C113.109 85.3752 112.545 85.7994 111.911 86.0749L110.934 85.035C111.575 84.6775 112.093 84.2778 112.487 83.8358C112.888 83.4085 113.208 82.8946 113.445 82.294C113.909 81.1243 113.888 80.0695 113.382 79.1293C112.873 78.1997 111.916 77.4602 110.513 76.9108C109.098 76.3573 107.881 76.2459 106.86 76.5766C105.846 76.9219 105.107 77.6794 104.644 78.849C104.406 79.4496 104.282 80.04 104.271 80.6201C104.267 81.2149 104.377 81.8604 104.601 82.5566L103.173 82.6547C102.899 82.024 102.772 81.3292 102.792 80.5704C102.818 79.8262 102.984 79.0695 103.288 78.3003Z" fill="#F5F5F5"/>
<path id="O_2" d="M94.1821 92.213C94.9874 91.3995 95.8672 90.865 96.8216 90.6096C97.7762 90.3701 98.7491 90.4102 99.7403 90.7298C100.724 91.0574 101.665 91.6611 102.564 92.5407C103.472 93.4283 104.098 94.3581 104.443 95.3302C104.789 96.3022 104.841 97.2646 104.599 98.2174C104.358 99.1702 103.835 100.053 103.029 100.867C102.216 101.689 101.336 102.223 100.39 102.47C99.4355 102.726 98.4666 102.69 97.4834 102.362C96.5001 102.034 95.5588 101.431 94.6595 100.551C93.7521 99.6636 93.1257 98.7338 92.7802 97.7617C92.4348 96.7897 92.3787 95.8233 92.6121 94.8626C92.8535 93.9097 93.3769 93.0266 94.1821 92.213ZM95.203 93.2115C94.3499 94.0734 93.9839 95.0312 94.1049 96.085C94.218 97.1468 94.8214 98.2126 95.9152 99.2825C97.0009 100.344 98.0745 100.919 99.1362 101.006C100.198 101.11 101.156 100.73 102.009 99.8684C102.862 99.0066 103.228 98.0487 103.107 96.995C102.994 95.9492 102.394 94.8953 101.309 93.8333C100.215 92.7635 99.1371 92.1769 98.0753 92.0736C97.0055 91.9784 96.0481 92.3577 95.203 93.2115Z" fill="#F5F5F5"/>
<path id="N_2" d="M78.7552 115.775L74.2417 104.544L75.4899 104.048L85.3465 109.974L81.9361 101.488L83.4686 100.879L87.9821 112.11L86.7497 112.6L76.8709 106.664L80.2877 115.166L78.7552 115.775Z" fill="#F5F5F5"/>
<path id="T_3" d="M63.3296 116.655L67.4266 116.654L67.4269 118.116L57.4649 118.118L57.4646 116.656L61.5616 116.655L61.5595 106.013L63.3275 106.013L63.3296 116.655Z" fill="#F5F5F5"/>
<path id="A_2" d="M41.7703 104.672L47.459 106.929L49.7746 104.629L51.4338 105.287L41.9154 114.533L40.5407 113.987L40.0247 100.761L41.684 101.419L41.7703 104.672ZM41.8041 106.185L41.9485 112.442L46.3866 108.003L41.8041 106.185Z" fill="#F5F5F5"/>
<path id="C_4" d="M30.426 93.0284C31.2658 93.8392 31.8254 94.726 32.1047 95.6888C32.368 96.6519 32.3421 97.6271 32.027 98.6146C31.7119 99.6022 31.1108 100.55 30.2238 101.458C29.3447 102.358 28.4133 102.979 27.4296 103.321C26.4459 103.663 25.47 103.713 24.5019 103.472C23.5256 103.222 22.6175 102.692 21.7777 101.881C21.1825 101.307 20.7232 100.682 20.3998 100.008C20.0603 99.3333 19.8856 98.6526 19.8755 97.9655L21.2187 97.4664C21.3016 98.1923 21.4716 98.8212 21.7286 99.3528C21.9695 99.8847 22.3223 100.375 22.7871 100.824C23.6921 101.697 24.6785 102.082 25.746 101.979C26.8055 101.868 27.8619 101.273 28.9152 100.194C29.9764 99.1082 30.5515 98.0329 30.6404 96.9688C30.7132 95.905 30.2971 94.9361 29.3921 94.0624C28.9273 93.6137 28.428 93.2734 27.8941 93.0415C27.3441 92.8098 26.7029 92.6634 25.9705 92.6022L26.433 91.2529C27.1242 91.2428 27.8177 91.3925 28.5135 91.7019C29.1933 92.0116 29.8307 92.4538 30.426 93.0284Z" fill="#F5F5F5"/>
<path id="T_4" d="M12.0907 85.858L13.8119 89.576L12.4824 90.1842L8.29722 81.144L9.62669 80.5357L11.3479 84.2536L21.0252 79.8262L21.7679 81.4306L12.0907 85.858Z" fill="#F5F5F5"/>
</g>
</svg>
