<svg preserveAspectRatio="none" viewBox="0 0 120 7" fill="none" xmlns="http://www.w3.org/2000/svg">
<g id="cta-underline-svg" clip-path="url(#clip0)">
<path id="Vector" d="M0 2C3.55345 2 3.55343 5 7.10687 5C10.6596 5 10.6596 2 14.2123 2C17.7655 2 17.7655 5 21.3184 5C24.8717 5 24.8717 2 28.4249 2C31.9778 2 31.9778 5 35.5305 5C39.084 5 39.084 2 42.6372 2C46.1909 2 46.1909 5 49.7444 5C53.2978 5 53.2978 2 56.851 2C60.4043 2 60.4043 5 63.9574 5C67.5106 5 67.5106 2 71.0638 2C74.617 2 74.617 5 78.1702 5C81.7237 5 81.7237 2 85.2771 2C88.831 2 88.831 5 92.3847 5C95.9382 5 95.9382 2 99.4917 2C103.045 2 103.045 5 106.599 5C110.152 5 110.152 2 113.707 2C117.26 2 117.26 5 120.813 5C124.368 5 124.368 2 127.921 2C131.475 2 131.475 5 135.028 5C138.582 5 138.582 2 142.135 2C145.688 2 145.688 5 149.241 5C152.795 5 152.795 2 156.349 2C159.902 2 159.902 5 163.457 5C167.011 5 167.011 2 170.565 2C174.12 2 174.12 5 177.673 5C181.227 5 181.227 2 184.782 2C188.336 2 188.336 5 191.89 5C195.446 5 195.446 2 199 2" stroke="#2180B2" stroke-width="3" stroke-linecap="round" stroke-linejoin="round"/>
</g>
<defs>
<clipPath id="clip0">
<rect width="120" height="7" fill="white"/>
</clipPath>
</defs>
</svg>
