<svg width="1580" height="692" viewBox="0 0 1580 692" fill="none" xmlns="http://www.w3.org/2000/svg">
<path d="M168.322 683.415C124.588 692.113 79.413 693.961 34.9288 688.871C30.5664 688.365 26.2089 687.799 21.8565 687.172C17.504 686.546 13.107 685.834 8.66541 685.037C5.77694 684.539 2.88848 683.999 0 683.415L0.267074 680.005L1.06834 670.149L1.52832 664.436L2.62634 650.668L3.7392 636.887L4.4811 627.636L4.98559 621.331L6.14295 606.881L7.35968 591.8L8.57639 576.643L9.82278 561.073L10.9802 546.611L12.1969 531.53L13.2801 517.994L14.5265 502.424L15.6987 487.949L16.9006 472.868L18.1618 457.26L19.2747 443.377L20.3578 429.763L21.2481 418.684L22.3758 404.711L23.3996 391.959L24.4383 378.937L25.6847 363.497L26.9311 347.927L28.0884 333.465L29.2903 318.384L29.6613 313.791H138.631L163.856 627.661L167.61 674.395L168.322 683.415Z" fill="#5555FF"/>
<path d="M138.647 249.531H29.6172V313.765H138.647V249.531Z" fill="#C4C4FE"/>
<path d="M124.861 197.496H43.4004V249.532H124.861V197.496Z" fill="#5555FF"/>
<path d="M110.306 144.921H57.957V197.496H110.306V144.921Z" fill="#C4C4FE"/>
<path d="M118.912 155.227H49.3359C49.3409 145.244 52.4139 135.441 58.2387 126.829L84.1459 88.5107L110.039 126.829C115.864 135.441 118.937 145.244 118.942 155.227H118.912Z" fill="#5555FF"/>
<path d="M139.909 329.553C137.04 325.937 132.872 323.247 128.054 321.903C123.236 320.558 118.041 320.635 113.279 322.12C108.517 323.606 104.456 326.417 101.731 330.115C99.0054 333.813 97.7687 338.19 98.2138 342.562L103.318 391.985L144.672 388.768L139.909 329.553ZM148.352 434.73C145.983 432.676 143.124 431.099 139.975 430.11C136.827 429.12 133.466 428.743 130.131 429.004C127.134 429.237 124.219 429.979 121.553 431.189C118.887 432.399 116.522 434.052 114.593 436.055C112.664 438.058 111.208 440.37 110.31 442.861C109.412 445.351 109.088 447.97 109.357 450.569L114.462 499.979L153.411 496.969L148.352 434.73ZM157.24 545.349C154.195 544.441 150.965 544.099 147.758 544.346C144.761 544.579 141.846 545.321 139.18 546.531C136.514 547.741 134.149 549.394 132.22 551.397C130.291 553.4 128.836 555.712 127.938 558.203C127.039 560.693 126.716 563.312 126.985 565.911L132.089 615.322L162.655 612.954L157.24 545.349Z" fill="#C4C4FE"/>
<path d="M124.24 171.208H110.307V183.291H124.24V171.208Z" fill="#C4C4FE"/>
</svg>
