<svg preserveAspectRatio="none" viewBox="0 0 1919 242" fill="none" xmlns="http://www.w3.org/2000/svg">
<g id="footer-wave-svg">
<path id="Vector" d="M0 46.6994L45.8428 36.3588C91.6856 25.907 183.371 5.22587 274.63 1.44544C366.103 -2.22379 456.935 11.1189 548.408 19.6805C639.667 28.1308 731.352 31.9112 822.611 34.691C914.084 37.4707 1004.92 39.2497 1096.39 40.9175C1187.65 42.5854 1279.33 44.142 1370.59 48.7007C1462.06 53.3707 1552.9 61.1539 1644.37 53.5931C1735.63 45.921 1827.31 23.0161 1873.16 11.4524L1919 0V241.28H1873.16C1827.31 241.28 1735.63 241.28 1644.37 241.28C1552.9 241.28 1462.06 241.28 1370.59 241.28C1279.33 241.28 1187.65 241.28 1096.39 241.28C1004.92 241.28 914.084 241.28 822.611 241.28C731.352 241.28 639.667 241.28 548.408 241.28C456.935 241.28 366.103 241.28 274.63 241.28C183.371 241.28 91.6856 241.28 45.8428 241.28H0L0 46.6994Z" fill="#0A222E"/>
<path id="Vector_2" d="M0 102.294L45.8428 101.404C91.6856 100.404 183.371 98.6247 274.63 90.9527C366.103 83.3919 456.935 70.0492 548.408 70.2716C639.667 70.3828 731.352 84.1702 822.611 88.6178C914.084 93.0653 1004.92 88.173 1096.39 77.61C1187.65 67.0471 1279.33 50.8135 1370.59 39.2498C1462.06 27.7974 1552.9 21.1261 1644.37 27.7974C1735.63 34.4687 1827.31 54.4827 1873.16 64.4897L1919 74.4967V241.28H1873.16C1827.31 241.28 1735.63 241.28 1644.37 241.28C1552.9 241.28 1462.06 241.28 1370.59 241.28C1279.33 241.28 1187.65 241.28 1096.39 241.28C1004.92 241.28 914.084 241.28 822.611 241.28C731.352 241.28 639.667 241.28 548.408 241.28C456.935 241.28 366.103 241.28 274.63 241.28C183.371 241.28 91.6856 241.28 45.8428 241.28H0L0 102.294Z" fill="#0B1F29"/>
<path id="Vector_3" d="M0 71.1607L45.8428 80.8342C91.6856 90.3964 183.371 109.743 274.63 119.528C366.103 129.313 456.935 129.757 548.408 126.755C639.667 123.753 731.352 117.527 822.611 112.857C914.084 108.187 1004.92 105.296 1096.39 96.7342C1187.65 88.1726 1279.33 74.1628 1370.59 68.7146C1462.06 63.3775 1552.9 66.7132 1644.37 67.0467C1735.63 67.4915 1827.31 64.823 1873.16 63.5999L1919 62.2656V241.28H1873.16C1827.31 241.28 1735.63 241.28 1644.37 241.28C1552.9 241.28 1462.06 241.28 1370.59 241.28C1279.33 241.28 1187.65 241.28 1096.39 241.28C1004.92 241.28 914.084 241.28 822.611 241.28C731.352 241.28 639.667 241.28 548.408 241.28C456.935 241.28 366.103 241.28 274.63 241.28C183.371 241.28 91.6856 241.28 45.8428 241.28H0L0 71.1607Z" fill="#0B1C25"/>
<path id="Vector_4" d="M0 146.77L45.8428 141.544C91.6856 136.429 183.371 125.977 274.63 126.2C366.103 126.422 456.935 137.096 548.408 142.545C639.667 147.882 731.352 147.882 822.611 152.329C914.084 156.777 1004.92 165.672 1096.39 164.782C1187.65 163.782 1279.33 153.108 1370.59 144.546C1462.06 135.984 1552.9 129.758 1644.37 128.646C1735.63 127.534 1827.31 131.537 1873.16 133.649L1919 135.651V241.28H1873.16C1827.31 241.28 1735.63 241.28 1644.37 241.28C1552.9 241.28 1462.06 241.28 1370.59 241.28C1279.33 241.28 1187.65 241.28 1096.39 241.28C1004.92 241.28 914.084 241.28 822.611 241.28C731.352 241.28 639.667 241.28 548.408 241.28C456.935 241.28 366.103 241.28 274.63 241.28C183.371 241.28 91.6856 241.28 45.8428 241.28H0L0 146.77Z" fill="#0B1920"/>
<path id="Vector_5" d="M0 176.79L45.8428 182.127C91.6856 187.576 183.371 198.25 274.63 195.915C366.103 193.469 456.935 177.902 548.408 177.124C639.667 176.457 731.352 190.467 822.611 191.245C914.084 192.023 1004.92 179.348 1096.39 174.233C1187.65 169.007 1279.33 171.231 1370.59 170.119C1462.06 169.007 1552.9 164.56 1644.37 168.118C1735.63 171.565 1827.31 183.128 1873.16 188.799L1919 194.581V241.28H1873.16C1827.31 241.28 1735.63 241.28 1644.37 241.28C1552.9 241.28 1462.06 241.28 1370.59 241.28C1279.33 241.28 1187.65 241.28 1096.39 241.28C1004.92 241.28 914.084 241.28 822.611 241.28C731.352 241.28 639.667 241.28 548.408 241.28C456.935 241.28 366.103 241.28 274.63 241.28C183.371 241.28 91.6856 241.28 45.8428 241.28H0L0 176.79Z" fill="#0A161C"/>
</g>
</svg>
