<svg width="80" height="80" viewBox="0 0 80 80" fill="none" xmlns="http://www.w3.org/2000/svg">
<path d="M14 16.0001H8.99999V14.0001H14V9.87005C13.0573 9.62666 12.2358 9.04782 11.6894 8.24205C11.143 7.43627 10.9092 6.45887 11.0319 5.49305C11.1545 4.52724 11.6252 3.63932 12.3558 2.99573C13.0863 2.35214 14.0264 1.99707 15 1.99707C15.9736 1.99707 16.9137 2.35214 17.6442 2.99573C18.3747 3.63932 18.8454 4.52724 18.9681 5.49305C19.0908 6.45887 18.857 7.43627 18.3106 8.24205C17.7642 9.04782 16.9426 9.62666 16 9.87005V14.0001H21V16.0001H16V31.9501C17.5778 31.7914 19.0953 31.2598 20.4271 30.3991C21.759 29.5385 22.8671 28.3734 23.66 27.0001L20.2 25.0001L28.4 22.8001L25.5 27.8001C24.4622 29.6757 22.941 31.2391 21.0945 32.3277C19.248 33.4164 17.1435 33.9906 15 33.9906C12.8564 33.9906 10.752 33.4164 8.90547 32.3277C7.05894 31.2391 5.53773 29.6757 4.49999 27.8001L1.60999 22.8001L9.80999 25.0001L6.33999 27.0001C7.13285 28.3734 8.24094 29.5385 9.57282 30.3991C10.9047 31.2598 12.4222 31.7914 14 31.9501V16.0001ZM54 56.0001H49V54.0001H54V49.8701C53.0573 49.6267 52.2358 49.0478 51.6894 48.242C51.143 47.4363 50.9092 46.4589 51.0319 45.4931C51.1545 44.5272 51.6252 43.6393 52.3558 42.9957C53.0863 42.3521 54.0264 41.9971 55 41.9971C55.9736 41.9971 56.9137 42.3521 57.6442 42.9957C58.3747 43.6393 58.8454 44.5272 58.9681 45.4931C59.0908 46.4589 58.857 47.4363 58.3106 48.242C57.7642 49.0478 56.9426 49.6267 56 49.8701V54.0001H61V56.0001H56V71.9501C57.5778 71.7914 59.0953 71.2598 60.4272 70.3991C61.759 69.5385 62.8671 68.3734 63.66 67.0001L60.19 65.0001L68.39 62.8001L65.51 67.8001C64.4738 69.6805 62.952 71.2486 61.1034 72.3406C59.2548 73.4326 57.1471 74.0087 55 74.0087C52.8529 74.0087 50.7452 73.4326 48.8966 72.3406C47.0479 71.2486 45.5262 69.6805 44.49 67.8001L41.61 62.8001L49.81 65.0001L46.34 67.0001C47.1328 68.3734 48.2409 69.5385 49.5728 70.3991C50.9047 71.2598 52.4222 71.7914 54 71.9501V56.0001ZM15 62.0001C14.4696 62.0001 13.9608 61.7893 13.5858 61.4143C13.2107 61.0392 13 60.5305 13 60.0001C13 59.4696 13.2107 58.9609 13.5858 58.5858C13.9608 58.2108 14.4696 58.0001 15 58.0001C15.5304 58.0001 16.0391 58.2108 16.4142 58.5858C16.7893 58.9609 17 59.4696 17 60.0001C17 60.5305 16.7893 61.0392 16.4142 61.4143C16.0391 61.7893 15.5304 62.0001 15 62.0001ZM55 22.0001C54.4696 22.0001 53.9608 21.7893 53.5858 21.4143C53.2107 21.0392 53 20.5305 53 20.0001C53 19.4696 53.2107 18.9609 53.5858 18.5858C53.9608 18.2108 54.4696 18.0001 55 18.0001C55.5304 18.0001 56.0391 18.2108 56.4142 18.5858C56.7893 18.9609 57 19.4696 57 20.0001C57 20.5305 56.7893 21.0392 56.4142 21.4143C56.0391 21.7893 55.5304 22.0001 55 22.0001ZM15 8.00005C15.5304 8.00005 16.0391 7.78934 16.4142 7.41427C16.7893 7.03919 17 6.53049 17 6.00005C17 5.46962 16.7893 4.96091 16.4142 4.58584C16.0391 4.21077 15.5304 4.00005 15 4.00005C14.4696 4.00005 13.9608 4.21077 13.5858 4.58584C13.2107 4.96091 13 5.46962 13 6.00005C13 6.53049 13.2107 7.03919 13.5858 7.41427C13.9608 7.78934 14.4696 8.00005 15 8.00005ZM55 48.0001C55.5304 48.0001 56.0391 47.7893 56.4142 47.4143C56.7893 47.0392 57 46.5305 57 46.0001C57 45.4696 56.7893 44.9609 56.4142 44.5858C56.0391 44.2108 55.5304 44.0001 55 44.0001C54.4696 44.0001 53.9608 44.2108 53.5858 44.5858C53.2107 44.9609 53 45.4696 53 46.0001C53 46.5305 53.2107 47.0392 53.5858 47.4143C53.9608 47.7893 54.4696 48.0001 55 48.0001Z" fill="#1E1E3E"/>
</svg>
