<svg width="612" height="249" viewBox="0 0 612 249" fill="none" xmlns="http://www.w3.org/2000/svg">
<g id="hero-2" clip-path="url(#clip0)">
<g id="Website">
<g id="Group-32">
<path id="Case" fill-rule="evenodd" clip-rule="evenodd" d="M118.641 39.2434C118.641 35.4598 121.707 32.3997 125.506 32.3997H364.255C368.046 32.3997 371.119 35.4618 371.119 39.2434V202.308C371.119 206.091 368.053 209.151 364.255 209.151H125.506C121.714 209.151 118.641 206.089 118.641 202.308V39.2434Z" fill="#F5F5F5" stroke="#0A222E" stroke-width="2.08143"/>
<path id="Case_2" fill-rule="evenodd" clip-rule="evenodd" d="M134.084 50.4921C134.084 48.872 135.406 47.5569 137.028 47.5569H352.488C354.115 47.5569 355.431 48.8645 355.431 50.4921V171.99C355.431 173.611 354.11 174.926 352.488 174.926H137.028C135.4 174.926 134.084 173.618 134.084 171.99V50.4921Z" fill="#F5F5F5" stroke="#0A222E" stroke-width="2.08143"/>
<path id="Case_3" fill-rule="evenodd" clip-rule="evenodd" d="M226.901 209.151H263.105L265.549 240.688H224.457L226.901 209.151Z" fill="#F5F5F5" stroke="#0A222E" stroke-width="2.08143"/>
<path id="Keyboard" fill-rule="evenodd" clip-rule="evenodd" d="M209.336 247.536V244.233C209.336 242.278 210.928 240.688 212.886 240.688H277.12C279.074 240.688 280.669 242.278 280.669 244.233V247.536C280.669 247.673 280.563 247.778 280.423 247.778H209.583C209.445 247.778 209.336 247.669 209.336 247.536Z" fill="#F5F5F5" stroke="#0A222E" stroke-width="2.08143"/>
<path id="Oval-6" d="M245.003 197.906C247.507 197.906 249.538 195.881 249.538 193.383C249.538 190.885 247.507 188.86 245.003 188.86C242.498 188.86 240.468 190.885 240.468 193.383C240.468 195.881 242.498 197.906 245.003 197.906Z" stroke="#0A222E" stroke-width="2.08143"/>
<path id="Case_4" d="M138.009 152.923H101.234C97.9866 152.923 95.3544 155.55 95.3544 158.791V241.91C95.3544 245.151 97.9866 247.778 101.234 247.778H138.009C141.256 247.778 143.888 245.151 143.888 241.91V158.791C143.888 155.55 141.256 152.923 138.009 152.923Z" fill="#F5F5F5" stroke="#0A222E" stroke-width="2.08143"/>
<path id="Case_5" fill-rule="evenodd" clip-rule="evenodd" d="M95.3544 163.436H143.888V233.672H95.3544V163.436Z" fill="#F5F5F5" stroke="#0A222E" stroke-width="2.08143"/>
<path id="Rectangle-11" d="M130.407 157.079H109.08C108.539 157.079 108.1 157.517 108.1 158.057C108.1 158.597 108.539 159.035 109.08 159.035H130.407C130.948 159.035 131.387 158.597 131.387 158.057C131.387 157.517 130.948 157.079 130.407 157.079Z" fill="#0A222E"/>
<path id="Rectangle-11_2" d="M119.721 237.754H119.717C118.175 237.754 116.925 239.002 116.925 240.541C116.925 242.081 118.175 243.328 119.717 243.328H119.721C121.263 243.328 122.514 242.081 122.514 240.541C122.514 239.002 121.263 237.754 119.721 237.754Z" fill="#0A222E"/>
<path id="Oval-6_2" d="M109.081 202.062C111.111 202.062 112.758 200.42 112.758 198.395C112.758 196.37 111.111 194.728 109.081 194.728C107.05 194.728 105.404 196.37 105.404 198.395C105.404 200.42 107.05 202.062 109.081 202.062Z" fill="#F5F5F5" stroke="#0A222E" stroke-width="2.08143"/>
<path id="Rectangle-11_3" d="M133.839 192.039H118.64C118.099 192.039 117.66 192.476 117.66 193.016C117.66 193.556 118.099 193.994 118.64 193.994H133.839C134.38 193.994 134.819 193.556 134.819 193.016C134.819 192.476 134.38 192.039 133.839 192.039Z" fill="#0A222E"/>
<path id="Rectangle-11_4" d="M128.937 197.417H118.64C118.099 197.417 117.66 197.855 117.66 198.395C117.66 198.935 118.099 199.373 118.64 199.373H128.937C129.478 199.373 129.916 198.935 129.916 198.395C129.916 197.855 129.478 197.417 128.937 197.417Z" fill="#0A222E"/>
<path id="Rectangle-11_5" d="M124.034 202.795H118.64C118.099 202.795 117.66 203.233 117.66 203.773C117.66 204.313 118.099 204.751 118.64 204.751H124.034C124.575 204.751 125.014 204.313 125.014 203.773C125.014 203.233 124.575 202.795 124.034 202.795Z" fill="#0A222E"/>
<path id="Oval-7" d="M70.4736 198.884C91.2546 198.884 108.101 182.083 108.101 161.358C108.101 140.632 91.2546 123.831 70.4736 123.831C49.6925 123.831 32.8462 140.632 32.8462 161.358C32.8462 182.083 49.6925 198.884 70.4736 198.884Z" fill="#F5F5F5" stroke="#0A222E" stroke-width="2.08143"/>
<path id="Case_6" d="M476.527 116.008H306.894C303.647 116.008 301.014 118.635 301.014 121.876V231.643C301.014 234.883 303.647 237.51 306.894 237.51H476.527C479.774 237.51 482.406 234.883 482.406 231.643V121.876C482.406 118.635 479.774 116.008 476.527 116.008Z" fill="#F5F5F5" stroke="#0A222E" stroke-width="2.08143"/>
<path id="Keyboard_2" fill-rule="evenodd" clip-rule="evenodd" d="M288.512 237.749V242.644C288.512 245.475 290.817 247.778 293.655 247.778H489.766C492.601 247.778 494.909 245.476 494.909 242.644V237.749C494.909 237.616 494.802 237.51 494.665 237.51H288.756C288.618 237.51 288.512 237.616 288.512 237.749Z" fill="#F5F5F5" stroke="#0A222E" stroke-width="2.08143"/>
<path id="Notch" fill-rule="evenodd" clip-rule="evenodd" d="M405.265 237.62L377.812 237.62C378.907 240.507 381.702 242.509 384.909 242.509H398.168C401.375 242.509 404.17 240.507 405.265 237.62Z" fill="#F5F5F5" stroke="#0A222E" stroke-width="2.08143"/>
<path id="Screen" d="M472.213 127.498H311.062C309.98 127.498 309.102 128.374 309.102 129.454V224.272C309.102 225.352 309.98 226.228 311.062 226.228H472.213C473.295 226.228 474.173 225.352 474.173 224.272V129.454C474.173 128.374 473.295 127.498 472.213 127.498Z" fill="#F5F5F5" stroke="#0A222E" stroke-width="2.08143"/>
<path id="Oval-3" d="M239.487 50.9794C240.164 50.9794 240.713 50.4322 240.713 49.7571C240.713 49.082 240.164 48.5347 239.487 48.5347C238.811 48.5347 238.262 49.082 238.262 49.7571C238.262 50.4322 238.811 50.9794 239.487 50.9794Z" fill="#0A222E"/>
<path id="Case_7" fill-rule="evenodd" clip-rule="evenodd" d="M169.382 14.0645H282.629V122.365C282.629 126.143 279.551 129.21 275.764 129.21H176.247C172.457 129.21 169.382 126.142 169.382 122.365V14.0645Z" fill="#F5F5F5" stroke="#0A222E" stroke-width="2.08143"/>
<path id="Case_8" fill-rule="evenodd" clip-rule="evenodd" d="M169.382 8.68C169.382 4.90447 172.46 1.84099 176.247 1.84099H275.764C279.555 1.84099 282.629 4.90119 282.629 8.68V16.0202H169.382V8.68Z" fill="#F5F5F5" stroke="#0A222E" stroke-width="2.08143"/>
<path id="Oval-5" d="M179.922 11.1308C181.14 11.1308 182.128 10.1458 182.128 8.93062C182.128 7.71547 181.14 6.73039 179.922 6.73039C178.704 6.73039 177.716 7.71547 177.716 8.93062C177.716 10.1458 178.704 11.1308 179.922 11.1308Z" fill="#0A222E"/>
<path id="Oval-5_2" d="M187.276 11.1308C188.494 11.1308 189.482 10.1458 189.482 8.93062C189.482 7.71547 188.494 6.73039 187.276 6.73039C186.057 6.73039 185.07 7.71547 185.07 8.93062C185.07 10.1458 186.057 11.1308 187.276 11.1308Z" fill="#0A222E"/>
<path id="Oval-5_3" d="M194.629 11.1308C195.848 11.1308 196.836 10.1458 196.836 8.93062C196.836 7.71547 195.848 6.73039 194.629 6.73039C193.411 6.73039 192.423 7.71547 192.423 8.93062C192.423 10.1458 193.411 11.1308 194.629 11.1308Z" fill="#0A222E"/>
<path id="Rectangle-11_6" d="M186.541 85.4497H184.088C183.547 85.4497 183.109 85.8875 183.109 86.4276C183.109 86.9676 183.547 87.4054 184.088 87.4054H186.541C187.082 87.4054 187.521 86.9676 187.521 86.4276C187.521 85.8875 187.082 85.4497 186.541 85.4497Z" fill="#0A222E"/>
<path id="Rectangle-11_7" d="M186.541 36.5557H184.088C183.547 36.5557 183.109 36.9935 183.109 37.5336C183.109 38.0737 183.547 38.5115 184.088 38.5115H186.541C187.082 38.5115 187.521 38.0737 187.521 37.5336C187.521 36.9935 187.082 36.5557 186.541 36.5557Z" fill="#0A222E"/>
<path id="Rectangle-11_8" fill-rule="evenodd" clip-rule="evenodd" d="M191.442 36.5557H198.062C198.603 36.5557 199.042 36.9935 199.042 37.5336C199.042 38.0737 198.603 38.5115 198.062 38.5115H191.442C190.901 38.5115 190.462 38.0737 190.462 37.5336C190.462 36.9935 190.901 36.5557 191.442 36.5557Z" fill="#0A222E"/>
<path id="Rectangle-11_9" fill-rule="evenodd" clip-rule="evenodd" d="M202.473 36.5557H209.093C209.634 36.5557 210.072 36.9935 210.072 37.5336C210.072 38.0737 209.634 38.5115 209.093 38.5115H202.473C201.932 38.5115 201.493 38.0737 201.493 37.5336C201.493 36.9935 201.932 36.5557 202.473 36.5557Z" fill="#0A222E"/>
<path id="Rectangle-11_10" fill-rule="evenodd" clip-rule="evenodd" d="M213.504 36.5557H225.761C226.302 36.5557 226.741 36.9935 226.741 37.5336C226.741 38.0737 226.302 38.5115 225.761 38.5115H213.504C212.962 38.5115 212.524 38.0737 212.524 37.5336C212.524 36.9935 212.962 36.5557 213.504 36.5557Z" fill="#0A222E"/>
<path id="Rectangle-11_11" fill-rule="evenodd" clip-rule="evenodd" d="M230.172 36.5557H248.313C248.854 36.5557 249.292 36.9935 249.292 37.5336C249.292 38.0737 248.854 38.5115 248.313 38.5115H230.172C229.631 38.5115 229.192 38.0737 229.192 37.5336C229.192 36.9935 229.631 36.5557 230.172 36.5557Z" fill="#0A222E"/>
<path id="Rectangle-11_12" d="M186.541 46.3345H184.088C183.547 46.3345 183.109 46.7723 183.109 47.3124C183.109 47.8524 183.547 48.2903 184.088 48.2903H186.541C187.082 48.2903 187.521 47.8524 187.521 47.3124C187.521 46.7723 187.082 46.3345 186.541 46.3345Z" fill="#0A222E"/>
<path id="Rectangle-11_13" d="M186.541 56.1133H184.088C183.547 56.1133 183.109 56.5511 183.109 57.0912C183.109 57.6312 183.547 58.0691 184.088 58.0691H186.541C187.082 58.0691 187.521 57.6312 187.521 57.0912C187.521 56.5511 187.082 56.1133 186.541 56.1133Z" fill="#0A222E"/>
<path id="Rectangle-11_14" d="M186.541 65.8921H184.088C183.547 65.8921 183.109 66.3299 183.109 66.87C183.109 67.41 183.547 67.8479 184.088 67.8479H186.541C187.082 67.8479 187.521 67.41 187.521 66.87C187.521 66.3299 187.082 65.8921 186.541 65.8921Z" fill="#0A222E"/>
<path id="Rectangle-11_15" d="M186.541 75.6709H184.088C183.547 75.6709 183.109 76.1087 183.109 76.6488C183.109 77.1888 183.547 77.6266 184.088 77.6266H186.541C187.082 77.6266 187.521 77.1888 187.521 76.6488C187.521 76.1087 187.082 75.6709 186.541 75.6709Z" fill="#0A222E"/>
<path id="Rectangle-11_16" d="M186.541 95.2285H184.088C183.547 95.2285 183.109 95.6663 183.109 96.2064C183.109 96.7464 183.547 97.1842 184.088 97.1842H186.541C187.082 97.1842 187.521 96.7464 187.521 96.2064C187.521 95.6663 187.082 95.2285 186.541 95.2285Z" fill="#0A222E"/>
<path id="Rectangle-11_17" d="M186.541 105.007H184.088C183.547 105.007 183.109 105.445 183.109 105.985C183.109 106.525 183.547 106.963 184.088 106.963H186.541C187.082 106.963 187.521 106.525 187.521 105.985C187.521 105.445 187.082 105.007 186.541 105.007Z" fill="#0A222E"/>
<path id="Rectangle-11_18" d="M206.641 46.3345H191.442C190.901 46.3345 190.462 46.7723 190.462 47.3124C190.462 47.8524 190.901 48.2903 191.442 48.2903H206.641C207.182 48.2903 207.621 47.8524 207.621 47.3124C207.621 46.7723 207.182 46.3345 206.641 46.3345Z" fill="#0A222E"/>
<path id="Rectangle-11_19" d="M238.508 46.3345H211.052C210.511 46.3345 210.072 46.7723 210.072 47.3124C210.072 47.8524 210.511 48.2903 211.052 48.2903H238.508C239.049 48.2903 239.487 47.8524 239.487 47.3124C239.487 46.7723 239.049 46.3345 238.508 46.3345Z" fill="#0A222E"/>
<path id="Rectangle-11_20" d="M253.215 46.3345H242.919C242.377 46.3345 241.939 46.7723 241.939 47.3124C241.939 47.8524 242.377 48.2903 242.919 48.2903H253.215C253.756 48.2903 254.195 47.8524 254.195 47.3124C254.195 46.7723 253.756 46.3345 253.215 46.3345Z" fill="#0A222E"/>
<path id="Rectangle-11_21" d="M201.739 56.1133H191.442C190.901 56.1133 190.462 56.5511 190.462 57.0912C190.462 57.6312 190.901 58.0691 191.442 58.0691H201.739C202.28 58.0691 202.719 57.6312 202.719 57.0912C202.719 56.5511 202.28 56.1133 201.739 56.1133Z" fill="#0A222E"/>
<path id="Rectangle-11_22" d="M216.446 56.1133H206.15C205.609 56.1133 205.17 56.5511 205.17 57.0912C205.17 57.6312 205.609 58.0691 206.15 58.0691H216.446C216.987 58.0691 217.426 57.6312 217.426 57.0912C217.426 56.5511 216.987 56.1133 216.446 56.1133Z" fill="#0A222E"/>
<path id="Rectangle-11_23" d="M226.251 56.1133H220.857C220.316 56.1133 219.877 56.5511 219.877 57.0912C219.877 57.6312 220.316 58.0691 220.857 58.0691H226.251C226.792 58.0691 227.231 57.6312 227.231 57.0912C227.231 56.5511 226.792 56.1133 226.251 56.1133Z" fill="#0A222E"/>
<path id="Rectangle-11_24" d="M213.995 65.8921H191.442C190.901 65.8921 190.462 66.3299 190.462 66.87C190.462 67.41 190.901 67.8479 191.442 67.8479H213.995C214.536 67.8479 214.975 67.41 214.975 66.87C214.975 66.3299 214.536 65.8921 213.995 65.8921Z" fill="#0A222E"/>
<path id="Rectangle-11_25" d="M233.605 65.8921H218.406C217.865 65.8921 217.426 66.3299 217.426 66.87C217.426 67.41 217.865 67.8479 218.406 67.8479H233.605C234.146 67.8479 234.585 67.41 234.585 66.87C234.585 66.3299 234.146 65.8921 233.605 65.8921Z" fill="#0A222E"/>
<path id="Rectangle-11_26" d="M213.995 75.6709H191.442C190.901 75.6709 190.462 76.1087 190.462 76.6488C190.462 77.1888 190.901 77.6266 191.442 77.6266H213.995C214.536 77.6266 214.975 77.1888 214.975 76.6488C214.975 76.1087 214.536 75.6709 213.995 75.6709Z" fill="#0A222E"/>
<path id="Rectangle-11_27" d="M248.313 75.6709H218.406C217.865 75.6709 217.426 76.1087 217.426 76.6488C217.426 77.1888 217.865 77.6266 218.406 77.6266H248.313C248.854 77.6266 249.292 77.1888 249.292 76.6488C249.292 76.1087 248.854 75.6709 248.313 75.6709Z" fill="#0A222E"/>
<path id="Rectangle-11_28" d="M206.641 85.4497H191.442C190.901 85.4497 190.462 85.8875 190.462 86.4276C190.462 86.9676 190.901 87.4054 191.442 87.4054H206.641C207.182 87.4054 207.621 86.9676 207.621 86.4276C207.621 85.8875 207.182 85.4497 206.641 85.4497Z" fill="#0A222E"/>
<path id="Rectangle-11_29" d="M226.251 85.4497H211.052C210.511 85.4497 210.072 85.8875 210.072 86.4276C210.072 86.9676 210.511 87.4054 211.052 87.4054H226.251C226.792 87.4054 227.231 86.9676 227.231 86.4276C227.231 85.8875 226.792 85.4497 226.251 85.4497Z" fill="#0A222E"/>
<path id="Rectangle-11_30" d="M238.508 85.4497H230.662C230.121 85.4497 229.682 85.8875 229.682 86.4276C229.682 86.9676 230.121 87.4054 230.662 87.4054H238.508C239.049 87.4054 239.487 86.9676 239.487 86.4276C239.487 85.8875 239.049 85.4497 238.508 85.4497Z" fill="#0A222E"/>
<path id="Rectangle-11_31" d="M221.349 95.2285H191.442C190.901 95.2285 190.462 95.6663 190.462 96.2064C190.462 96.7464 190.901 97.1842 191.442 97.1842H221.349C221.89 97.1842 222.329 96.7464 222.329 96.2064C222.329 95.6663 221.89 95.2285 221.349 95.2285Z" fill="#0A222E"/>
<path id="Rectangle-11_32" d="M204.19 105.007H191.442C190.901 105.007 190.462 105.445 190.462 105.985C190.462 106.525 190.901 106.963 191.442 106.963H204.19C204.731 106.963 205.17 106.525 205.17 105.985C205.17 105.445 204.731 105.007 204.19 105.007Z" fill="#0A222E"/>
<path id="Case_9" fill-rule="evenodd" clip-rule="evenodd" d="M390.73 90.828H525.058V186.18C525.058 189.957 521.988 193.016 518.198 193.016H397.59C393.804 193.016 390.73 189.951 390.73 186.18V90.828Z" fill="#F5F5F5" stroke="#0A222E" stroke-width="2.08143"/>
<path id="Case_10" fill-rule="evenodd" clip-rule="evenodd" d="M390.73 85.4435C390.73 81.6651 393.8 78.6045 397.59 78.6045H518.198C521.987 78.6045 525.058 81.6649 525.058 85.4435V92.7838H390.73V85.4435Z" fill="#F5F5F5" stroke="#0A222E" stroke-width="2.08143"/>
<path id="Oval-5_4" d="M401.27 87.8944C402.489 87.8944 403.476 86.9093 403.476 85.6941C403.476 84.479 402.489 83.4939 401.27 83.4939C400.052 83.4939 399.064 84.479 399.064 85.6941C399.064 86.9093 400.052 87.8944 401.27 87.8944Z" fill="#0A222E"/>
<path id="Oval-5_5" d="M408.624 87.8944C409.842 87.8944 410.83 86.9093 410.83 85.6941C410.83 84.479 409.842 83.4939 408.624 83.4939C407.405 83.4939 406.418 84.479 406.418 85.6941C406.418 86.9093 407.405 87.8944 408.624 87.8944Z" fill="#0A222E"/>
<path id="Oval-5_6" d="M415.978 87.8944C417.196 87.8944 418.184 86.9093 418.184 85.6941C418.184 84.479 417.196 83.4939 415.978 83.4939C414.759 83.4939 413.771 84.479 413.771 85.6941C413.771 86.9093 414.759 87.8944 415.978 87.8944Z" fill="#0A222E"/>
<path id="Oval-6_3" d="M473.827 166.369C487.365 166.369 498.34 155.424 498.34 141.922C498.34 128.42 487.365 117.475 473.827 117.475C460.289 117.475 449.315 128.42 449.315 141.922C449.315 155.424 460.289 166.369 473.827 166.369Z" fill="#F5F5F5" stroke="#0A222E" stroke-width="2.34161"/>
<path id="Rectangle-12" fill-rule="evenodd" clip-rule="evenodd" d="M471.13 114.542V120.409H477.014V114.542H471.13Z" fill="#F5F5F5" stroke="#0A222E" stroke-width="2.08143"/>
<path id="Rectangle-12_2" fill-rule="evenodd" clip-rule="evenodd" d="M470.885 163.436V169.303H476.769V163.436H470.885Z" fill="#F5F5F5" stroke="#0A222E" stroke-width="2.08143"/>
<path id="Rectangle-12_3" fill-rule="evenodd" clip-rule="evenodd" d="M446.373 139.233V145.1H452.257V139.233H446.373Z" fill="#F5F5F5" stroke="#0A222E" stroke-width="2.08143"/>
<path id="Rectangle-12_4" fill-rule="evenodd" clip-rule="evenodd" d="M495.152 139.233V145.1H501.037V139.233H495.152Z" fill="#F5F5F5" stroke="#0A222E" stroke-width="2.08143"/>
<path id="Line" d="M498.34 119.92V138.255" stroke="#0A222E" stroke-width="2.08143" stroke-linecap="square"/>
<path id="Line_2" d="M498.34 145.589V163.924" stroke="#0A222E" stroke-width="2.08143" stroke-linecap="square"/>
<path id="Oval-5_7" d="M498.34 122.12C499.964 122.12 501.281 120.807 501.281 119.187C501.281 117.566 499.964 116.253 498.34 116.253C496.715 116.253 495.398 117.566 495.398 119.187C495.398 120.807 496.715 122.12 498.34 122.12Z" fill="#0A222E"/>
<path id="Oval-5_8" d="M498.34 168.569C499.964 168.569 501.281 167.256 501.281 165.636C501.281 164.016 499.964 162.702 498.34 162.702C496.715 162.702 495.398 164.016 495.398 165.636C495.398 167.256 496.715 168.569 498.34 168.569Z" fill="#0A222E"/>
<g id="Group-60">
<path id="Rectangle-15" d="M427.011 112.341H417.691C416.067 112.341 414.751 113.655 414.751 115.275V124.565C414.751 126.185 416.067 127.498 417.691 127.498H427.011C428.634 127.498 429.95 126.185 429.95 124.565V115.275C429.95 113.655 428.634 112.341 427.011 112.341Z" fill="#F5F5F5" stroke="#0A222E" stroke-width="2.08143"/>
<path id="Rectangle-15_2" d="M427.011 134.344H417.691C416.067 134.344 414.751 135.657 414.751 137.277V146.567C414.751 148.187 416.067 149.501 417.691 149.501H427.011C428.634 149.501 429.95 148.187 429.95 146.567V137.277C429.95 135.657 428.634 134.344 427.011 134.344Z" fill="#F5F5F5" stroke="#0A222E" stroke-width="2.08143"/>
<path id="Rectangle-15_3" d="M427.011 156.346H417.691C416.067 156.346 414.751 157.659 414.751 159.28V168.569C414.751 170.19 416.067 171.503 417.691 171.503H427.011C428.634 171.503 429.95 170.19 429.95 168.569V159.28C429.95 157.659 428.634 156.346 427.011 156.346Z" fill="#F5F5F5" stroke="#0A222E" stroke-width="2.08143"/>
</g>
<path id="Oval-8" d="M595.409 239.221C603.532 239.221 610.117 232.654 610.117 224.553C610.117 216.452 603.532 209.885 595.409 209.885C587.287 209.885 580.702 216.452 580.702 224.553C580.702 232.654 587.287 239.221 595.409 239.221Z" fill="#F5F5F5" stroke="#0A222E" stroke-width="2.08143"/>
<path id="Oval-8_2" d="M595.409 233.109C600.148 233.109 603.989 229.279 603.989 224.553C603.989 219.827 600.148 215.997 595.409 215.997C590.671 215.997 586.83 219.827 586.83 224.553C586.83 229.279 590.671 233.109 595.409 233.109Z" fill="#F5F5F5" stroke="#0A222E" stroke-width="2.08143"/>
<path id="Oval-8_3" d="M575.799 207.196C578.507 207.196 580.702 205.007 580.702 202.306C580.702 199.606 578.507 197.417 575.799 197.417C573.092 197.417 570.897 199.606 570.897 202.306C570.897 205.007 573.092 207.196 575.799 207.196Z" fill="#F5F5F5" stroke="#0A222E" stroke-width="2.08143"/>
<path id="Rectangle-16" fill-rule="evenodd" clip-rule="evenodd" d="M554.227 201.084C553.686 201.084 553.247 201.522 553.247 202.062V243.133C553.247 245.833 555.441 248.022 558.147 248.022H591.964C594.67 248.022 596.864 245.833 596.864 243.133V202.062C596.864 201.522 596.425 201.084 595.884 201.084H554.227Z" fill="#F5F5F5" stroke="#0A222E" stroke-width="2.08143"/>
<path id="Rectangle-16_2" d="M583.891 214.285H577.023C575.399 214.285 574.083 215.599 574.083 217.219V226.998C574.083 228.618 575.399 229.931 577.023 229.931H583.891C585.515 229.931 586.831 228.618 586.831 226.998V217.219C586.831 215.599 585.515 214.285 583.891 214.285Z" fill="#F5F5F5" stroke="#0A222E" stroke-width="2.08143"/>
<path id="Line-2" d="M580.334 201.451V212.574" stroke="#0A222E" stroke-width="2.08143" stroke-linecap="square"/>
<path id="Oval-8_4" fill-rule="evenodd" clip-rule="evenodd" d="M525.304 247.778C533.426 247.778 540.011 247.778 540.011 247.778C540.011 239.677 533.426 233.109 525.304 233.109C517.181 233.109 510.596 239.677 510.596 247.778C510.596 247.778 517.181 247.778 525.304 247.778Z" fill="#F5F5F5" stroke="#0A222E" stroke-width="2.08143"/>
<path id="Rectangle-11_33" d="M526.284 233.599C526.284 233.059 525.845 232.621 525.303 232.621C524.762 232.621 524.323 233.059 524.323 233.599V234.82C524.323 235.361 524.762 235.799 525.303 235.799C525.845 235.799 526.284 235.361 526.284 234.82V233.599Z" fill="#0A222E"/>
<path id="Rectangle-17" fill-rule="evenodd" clip-rule="evenodd" d="M15.4331 218.93C7.4508 218.93 0.979858 225.388 0.979858 233.354C0.979858 241.32 7.4508 247.778 15.4331 247.778H74.7648C75.5765 247.778 76.2346 247.121 76.2346 246.311V244.041C76.2346 243.014 75.4396 242.163 74.4137 242.09C67.6781 241.613 64.1004 238.66 64.1004 233.354C64.1004 228.048 67.6781 225.095 74.4137 224.618C75.4396 224.545 76.2346 223.693 76.2346 222.667V220.397C76.2346 219.587 75.5765 218.93 74.7648 218.93H15.4331Z" fill="#F5F5F5" stroke="#0A222E" stroke-width="2.08143"/>
<path id="Rectangle-19" d="M75.4985 242.704C75.4985 242.941 75.3062 243.133 75.069 243.133H68.1235H15.1977C9.78255 243.133 5.3927 238.755 5.3927 233.354C5.3927 227.953 9.78255 223.575 15.1977 223.575H68.1235H75.069C75.3062 223.575 75.4985 223.767 75.4985 224.004" stroke="#0A222E" stroke-width="2.08143"/>
<path id="Rectangle-18" d="M63.7331 229.198H14.2166C13.6754 229.198 13.2367 229.636 13.2367 230.176C13.2367 230.716 13.6754 231.154 14.2166 231.154H63.7331C64.2743 231.154 64.713 230.716 64.713 230.176C64.713 229.636 64.2743 229.198 63.7331 229.198Z" fill="#0A222E"/>
<path id="Rectangle-18_2" d="M63.7331 235.31H14.2166C13.6754 235.31 13.2367 235.747 13.2367 236.288C13.2367 236.828 13.6754 237.265 14.2166 237.265H63.7331C64.2743 237.265 64.713 236.828 64.713 236.288C64.713 235.747 64.2743 235.31 63.7331 235.31Z" fill="#0A222E"/>
<path id="Shape" d="M61.3191 170.123C60.1161 169.057 58.9132 167.99 57.7102 166.924C55.7931 165.226 53.8816 163.522 51.9645 161.824C51.525 161.438 51.0856 161.046 50.6517 160.66C50.6517 161.171 50.6517 161.688 50.6517 162.2C51.8546 161.133 53.0576 160.067 54.2606 159C56.1776 157.302 58.0892 155.599 60.0063 153.901C60.4457 153.515 60.8852 153.123 61.3191 152.736C61.7476 152.355 61.7421 151.577 61.3191 151.196C60.8632 150.777 60.226 150.788 59.7646 151.196C58.5616 152.263 57.3586 153.33 56.1557 154.396C54.2386 156.094 52.327 157.797 50.41 159.495C49.9705 159.882 49.5311 160.274 49.0971 160.66C48.6742 161.035 48.6742 161.824 49.0971 162.2C50.3001 163.267 51.5031 164.333 52.706 165.4C54.6231 167.098 56.5347 168.801 58.4517 170.499C58.8912 170.885 59.3306 171.277 59.7646 171.664C60.193 172.044 60.9016 172.115 61.3191 171.664C61.7036 171.25 61.775 170.532 61.3191 170.123Z" fill="#0A222E"/>
<path id="Shape_2" d="M79.6376 152.739C80.8406 153.806 82.0436 154.872 83.2466 155.939C85.1636 157.637 87.0752 159.34 88.9923 161.038C89.4317 161.424 89.8712 161.816 90.3051 162.203C90.3051 161.691 90.3051 161.174 90.3051 160.662C89.1021 161.729 87.8992 162.796 86.6962 163.862C84.7791 165.56 82.8675 167.264 80.9505 168.961C80.511 169.348 80.0716 169.74 79.6376 170.126C79.2092 170.507 79.2147 171.285 79.6376 171.666C80.0936 172.085 80.7308 172.074 81.1922 171.666C82.3951 170.6 83.5981 169.533 84.8011 168.466C86.7182 166.768 88.6297 165.065 90.5468 163.367C90.9863 162.981 91.4257 162.589 91.8596 162.203C92.2826 161.827 92.2826 161.038 91.8596 160.662C90.6567 159.596 89.4537 158.529 88.2507 157.463C86.3337 155.765 84.4221 154.061 82.505 152.363C82.0656 151.977 81.6261 151.585 81.1922 151.199C80.7637 150.818 80.0551 150.747 79.6376 151.199C79.2531 151.612 79.1817 152.331 79.6376 152.739Z" fill="#0A222E"/>
<path id="Shape_3" d="M66.5608 176.532C66.8904 175.553 67.2145 174.573 67.5441 173.588C68.3296 171.232 69.1151 168.881 69.9006 166.524C70.8454 163.684 71.7902 160.849 72.7405 158.008C73.559 155.553 74.3774 153.099 75.1959 150.645C75.5859 149.453 76.0253 148.267 76.3879 147.059C76.3934 147.042 76.3988 147.026 76.4043 147.01C76.5856 146.471 76.1956 145.796 75.6353 145.671C75.0311 145.535 74.4763 145.85 74.284 146.433C73.9545 147.412 73.6304 148.392 73.3008 149.377C72.5153 151.733 71.7298 154.084 70.9443 156.441C69.9995 159.281 69.0547 162.116 68.1044 164.957C67.2859 167.412 66.4674 169.866 65.649 172.32C65.259 173.507 64.8195 174.693 64.457 175.901C64.4515 175.917 64.446 175.934 64.4405 175.95C64.2593 176.489 64.6493 177.164 65.2095 177.289C65.8138 177.425 66.3686 177.109 66.5608 176.532Z" fill="#0A222E"/>
</g>
</g>
</g>
<defs>
<clipPath id="clip0">
<rect width="612" height="249" fill="white"/>
</clipPath>
</defs>
</svg>
