<svg viewBox="0 0 1580 692" fill="none" xmlns="http://www.w3.org/2000/svg">
<path d="M1580 0L124 171.25V183.234L1580 462V0Z" fill="#5252b8" fill-opacity=".07"/>
<path d="M168.375 683.415C124.641 692.113 79.4657 693.961 34.9815 688.871C30.6191 688.365 26.2616 687.799 21.9092 687.172C17.5567 686.546 13.1597 685.834 8.71814 685.037C5.82967 684.539 2.94121 683.999 0.0527344 683.415L0.319808 680.005L1.12107 670.149L1.58105 664.436L2.67907 650.668L3.79193 636.887L4.53383 627.636L5.03832 621.331L6.19568 606.881L7.41241 591.8L8.62912 576.643L9.87551 561.073L11.0329 546.611L12.2496 531.53L13.3328 517.994L14.5792 502.424L15.7514 487.949L16.9533 472.868L18.2145 457.26L19.3274 443.377L20.4105 429.763L21.3008 418.684L22.4285 404.711L23.4523 391.959L24.491 378.937L25.7374 363.497L26.9838 347.927L28.1411 333.465L29.343 318.384L29.714 313.791H138.684L163.909 627.661L167.663 674.395L168.375 683.415Z" fill="#141429"/>
<path d="M138.699 249.531H29.6693V313.765H138.699V249.531Z" fill="#1A1A37"/>
<path d="M124.915 197.496H43.4541V249.532H124.915V197.496Z" fill="#141429"/>
<path d="M110.359 144.921H58.01V197.496H110.359V144.921Z" fill="#1A1A37"/>
<path d="M118.965 155.227H49.3894C49.3944 145.244 52.4674 135.441 58.2922 126.829L84.1994 88.5107L110.092 126.829C115.917 135.441 118.99 145.244 118.995 155.227H118.965Z" fill="#141429"/>
<path d="M139.961 329.553C137.092 325.937 132.924 323.247 128.106 321.903C123.288 320.558 118.093 320.635 113.331 322.12C108.569 323.606 104.508 326.417 101.783 330.115C99.0575 333.813 97.8208 338.19 98.2659 342.562L103.37 391.985L144.724 388.768L139.961 329.553ZM148.404 434.73C146.035 432.676 143.176 431.099 140.027 430.11C136.879 429.12 133.518 428.743 130.183 429.004C127.186 429.237 124.271 429.979 121.605 431.189C118.939 432.399 116.574 434.052 114.645 436.055C112.716 438.058 111.26 440.37 110.362 442.861C109.464 445.351 109.14 447.97 109.409 450.569L114.514 499.979L153.463 496.969L148.404 434.73ZM157.292 545.349C154.247 544.441 151.017 544.099 147.81 544.346C144.813 544.579 141.898 545.321 139.232 546.531C136.566 547.741 134.201 549.394 132.272 551.397C130.343 553.4 128.888 555.712 127.99 558.203C127.091 560.693 126.768 563.312 127.037 565.911L132.141 615.322L162.707 612.954L157.292 545.349Z" fill="#1A1A37"/>
<path d="M124.292 171.208H110.359V183.291H124.292V171.208Z" fill="#1A1A37"/>
</svg>
