<svg width="1281" height="679" viewBox="0 0 1281 679" fill="none" xmlns="http://www.w3.org/2000/svg">
<path d="M1281 0L267 136.498V149.098L1281 371V0Z" fill="#F3F3FF"/>
<path d="M306.639 670.069C267.123 679.132 226.306 681.057 186.112 675.753C182.171 675.226 178.234 674.636 174.301 673.984C170.368 673.331 166.396 672.589 162.383 671.758C159.773 671.24 157.163 670.677 154.553 670.069L154.794 666.516L155.518 656.247L155.934 650.294L156.926 635.949L157.931 621.59L158.602 611.951L159.058 605.381L160.103 590.326L161.203 574.613L162.302 558.82L163.428 542.598L164.474 527.528L165.573 511.816L166.552 497.712L167.678 481.49L168.737 466.407L169.823 450.694L170.963 434.432L171.968 419.966L172.947 405.782L173.751 394.239L174.77 379.679L175.695 366.393L176.634 352.825L177.76 336.737L178.886 320.515L179.932 305.446L181.018 289.733L181.353 284.947H279.812L302.604 611.978L305.996 660.671L306.639 670.069Z" fill="#5555FF"/>
<path d="M306.639 670.069C267.123 679.132 226.306 681.057 186.112 675.753C182.171 675.226 178.234 674.636 174.301 673.984C170.368 673.331 166.396 672.589 162.383 671.758C159.773 671.24 157.163 670.677 154.553 670.069L154.794 666.516L155.518 656.247L155.934 650.294L156.926 635.949L157.931 621.59L158.602 611.951C161.006 612.469 163.41 612.961 165.815 613.425C169.475 614.136 173.148 614.766 176.822 615.369C180.495 615.973 184.343 616.522 188.11 616.978C226.267 621.782 264.962 620.082 302.55 611.951L305.942 660.644L306.639 670.069Z" fill="#C4C4FE"/>
<path d="M185.657 284.92C185.262 285.996 184.635 286.971 183.82 287.776C183.048 288.621 182.094 289.281 181.031 289.706C181.444 288.64 182.066 287.668 182.86 286.846C183.654 286.024 184.605 285.369 185.657 284.92ZM199.144 285.564C193.391 292.791 186.957 299.449 179.932 305.446C182.776 301.812 185.82 298.339 189.048 295.042C192.239 291.702 195.609 288.538 199.144 285.564ZM199.144 299.533C193.046 307.127 186.265 314.146 178.886 320.502C181.905 316.684 185.122 313.028 188.526 309.548C191.89 306.03 195.434 302.687 199.144 299.533ZM199.144 314.576C195.953 318.598 192.44 322.405 188.928 326.119C185.415 329.833 181.702 333.399 177.76 336.724C180.937 332.702 184.463 328.894 187.962 325.181C191.462 321.467 195.202 317.901 199.144 314.576ZM199.144 378.66C197.159 381.113 195.122 383.46 192.963 385.792C190.805 388.125 188.7 390.418 186.528 392.683C184.356 394.949 182.131 397.188 179.825 399.387L176.527 402.618C175.347 403.677 174.207 404.763 173.014 405.782C173.993 404.548 175.038 403.369 176.044 402.162L179.194 398.649C181.286 396.303 183.458 394.024 185.63 391.758C187.802 389.493 190.014 387.254 192.333 385.055C194.652 382.856 196.757 380.751 199.144 378.66ZM199.144 391.825C197.079 394.359 194.907 396.799 192.722 399.213C190.537 401.626 188.284 403.999 186.018 406.358C183.753 408.718 181.474 411.024 179.114 413.29L175.588 416.682C174.368 417.767 173.188 418.894 171.955 419.966C172.974 418.693 174.06 417.473 175.105 416.226L178.377 412.579C180.549 410.139 182.801 407.779 185.08 405.433C187.359 403.087 189.638 400.768 191.984 398.502C194.331 396.236 196.637 393.984 199.144 391.825ZM199.144 405.246C196.985 407.927 194.733 410.394 192.44 412.901C190.148 415.408 187.842 417.861 185.509 420.301C183.176 422.741 180.79 425.141 178.35 427.487L174.69 431.013C173.443 432.153 172.21 433.319 170.936 434.432C171.995 433.091 173.121 431.845 174.221 430.557L177.612 426.777C179.865 424.256 182.198 421.816 184.544 419.376C186.89 416.936 189.263 414.536 191.703 412.19C194.143 409.844 196.637 407.484 199.144 405.246ZM199.144 420.342C196.891 423.023 194.545 425.704 192.186 428.292C189.826 430.879 187.399 433.44 184.959 435.987C182.519 438.535 180.053 441.015 177.519 443.468L173.725 447.128C172.384 448.321 171.15 449.541 169.823 450.694C170.936 449.354 172.102 448.013 173.242 446.672L176.781 442.744C179.141 440.13 181.567 437.596 183.994 435.049C186.421 432.501 188.914 430.021 191.435 427.568C193.955 425.114 196.503 422.674 199.144 420.342ZM199.144 434.928C196.811 437.744 194.371 440.452 191.904 443.16C189.437 445.868 186.944 448.523 184.423 451.137C181.903 453.751 179.329 456.352 176.701 458.899L172.773 462.707C171.432 463.94 170.091 465.201 168.751 466.407C169.904 464.986 171.124 463.632 172.317 462.238L175.977 458.216C178.43 455.534 180.951 452.853 183.471 450.239C185.992 447.624 188.566 445.023 191.18 442.476C193.794 439.929 196.409 437.355 199.144 434.928ZM199.144 448.911C196.717 451.821 194.183 454.623 191.649 457.411C189.115 460.2 186.501 462.935 183.887 465.67C181.273 468.405 178.618 471.032 175.843 473.714L171.821 477.655C170.48 478.996 169.139 480.256 167.651 481.503C168.844 480.042 170.118 478.634 171.338 477.2L175.186 472.99C177.72 470.188 180.334 467.466 182.935 464.731C185.536 461.996 188.204 459.369 190.912 456.687C193.62 454.006 196.315 451.432 199.144 448.911ZM199.144 463.967C196.623 466.97 193.996 469.879 191.368 472.762C188.74 475.644 186.005 478.487 183.324 481.302C180.642 484.117 177.867 486.906 175.065 489.628L170.855 493.717C169.421 495.057 168.013 496.398 166.552 497.739C167.799 496.224 169.113 494.776 170.386 493.288L174.328 488.944C177.009 486.048 179.691 483.219 182.372 480.404C185.053 477.588 187.828 474.8 190.63 472.078C193.432 469.357 196.221 466.555 199.144 463.967ZM199.144 477.052C196.543 480.136 193.781 483.125 191.1 486.102C188.418 489.078 185.603 491.987 182.828 494.896C180.052 497.806 177.21 500.675 174.314 503.477L169.984 507.7C168.509 509.041 167.061 510.475 165.56 511.816C166.9 510.261 168.241 508.772 169.515 507.244L173.537 502.766C176.218 499.79 179.034 496.881 181.822 493.971C184.611 491.062 187.44 488.193 190.322 485.391C193.205 482.589 196.141 479.76 199.144 477.052ZM199.144 491.625C196.462 494.803 193.66 497.886 190.845 501.01C188.029 504.134 185.16 507.097 182.291 510.1C179.422 513.103 176.486 516.052 173.51 518.962L169.046 523.319C167.517 524.74 166.029 526.188 164.474 527.582C165.815 525.987 167.155 524.445 168.563 522.863L172.773 518.251C175.575 515.167 178.444 512.164 181.326 509.161C184.209 506.158 187.131 503.209 190.108 500.299C193.084 497.39 196.047 494.427 199.144 491.625ZM199.144 505.622C196.368 508.893 193.486 512.07 190.577 515.221C187.668 518.372 184.731 521.482 181.769 524.606C178.806 527.73 175.789 530.746 172.719 533.736L168.12 538.227C166.552 539.688 165.024 541.19 163.428 542.624C164.769 540.975 166.244 539.393 167.651 537.771L171.982 533.025C174.877 529.861 177.84 526.764 180.803 523.64C183.766 520.517 186.783 517.5 189.839 514.51C192.896 511.521 195.966 508.518 199.144 505.622ZM199.144 520.664C196.275 524.029 193.298 527.301 190.295 530.558C187.292 533.816 184.262 537.02 181.205 540.211C178.149 543.402 175.038 546.539 171.821 549.596L167.142 554.275C165.52 555.79 163.938 557.332 162.302 558.82C163.723 557.131 165.211 555.495 166.673 553.819L171.137 548.926C174.127 545.654 177.183 542.464 180.24 539.273C183.297 536.082 186.407 532.945 189.558 529.888C192.708 526.831 195.872 523.654 199.144 520.664ZM199.144 535.331C196.181 538.79 193.111 542.155 190.027 545.507C186.944 548.859 183.806 552.21 180.642 555.441C177.478 558.672 174.288 561.957 171.043 565.148L166.163 569.934C164.501 571.489 162.878 573.085 161.189 574.613C162.664 572.87 164.192 571.194 165.694 569.478L170.306 564.437C173.376 561.072 176.527 557.734 179.691 554.503C182.855 551.272 186.032 547.987 189.29 544.796C192.548 541.606 195.779 538.415 199.144 535.331ZM199.144 605.556C195.738 609.47 192.226 613.291 188.7 617.099C185.174 620.906 181.581 624.62 177.974 628.387C174.368 632.155 170.735 635.815 167.061 639.461L161.524 644.931C159.647 646.714 157.797 648.538 155.894 650.294C157.583 648.323 159.339 646.419 161.055 644.475L166.324 638.751C169.85 634.943 173.456 631.23 177.049 627.462C180.642 623.695 184.289 620.035 187.962 616.388C191.636 612.742 195.296 609.095 199.144 605.556ZM154.794 666.516C156.537 664.505 158.334 662.494 160.157 660.55L165.52 654.678C169.139 650.777 172.84 646.956 176.5 643.095C180.16 639.233 183.927 635.48 187.694 631.726L193.379 626.108C195.296 624.272 197.2 622.408 199.157 620.598C197.414 622.622 195.618 624.62 193.794 626.564L188.432 632.436C184.825 636.338 181.125 640.158 177.465 644.02C173.805 647.881 170.038 651.648 166.27 655.402C162.503 659.156 158.682 662.883 154.794 666.516ZM162.382 671.758C163.227 670.753 164.098 669.761 164.97 668.782C165.841 667.803 166.686 666.798 167.651 665.832L173.014 660.014C173.064 659.96 173.124 659.917 173.191 659.888C173.258 659.858 173.33 659.841 173.403 659.84L172.987 660.014C177.197 655.482 181.514 651.031 185.858 646.607C188.03 644.395 190.255 642.237 192.467 640.065C194.679 637.893 196.932 635.775 199.171 633.67C197.146 636.016 195.148 638.349 193.003 640.628C190.858 642.907 188.834 645.213 186.702 647.452C182.452 651.956 178.162 656.421 173.778 660.791C173.668 660.892 173.525 660.949 173.376 660.952L173.792 660.778L168.161 666.302C167.236 667.227 166.27 668.112 165.318 668.983C164.367 669.854 163.348 670.873 162.382 671.758ZM174.301 673.984C176.165 671.651 178.149 669.412 180.146 667.2C182.144 664.988 184.168 662.816 186.233 660.657C188.298 658.499 190.403 656.394 192.561 654.343L195.805 651.259C196.918 650.267 197.991 649.235 199.144 648.27C198.219 649.449 197.227 650.562 196.275 651.715L193.298 655.053C191.314 657.279 189.276 659.437 187.198 661.596C185.12 663.754 183.042 665.859 180.884 667.91C178.725 669.962 176.527 672.04 174.301 673.984ZM186.112 675.7C187.924 673.135 189.941 670.723 192.145 668.487C194.3 666.201 196.641 664.098 199.144 662.199C195.463 667.295 191.075 671.841 186.112 675.7ZM199.144 549.904C196.087 553.471 192.923 556.929 189.759 560.362C186.595 563.794 183.351 567.199 180.12 570.578C176.888 573.956 173.59 577.281 170.239 580.579L165.225 585.499C163.522 587.108 161.846 588.744 160.117 590.326C161.632 588.529 163.214 586.8 164.755 585.043L169.501 579.868C172.665 576.409 175.91 573.031 179.154 569.652C182.399 566.274 185.683 562.949 189.022 559.651C192.36 556.353 195.685 553.082 199.144 549.904ZM199.144 563.888C195.993 567.534 192.749 571.087 189.491 574.613C186.233 578.139 182.908 581.625 179.583 585.097C176.258 588.569 172.88 591.988 169.448 595.367L164.3 600.421C162.557 602.07 160.827 603.759 159.058 605.381C160.613 603.545 162.235 601.775 163.83 600.019L168.71 594.656C171.955 591.103 175.28 587.631 178.618 584.172C181.956 580.713 185.321 577.281 188.753 573.902C192.186 570.524 195.604 567.105 199.144 563.888ZM157.931 621.59C161.162 617.836 164.501 614.19 167.866 610.57C171.231 606.95 174.569 603.357 178.055 599.844C181.541 596.332 184.946 592.766 188.472 589.293L193.754 584.092C195.551 582.389 197.32 580.659 199.117 578.984C197.508 580.86 195.832 582.684 194.197 584.547L189.209 589.897C185.858 593.543 182.439 597.109 179.02 600.622C175.601 604.135 172.116 607.701 168.603 611.173C165.091 614.645 161.565 618.225 157.931 621.59ZM156.926 635.949C160.237 632.114 163.629 628.387 167.102 624.674C170.574 620.96 174.073 617.327 177.545 613.653C181.018 609.98 184.624 606.414 188.271 602.848L193.634 597.485C195.484 595.742 197.28 593.972 199.157 592.256C197.508 594.187 195.792 596.05 194.116 597.941L188.968 603.531C185.522 607.232 181.996 610.865 178.524 614.538C175.052 618.212 171.459 621.791 167.799 625.344C164.139 628.897 160.64 632.503 156.926 635.949ZM199.144 368.98C197.213 371.286 195.122 373.472 193.151 375.684C191.18 377.896 189.022 380.001 186.917 382.106C184.812 384.21 182.667 386.302 180.455 388.313L177.157 391.343C176.017 392.308 174.918 393.327 173.751 394.265C174.703 393.099 175.709 392.013 176.687 390.874L179.731 387.589C181.769 385.39 183.86 383.272 185.978 381.167C188.097 379.062 190.228 376.971 192.427 374.96C194.626 372.949 196.824 370.884 199.144 368.98ZM199.144 355.118C197.307 357.357 195.363 359.502 193.406 361.62C191.448 363.738 189.384 365.816 187.426 367.868C185.469 369.919 183.404 371.89 181.232 373.901L178.041 376.837C176.956 377.789 175.896 378.767 174.77 379.679C175.668 378.553 176.647 377.48 177.586 376.381L180.495 373.177C182.439 371.045 184.517 368.98 186.474 366.929C188.432 364.878 190.563 362.907 192.682 360.896C194.8 358.885 196.918 356.968 199.144 355.118ZM199.144 342.81C195.604 347.114 191.783 351.123 187.895 355.078C184.007 359.033 179.972 362.84 175.695 366.393C179.221 362.089 183.042 358.067 186.944 354.126C190.845 350.184 194.854 346.363 199.144 342.81ZM199.144 330.087C195.765 334.243 192.092 338.131 188.418 341.926C184.745 345.72 180.817 349.407 176.687 352.825C180.052 348.669 183.726 344.781 187.413 340.987C191.1 337.193 195.014 333.506 199.144 330.087Z" fill="#2222D2"/>
<path d="M279.825 217.994H181.313V284.92H279.825V217.994Z" fill="#C4C4FE"/>
<path d="M267.371 163.777H193.768V217.994H267.371V163.777Z" fill="#5555FF"/>
<path d="M254.219 108.997H206.92V163.777H254.219V108.997Z" fill="#C4C4FE"/>
<path d="M261.995 119.736H199.13C199.135 109.333 201.911 99.1198 207.174 90.1469L230.583 50.2216L253.977 90.1469C259.24 99.1198 262.017 109.333 262.021 119.736H261.995Z" fill="#5555FF"/>
<path d="M280.965 301.37C278.373 297.603 274.607 294.8 270.254 293.399C265.901 291.998 261.207 292.078 256.904 293.626C252.601 295.174 248.932 298.103 246.47 301.956C244.007 305.809 242.89 310.369 243.292 314.924L247.904 366.42L285.269 363.068L280.965 301.37ZM288.594 410.957C286.454 408.817 283.87 407.174 281.025 406.143C278.18 405.112 275.144 404.719 272.13 404.991C269.422 405.233 266.789 406.007 264.38 407.268C261.971 408.528 259.834 410.251 258.091 412.338C256.348 414.424 255.033 416.834 254.221 419.429C253.41 422.023 253.117 424.753 253.361 427.461L257.973 478.942L293.165 475.805L288.594 410.957ZM296.624 526.215C293.874 525.268 290.955 524.912 288.057 525.169C285.349 525.411 282.716 526.185 280.307 527.446C277.898 528.706 275.761 530.429 274.018 532.516C272.275 534.602 270.96 537.012 270.149 539.607C269.337 542.201 269.045 544.931 269.288 547.639L273.9 599.12L301.518 596.654L296.624 526.215Z" fill="#C4C4FE"/>
<path d="M266.808 136.387H254.219V148.976H266.808V136.387Z" fill="#2222D2"/>
<path d="M4.82643 200.94C18.931 192.081 32.1367 181.866 44.2557 170.44C47.2856 167.598 50.2082 164.635 53.1175 161.672C54.4582 160.144 56.0134 158.669 57.354 157.114C58.6947 155.558 60.0354 153.936 61.2822 152.301C66.3365 145.718 71.1228 138.894 75.9224 132.083L90.3212 111.651C92.7344 108.259 95.1342 104.841 97.6413 101.502C100.098 98.1093 102.882 94.9659 105.953 92.1177C112.349 86.5563 120.219 82.9662 128.611 81.7811C136.91 80.6214 145.354 81.0766 153.48 83.1218C145.349 81.3045 136.947 81.0406 128.718 82.3442C120.508 83.6158 112.84 87.2333 106.637 92.7612C103.685 95.6466 100.993 98.787 98.5932 102.146C96.1263 105.484 93.7533 108.849 91.3535 112.322L77.0083 132.847C72.1819 139.645 67.3689 146.442 62.2609 153.051C60.9202 154.687 59.6734 156.323 58.2389 157.905C56.8044 159.487 55.3698 160.948 53.9353 162.476C51.0126 165.453 48.0363 168.389 44.9394 171.191C38.8056 176.846 32.3794 182.176 25.6873 187.158C18.9846 192.121 12.021 196.722 4.82643 200.94ZM98.4591 148.815C99.793 143.17 101.801 137.705 104.439 132.539C107.118 127.359 110.547 122.602 114.614 118.422C118.698 114.225 123.462 110.748 128.705 108.139C133.938 105.661 139.31 103.485 144.793 101.623C150.234 99.7299 155.565 97.5322 160.76 95.0404C165.934 92.5117 170.952 89.6778 175.789 86.5539C180.648 83.4512 185.322 80.0669 189.786 76.4184C194.29 72.7986 198.554 68.8972 202.71 64.8752C194.83 73.3712 186 80.9331 176.392 87.4119C166.721 93.8556 156.275 99.0537 145.302 102.883C139.824 104.692 134.453 106.809 129.214 109.225C124.075 111.767 119.377 115.116 115.298 119.146C107.106 127.176 101.663 137.741 98.4591 148.815ZM0 403.65C12.9831 399.493 25.4721 393.928 37.2439 387.053C43.1161 383.621 48.7603 379.826 54.2839 375.831C59.8075 371.836 65.3042 367.787 70.4524 363.417C73.0282 361.216 75.4724 358.866 77.7725 356.378C80.0825 353.944 82.0943 351.244 83.7653 348.334C85.4162 345.473 86.3371 342.25 86.4467 338.949C86.378 335.623 85.4046 332.379 83.6312 329.565C80.1723 323.947 74.4342 319.429 67.8783 318.477C64.607 318.041 61.2811 318.632 58.3595 320.166C55.4263 321.713 52.9208 323.96 51.0663 326.709C49.223 329.415 48.1059 332.55 47.8218 335.812C47.7079 337.453 47.8025 339.102 48.1034 340.719C48.4414 342.341 48.9492 343.923 49.6183 345.438C50.9686 348.482 52.9341 351.214 55.3914 353.461C57.8487 355.708 60.7444 357.423 63.8965 358.496C70.2781 360.534 77.3033 359.837 83.7519 358.201C90.3013 356.451 96.6434 354.001 102.669 350.895C108.716 347.849 114.545 344.387 120.111 340.531C125.685 336.643 130.867 332.22 135.582 327.326C145.042 317.478 152.73 306.071 158.307 293.608C152.906 306.18 145.377 317.728 136.052 327.741C131.349 332.704 126.172 337.194 120.594 341.148C115.005 345.092 109.15 348.644 103.071 351.78C97.0193 354.985 90.6296 357.508 84.02 359.301C80.6808 360.166 77.2626 360.692 73.8175 360.869C70.3353 361.063 66.846 360.646 63.5077 359.636C60.1885 358.511 57.137 356.714 54.5441 354.357C51.9512 351.999 49.8727 349.132 48.4385 345.934C47.722 344.329 47.1782 342.653 46.8163 340.933C46.4856 339.212 46.373 337.455 46.4812 335.705C46.799 332.178 48.0329 328.795 50.0608 325.891C52.0443 322.965 54.72 320.575 57.8501 318.933C61.0143 317.285 64.6125 316.662 68.1465 317.15C71.625 317.692 74.9195 319.073 77.7457 321.172C80.5624 323.254 82.9482 325.863 84.7708 328.854C86.6445 331.854 87.6685 335.306 87.7337 338.842C87.6026 342.36 86.6031 345.792 84.8244 348.83C81.3923 354.903 76.338 359.716 71.163 364.167C65.988 368.618 60.4376 372.573 54.8068 376.488C49.2665 380.48 43.5253 384.185 37.6059 387.589C25.6977 394.306 13.0865 399.692 0 403.65Z" fill="#C4C4FE"/>
</svg>
