<svg viewBox="0 0 474 193" fill="none" xmlns="http://www.w3.org/2000/svg">
<g id="hero 1" clip-path="url(#clip0)">
<g id="Website">
<g id="Group-32">
<path id="Case" fill-rule="evenodd" clip-rule="evenodd" d="M91.8888 30.4175C91.8888 27.4849 94.2632 25.113 97.2053 25.113H282.119C285.055 25.113 287.435 27.4865 287.435 30.4175V156.809C287.435 159.741 285.061 162.113 282.119 162.113H97.2053C94.2687 162.113 91.8888 159.74 91.8888 156.809V30.4175Z" fill="#F5F5F5" stroke="#0A222E" stroke-width="2.08143"/>
<path id="Case_2" fill-rule="evenodd" clip-rule="evenodd" d="M103.849 39.1364C103.849 37.8807 104.873 36.8613 106.129 36.8613H273.005C274.266 36.8613 275.285 37.8749 275.285 39.1364V133.31C275.285 134.566 274.261 135.585 273.005 135.585H106.129C104.869 135.585 103.849 134.571 103.849 133.31V39.1364Z" fill="#F5F5F5" stroke="#0A222E" stroke-width="2.08143"/>
<path id="Case_3" fill-rule="evenodd" clip-rule="evenodd" d="M175.737 162.113H203.777L205.67 186.557H173.844L175.737 162.113Z" fill="#F5F5F5" stroke="#0A222E" stroke-width="2.08143"/>
<path id="Keyboard" fill-rule="evenodd" clip-rule="evenodd" d="M162.133 191.865V189.305C162.133 187.79 163.365 186.557 164.882 186.557H214.632C216.146 186.557 217.381 187.79 217.381 189.305V191.865C217.381 191.971 217.299 192.053 217.19 192.053H162.324C162.217 192.053 162.133 191.968 162.133 191.865Z" fill="#F5F5F5" stroke="#0A222E" stroke-width="2.08143"/>
<path id="Oval-6" d="M189.757 153.397C191.697 153.397 193.269 151.827 193.269 149.891C193.269 147.955 191.697 146.386 189.757 146.386C187.817 146.386 186.245 147.955 186.245 149.891C186.245 151.827 187.817 153.397 189.757 153.397Z" stroke="#0A222E" stroke-width="2.08143"/>
<path id="Case_4" d="M106.889 118.531H78.4064C75.8916 118.531 73.8529 120.567 73.8529 123.079V187.505C73.8529 190.016 75.8916 192.053 78.4064 192.053H106.889C109.404 192.053 111.443 190.016 111.443 187.505V123.079C111.443 120.567 109.404 118.531 106.889 118.531Z" fill="#F5F5F5" stroke="#0A222E" stroke-width="2.08143"/>
<path id="Case_5" fill-rule="evenodd" clip-rule="evenodd" d="M73.8529 126.679H111.443V181.119H73.8529V126.679Z" fill="#F5F5F5" stroke="#0A222E" stroke-width="2.08143"/>
<path id="Rectangle-11" d="M101.002 121.752H84.4837C84.0645 121.752 83.7247 122.092 83.7247 122.51C83.7247 122.929 84.0645 123.268 84.4837 123.268H101.002C101.421 123.268 101.761 122.929 101.761 122.51C101.761 122.092 101.421 121.752 101.002 121.752Z" fill="#0A222E"/>
<path id="Rectangle-11_2" d="M92.7251 184.284H92.7224C91.5278 184.284 90.5594 185.251 90.5594 186.444C90.5594 187.637 91.5278 188.604 92.7224 188.604H92.7251C93.9197 188.604 94.8881 187.637 94.8881 186.444C94.8881 185.251 93.9197 184.284 92.7251 184.284Z" fill="#0A222E"/>
<path id="Oval-6_2" d="M84.4841 156.618C86.0569 156.618 87.3319 155.346 87.3319 153.776C87.3319 152.206 86.0569 150.934 84.4841 150.934C82.9113 150.934 81.6364 152.206 81.6364 153.776C81.6364 155.346 82.9113 156.618 84.4841 156.618Z" fill="#F5F5F5" stroke="#0A222E" stroke-width="2.08143"/>
<path id="Rectangle-11_3" d="M103.66 148.849H91.8878C91.4687 148.849 91.1289 149.188 91.1289 149.607C91.1289 150.026 91.4687 150.365 91.8878 150.365H103.66C104.079 150.365 104.419 150.026 104.419 149.607C104.419 149.188 104.079 148.849 103.66 148.849Z" fill="#0A222E"/>
<path id="Rectangle-11_4" d="M99.8626 153.018H91.8878C91.4687 153.018 91.1289 153.357 91.1289 153.776C91.1289 154.194 91.4687 154.534 91.8878 154.534H99.8626C100.282 154.534 100.622 154.194 100.622 153.776C100.622 153.357 100.282 153.018 99.8626 153.018Z" fill="#0A222E"/>
<path id="Rectangle-11_5" d="M96.0656 157.187H91.8878C91.4687 157.187 91.1289 157.526 91.1289 157.945C91.1289 158.363 91.4687 158.703 91.8878 158.703H96.0656C96.4847 158.703 96.8245 158.363 96.8245 157.945C96.8245 157.526 96.4847 157.187 96.0656 157.187Z" fill="#0A222E"/>
<path id="Oval-7" d="M54.5825 154.155C70.6776 154.155 83.7252 141.132 83.7252 125.068C83.7252 109.004 70.6776 95.9818 54.5825 95.9818C38.4874 95.9818 25.4397 109.004 25.4397 125.068C25.4397 141.132 38.4874 154.155 54.5825 154.155Z" fill="#F5F5F5" stroke="#0A222E" stroke-width="2.08143"/>
<path id="Case_6" d="M369.075 89.9182H237.692C235.177 89.9182 233.139 91.9542 233.139 94.4659V179.546C233.139 182.058 235.177 184.094 237.692 184.094H369.075C371.589 184.094 373.628 182.058 373.628 179.546V94.4659C373.628 91.9542 371.589 89.9182 369.075 89.9182Z" fill="#F5F5F5" stroke="#0A222E" stroke-width="2.08143"/>
<path id="Keyboard_2" fill-rule="evenodd" clip-rule="evenodd" d="M223.455 184.279V188.073C223.455 190.268 225.241 192.053 227.439 192.053H379.328C381.524 192.053 383.312 190.269 383.312 188.073V184.279C383.312 184.176 383.229 184.094 383.123 184.094H223.644C223.537 184.094 223.455 184.176 223.455 184.279Z" fill="#F5F5F5" stroke="#0A222E" stroke-width="2.08143"/>
<path id="Notch" fill-rule="evenodd" clip-rule="evenodd" d="M313.882 184.179L292.619 184.179C293.467 186.417 295.632 187.969 298.116 187.969H308.385C310.869 187.969 313.033 186.417 313.882 184.179Z" fill="#F5F5F5" stroke="#0A222E" stroke-width="2.08143"/>
<path id="Screen" d="M365.734 98.8241H240.921C240.082 98.8241 239.403 99.5028 239.403 100.34V173.833C239.403 174.67 240.082 175.349 240.921 175.349H365.734C366.572 175.349 367.251 174.67 367.251 173.833V100.34C367.251 99.5028 366.572 98.8241 365.734 98.8241Z" fill="#F5F5F5" stroke="#0A222E" stroke-width="2.08143"/>
<path id="Oval-3" d="M185.485 39.5142C186.01 39.5142 186.435 39.09 186.435 38.5667C186.435 38.0435 186.01 37.6193 185.485 37.6193C184.961 37.6193 184.536 38.0435 184.536 38.5667C184.536 39.09 184.961 39.5142 185.485 39.5142Z" fill="#0A222E"/>
<path id="Case_7" fill-rule="evenodd" clip-rule="evenodd" d="M131.188 10.9014H218.899V94.8451C218.899 97.7739 216.515 100.151 213.582 100.151H136.505C133.57 100.151 131.188 97.773 131.188 94.8451V10.9014Z" fill="#F5F5F5" stroke="#0A222E" stroke-width="2.08143"/>
<path id="Case_8" fill-rule="evenodd" clip-rule="evenodd" d="M131.188 6.72788C131.188 3.80146 133.572 1.42696 136.505 1.42696H213.582C216.518 1.42696 218.899 3.79892 218.899 6.72788V12.4173H131.188V6.72788Z" fill="#F5F5F5" stroke="#0A222E" stroke-width="2.08143"/>
<path id="Oval-5" d="M139.351 8.62753C140.295 8.62753 141.06 7.864 141.06 6.92213C141.06 5.98027 140.295 5.21674 139.351 5.21674C138.408 5.21674 137.643 5.98027 137.643 6.92213C137.643 7.864 138.408 8.62753 139.351 8.62753Z" fill="#0A222E"/>
<path id="Oval-5_2" d="M145.047 8.62753C145.991 8.62753 146.756 7.864 146.756 6.92213C146.756 5.98027 145.991 5.21674 145.047 5.21674C144.103 5.21674 143.338 5.98027 143.338 6.92213C143.338 7.864 144.103 8.62753 145.047 8.62753Z" fill="#0A222E"/>
<path id="Oval-5_3" d="M150.742 8.62753C151.686 8.62753 152.451 7.864 152.451 6.92213C152.451 5.98027 151.686 5.21674 150.742 5.21674C149.799 5.21674 149.034 5.98027 149.034 6.92213C149.034 7.864 149.799 8.62753 150.742 8.62753Z" fill="#0A222E"/>
<path id="Rectangle-11_6" d="M144.478 66.2321H142.578C142.159 66.2321 141.819 66.5714 141.819 66.99C141.819 67.4086 142.159 67.748 142.578 67.748H144.478C144.897 67.748 145.237 67.4086 145.237 66.99C145.237 66.5714 144.897 66.2321 144.478 66.2321Z" fill="#0A222E"/>
<path id="Rectangle-11_7" d="M144.478 28.3344H142.578C142.159 28.3344 141.819 28.6737 141.819 29.0923C141.819 29.5109 142.159 29.8503 142.578 29.8503H144.478C144.897 29.8503 145.237 29.5109 145.237 29.0923C145.237 28.6737 144.897 28.3344 144.478 28.3344Z" fill="#0A222E"/>
<path id="Rectangle-11_8" fill-rule="evenodd" clip-rule="evenodd" d="M148.274 28.3344H153.401C153.82 28.3344 154.16 28.6737 154.16 29.0923C154.16 29.5109 153.82 29.8503 153.401 29.8503H148.274C147.855 29.8503 147.515 29.5109 147.515 29.0923C147.515 28.6737 147.855 28.3344 148.274 28.3344Z" fill="#0A222E"/>
<path id="Rectangle-11_9" fill-rule="evenodd" clip-rule="evenodd" d="M156.817 28.3344H161.944C162.363 28.3344 162.703 28.6737 162.703 29.0923C162.703 29.5109 162.363 29.8503 161.944 29.8503H156.817C156.398 29.8503 156.058 29.5109 156.058 29.0923C156.058 28.6737 156.398 28.3344 156.817 28.3344Z" fill="#0A222E"/>
<path id="Rectangle-11_10" fill-rule="evenodd" clip-rule="evenodd" d="M165.361 28.3344H174.854C175.273 28.3344 175.613 28.6737 175.613 29.0923C175.613 29.5109 175.273 29.8503 174.854 29.8503H165.361C164.941 29.8503 164.602 29.5109 164.602 29.0923C164.602 28.6737 164.941 28.3344 165.361 28.3344Z" fill="#0A222E"/>
<path id="Rectangle-11_11" fill-rule="evenodd" clip-rule="evenodd" d="M178.271 28.3344H192.321C192.74 28.3344 193.079 28.6737 193.079 29.0923C193.079 29.5109 192.74 29.8503 192.321 29.8503H178.271C177.851 29.8503 177.512 29.5109 177.512 29.0923C177.512 28.6737 177.851 28.3344 178.271 28.3344Z" fill="#0A222E"/>
<path id="Rectangle-11_12" d="M144.478 35.9139H142.578C142.159 35.9139 141.819 36.2532 141.819 36.6718C141.819 37.0905 142.159 37.4298 142.578 37.4298H144.478C144.897 37.4298 145.237 37.0905 145.237 36.6718C145.237 36.2532 144.897 35.9139 144.478 35.9139Z" fill="#0A222E"/>
<path id="Rectangle-11_13" d="M144.478 43.4934H142.578C142.159 43.4934 141.819 43.8328 141.819 44.2514C141.819 44.67 142.159 45.0093 142.578 45.0093H144.478C144.897 45.0093 145.237 44.67 145.237 44.2514C145.237 43.8328 144.897 43.4934 144.478 43.4934Z" fill="#0A222E"/>
<path id="Rectangle-11_14" d="M144.478 51.073H142.578C142.159 51.073 141.819 51.4123 141.819 51.831C141.819 52.2496 142.159 52.5889 142.578 52.5889H144.478C144.897 52.5889 145.237 52.2496 145.237 51.831C145.237 51.4123 144.897 51.073 144.478 51.073Z" fill="#0A222E"/>
<path id="Rectangle-11_15" d="M144.478 58.6525H142.578C142.159 58.6525 141.819 58.9919 141.819 59.4105C141.819 59.8291 142.159 60.1684 142.578 60.1684H144.478C144.897 60.1684 145.237 59.8291 145.237 59.4105C145.237 58.9919 144.897 58.6525 144.478 58.6525Z" fill="#0A222E"/>
<path id="Rectangle-11_16" d="M144.478 73.8116H142.578C142.159 73.8116 141.819 74.151 141.819 74.5696C141.819 74.9882 142.159 75.3276 142.578 75.3276H144.478C144.897 75.3276 145.237 74.9882 145.237 74.5696C145.237 74.151 144.897 73.8116 144.478 73.8116Z" fill="#0A222E"/>
<path id="Rectangle-11_17" d="M144.478 81.3912H142.578C142.159 81.3912 141.819 81.7305 141.819 82.1491C141.819 82.5677 142.159 82.9071 142.578 82.9071H144.478C144.897 82.9071 145.237 82.5677 145.237 82.1491C145.237 81.7305 144.897 81.3912 144.478 81.3912Z" fill="#0A222E"/>
<path id="Rectangle-11_18" d="M160.046 35.9139H148.274C147.855 35.9139 147.515 36.2532 147.515 36.6718C147.515 37.0905 147.855 37.4298 148.274 37.4298H160.046C160.465 37.4298 160.805 37.0905 160.805 36.6718C160.805 36.2532 160.465 35.9139 160.046 35.9139Z" fill="#0A222E"/>
<path id="Rectangle-11_19" d="M184.726 35.9139H163.462C163.043 35.9139 162.703 36.2532 162.703 36.6718C162.703 37.0905 163.043 37.4298 163.462 37.4298H184.726C185.146 37.4298 185.485 37.0905 185.485 36.6718C185.485 36.2532 185.146 35.9139 184.726 35.9139Z" fill="#0A222E"/>
<path id="Rectangle-11_20" d="M196.118 35.9139H188.143C187.724 35.9139 187.384 36.2532 187.384 36.6718C187.384 37.0905 187.724 37.4298 188.143 37.4298H196.118C196.537 37.4298 196.876 37.0905 196.876 36.6718C196.876 36.2532 196.537 35.9139 196.118 35.9139Z" fill="#0A222E"/>
<path id="Rectangle-11_21" d="M156.249 43.4934H148.274C147.855 43.4934 147.515 43.8328 147.515 44.2514C147.515 44.67 147.855 45.0093 148.274 45.0093H156.249C156.668 45.0093 157.007 44.67 157.007 44.2514C157.007 43.8328 156.668 43.4934 156.249 43.4934Z" fill="#0A222E"/>
<path id="Rectangle-11_22" d="M167.64 43.4934H159.665C159.246 43.4934 158.906 43.8328 158.906 44.2514C158.906 44.67 159.246 45.0093 159.665 45.0093H167.64C168.059 45.0093 168.399 44.67 168.399 44.2514C168.399 43.8328 168.059 43.4934 167.64 43.4934Z" fill="#0A222E"/>
<path id="Rectangle-11_23" d="M175.234 43.4934H171.056C170.637 43.4934 170.297 43.8328 170.297 44.2514C170.297 44.67 170.637 45.0093 171.056 45.0093H175.234C175.653 45.0093 175.993 44.67 175.993 44.2514C175.993 43.8328 175.653 43.4934 175.234 43.4934Z" fill="#0A222E"/>
<path id="Rectangle-11_24" d="M165.741 51.073H148.274C147.855 51.073 147.515 51.4123 147.515 51.831C147.515 52.2496 147.855 52.5889 148.274 52.5889H165.741C166.16 52.5889 166.5 52.2496 166.5 51.831C166.5 51.4123 166.16 51.073 165.741 51.073Z" fill="#0A222E"/>
<path id="Rectangle-11_25" d="M180.929 51.073H169.158C168.738 51.073 168.399 51.4123 168.399 51.831C168.399 52.2496 168.738 52.5889 169.158 52.5889H180.929C181.349 52.5889 181.688 52.2496 181.688 51.831C181.688 51.4123 181.349 51.073 180.929 51.073Z" fill="#0A222E"/>
<path id="Rectangle-11_26" d="M165.741 58.6525H148.274C147.855 58.6525 147.515 58.9919 147.515 59.4105C147.515 59.8291 147.855 60.1684 148.274 60.1684H165.741C166.16 60.1684 166.5 59.8291 166.5 59.4105C166.5 58.9919 166.16 58.6525 165.741 58.6525Z" fill="#0A222E"/>
<path id="Rectangle-11_27" d="M192.321 58.6525H169.158C168.738 58.6525 168.399 58.9919 168.399 59.4105C168.399 59.8291 168.738 60.1684 169.158 60.1684H192.321C192.74 60.1684 193.079 59.8291 193.079 59.4105C193.079 58.9919 192.74 58.6525 192.321 58.6525Z" fill="#0A222E"/>
<path id="Rectangle-11_28" d="M160.046 66.2321H148.274C147.855 66.2321 147.515 66.5714 147.515 66.99C147.515 67.4086 147.855 67.748 148.274 67.748H160.046C160.465 67.748 160.805 67.4086 160.805 66.99C160.805 66.5714 160.465 66.2321 160.046 66.2321Z" fill="#0A222E"/>
<path id="Rectangle-11_29" d="M175.234 66.2321H163.462C163.043 66.2321 162.703 66.5714 162.703 66.99C162.703 67.4086 163.043 67.748 163.462 67.748H175.234C175.653 67.748 175.993 67.4086 175.993 66.99C175.993 66.5714 175.653 66.2321 175.234 66.2321Z" fill="#0A222E"/>
<path id="Rectangle-11_30" d="M184.726 66.2321H178.65C178.231 66.2321 177.891 66.5714 177.891 66.99C177.891 67.4086 178.231 67.748 178.65 67.748H184.726C185.146 67.748 185.485 67.4086 185.485 66.99C185.485 66.5714 185.146 66.2321 184.726 66.2321Z" fill="#0A222E"/>
<path id="Rectangle-11_31" d="M171.437 73.8116H148.274C147.855 73.8116 147.515 74.151 147.515 74.5696C147.515 74.9882 147.855 75.3276 148.274 75.3276H171.437C171.856 75.3276 172.196 74.9882 172.196 74.5696C172.196 74.151 171.856 73.8116 171.437 73.8116Z" fill="#0A222E"/>
<path id="Rectangle-11_32" d="M158.147 81.3912H148.274C147.855 81.3912 147.515 81.7305 147.515 82.1491C147.515 82.5677 147.855 82.9071 148.274 82.9071H158.147C158.566 82.9071 158.906 82.5677 158.906 82.1491C158.906 81.7305 158.566 81.3912 158.147 81.3912Z" fill="#0A222E"/>
<path id="Case_9" fill-rule="evenodd" clip-rule="evenodd" d="M302.625 70.4008H406.662V144.308C406.662 147.236 404.285 149.607 401.349 149.607H307.938C305.005 149.607 302.625 147.231 302.625 144.308V70.4008Z" fill="#F5F5F5" stroke="#0A222E" stroke-width="2.08143"/>
<path id="Case_10" fill-rule="evenodd" clip-rule="evenodd" d="M302.625 66.2273C302.625 63.2987 305.002 60.9264 307.938 60.9264H401.349C404.284 60.9264 406.662 63.2985 406.662 66.2273V71.9167H302.625V66.2273Z" fill="#F5F5F5" stroke="#0A222E" stroke-width="2.08143"/>
<path id="Oval-5_4" d="M310.788 68.127C311.731 68.127 312.496 67.3634 312.496 66.4216C312.496 65.4797 311.731 64.7162 310.788 64.7162C309.844 64.7162 309.079 65.4797 309.079 66.4216C309.079 67.3634 309.844 68.127 310.788 68.127Z" fill="#0A222E"/>
<path id="Oval-5_5" d="M316.483 68.127C317.427 68.127 318.192 67.3634 318.192 66.4216C318.192 65.4797 317.427 64.7162 316.483 64.7162C315.54 64.7162 314.775 65.4797 314.775 66.4216C314.775 67.3634 315.54 68.127 316.483 68.127Z" fill="#0A222E"/>
<path id="Oval-5_6" d="M322.179 68.127C323.122 68.127 323.887 67.3634 323.887 66.4216C323.887 65.4797 323.122 64.7162 322.179 64.7162C321.235 64.7162 320.47 65.4797 320.47 66.4216C320.47 67.3634 321.235 68.127 322.179 68.127Z" fill="#0A222E"/>
<path id="Oval-6_3" d="M366.984 128.953C377.469 128.953 385.969 120.469 385.969 110.004C385.969 99.5388 377.469 91.0551 366.984 91.0551C356.499 91.0551 347.999 99.5388 347.999 110.004C347.999 120.469 356.499 128.953 366.984 128.953Z" fill="#F5F5F5" stroke="#0A222E" stroke-width="2.34161"/>
<path id="Rectangle-12" fill-rule="evenodd" clip-rule="evenodd" d="M364.895 88.7812V93.329H369.452V88.7812H364.895Z" fill="#F5F5F5" stroke="#0A222E" stroke-width="2.08143"/>
<path id="Rectangle-12_2" fill-rule="evenodd" clip-rule="evenodd" d="M364.705 126.679V131.227H369.263V126.679H364.705Z" fill="#F5F5F5" stroke="#0A222E" stroke-width="2.08143"/>
<path id="Rectangle-12_3" fill-rule="evenodd" clip-rule="evenodd" d="M345.72 107.92V112.467H350.277V107.92H345.72Z" fill="#F5F5F5" stroke="#0A222E" stroke-width="2.08143"/>
<path id="Rectangle-12_4" fill-rule="evenodd" clip-rule="evenodd" d="M383.5 107.92V112.467H388.058V107.92H383.5Z" fill="#F5F5F5" stroke="#0A222E" stroke-width="2.08143"/>
<path id="Line" d="M385.969 92.95V107.162" stroke="#0A222E" stroke-width="2.08143" stroke-linecap="square"/>
<path id="Line_2" d="M385.969 112.846V127.058" stroke="#0A222E" stroke-width="2.08143" stroke-linecap="square"/>
<path id="Oval-5_7" d="M385.969 94.6554C387.227 94.6554 388.247 93.6373 388.247 92.3815C388.247 91.1257 387.227 90.1077 385.969 90.1077C384.711 90.1077 383.691 91.1257 383.691 92.3815C383.691 93.6373 384.711 94.6554 385.969 94.6554Z" fill="#0A222E"/>
<path id="Oval-5_8" d="M385.969 130.658C387.227 130.658 388.247 129.64 388.247 128.384C388.247 127.129 387.227 126.111 385.969 126.111C384.711 126.111 383.691 127.129 383.691 128.384C383.691 129.64 384.711 130.658 385.969 130.658Z" fill="#0A222E"/>
<g id="Group-60">
<path id="Rectangle-15" d="M330.724 87.0758H323.506C322.248 87.0758 321.229 88.0939 321.229 89.3497V96.5503C321.229 97.8061 322.248 98.8241 323.506 98.8241H330.724C331.981 98.8241 333.001 97.8061 333.001 96.5503V89.3497C333.001 88.0939 331.981 87.0758 330.724 87.0758Z" fill="#F5F5F5" stroke="#0A222E" stroke-width="2.08143"/>
<path id="Rectangle-15_2" d="M330.724 104.13H323.506C322.248 104.13 321.229 105.148 321.229 106.404V113.604C321.229 114.86 322.248 115.878 323.506 115.878H330.724C331.981 115.878 333.001 114.86 333.001 113.604V106.404C333.001 105.148 331.981 104.13 330.724 104.13Z" fill="#F5F5F5" stroke="#0A222E" stroke-width="2.08143"/>
<path id="Rectangle-15_3" d="M330.724 121.184H323.506C322.248 121.184 321.229 122.202 321.229 123.458V130.658C321.229 131.914 322.248 132.932 323.506 132.932H330.724C331.981 132.932 333.001 131.914 333.001 130.658V123.458C333.001 122.202 331.981 121.184 330.724 121.184Z" fill="#F5F5F5" stroke="#0A222E" stroke-width="2.08143"/>
</g>
<path id="Oval-8" d="M461.15 185.42C467.442 185.42 472.542 180.33 472.542 174.051C472.542 167.772 467.442 162.682 461.15 162.682C454.859 162.682 449.759 167.772 449.759 174.051C449.759 180.33 454.859 185.42 461.15 185.42Z" fill="#F5F5F5" stroke="#0A222E" stroke-width="2.08143"/>
<path id="Oval-8_2" d="M461.15 180.683C464.82 180.683 467.795 177.714 467.795 174.051C467.795 170.388 464.82 167.419 461.15 167.419C457.481 167.419 454.506 170.388 454.506 174.051C454.506 177.714 457.481 180.683 461.15 180.683Z" fill="#F5F5F5" stroke="#0A222E" stroke-width="2.08143"/>
<path id="Oval-8_3" d="M445.962 160.597C448.059 160.597 449.759 158.901 449.759 156.808C449.759 154.715 448.059 153.018 445.962 153.018C443.865 153.018 442.165 154.715 442.165 156.808C442.165 158.901 443.865 160.597 445.962 160.597Z" fill="#F5F5F5" stroke="#0A222E" stroke-width="2.08143"/>
<path id="Rectangle-16" fill-rule="evenodd" clip-rule="evenodd" d="M429.254 155.86C428.835 155.86 428.495 156.2 428.495 156.618V188.452C428.495 190.545 430.194 192.242 432.29 192.242H458.482C460.578 192.242 462.277 190.545 462.277 188.452V156.618C462.277 156.2 461.937 155.86 461.518 155.86H429.254Z" fill="#F5F5F5" stroke="#0A222E" stroke-width="2.08143"/>
<path id="Rectangle-16_2" d="M452.229 166.093H446.91C445.652 166.093 444.633 167.111 444.633 168.366V175.946C444.633 177.202 445.652 178.22 446.91 178.22H452.229C453.487 178.22 454.506 177.202 454.506 175.946V168.366C454.506 167.111 453.487 166.093 452.229 166.093Z" fill="#F5F5F5" stroke="#0A222E" stroke-width="2.08143"/>
<path id="Line-2" d="M449.474 156.144V164.766" stroke="#0A222E" stroke-width="2.08143" stroke-linecap="square"/>
<path id="Oval-8_4" fill-rule="evenodd" clip-rule="evenodd" d="M406.853 192.053C413.144 192.053 418.244 192.053 418.244 192.053C418.244 185.773 413.144 180.683 406.853 180.683C400.562 180.683 395.462 185.773 395.462 192.053C395.462 192.053 400.562 192.053 406.853 192.053Z" fill="#F5F5F5" stroke="#0A222E" stroke-width="2.08143"/>
<path id="Rectangle-11_33" d="M407.612 181.063C407.612 180.644 407.272 180.304 406.853 180.304C406.433 180.304 406.093 180.644 406.093 181.063V182.009C406.093 182.428 406.433 182.768 406.853 182.768C407.272 182.768 407.612 182.428 407.612 182.009V181.063Z" fill="#0A222E"/>
<path id="Rectangle-17" fill-rule="evenodd" clip-rule="evenodd" d="M11.9531 169.693C5.77072 169.693 0.758911 174.698 0.758911 180.873C0.758911 187.047 5.77072 192.053 11.9531 192.053H57.9061C58.5348 192.053 59.0444 191.544 59.0444 190.916V189.156C59.0444 188.361 58.4287 187.7 57.6341 187.644C52.4174 187.274 49.6464 184.985 49.6464 180.873C49.6464 176.76 52.4174 174.471 57.6341 174.101C58.4287 174.045 59.0444 173.385 59.0444 172.589V170.83C59.0444 170.202 58.5348 169.693 57.9061 169.693H11.9531Z" fill="#F5F5F5" stroke="#0A222E" stroke-width="2.08143"/>
<path id="Rectangle-19" d="M58.4744 188.12C58.4744 188.304 58.3255 188.452 58.1417 188.452H52.7624H11.7708C7.57674 188.452 4.17676 185.059 4.17676 180.873C4.17676 176.687 7.57674 173.293 11.7708 173.293H52.7624H58.1417C58.3255 173.293 58.4744 173.442 58.4744 173.625" stroke="#0A222E" stroke-width="2.08143"/>
<path id="Rectangle-18" d="M49.3619 177.651H11.0109C10.5917 177.651 10.252 177.991 10.252 178.409C10.252 178.828 10.5917 179.167 11.0109 179.167H49.3619C49.7811 179.167 50.1209 178.828 50.1209 178.409C50.1209 177.991 49.7811 177.651 49.3619 177.651Z" fill="#0A222E"/>
<path id="Rectangle-18_2" d="M49.3619 182.389H11.0109C10.5917 182.389 10.252 182.728 10.252 183.147C10.252 183.565 10.5917 183.905 11.0109 183.905H49.3619C49.7811 183.905 50.1209 183.565 50.1209 183.147C50.1209 182.728 49.7811 182.389 49.3619 182.389Z" fill="#0A222E"/>
<path id="Shape" d="M47.4923 131.863C46.5605 131.036 45.6288 130.209 44.6971 129.383C43.2123 128.067 41.7318 126.746 40.247 125.43C39.9067 125.131 39.5663 124.827 39.2302 124.528C39.2302 124.924 39.2302 125.325 39.2302 125.721C40.1619 124.895 41.0936 124.068 42.0253 123.241C43.5101 121.925 44.9907 120.605 46.4754 119.289C46.8158 118.989 47.1562 118.686 47.4923 118.386C47.8241 118.091 47.8198 117.488 47.4923 117.192C47.1391 116.868 46.6456 116.876 46.2883 117.192C45.3565 118.019 44.4248 118.846 43.4931 119.673C42.0083 120.989 40.5278 122.309 39.043 123.625C38.7027 123.924 38.3623 124.228 38.0262 124.528C37.6986 124.819 37.6986 125.43 38.0262 125.721C38.9579 126.548 39.8896 127.375 40.8214 128.201C42.3061 129.518 43.7867 130.838 45.2715 132.154C45.6118 132.453 45.9522 132.757 46.2883 133.056C46.6201 133.352 47.1689 133.407 47.4923 133.056C47.7901 132.736 47.8454 132.179 47.4923 131.863Z" fill="#0A222E"/>
<path id="Shape_2" d="M61.6802 118.388C62.6119 119.215 63.5436 120.042 64.4753 120.868C65.9601 122.184 67.4406 123.505 68.9254 124.821C69.2658 125.12 69.6061 125.424 69.9422 125.723C69.9422 125.327 69.9422 124.926 69.9422 124.53C69.0105 125.356 68.0788 126.183 67.1471 127.01C65.6623 128.326 64.1817 129.646 62.697 130.962C62.3566 131.262 62.0162 131.565 61.6802 131.865C61.3483 132.16 61.3526 132.763 61.6802 133.058C62.0333 133.383 62.5268 133.375 62.8841 133.058C63.8159 132.232 64.7476 131.405 65.6793 130.578C67.1641 129.262 68.6446 127.942 70.1294 126.626C70.4698 126.326 70.8101 126.023 71.1462 125.723C71.4738 125.432 71.4738 124.821 71.1462 124.53C70.2145 123.703 69.2828 122.876 68.3511 122.049C66.8663 120.733 65.3857 119.413 63.901 118.097C63.5606 117.798 63.2202 117.494 62.8841 117.194C62.5523 116.899 62.0035 116.844 61.6802 117.194C61.3823 117.515 61.327 118.072 61.6802 118.388Z" fill="#0A222E"/>
<path id="Shape_3" d="M51.552 136.83C51.8072 136.071 52.0582 135.312 52.3135 134.548C52.9219 132.722 53.5303 130.9 54.1386 129.073C54.8704 126.871 55.6022 124.674 56.3382 122.472C56.9721 120.57 57.606 118.667 58.2399 116.765C58.542 115.841 58.8823 114.922 59.1631 113.985C59.1674 113.973 59.1716 113.96 59.1759 113.947C59.3163 113.53 59.0142 113.007 58.5802 112.91C58.1123 112.804 57.6826 113.049 57.5337 113.5C57.2784 114.259 57.0274 115.019 56.7721 115.782C56.1637 117.608 55.5554 119.431 54.947 121.257C54.2152 123.459 53.4835 125.657 52.7475 127.858C52.1135 129.761 51.4796 131.663 50.8457 133.565C50.5437 134.485 50.2033 135.405 49.9225 136.341C49.9183 136.354 49.914 136.366 49.9098 136.379C49.7694 136.797 50.0714 137.32 50.5054 137.417C50.9734 137.522 51.4031 137.277 51.552 136.83Z" fill="#0A222E"/>
</g>
</g>
</g>
<defs>
<clipPath id="clip0">
<rect width="474" height="193" fill="white"/>
</clipPath>
</defs>
</svg>
