<svg viewBox="0 0 1752 692" fill="none" xmlns="http://www.w3.org/2000/svg">
<path d="M1752 0L295.505 169.848V185.526L1752 461.645V0Z" fill="#282853" fill-opacity=".7"/>
<path d="M339.375 683.415C295.641 692.113 250.466 693.961 205.981 688.871C201.619 688.365 197.262 687.799 192.909 687.172C188.557 686.546 184.16 685.834 179.718 685.037C176.83 684.539 173.941 683.999 171.053 683.415L171.32 680.005L172.121 670.149L172.581 664.436L173.679 650.668L174.792 636.887L175.534 627.636L176.038 621.331L177.196 606.881L178.412 591.8L179.629 576.643L180.876 561.073L182.033 546.611L183.25 531.53L184.333 517.994L185.579 502.424L186.751 487.949L187.953 472.868L189.214 457.26L190.327 443.377L191.411 429.763L192.301 418.684L193.428 404.711L194.452 391.959L195.491 378.937L196.737 363.497L197.984 347.927L199.141 333.465L200.343 318.384L200.714 313.791H309.684L334.909 627.661L338.663 674.395L339.375 683.415Z" fill="#141429"/>
<path d="M205.477 313.765C205.04 314.797 204.346 315.733 203.444 316.505C202.59 317.317 201.534 317.95 200.358 318.358C200.814 317.335 201.503 316.402 202.382 315.613C203.261 314.824 204.313 314.195 205.477 313.765ZM220.404 314.382C214.037 321.318 206.916 327.708 199.141 333.464C202.289 329.977 205.657 326.644 209.231 323.479C212.762 320.274 216.492 317.237 220.404 314.382V314.382ZM220.404 327.79C213.655 335.078 206.151 341.815 197.984 347.914C201.325 344.25 204.886 340.741 208.652 337.402C212.376 334.025 216.299 330.817 220.404 327.79ZM220.404 342.227C216.872 346.087 212.985 349.741 209.097 353.306C205.21 356.87 201.1 360.293 196.737 363.484C200.254 359.624 204.156 355.969 208.029 352.405C211.902 348.841 216.041 345.418 220.404 342.227ZM220.404 403.732C218.208 406.087 215.952 408.339 213.563 410.578C211.175 412.817 208.845 415.017 206.441 417.192C204.037 419.366 201.574 421.515 199.022 423.625L195.372 426.726C194.066 427.743 192.805 428.785 191.484 429.763C192.568 428.579 193.725 427.447 194.838 426.289L198.325 422.918C200.64 420.666 203.043 418.478 205.447 416.304C207.851 414.129 210.299 411.98 212.866 409.87C215.433 407.76 217.763 405.74 220.404 403.732ZM220.404 416.368C218.119 418.8 215.715 421.142 213.296 423.458C210.878 425.774 208.385 428.052 205.877 430.316C203.37 432.581 200.847 434.794 198.236 436.969L194.333 440.224C192.983 441.266 191.677 442.347 190.312 443.376C191.44 442.154 192.642 440.983 193.799 439.787L197.42 436.287C199.823 433.945 202.316 431.68 204.839 429.428C207.361 427.177 209.884 424.951 212.48 422.776C215.077 420.601 217.629 418.44 220.404 416.368ZM220.404 429.248C218.015 431.822 215.522 434.189 212.985 436.595C210.447 439.002 207.895 441.356 205.314 443.698C202.732 446.04 200.091 448.343 197.39 450.595L193.339 453.979C191.959 455.073 190.594 456.192 189.185 457.26C190.357 455.974 191.603 454.777 192.82 453.542L196.574 449.913C199.067 447.494 201.649 445.152 204.245 442.81C206.842 440.468 209.468 438.165 212.169 435.914C214.869 433.662 217.629 431.397 220.404 429.248ZM220.404 443.737C217.911 446.31 215.314 448.884 212.703 451.367C210.091 453.85 207.406 456.308 204.705 458.753C202.005 461.198 199.274 463.578 196.47 465.933L192.271 469.446C190.787 470.591 189.422 471.762 187.953 472.868C189.185 471.582 190.475 470.295 191.737 469.008L195.654 465.238C198.265 462.729 200.951 460.297 203.637 457.852C206.323 455.407 209.082 453.027 211.872 450.672C214.661 448.318 217.481 445.976 220.404 443.737ZM220.404 457.736C217.822 460.438 215.121 463.038 212.391 465.637C209.661 468.236 206.901 470.784 204.112 473.293C201.322 475.802 198.473 478.298 195.565 480.743L191.217 484.397C189.734 485.581 188.25 486.791 186.766 487.949C188.042 486.585 189.392 485.285 190.713 483.947L194.764 480.087C197.479 477.513 200.269 474.94 203.058 472.431C205.848 469.922 208.697 467.425 211.59 464.981C214.483 462.536 217.377 460.065 220.404 457.736ZM220.404 471.157C217.718 473.949 214.914 476.638 212.109 479.315C209.305 481.991 206.412 484.616 203.518 487.241C200.625 489.866 197.687 492.388 194.615 494.961L190.164 498.744C188.68 500.031 187.196 501.241 185.549 502.437C186.87 501.035 188.279 499.684 189.63 498.307L193.888 494.266C196.693 491.577 199.586 488.965 202.465 486.34C205.343 483.715 208.296 481.193 211.293 478.62C214.291 476.046 217.273 473.576 220.404 471.157ZM220.404 485.607C217.614 488.489 214.706 491.281 211.798 494.048C208.89 496.814 205.863 499.542 202.895 502.244C199.927 504.946 196.856 507.623 193.755 510.235L189.096 514.159C187.508 515.446 185.95 516.733 184.333 518.019C185.712 516.565 187.167 515.176 188.576 513.748L192.939 509.579C195.906 506.799 198.874 504.084 201.841 501.382C204.809 498.68 207.881 496.004 210.982 493.392C214.083 490.779 217.169 488.09 220.404 485.607ZM220.404 498.165C217.525 501.125 214.469 503.994 211.501 506.851C208.533 509.707 205.417 512.499 202.346 515.292C199.274 518.084 196.129 520.837 192.924 523.527L188.131 527.58C186.499 528.867 184.896 530.243 183.235 531.53C184.718 530.037 186.202 528.609 187.612 527.142L192.063 522.845C195.031 519.988 198.147 517.196 201.233 514.404C204.319 511.612 207.45 508.858 210.64 506.169C213.831 503.479 217.08 500.764 220.404 498.165ZM220.404 512.152C217.436 515.202 214.335 518.161 211.219 521.159C208.103 524.157 204.928 527.001 201.752 529.883C198.577 532.765 195.328 535.596 192.033 538.388L187.092 542.57C185.401 543.934 183.754 545.324 182.033 546.662C183.516 545.131 185 543.651 186.558 542.133L191.217 537.706C194.319 534.747 197.494 531.865 200.684 528.982C203.874 526.1 207.109 523.269 210.403 520.477C213.697 517.685 216.976 514.841 220.404 512.152ZM220.404 525.585C217.332 528.725 214.142 531.775 210.922 534.798C207.702 537.822 204.453 540.807 201.174 543.805C197.895 546.803 194.556 549.699 191.158 552.568L186.069 556.879C184.333 558.281 182.641 559.722 180.875 561.099C182.359 559.516 183.991 557.998 185.549 556.441L190.342 551.886C193.547 548.849 196.826 545.877 200.105 542.879C203.385 539.881 206.723 536.986 210.106 534.116C213.489 531.247 216.887 528.365 220.404 525.585ZM220.404 540.022C217.228 543.252 213.934 546.392 210.611 549.518C207.287 552.645 203.934 555.72 200.551 558.783C197.167 561.845 193.725 564.856 190.164 567.79L184.985 572.281C183.19 573.735 181.439 575.214 179.629 576.643C181.202 575.021 182.849 573.452 184.466 571.843L189.407 567.147C192.716 564.007 196.099 560.945 199.482 557.882C202.865 554.82 206.308 551.809 209.795 548.875C213.282 545.941 216.783 542.892 220.404 540.022ZM220.404 554.099C217.125 557.419 213.727 560.649 210.314 563.865C206.901 567.082 203.429 570.299 199.927 573.4C196.426 576.501 192.894 579.654 189.303 582.716L183.902 587.31C182.062 588.802 180.267 590.333 178.397 591.8C180.03 590.128 181.721 588.519 183.383 586.872L188.487 582.034C191.885 578.804 195.372 575.6 198.874 572.499C202.376 569.398 205.892 566.246 209.498 563.183C213.104 560.121 216.679 557.059 220.404 554.099ZM220.404 621.498C216.635 625.255 212.747 628.922 208.845 632.577C204.943 636.231 200.966 639.795 196.975 643.411C192.983 647.027 188.962 650.539 184.896 654.039L178.768 659.289C176.691 661 174.643 662.75 172.536 664.436C174.406 662.544 176.35 660.717 178.249 658.852L184.08 653.357C187.983 649.703 191.974 646.139 195.951 642.523C199.927 638.907 203.963 635.395 208.029 631.895C212.095 628.395 216.145 624.895 220.404 621.498ZM171.32 680.005C173.249 678.075 175.237 676.145 177.255 674.279L183.19 668.643C187.196 664.899 191.292 661.232 195.342 657.526C199.393 653.82 203.563 650.218 207.732 646.615L214.023 641.223C216.145 639.461 218.252 637.672 220.419 635.935C218.49 637.878 216.501 639.795 214.483 641.661L208.548 647.297C204.557 651.041 200.461 654.708 196.411 658.414C192.36 662.12 188.19 665.735 184.021 669.338C179.851 672.941 175.623 676.518 171.32 680.005ZM179.718 685.036C180.653 684.071 181.617 683.119 182.582 682.18C183.546 681.241 184.481 680.276 185.549 679.349L191.484 673.765C191.54 673.713 191.606 673.672 191.68 673.643C191.754 673.615 191.834 673.599 191.915 673.597V673.597L191.455 673.765C196.114 669.416 200.892 665.144 205.699 660.897C208.103 658.774 210.566 656.703 213.014 654.618C215.463 652.534 217.956 650.501 220.433 648.481C218.193 650.732 215.982 652.971 213.608 655.159C211.234 657.346 208.993 659.559 206.634 661.708C201.93 666.031 197.182 670.316 192.33 674.511C192.208 674.607 192.05 674.662 191.885 674.665V674.665L192.345 674.498L186.113 679.799C185.089 680.687 184.021 681.536 182.967 682.373C181.914 683.209 180.786 684.187 179.718 685.036ZM192.909 687.172C194.971 684.933 197.167 682.785 199.378 680.662C201.589 678.538 203.83 676.454 206.115 674.382C208.4 672.311 210.729 670.291 213.118 668.322L216.709 665.362C217.941 664.41 219.128 663.419 220.404 662.493C219.38 663.625 218.282 664.693 217.228 665.8L213.934 669.004C211.738 671.14 209.483 673.211 207.183 675.283C204.883 677.355 202.583 679.375 200.194 681.343C197.805 683.312 195.372 685.307 192.909 687.172ZM205.981 688.819C207.986 686.358 210.219 684.043 212.658 681.897C215.043 679.703 217.634 677.684 220.404 675.862C216.33 680.753 211.474 685.116 205.981 688.819ZM220.404 568.086C217.021 571.509 213.519 574.828 210.017 578.122C206.515 581.416 202.925 584.685 199.349 587.927C195.773 591.17 192.123 594.361 188.413 597.526L182.864 602.248C180.979 603.793 179.124 605.362 177.21 606.881C178.887 605.156 180.638 603.497 182.344 601.811L187.597 596.844C191.099 593.524 194.69 590.282 198.28 587.039C201.871 583.797 205.506 580.606 209.201 577.44C212.896 574.275 216.576 571.135 220.404 568.086ZM220.404 581.506C216.917 585.006 213.326 588.416 209.72 591.8C206.115 595.184 202.435 598.53 198.755 601.862C195.075 605.195 191.336 608.476 187.538 611.719L181.84 616.57C179.911 618.152 177.997 619.774 176.038 621.331C177.759 619.568 179.555 617.869 181.32 616.184L186.721 611.037C190.312 607.627 193.992 604.294 197.687 600.975C201.381 597.655 205.106 594.361 208.904 591.118C212.703 587.876 216.487 584.595 220.404 581.506ZM174.792 636.887C178.368 633.284 182.062 629.784 185.787 626.31C189.511 622.836 193.206 619.388 197.064 616.016C200.921 612.645 204.69 609.223 208.593 605.89L214.439 600.897C216.427 599.263 218.386 597.603 220.374 595.995C218.594 597.796 216.739 599.546 214.929 601.335L209.409 606.469C205.699 609.969 201.916 613.392 198.132 616.763C194.348 620.134 190.49 623.557 186.603 626.889C182.715 630.222 178.813 633.657 174.792 636.887ZM173.679 650.668C177.344 646.988 181.098 643.411 184.941 639.847C188.784 636.282 192.657 632.795 196.5 629.27C200.343 625.744 204.334 622.321 208.37 618.899L214.305 613.752C216.353 612.079 218.341 610.381 220.419 608.734C218.594 610.586 216.694 612.375 214.84 614.189L209.142 619.555C205.328 623.106 201.426 626.593 197.583 630.119C193.74 633.645 189.763 637.08 185.712 640.49C181.662 643.9 177.789 647.361 173.679 650.668ZM220.404 394.442C218.267 396.655 215.952 398.753 213.771 400.876C211.59 402.999 209.201 405.019 206.872 407.039C204.542 409.06 202.168 411.067 199.72 412.997L196.069 415.905C194.808 416.831 193.591 417.809 192.301 418.71C193.354 417.59 194.467 416.548 195.55 415.455L198.918 412.302C201.174 410.192 203.488 408.159 205.833 406.139C208.177 404.118 210.537 402.111 212.97 400.181C215.403 398.251 217.837 396.269 220.404 394.442ZM220.404 381.138C218.371 383.286 216.219 385.345 214.053 387.378C211.887 389.411 209.602 391.406 207.435 393.374C205.269 395.343 202.984 397.235 200.58 399.165L197.049 401.983C195.847 402.896 194.675 403.835 193.428 404.71C194.422 403.63 195.506 402.6 196.544 401.545L199.764 398.47C201.916 396.424 204.216 394.442 206.382 392.474C208.548 390.505 210.907 388.613 213.252 386.683C215.596 384.753 217.941 382.913 220.404 381.138ZM220.404 369.325C216.487 373.456 212.258 377.303 207.955 381.099C203.652 384.895 199.185 388.549 194.452 391.959C198.354 387.829 202.583 383.968 206.901 380.185C211.219 376.402 215.656 372.735 220.404 369.325ZM220.404 357.114C216.665 361.103 212.599 364.835 208.533 368.476C204.468 372.118 200.12 375.656 195.55 378.937C199.274 374.948 203.34 371.217 207.421 367.575C211.501 363.934 215.834 360.396 220.404 357.114Z" fill="#202044"/>
<path d="M309.699 249.531H200.669V313.765H309.699V249.531Z" fill="#1A1A37"/>
<path d="M295.915 197.496H214.454V249.532H295.915V197.496Z" fill="#141429"/>
<path d="M281.359 144.921H229.01V197.496H281.359V144.921Z" fill="#1A1A37"/>
<path d="M289.965 155.227H220.389C220.394 145.244 223.467 135.441 229.292 126.829L255.199 88.5107L281.092 126.829C286.917 135.441 289.99 145.244 289.995 155.227H289.965Z" fill="#141429"/>
<path d="M310.961 329.553C308.092 325.937 303.923 323.247 299.106 321.903C294.288 320.558 289.093 320.635 284.331 322.12C279.569 323.606 275.508 326.417 272.783 330.115C270.057 333.813 268.821 338.19 269.266 342.562L274.37 391.985L315.724 388.768L310.961 329.553ZM319.404 434.73C317.035 432.676 314.176 431.099 311.027 430.11C307.879 429.12 304.518 428.743 301.182 429.004C298.185 429.237 295.271 429.979 292.605 431.189C289.939 432.399 287.574 434.052 285.644 436.055C283.715 438.058 282.26 440.37 281.362 442.861C280.464 445.351 280.14 447.97 280.409 450.569L285.513 499.979L324.463 496.969L319.404 434.73ZM328.291 545.349C325.247 544.441 322.017 544.099 318.81 544.346C315.813 544.579 312.898 545.321 310.232 546.531C307.566 547.741 305.201 549.394 303.272 551.397C301.343 553.4 299.888 555.712 298.99 558.203C298.091 560.693 297.767 563.312 298.037 565.911L303.141 615.322L333.707 612.954L328.291 545.349Z" fill="#1A1A37"/>
<path d="M295.292 171.208H281.359V183.291H295.292V171.208Z" fill="#1A1A37"/>
<path d="M5.34169 233.164C20.9521 224.662 35.5676 214.857 48.9804 203.891C52.3338 201.163 55.5684 198.32 58.7883 195.476C60.2721 194.009 61.9933 192.594 63.4771 191.101C64.9609 189.609 66.4447 188.052 67.8247 186.482C73.4186 180.164 78.7158 173.615 84.0278 167.078L99.9638 147.468C102.635 144.213 105.291 140.932 108.065 137.728C110.784 134.471 113.865 131.454 117.265 128.721C124.344 123.383 133.053 119.937 142.341 118.8C151.526 117.687 160.872 118.124 169.866 120.087C160.866 118.343 151.568 118.089 142.46 119.34C133.373 120.561 124.886 124.033 118.022 129.338C114.754 132.108 111.775 135.122 109.119 138.345C106.389 141.549 103.762 144.779 101.106 148.112L85.2297 167.811C79.888 174.335 74.5611 180.859 68.9078 187.202C67.424 188.772 66.0441 190.342 64.4564 191.86C62.8687 193.379 61.2811 194.781 59.6934 196.248C56.4587 199.105 53.1647 201.923 49.7371 204.612C42.9484 210.04 35.8362 215.155 28.4297 219.937C21.0114 224.7 13.3044 229.116 5.34169 233.164ZM108.971 183.136C110.447 177.718 112.669 172.474 115.588 167.515C118.554 162.543 122.349 157.978 126.85 153.966C131.37 149.938 136.643 146.602 142.445 144.097C148.238 141.719 154.182 139.631 160.251 137.844C166.273 136.027 172.173 133.917 177.923 131.526C183.648 129.099 189.203 126.379 194.556 123.381C199.934 120.403 205.107 117.155 210.047 113.653C215.033 110.179 219.751 106.435 224.351 102.574C215.63 110.729 205.857 117.986 195.224 124.204C184.52 130.389 172.959 135.378 160.815 139.053C154.752 140.789 148.807 142.821 143.009 145.139C137.321 147.579 132.121 150.794 127.607 154.661C118.541 162.369 112.517 172.508 108.971 183.136ZM0 427.717C14.3692 423.727 28.1915 418.386 41.2201 411.787C47.7191 408.493 53.9659 404.852 60.0792 401.018C66.1925 397.183 72.2761 393.297 77.9739 389.102C80.8246 386.99 83.5298 384.735 86.0754 382.347C88.632 380.011 90.8586 377.42 92.708 374.627C94.5352 371.881 95.5544 368.788 95.6756 365.62C95.5996 362.428 94.5224 359.314 92.5597 356.613C88.7314 351.221 82.3808 346.885 75.125 345.971C71.5044 345.553 67.8234 346.12 64.59 347.593C61.3435 349.077 58.5706 351.234 56.5181 353.872C54.4781 356.47 53.2416 359.478 52.9273 362.609C52.8011 364.184 52.9058 365.766 53.2389 367.318C53.613 368.875 54.175 370.393 54.9156 371.848C56.4099 374.769 58.5854 377.391 61.305 379.547C64.0245 381.704 67.2295 383.35 70.7181 384.38C77.781 386.336 85.5561 385.667 92.6932 384.097C99.9418 382.417 106.961 380.066 113.63 377.084C120.323 374.162 126.773 370.838 132.934 367.138C139.103 363.406 144.838 359.162 150.057 354.464C160.527 345.013 169.035 334.065 175.208 322.103C169.23 334.17 160.898 345.252 150.576 354.863C145.372 359.626 139.642 363.935 133.468 367.73C127.283 371.515 120.803 374.924 114.075 377.934C107.377 381.011 100.305 383.432 92.99 385.152C89.2942 385.983 85.511 386.487 81.6982 386.658C77.8442 386.844 73.9824 386.443 70.2878 385.474C66.6142 384.395 63.237 382.67 60.3672 380.407C57.4975 378.144 55.1971 375.393 53.6098 372.324C52.8168 370.784 52.2149 369.175 51.8144 367.524C51.4484 365.871 51.3237 364.185 51.4435 362.506C51.7952 359.121 53.1609 355.874 55.4052 353.087C57.6005 350.279 60.5619 347.985 64.0261 346.409C67.5281 344.828 71.5105 344.229 75.4217 344.698C79.2717 345.218 82.9178 346.543 86.0458 348.558C89.1632 350.556 91.8037 353.06 93.8209 355.931C95.8946 358.81 97.0279 362.123 97.1001 365.517C96.955 368.894 95.8488 372.187 93.8802 375.103C90.0817 380.932 84.4878 385.551 78.7603 389.823C73.0328 394.095 66.8899 397.891 60.6579 401.648C54.5261 405.479 48.1721 409.035 41.6207 412.302C28.4412 418.749 14.4836 423.918 0 427.717Z" fill="#32325A"/>
</svg>
