<svg viewBox="0 0 123 123" fill="none" xmlns="http://www.w3.org/2000/svg">
<g id="about-me-section-svg-title">
<circle id="Ellipse 71" cx="114.266" cy="63.5232" r="1" transform="rotate(-180 114.266 63.5232)" fill="#FCFCFF"/>
<circle id="Ellipse 72" cx="10.1343" cy="61.5232" r="1" transform="rotate(-180 10.1343 61.5232)" fill="#FCFCFF"/>
<g id="Group">
<path id="A" d="M104.012 82.8232L106.409 77.1923L104.158 74.8428L104.857 73.2004L113.902 82.8548L113.322 84.2156L100.049 84.4935L100.748 82.8511L104.012 82.8232ZM105.53 82.8166L111.807 82.7845L107.461 78.2806L105.53 82.8166Z" fill="#FCFCFF"/>
<path id="B" d="M96.5025 98.1404C95.8786 98.5187 95.248 98.6732 94.6107 98.6042C93.9735 98.5351 93.382 98.2448 92.8362 97.7333C92.0754 97.0203 91.7337 96.203 91.8109 95.2814C91.8803 94.3679 92.3595 93.4424 93.2483 92.5047L96.8504 88.7045L105.682 96.9813L102.197 100.658C101.339 101.563 100.47 102.076 99.5895 102.198C98.7009 102.328 97.8927 102.053 97.165 101.371C96.6936 100.929 96.4012 100.422 96.2878 99.8496C96.1749 99.2934 96.2464 98.7236 96.5025 98.1404ZM100.656 94.6478L98.5513 96.8686C97.3896 98.0942 97.2842 99.1526 98.2352 100.044C99.1532 100.904 100.193 100.721 101.355 99.4958L103.46 97.275L100.656 94.6478ZM94.3948 93.3461C93.7867 93.9877 93.458 94.5651 93.4089 95.0782C93.368 95.599 93.5957 96.0919 94.0919 96.5569C94.5963 97.0297 95.1127 97.2262 95.641 97.1466C96.1697 97.083 96.7343 96.7345 97.3346 96.1012L99.6268 93.6829L96.687 90.9279L94.3948 93.3461Z" fill="#FCFCFF"/>
<path id="O" d="M80.844 101.161C81.8761 100.666 82.8841 100.459 83.8682 100.54C84.847 100.636 85.7487 101.001 86.5733 101.636C87.3878 102.276 88.0696 103.162 88.6187 104.294C89.1728 105.436 89.4483 106.523 89.4453 107.555C89.4422 108.588 89.1664 109.512 88.6177 110.328C88.069 111.144 87.2786 111.8 86.2465 112.295C85.2042 112.795 84.1962 113.002 83.2223 112.916C82.2383 112.835 81.339 112.475 80.5246 111.835C79.7102 111.195 79.0284 110.309 78.4792 109.177C77.9251 108.035 77.6496 106.948 77.6527 105.916C77.6557 104.884 77.9291 103.954 78.4729 103.128C79.0216 102.311 79.8119 101.656 80.844 101.161ZM81.4674 102.445C80.374 102.97 79.7065 103.749 79.4647 104.783C79.2128 105.821 79.4207 107.028 80.0886 108.405C80.7516 109.771 81.5677 110.675 82.537 111.115C83.5011 111.57 84.5298 111.535 85.6232 111.01C86.7165 110.486 87.3841 109.707 87.6258 108.673C87.8725 107.65 87.6643 106.455 87.0014 105.089C86.3335 103.712 85.5175 102.797 84.5535 102.341C83.5792 101.891 82.5505 101.926 81.4674 102.445Z" fill="#FCFCFF"/>
<path id="U" d="M64.7453 105.452C66.3503 105.334 67.6021 105.662 68.5008 106.437C69.3881 107.213 69.8919 108.409 70.0122 110.025L70.5536 117.298L68.8412 117.424L68.291 110.032C68.2077 108.913 67.879 108.085 67.3049 107.548C66.7203 107.023 65.9024 106.799 64.8513 106.876C63.8114 106.953 63.0473 107.299 62.559 107.914C62.0594 108.531 61.8508 109.393 61.9332 110.5L62.4834 117.892L60.7541 118.019L60.2127 110.746C60.0924 109.13 60.4194 107.873 61.1935 106.975C61.9564 106.078 63.1403 105.57 64.7453 105.452Z" fill="#FCFCFF"/>
<path id="T" d="M47.6481 114.61L51.5968 115.702L51.203 117.11L41.6014 114.455L41.9953 113.047L45.9441 114.139L48.8111 103.89L50.5151 104.362L47.6481 114.61Z" fill="#FCFCFF"/>
<path id="M" d="M15.4143 94.7921L24.449 86.7371L25.5077 87.9112L19.3028 93.4433L27.9099 90.5751L28.7183 91.4714L24.9877 99.6713L31.1432 94.1605L32.202 95.3346L23.1674 103.39L22.2224 102.342L26.735 92.4198L16.3593 95.8399L15.4143 94.7921Z" fill="#FCFCFF"/>
<path id="E" d="M9.95293 85.2391L7.13194 77.9092L8.46659 77.4014L10.6648 83.113L14.2238 81.7588L12.1478 76.3645L13.4824 75.8566L15.5585 81.2509L19.3082 79.8242L17.11 74.1125L18.4447 73.6047L21.2657 80.9346L9.95293 85.2391Z" fill="#FCFCFF"/>
<path id="A_2" d="M18.6272 40.8177L16.3131 46.4833L18.5989 48.7997L17.9239 50.4522L8.73826 40.931L9.29751 39.5618L22.5651 39.0895L21.8901 40.742L18.6272 40.8177ZM17.1097 40.8465L10.8339 40.9705L15.2455 45.4105L17.1097 40.8465Z" fill="#FCFCFF"/>
<path id="B_2" d="M25.9097 25.392C26.5281 25.0047 27.1563 24.8408 27.7945 24.9005C28.4327 24.9603 29.0284 25.2418 29.5816 25.7452C30.3528 26.447 30.7065 27.2592 30.6428 28.1819C30.5868 29.0963 30.1213 30.0288 29.2464 30.9794L25.7006 34.8321L16.7481 26.6858L20.1788 22.9583C21.0231 22.041 21.8847 21.5149 22.7636 21.38C23.6502 21.2367 24.4623 21.5007 25.1999 22.1719C25.6777 22.6067 25.9775 23.1093 26.0993 23.6798C26.2204 24.2344 26.1572 24.8051 25.9097 25.392ZM21.8077 28.9453L23.8799 26.6938C25.0235 25.4513 25.1133 24.3914 24.1493 23.5143C23.2188 22.6676 22.1818 22.8655 21.0382 24.1081L18.966 26.3596L21.8077 28.9453ZM28.0877 30.1549C28.6863 29.5044 29.0064 28.9223 29.048 28.4085C29.0812 27.8871 28.8463 27.3976 28.3434 26.94C27.8321 26.4747 27.3129 26.2857 26.7858 26.3731C26.258 26.4444 25.6987 26.8012 25.1077 27.4433L22.8513 29.895L25.8312 32.6066L28.0877 30.1549Z" fill="#FCFCFF"/>
<path id="O_2" d="M41.522 22.1433C40.4973 22.6535 39.4924 22.8753 38.5072 22.8087C37.5271 22.7269 36.62 22.3746 35.7861 21.7516C34.9623 21.1236 34.2675 20.2478 33.7017 19.1242C33.1309 17.9905 32.8394 16.9076 32.8272 15.8756C32.8151 14.8435 33.0773 13.9153 33.614 13.0911C34.1506 12.2669 34.9313 11.5998 35.956 11.0896C36.9908 10.5744 37.9958 10.3526 38.9708 10.4243C39.956 10.4908 40.8605 10.8381 41.6843 11.4661C42.5081 12.0941 43.2029 12.9699 43.7687 14.0935C44.3395 15.2272 44.631 16.3101 44.6432 17.3422C44.6553 18.3743 44.3956 19.3075 43.8641 20.1418C43.3274 20.966 42.5468 21.6332 41.522 22.1433ZM40.8798 20.8679C41.9654 20.3274 42.6214 19.5387 42.8479 18.5018C43.0846 17.4598 42.8588 16.2556 42.1707 14.889C41.4877 13.5326 40.6583 12.6415 39.6826 12.2158C38.7119 11.7748 37.6838 11.8246 36.5982 12.365C35.5127 12.9055 34.8566 13.6942 34.6301 14.7311C34.3985 15.7579 34.6242 16.9496 35.3072 18.306C35.9954 19.6725 36.8247 20.5762 37.7954 21.0172C38.7763 21.453 39.8044 21.4033 40.8798 20.8679Z" fill="#FCFCFF"/>
<path id="U_2" d="M57.556 17.6182C55.9529 17.7597 54.6964 17.4497 53.7864 16.6881C52.8876 15.9256 52.3662 14.7372 52.222 13.1229L51.5733 5.85882L53.2837 5.70781L53.943 13.0904C54.0428 14.208 54.3837 15.0312 54.9657 15.5601C55.558 16.0766 56.3791 16.2886 57.429 16.1959C58.4676 16.1042 59.2265 15.747 59.7057 15.1245C60.1962 14.5009 60.3921 13.636 60.2933 12.5298L59.634 5.14714L61.3613 4.99463L62.01 12.2587C62.1541 13.873 61.8458 15.1346 61.085 16.0437C60.3354 16.9518 59.1591 17.4767 57.556 17.6182Z" fill="#FCFCFF"/>
<path id="T_2" d="M74.5157 8.21163L70.5514 7.17731L70.9244 5.76371L80.5637 8.2787L80.1907 9.69231L76.2264 8.65798L73.511 18.9477L71.8002 18.5014L74.5157 8.21163Z" fill="#FCFCFF"/>
<path id="M_2" d="M107.038 27.5565L98.1224 35.7432L97.0465 34.5848L103.17 28.9622L94.6054 31.9566L93.784 31.0722L97.3937 22.8184L91.3198 28.419L90.2439 27.2606L99.1593 19.0739L100.12 20.1077L95.7532 30.0948L106.078 26.5227L107.038 27.5565Z" fill="#FCFCFF"/>
<path id="E_2" d="M112.64 37.029L115.569 44.3165L114.242 44.8438L111.96 39.1652L108.421 40.5714L110.577 45.9345L109.249 46.4618L107.094 41.0987L103.366 42.5801L105.648 48.2587L104.321 48.786L101.392 41.4985L112.64 37.029Z" fill="#FCFCFF"/>
</g>
</g>
</svg>
