<svg xmlns="http://www.w3.org/2000/svg" enable-background="new 0 0 24 24" viewBox="0 0 24 24"><path d="M23.495 24h-4.758c-.276 0-.5-.224-.5-.5v-7.475c0-2.021-.146-3.566-1.979-3.566-1.698 0-2.359.964-2.359 3.438v7.603c0 .276-.224.5-.5.5h-4.763c-.276 0-.5-.224-.5-.5v-15.356c0-.276.224-.5.5-.5h4.574c.276 0 .5.224.5.5v.709c.891-.869 2.267-1.594 4.078-1.594 5.474 0 6.212 3.946 6.212 7.805v8.436c0 .276-.224.5-.5.5zm-4.258-1h3.763v-7.937c0-4.085-.886-6.805-5.212-6.805-2.143 0-3.531 1.192-4.069 2.212-.215.409-1.01.229-1.009-.233v-1.593h-3.574v14.355h3.763v-7.103c0-1.214 0-4.438 3.359-4.438 2.979 0 2.979 2.858 2.979 4.566zM5.648 24h-4.768c-.276 0-.5-.224-.5-.5v-15.355c0-.276.224-.5.5-.5h4.769c.276 0 .5.224.5.5v15.355c-.001.276-.224.5-.501.5zm-4.268-1h3.769v-14.355h-3.769zM3.262 6.549c-1.799 0-3.262-1.474-3.262-3.287 0-1.799 1.463-3.262 3.262-3.262s3.261 1.463 3.261 3.262c0 1.813-1.463 3.287-3.261 3.287zm0-5.549c-1.247 0-2.262 1.015-2.262 2.262 0 1.261 1.015 2.287 2.262 2.287s2.261-1.026 2.261-2.287c0-1.247-1.014-2.262-2.261-2.262z" fill="#fcfcff"/></svg>