<svg width="187" height="5" viewBox="0 0 187 5" fill="none" xmlns="http://www.w3.org/2000/svg">
<path d="M0 1.11536C3.33917 1.11536 3.33915 3.88464 6.67832 3.88464C10.0168 3.88464 10.0168 1.11536 13.3553 1.11536C16.6942 1.11536 16.6942 3.88464 20.0329 3.88464C23.3719 3.88464 23.3719 1.11536 26.7108 1.11536C30.0495 1.11536 30.0495 3.88464 33.388 3.88464C36.7272 3.88464 36.7272 1.11536 40.0661 1.11536C43.4055 1.11536 43.4055 3.88464 46.7447 3.88464C50.0839 3.88464 50.0839 1.11536 53.4228 1.11536C56.7618 1.11536 56.7618 3.88464 60.1007 3.88464C63.4396 3.88464 63.4396 1.11536 66.7785 1.11536C70.1175 1.11536 70.1175 3.88464 73.4564 3.88464C76.7956 3.88464 76.7956 1.11536 80.1348 1.11536C83.4744 1.11536 83.4744 3.88464 86.8138 3.88464C90.153 3.88464 90.153 1.11536 93.4922 1.11536C96.8316 1.11536 96.8316 3.88464 100.171 3.88464C103.51 3.88464 103.51 1.11536 106.85 1.11536C110.189 1.11536 110.189 3.88464 113.528 3.88464C116.868 3.88464 116.868 1.11536 120.207 1.11536C123.547 1.11536 123.547 3.88464 126.886 3.88464C130.225 3.88464 130.225 1.11536 133.564 1.11536C136.903 1.11536 136.903 3.88464 140.242 3.88464C143.581 3.88464 143.581 1.11536 146.921 1.11536C150.26 1.11536 150.26 3.88464 153.6 3.88464C156.94 3.88464 156.94 1.11536 160.28 1.11536C163.62 1.11536 163.62 3.88464 166.959 3.88464C170.299 3.88464 170.299 1.11536 173.639 1.11536C176.979 1.11536 176.979 3.88464 180.319 3.88464C183.66 3.88464 183.66 1.11536 187 1.11536" stroke="#f5f5f5"/>
</svg>
