<svg width="509" height="454" viewBox="0 0 509 454" fill="none" xmlns="http://www.w3.org/2000/svg">
<g id="mail-svg">
<path id="contact-svg-path" d="M156.5 153.5C180.841 185.566 219.043 234.382 247.462 207.527C275.881 180.672 250.568 144.362 228 142.5C207 140.767 149.133 177.988 173.333 232.235C197.533 286.482 300.284 289.543 348.634 284.293C362.279 282.934 392.925 271.423 406.358 236.245C419.79 201.067 373.311 191.633 357.04 213.304C348.634 224.5 342.874 276.889 401.394 311.368C459.913 345.848 486.004 331.929 507.867 326.729" stroke="#AFAFE1" stroke-linecap="round"/>
<g id="contact-svg-mail">
<g id="Group 27">
<path id="Vector 64" d="M104.982 88.0449C112.699 81.3687 119.194 73.4227 124.427 64.2378C125.852 61.7365 127.343 57.8151 129.597 56.1883C131.882 54.5387 127.912 55.2343 126.992 56.3035C119.88 64.5618 110.27 72.0933 102.664 80.5605C94.0373 90.1636 121.527 63.1293 129.584 52.9279C133.09 48.4885 128.095 51.1733 126.348 52.1819C118.324 56.8148 110.837 61.7517 103.896 68.0041C103.527 68.3367 96.2503 73.6551 96.3211 73.2759C97.6471 66.175 103.615 60.1361 107.555 55.0263C108.027 54.4151 114.618 46.013 112.967 49.9412C110.468 55.8892 106.757 60.786 103.925 66.4352C98.9954 76.2669 115.433 48.0785 121.248 38.952C127.277 29.4884 105.228 53.7841 96.6483 60.425C95.4604 61.3444 101.898 55.575 102.375 55.0762C109.268 47.8792 115.068 39.4193 122.59 32.9488C123.982 31.752 125.3 30.8265 126.815 29.8561C126.949 29.7703 126.608 30.1075 126.485 30.21C121.033 34.7707 117.644 42.1017 113.668 48.1478C112.969 49.2111 107.587 56.1629 111.202 50.4701C114.053 45.9809 121.174 38.8257 121.535 32.741C121.544 32.5961 110.901 41.714 109.848 42.9195C104.507 49.0375 99.0847 55.0672 93.7549 61.1969C91.0995 64.2508 84.9828 74.643 85.6978 70.2599C87.0377 62.0473 94.472 53.2508 98.649 46.7713C98.738 46.6333 102.304 40.6456 102.189 40.6427C99.03 40.5626 93.6373 48.3494 91.3539 50.3296C90.9583 50.6727 83.1573 56.9567 86.6815 54.4976C94.004 49.3882 99.2373 40.5157 105.17 33.7754C109.454 28.9077 124.165 16.6821 118.645 19.8689C114.459 22.2856 111.121 25.7528 107.839 29.3755C104.769 32.7638 101.724 36.1483 98.5354 39.4031C97.4688 40.4918 94.1495 43.125 95.7133 43.0746C99.5825 42.9499 104.407 34.4037 106.563 31.909C110.278 27.611 120.877 15.9983 110.853 27.3086C100.551 38.9315 68.7558 72.8097 79.0571 61.1869C86.3985 52.9038 93.084 43.9194 100.423 35.6173C105.378 30.0128 110.518 24.555 115.055 18.5102C115.066 18.4967 118.68 13.9125 115.503 16.0463C107.567 21.3765 100.896 29.0788 93.6962 35.4167C87.7928 40.6131 81.7026 45.5391 75.6278 50.5048C74.9957 51.0215 67.4811 55.9462 67.1285 58.1077C65.9604 65.2673 75.6706 47.9778 79.5981 42.5759C82.4023 38.7191 91.5987 28.2953 87.5838 30.6132C83.8717 32.7564 81.3393 37.2038 78.6165 40.5286C74.4537 45.6116 85.9755 32.5152 86.7943 31.5592C89.7428 28.1165 96.2858 24.1831 97.8769 19.524C99.9256 13.5246 90.8585 29.3612 87.231 34.1662C84.28 38.0752 78.6729 45.156 85.7112 37.086C90.4768 31.6217 100.471 23.5384 102.184 15.6486C102.436 14.4868 100.683 17.2314 99.9745 18.0679C96.0702 22.6758 92.0735 27.1719 88.0496 31.6514C84.8557 35.2068 80.1531 39.0726 77.8451 43.588C76.7163 45.7964 81.4485 40.4968 83.0419 38.7088C89.5469 31.4092 96.0631 23.9794 101.783 15.8799C106.41 9.32885 95.3201 20.2195 94.5239 20.888C87.2236 27.0173 79.9739 34.5167 71.7447 39.2678C65.9884 42.5912 80.5369 28.9592 85.0836 23.9694C87.3949 21.4328 92.282 16.4436 87.14 22.2103C78.4056 32.0057 69.2602 41.3319 60.6267 51.2417C57.8928 54.3798 55.1868 57.5478 52.4608 60.6944C50.904 62.4913 45.6893 65.0697 48.045 66.348C51.3282 68.1296 69.4509 47.9975 71.1098 46.4964C84.1638 34.6838 97.0547 22.6416 109.567 10.1606C115.271 4.47076 99.1898 20.3256 98.82 20.695C92.5321 26.9757 89.4456 29.9403 83.2447 36.6311C80.8351 39.2311 78.4365 41.846 76.1422 44.5712C74.4297 46.6053 69.0778 50.9956 71.8416 51.4654C75.0501 52.0108 81.6575 44.536 83.4848 42.946C88.5317 38.5548 93.3801 33.9054 98.4625 29.5606C107.014 22.2499 93.6645 38.6959 93.3139 39.1501C82.6374 52.9817 72.0331 66.5295 62.7815 81.6935C58.6813 88.414 61.8326 86.1241 65.195 82.7508C75.6291 72.2828 84.6798 60.3532 95.379 50.1297C101.325 44.4484 106.682 38.6978 96.9727 48.1476C84.0082 60.7651 69.8683 71.9198 56.995 84.6259C51.0605 90.4833 56.9798 83.1321 58.3408 80.8264C61.7862 74.9894 73.9821 60.0008 68.1609 62.9032C62.9398 65.5063 58.5747 71.7469 54.512 75.9298C46.4685 84.2116 54.7139 79.0274 59.1206 76.0466C74.3905 65.7174 89.011 54.2418 103.775 43.1581C104.95 42.2764 120.861 25.9545 114.682 36.3708C110.075 44.1372 106.479 52.5788 103.222 61.2858C100.781 67.8135 98.3236 74.3346 95.8984 80.8721C95.457 82.0622 92.1955 88.591 92.9392 90.6679C93.3392 91.7846 94.3469 89.2718 94.9336 88.4545C97.3704 85.0601 99.9455 81.7844 102.304 78.3176C103.297 76.8579 111.931 62.4716 106.48 70.5147C99.2847 81.1336 91.4121 91.0443 83.0732 100.53C78.4952 105.738 63.257 122.025 76.4975 105.797C86.1604 93.9543 97.2006 83.5869 106.675 71.5459C113.67 62.6565 110.064 64.2358 103.28 68.4413C92.7717 74.9559 83.5685 83.469 74.1134 91.4891C73.4571 92.0458 72.8633 92.701 72.1219 93.1291C70.7367 93.9288 74.2614 90.6741 75.3506 89.4678C81.095 83.1057 86.6103 76.5431 91.9505 69.7542C97.1492 63.1452 113.069 43.7735 106.941 49.3358C96.8395 58.5056 87.8367 69.1366 79.8039 80.5248C77.8418 83.3065 73.1941 90.2971 71.179 93.3467C69.5597 95.7973 63.8744 101.761 66.6252 100.959C69.2399 100.197 73.2649 94.1163 74.6794 92.4694C79.1211 87.2978 83.4947 82.0337 87.5438 76.4646C88.8991 74.6006 91.8789 70.2314 87.546 73.114C78.7569 78.9615 71.2429 87.896 64.146 95.8551C60.9117 99.4823 58.2958 104.5 63.065 98.0313C71.6013 86.4532 79.8232 74.3167 87.5436 62.0056C93.2159 52.9603 90.5476 55.5991 86.5359 62.3423C80.3786 72.692 73.983 83.3974 69.4232 94.9322C69.1219 95.6945 68.371 97.3418 69.1821 97.5221C72.0077 98.1503 81.6556 90.92 82.352 90.4903C93.0515 83.8892 103.488 76.8961 113.932 69.8884C115.403 68.9015 122.065 63.3796 118.502 69.1288C112.96 78.0733 106.858 86.4882 101.562 95.6557C100.904 96.7947 92.6092 113.373 98.243 103.209C103.219 94.2319 108.343 85.3897 113.642 76.6729C117.432 70.4384 121.24 65.5738 114.225 74.2124C107.102 82.9832 98.5826 92.4691 93.6698 103.153C92.1505 106.457 98.5799 98.2544 101.076 95.8547C105.988 91.1325 111.016 86.5495 116.006 81.9247C121.364 76.9603 120.308 77.2561 115.505 80.8253C107.45 86.8114 99.8059 95.1583 94.7839 104.389C92.2512 109.044 104.339 100.65 108.26 97.4252C117.657 89.6978 126.514 81.2537 135.252 72.6923C139.655 68.3778 146.525 63.191 149.811 57.4248C157.393 44.1165 108.457 99.5179 120.747 91.5232C125.614 88.3567 129.878 80.6576 132.883 75.5302C134.968 71.9742 136.692 68.0567 138.362 64.1983C138.766 63.2643 139.982 60.8597 139.047 61.1065C127.495 64.1572 103.263 92.1463 110.915 82.8221C116.612 75.8806 121.671 68.1299 126.863 60.7073C127.837 59.3146 144.023 37.3699 134.061 43.5629C122.532 50.7304 112.321 60.4032 102.573 69.9931C99.9758 72.5483 92.8559 80.9441 94.9784 77.8906C97.7541 73.8974 100.978 70.1645 103.975 66.4063C113.89 53.9742 124.827 42.3291 133.925 29.1004C140.351 19.7564 129.635 33.8691 128.419 35.8736C124.212 42.81 118.947 49.4695 115.494 56.9782C114.831 58.4195 116.72 55.426 116.961 54.6608" stroke="#6666B7" stroke-width="10" stroke-linecap="round"/>
</g>
<path id="Vector 68" d="M1 58.1924L10.0404 73.8508" stroke="#FCFCFF" stroke-linecap="round"/>
<path id="Vector 69" d="M16.9377 50.5137L28.6028 70.7181" stroke="#FCFCFF" stroke-linecap="round"/>
<path id="Vector 70" d="M153.418 93.6748L165.084 113.879" stroke="#FCFCFF" stroke-linecap="round"/>
<path id="Vector 71" d="M146.727 109.594L155.475 124.748" stroke="#FCFCFF" stroke-linecap="round"/>
<path id="Vector 72" d="M131.046 119.378L138.045 131.501" stroke="#FCFCFF" stroke-linecap="round"/>
<g id="Group 29">
<path id="Vector" d="M151.928 69.5747L76.9596 112.858C76.1195 113.343 75.0454 113.055 74.5604 112.215L42.759 57.1333C42.274 56.2933 42.5618 55.2192 43.4019 54.7341L118.37 11.451C119.21 10.966 120.285 11.2538 120.77 12.0939L152.571 67.1755C153.056 68.0156 152.768 69.0897 151.928 69.5747Z" stroke="#FCFCFF" stroke-width="2" stroke-miterlimit="10"/>
<path id="Vector_2" d="M119.692 11.2724L106.609 56.9906L103.693 67.1824C103.115 69.2006 101.042 70.3976 99.0059 69.8886L88.7216 67.3181L42.5872 55.7888" stroke="#FCFCFF" stroke-width="2" stroke-miterlimit="10"/>
<path id="Vector_3" d="M85.3849 78.9794L75.639 113.036" stroke="#FCFCFF" stroke-width="2" stroke-miterlimit="10"/>
<path id="Vector_4" d="M152.744 68.5195L118.377 59.9314" stroke="#FCFCFF" stroke-width="2" stroke-miterlimit="10"/>
</g>
</g>
</g>
</svg>
