<svg viewBox="0 0 146 144" fill="none" xmlns="http://www.w3.org/2000/svg">
<g opacity="0.9" filter="url(#filter0_d_756:20)">
<path d="M119.186 107.709C116.787 110.726 114.137 113.471 111.273 115.919C110.596 116.497 109.907 117.057 109.21 117.6C109.132 117.663 109.055 117.725 108.977 117.788C108.951 117.809 108.921 117.827 108.894 117.847C107.112 119.219 105.257 120.479 103.338 121.63C102.766 121.973 102.19 122.309 101.606 122.634C96.1987 125.633 90.3329 127.768 84.1923 128.942C80.5349 129.639 76.7792 130 72.9668 130C64.6446 130 56.5906 128.289 49.0255 124.921C46.7184 123.889 44.465 122.706 42.3278 121.4C40.2532 120.136 38.2233 118.717 36.2948 117.185C34.7209 115.936 33.2246 114.616 31.8028 113.236C31.4153 112.86 31.0368 112.479 30.6642 112.094C21.5938 102.791 15.8886 90.8197 14.3893 77.701C13.0361 65.8521 15.2329 54.1403 20.634 43.7938C22.1214 40.9438 23.8561 38.1957 25.8234 35.5782C25.8831 35.5007 25.9427 35.4206 26.0023 35.3428C26.2705 34.991 26.5418 34.6396 26.819 34.2908C38.0773 20.1255 54.9244 12 73.0414 12C86.4848 12 99.1649 16.4325 109.711 24.8147C110.17 25.1783 110.572 25.5092 110.945 25.8252C111.887 26.6121 112.82 27.4438 113.779 28.3589C113.925 28.499 114.075 28.6391 114.218 28.7852C114.605 29.1578 114.987 29.5423 115.362 29.9268C125.023 39.8683 130.856 52.8827 131.849 66.8149C132.904 81.5853 128.406 96.108 119.186 107.709Z" fill="#D7D7FF"/>
</g>
<circle cx="37" cy="67" r="4" fill="#B8B8E6"/>
<circle cx="59.5" cy="106.5" r="7.5" fill="#B8B8E6"/>
<circle cx="105.5" cy="53.5" r="13.5" fill="#B8B8E6"/>
<circle cx="101.5" cy="96.5" r="9.5" fill="#B8B8E6"/>
<circle cx="58" cy="30" r="6" fill="#B8B8E6"/>
<defs>
<filter id="filter0_d_756:20" x="0" y="-2" width="146" height="146" filterUnits="userSpaceOnUse" color-interpolation-filters="sRGB">
<feFlood flood-opacity="0" result="BackgroundImageFix"/>
<feColorMatrix in="SourceAlpha" type="matrix" values="0 0 0 0 0 0 0 0 0 0 0 0 0 0 0 0 0 0 127 0" result="hardAlpha"/>
<feOffset/>
<feGaussianBlur stdDeviation="7"/>
<feComposite in2="hardAlpha" operator="out"/>
<feColorMatrix type="matrix" values="0 0 0 0 0.772549 0 0 0 0 0.772549 0 0 0 0 0.92549 0 0 0 0.45 0"/>
<feBlend mode="normal" in2="BackgroundImageFix" result="effect1_dropShadow_756:20"/>
<feBlend mode="normal" in="SourceGraphic" in2="effect1_dropShadow_756:20" result="shape"/>
</filter>
</defs>
</svg>
