<svg viewBox="0 0 146 146" fill="none" xmlns="http://www.w3.org/2000/svg">
<g opacity="0.9" filter="url(#filter0_d_756:20)">
<path d="M119.186 105.709C116.787 108.726 114.137 111.471 111.273 113.919C110.596 114.497 109.907 115.057 109.21 115.6C109.132 115.663 109.055 115.725 108.977 115.788C108.951 115.809 108.921 115.827 108.894 115.847C107.112 117.219 105.257 118.479 103.338 119.63C102.766 119.973 102.19 120.309 101.606 120.634C96.1987 123.633 90.3329 125.768 84.1923 126.942C80.5349 127.639 76.7792 128 72.9668 128C64.6446 128 56.5906 126.289 49.0255 122.921C46.7184 121.889 44.465 120.706 42.3278 119.4C40.2532 118.136 38.2233 116.717 36.2948 115.185C34.7209 113.936 33.2246 112.616 31.8028 111.236C31.4153 110.86 31.0368 110.479 30.6642 110.094C21.5938 100.791 15.8886 88.8197 14.3893 75.701C13.0361 63.8521 15.2329 52.1403 20.634 41.7938C22.1214 38.9438 23.8561 36.1957 25.8234 33.5782C25.8831 33.5007 25.9427 33.4206 26.0023 33.3428C26.2705 32.991 26.5418 32.6396 26.819 32.2908C38.0773 18.1255 54.9244 10 73.0414 10C86.4848 10 99.1649 14.4325 109.711 22.8147C110.17 23.1783 110.572 23.5092 110.945 23.8252C111.887 24.6121 112.82 25.4438 113.779 26.3589C113.925 26.499 114.075 26.6391 114.218 26.7852C114.605 27.1578 114.987 27.5423 115.362 27.9268C125.023 37.8683 130.856 50.8827 131.849 64.8149C132.904 79.5853 128.406 94.108 119.186 105.709Z" fill="#E9EAC8"/>
</g>
<circle cx="37" cy="65" r="4" fill="#C8C9A6"/>
<circle cx="59.5" cy="104.5" r="7.5" fill="#C8C9A6"/>
<circle cx="105.5" cy="51.5" r="13.5" fill="#C8C9A6"/>
<circle cx="101.5" cy="94.5" r="9.5" fill="#C8C9A6"/>
<circle cx="58" cy="28" r="6" fill="#C8C9A6"/>
<defs>
<filter id="filter0_d_756:20" x="0" y="0" width="146" height="146" filterUnits="userSpaceOnUse" color-interpolation-filters="sRGB">
<feFlood flood-opacity="0" result="BackgroundImageFix"/>
<feColorMatrix in="SourceAlpha" type="matrix" values="0 0 0 0 0 0 0 0 0 0 0 0 0 0 0 0 0 0 127 0" result="hardAlpha"/>
<feOffset dy="4"/>
<feGaussianBlur stdDeviation="7"/>
<feComposite in2="hardAlpha" operator="out"/>
<feColorMatrix type="matrix" values="0 0 0 0 0.835294 0 0 0 0 0.839216 0 0 0 0 0.733333 0 0 0 0.25 0"/>
<feBlend mode="normal" in2="BackgroundImageFix" result="effect1_dropShadow_756:20"/>
<feBlend mode="normal" in="SourceGraphic" in2="effect1_dropShadow_756:20" result="shape"/>
</filter>
</defs>
</svg>
