<svg viewBox="0 0 124 123" fill="none" xmlns="http://www.w3.org/2000/svg">
<g id="projects-section-svg-title">
<circle id="Ellipse 66" cx="10.4641" cy="60.488" r="1" transform="rotate(-90 10.4641 60.488)" fill="#F5F5F5"/>
<circle id="Ellipse 67" cx="113.598" cy="63.4961" r="1" transform="rotate(-90 113.598 63.4961)" fill="#F5F5F5"/>
<path id="P" d="M116.803 77.9909L114.93 82.6611C114.457 83.8391 113.799 84.6415 112.957 85.0684C112.12 85.5098 111.205 85.538 110.212 85.1529C109.219 84.7678 108.566 84.126 108.255 83.2275C107.951 82.3436 108.03 81.3231 108.495 80.1661L109.716 77.121L104.866 75.2406L105.518 73.6155L116.803 77.9909ZM109.87 80.4807C109.558 81.259 109.488 81.9063 109.659 82.4225C109.826 82.9492 110.222 83.3334 110.845 83.5751C111.458 83.8127 112.008 83.7952 112.496 83.5225C112.98 83.2603 113.378 82.74 113.69 81.9617L114.836 79.1059L111.016 77.6249L109.87 80.4807Z" fill="#F5F5F5"/>
<path id="R" d="M91.5291 95.3206L92.7919 93.9645L96.8179 95.5522C97.2462 95.7242 97.6235 95.7513 97.95 95.6335C98.2849 95.5232 98.6339 95.2732 98.9969 94.8834L100.804 92.9425L96.9625 89.4856L98.1442 88.2166L107.142 96.3131L103.747 99.9584C102.844 100.929 101.933 101.474 101.016 101.594C100.092 101.722 99.2208 101.419 98.4036 100.683C97.8139 100.153 97.4555 99.5483 97.3285 98.87C97.2014 98.1916 97.3163 97.4946 97.673 96.779C97.1014 97.2098 96.3832 97.2495 95.5183 96.898L91.5291 95.3206ZM99.7793 96.1134C99.1768 96.7603 98.8553 97.3551 98.8145 97.8977C98.7822 98.4479 99.023 98.9542 99.5369 99.4166C100.051 99.8791 100.577 100.063 101.114 99.9673C101.653 99.8878 102.227 99.5205 102.837 98.8652L104.911 96.6383L101.853 93.8864L99.7793 96.1134Z" fill="#F5F5F5"/>
<path id="O" d="M81.2889 101.384C82.3266 100.901 83.3389 100.704 84.3259 100.794C85.3076 100.9 86.2108 101.273 87.0355 101.914C87.8499 102.56 88.5302 103.449 89.0764 104.582C89.6275 105.726 89.8993 106.812 89.8918 107.841C89.8844 108.869 89.6036 109.787 89.0496 110.596C88.4956 111.404 87.6997 112.049 86.6621 112.533C85.6141 113.021 84.6018 113.217 83.625 113.122C82.638 113.032 81.7373 112.663 80.9229 112.018C80.1084 111.372 79.4281 110.482 78.882 109.349C78.3309 108.206 78.0591 107.12 78.0665 106.091C78.074 105.063 78.3523 104.139 78.9014 103.321C79.4554 102.513 80.2513 101.867 81.2889 101.384ZM81.9089 102.67C80.8096 103.182 80.1365 103.952 79.8895 104.98C79.6323 106.012 79.8358 107.217 80.5001 108.596C81.1594 109.964 81.9744 110.872 82.9451 111.32C83.9105 111.783 84.9428 111.758 86.0421 111.246C87.1414 110.734 87.8145 109.964 88.0615 108.937C88.3133 107.919 88.1096 106.727 87.4503 105.359C86.786 103.98 85.9712 103.06 85.0059 102.597C84.0302 102.138 82.9979 102.163 81.9089 102.67Z" fill="#F5F5F5"/>
<path id="J" d="M69.8303 103.735C69.3817 103.708 68.9717 103.717 68.6003 103.761C68.0263 103.829 67.6503 104.022 67.4723 104.34C67.2943 104.657 67.2508 105.188 67.3418 105.93L68.7724 117.607L67.0167 117.815L65.584 106.121C65.4365 104.917 65.5541 104.013 65.9367 103.409C66.3194 102.804 67.0397 102.439 68.0976 102.314C68.6153 102.253 69.1329 102.237 69.6504 102.267L69.8303 103.735Z" fill="#F5F5F5"/>
<path id="E" d="M55.8918 117.943L48.1471 116.638L48.3943 115.232L54.4292 116.249L55.0885 112.498L49.3889 111.538L49.6361 110.131L55.3357 111.092L56.0303 107.14L49.9954 106.123L50.2427 104.717L57.9874 106.022L55.8918 117.943Z" fill="#F5F5F5"/>
<path id="C" d="M38.316 99.597C39.3302 100.175 40.0898 100.895 40.5948 101.756C41.0841 102.622 41.2947 103.57 41.2264 104.601C41.1581 105.631 40.8016 106.693 40.1569 107.787C39.5179 108.87 38.7606 109.697 37.8849 110.268C37.0091 110.838 36.0704 111.125 35.0688 111.128C34.0573 111.126 33.0444 110.836 32.0301 110.258C31.3113 109.848 30.7128 109.357 30.2347 108.785C29.741 108.217 29.4062 107.602 29.2302 106.941L30.4182 106.131C30.6746 106.812 30.9922 107.377 31.3711 107.828C31.7344 108.283 32.1966 108.67 32.7579 108.99C33.851 109.613 34.905 109.744 35.9201 109.383C36.9254 109.017 37.8109 108.185 38.5764 106.886C39.3478 105.578 39.6481 104.399 39.4775 103.35C39.2913 102.305 38.6517 101.471 37.5586 100.848C36.9974 100.528 36.4286 100.321 35.8523 100.228C35.2604 100.138 34.6003 100.154 33.872 100.273L33.9964 98.8574C34.6674 98.6789 35.3792 98.6541 36.132 98.783C36.8691 98.9161 37.5971 99.1874 38.316 99.597Z" fill="#F5F5F5"/>
<path id="T" d="M19.0703 97.6087L21.7068 100.745L20.572 101.667L14.1614 94.0413L15.2961 93.1194L17.9326 96.2554L26.1922 89.545L27.33 90.8983L19.0703 97.6087Z" fill="#F5F5F5"/>
<path id="S" d="M18.9212 76.8008C19.2456 77.6838 19.4251 78.534 19.4598 79.3514C19.4906 80.1583 19.3688 80.911 19.0943 81.6098L17.6598 81.4516C17.9052 80.7392 18.0199 80.0491 18.0039 79.3813C17.988 78.7135 17.8432 78.0073 17.5696 77.2626C17.257 76.4116 16.8544 75.8089 16.3621 75.4546C15.8697 75.1002 15.3298 75.0273 14.7424 75.2359C14.2511 75.4103 13.9628 75.7592 13.8774 76.2826C13.7813 76.8097 13.8003 77.5846 13.9346 78.6073C14.0745 79.5798 14.1272 80.3968 14.0926 81.0585C14.0474 81.724 13.877 82.2955 13.5817 82.7732C13.2756 83.2546 12.7915 83.6129 12.1293 83.848C11.4671 84.0831 10.8206 84.1142 10.1896 83.9414C9.54802 83.7723 8.97111 83.4179 8.45893 82.8782C7.93216 82.3317 7.51439 81.6382 7.20564 80.7978C6.91252 79.9999 6.76176 79.2117 6.75336 78.433C6.74106 77.6436 6.87321 76.9353 7.14981 76.308L8.58427 76.4661C8.33789 77.1429 8.21485 77.7939 8.21516 78.4191C8.20479 79.0481 8.31489 79.6764 8.54548 80.3041C8.84642 81.1232 9.2591 81.7043 9.78351 82.0472C10.2972 82.3939 10.8532 82.4611 11.4512 82.2488C11.9639 82.0668 12.2795 81.7263 12.398 81.2272C12.5125 80.7176 12.5105 79.9727 12.3919 78.9926C12.2577 77.97 12.2006 77.1244 12.2206 76.4559C12.2406 75.7874 12.389 75.2055 12.6659 74.7104C12.9428 74.2153 13.4016 73.8539 14.0424 73.6264C14.7046 73.3913 15.3458 73.3621 15.9661 73.5388C16.5864 73.7154 17.1565 74.0842 17.6765 74.6452C18.1819 75.1993 18.5968 75.9179 18.9212 76.8008Z" fill="#F5F5F5"/>
<path id="P_2" d="M7.36397 41.6628L9.52995 37.1208C10.0763 35.9751 10.7838 35.2155 11.6524 34.8422C12.5155 34.4538 13.4309 34.4826 14.3984 34.9285C15.3659 35.3744 15.9767 36.0551 16.2306 36.9707C16.479 37.8713 16.335 38.8842 15.7984 40.0095L14.3861 42.971L19.1105 45.1482L18.3568 46.7287L7.36397 41.6628ZM14.4445 39.6102C14.8055 38.8532 14.9167 38.2119 14.7781 37.6864C14.6444 37.1506 14.2739 36.7428 13.6667 36.4629C13.0697 36.1878 12.5189 36.1711 12.0145 36.4128C11.5149 36.6442 11.0846 37.1385 10.7236 37.8955L9.39915 40.6728L13.12 42.3875L14.4445 39.6102Z" fill="#F5F5F5"/>
<path id="R_2" d="M33.6944 25.9427L32.3491 27.217L28.4303 25.3801C28.0137 25.1817 27.6387 25.131 27.3055 25.2281C26.9643 25.3171 26.6004 25.5448 26.2137 25.9111L24.2883 27.7348L27.9058 31.4256L26.6469 32.618L18.1742 23.9739L21.7905 20.5486C22.7532 19.6367 23.6959 19.1496 24.6186 19.0873C25.5495 19.0172 26.3997 19.3746 27.1692 20.1597C27.7245 20.7263 28.0443 21.352 28.1286 22.037C28.2129 22.722 28.0546 23.4104 27.6538 24.1022C28.2512 23.708 28.9705 23.7134 29.8118 24.1184L33.6944 25.9427ZM25.5099 24.6346C26.1517 24.0266 26.5099 23.4532 26.5846 22.9142C26.6513 22.3672 26.4427 21.8468 25.9588 21.3531C25.4749 20.8593 24.9615 20.6432 24.4188 20.7047C23.8763 20.7502 23.2801 21.0808 22.6301 21.6965L20.4208 23.7891L23.3006 26.7272L25.5099 24.6346Z" fill="#F5F5F5"/>
<path id="O_2" d="M44.2976 20.5155C43.232 20.9336 42.2098 21.0668 41.2309 20.9152C40.2584 20.749 39.381 20.3202 38.5988 19.6288C37.8272 18.9333 37.2048 18.0028 36.7316 16.8372C36.2541 15.6611 36.0515 14.5597 36.124 13.5331C36.1964 12.5064 36.5344 11.6069 37.1381 10.8344C37.7418 10.0619 38.5765 9.46662 39.6421 9.04855C40.7182 8.62634 41.7404 8.4931 42.7087 8.64883C43.6876 8.80042 44.5628 9.22397 45.3345 9.91947C46.1061 10.615 46.7285 11.5455 47.2017 12.7111C47.6792 13.8872 47.8817 14.9886 47.8093 16.0152C47.7369 17.0419 47.401 17.9467 46.8015 18.7297C46.1978 19.5022 45.3632 20.0974 44.2976 20.5155ZM43.7604 19.1924C44.8893 18.7495 45.6094 18.0226 45.9206 17.0119C46.2424 15.9969 46.1156 14.7807 45.54 13.3631C44.9687 11.9559 44.2131 10.9985 43.2731 10.4908C42.3394 9.96847 41.3081 9.92875 40.1792 10.3717C39.0503 10.8146 38.3303 11.5414 38.019 12.5522C37.7035 13.5525 37.8314 14.7562 38.4027 16.1633C38.9782 17.5809 39.7329 18.5509 40.6666 19.0732C41.6108 19.5914 42.6421 19.6312 43.7604 19.1924Z" fill="#F5F5F5"/>
<path id="J_2" d="M55.8834 18.8635C56.3293 18.9179 56.739 18.9345 57.1124 18.9135C57.6895 18.8811 58.0769 18.7117 58.2748 18.4055C58.4727 18.0992 58.5499 17.5727 58.5064 16.826L57.8228 5.08183L59.588 4.98254L60.2726 16.7436C60.3431 17.9543 60.1681 18.8495 59.7478 19.4293C59.3274 20.0092 58.5854 20.329 57.5218 20.3889C57.0013 20.4181 56.4838 20.4018 55.9693 20.34L55.8834 18.8635Z" fill="#F5F5F5"/>
<path id="E_2" d="M70.7036 5.53812L78.3519 7.32367L78.0166 8.71174L72.0568 7.3204L71.1626 11.0219L76.7913 12.336L76.4559 13.724L70.8273 12.41L69.8852 16.3098L75.8449 17.7011L75.5096 19.0892L67.8612 17.3037L70.7036 5.53812Z" fill="#F5F5F5"/>
<path id="C_2" d="M87.0863 24.9216C86.1099 24.2817 85.3967 23.5163 84.9467 22.6252C84.5126 21.731 84.362 20.772 84.495 19.7481C84.6279 18.7243 85.0506 17.6871 85.7631 16.6366C86.4692 15.5954 87.2774 14.8176 88.1876 14.3032C89.0979 13.7887 90.0531 13.5612 91.0534 13.6206C92.0632 13.6863 93.0563 14.039 94.0326 14.6789C94.7246 15.1324 95.2913 15.6595 95.7327 16.2604C96.1899 16.8582 96.4856 17.4923 96.6197 18.1627L95.3826 18.8965C95.1695 18.2014 94.8879 17.6172 94.5379 17.1439C94.2038 16.6675 93.7666 16.2523 93.2263 15.8982C92.1741 15.2086 91.1299 15.012 90.0937 15.3084C89.0669 15.6111 88.1305 16.3861 87.2845 17.6336C86.4321 18.8905 86.0581 20.0477 86.1625 21.1052C86.2827 22.1594 86.8689 23.0314 87.9211 23.7209C88.4614 24.075 89.0163 24.3167 89.5858 24.4461C90.1711 24.5723 90.8312 24.5984 91.5659 24.5244L91.3526 25.9292C90.6715 26.0654 89.9592 26.0457 89.2157 25.87C88.4881 25.6912 87.7782 25.3751 87.0863 24.9216Z" fill="#F5F5F5"/>
<path id="T_2" d="M106.161 28.1017L103.727 24.806L104.917 23.9567L110.835 31.9703L109.645 32.8195L107.211 29.5239L98.5489 35.7058L97.4986 34.2836L106.161 28.1017Z" fill="#F5F5F5"/>
<path id="S_2" d="M104.986 48.8785C104.719 47.9767 104.593 47.1166 104.61 46.2982C104.631 45.4906 104.8 44.7465 105.118 44.0658L106.539 44.3126C106.249 45.0088 106.091 45.6908 106.065 46.3586C106.038 47.0264 106.138 47.7405 106.364 48.5011C106.622 49.3703 106.985 49.9971 107.454 50.3814C107.922 50.7657 108.456 50.8719 109.055 50.7001C109.557 50.5564 109.866 50.2259 109.985 49.7085C110.114 49.1881 110.144 48.4131 110.075 47.3837C109.997 46.4039 109.996 45.5847 110.073 44.9262C110.16 44.2645 110.366 43.7043 110.691 43.2456C111.027 42.7838 111.532 42.4561 112.208 42.2624C112.883 42.0687 113.53 42.0777 114.149 42.2894C114.778 42.4979 115.331 42.8875 115.808 43.4582C116.299 44.0366 116.671 44.755 116.926 45.6133C117.168 46.4282 117.268 47.2246 117.227 48.0027C117.19 48.7917 117.013 49.4908 116.697 50.1001L115.276 49.8533C115.565 49.1928 115.729 48.5504 115.768 47.926C115.819 47.2986 115.749 46.6643 115.558 46.0233C115.31 45.1867 114.935 44.5809 114.434 44.2059C113.943 43.8279 113.393 43.7263 112.783 43.9013C112.26 44.0513 111.924 44.3717 111.774 44.8627C111.627 45.3645 111.582 46.1085 111.638 47.0945C111.707 48.1239 111.711 48.9718 111.648 49.6381C111.586 50.3045 111.401 50.8762 111.094 51.3535C110.786 51.8308 110.305 52.1632 109.652 52.3506C108.976 52.5443 108.335 52.5338 107.727 52.319C107.12 52.1041 106.574 51.7005 106.091 51.1081C105.622 50.5235 105.254 49.7803 104.986 48.8785Z" fill="#F5F5F5"/>
</g>
</svg>
