<svg width="727" height="709" viewBox="0 0 727 709" fill="none" xmlns="http://www.w3.org/2000/svg">
<path d="M586.416 695.141L572.981 695.14L566.591 643.313L586.418 643.314L586.416 695.141Z" fill="#4E4E81"/>
<path d="M589.842 708.165L546.524 708.164V707.616C546.524 703.143 548.301 698.854 551.463 695.692C554.625 692.529 558.913 690.753 563.384 690.752H563.386L589.842 690.754L589.842 708.165Z" fill="#25254B"/>
<path d="M711.336 695.141L697.902 695.14L691.511 643.313L711.339 643.314L711.336 695.141Z" fill="#4E4E81"/>
<path d="M714.762 708.165L671.445 708.164V707.616C671.445 703.143 673.221 698.854 676.383 695.692C679.545 692.529 683.833 690.753 688.305 690.752H688.306L714.763 690.754L714.762 708.165Z" fill="#25254B"/>
<path d="M581.061 432.132C581.061 432.132 569.785 462.745 571.396 475.634C573.007 488.523 560.119 578.75 561.73 586.806C563.341 594.861 560.119 635.141 561.73 641.586C563.341 648.031 557.209 655.728 560.431 662.173C563.653 668.618 568.174 681.865 568.174 681.865L589.115 680.254L592.337 662.531C592.337 662.531 602.003 660.92 600.392 651.253C598.781 641.586 608.446 577.138 608.446 577.138L635.832 486.912L674.493 569.083C674.493 569.083 676.104 627.085 680.937 633.53C685.77 639.975 676.104 657.698 680.937 664.142C685.77 670.587 690.602 681.865 690.602 681.865H714.766V668.976C714.766 668.976 729.264 660.92 714.766 636.752L704.969 491.615L695.304 425.556L581.061 432.132Z" fill="#25254B"/>
<path d="M641.113 229.541C657.73 229.541 671.201 216.068 671.201 199.448C671.201 182.829 657.73 169.355 641.113 169.355C624.496 169.355 611.025 182.829 611.025 199.448C611.025 216.068 624.496 229.541 641.113 229.541Z" fill="#4E4E81"/>
<path d="M615.509 197.373C617.632 202.798 619.755 208.223 621.878 213.649C624.488 220.318 627.477 227.454 633.595 231.176C641.149 235.772 651.236 233.531 658.544 228.553C665.116 224.075 670.161 217.693 673.001 210.264C675.841 202.835 676.34 194.715 674.431 186.994C672.522 179.274 668.296 172.322 662.321 167.073C656.347 161.824 648.909 158.53 641.008 157.632L640.706 163.08L634.022 157.477C633.528 158.325 632.848 159.05 632.033 159.598C631.219 160.146 630.29 160.502 629.318 160.639C628.346 160.777 627.356 160.692 626.421 160.392C625.487 160.092 624.632 159.583 623.922 158.905C625.678 162.545 623.651 166.985 620.725 169.773C617.13 173.198 606.848 177.315 607.275 183.438C607.56 187.525 613.851 193.138 615.509 197.373Z" fill="#292944"/>
<path d="M723.934 476.647C724.971 475.1 725.656 473.344 725.941 471.503C726.226 469.662 726.104 467.781 725.584 465.992C725.063 464.204 724.157 462.551 722.929 461.151C721.701 459.75 720.18 458.636 718.475 457.887L719.076 428.775L701.477 424.095L701.206 465.218C700.137 468.167 700.187 471.405 701.346 474.319C702.505 477.233 704.693 479.621 707.495 481.03C710.296 482.438 713.517 482.77 716.547 481.963C719.577 481.155 722.205 479.263 723.934 476.647V476.647Z" fill="#4E4E81"/>
<path d="M663.463 248.14C663.463 248.14 640.148 236.48 618.127 244.254C596.107 252.027 584.449 261.096 584.449 261.096L598.698 336.237L579.268 437.288C579.268 437.288 679.007 429.515 688.074 437.288C697.141 445.061 697.141 428.219 697.141 428.219L689.369 332.35L703.618 271.46L663.463 248.14Z" fill="#6666B7"/>
<path d="M565.056 478.371C566.486 477.177 567.636 475.684 568.427 473.997C569.217 472.31 569.628 470.471 569.63 468.608C569.633 466.745 569.227 464.904 568.441 463.215C567.655 461.526 566.509 460.03 565.083 458.832L573.832 431.061L558.255 421.627L546.45 461.019C544.597 463.549 543.736 466.671 544.03 469.794C544.325 472.916 545.754 475.822 548.048 477.961C550.341 480.1 553.339 481.323 556.474 481.398C559.609 481.474 562.663 480.397 565.056 478.371V478.371Z" fill="#4E4E81"/>
<path d="M593.516 261.095H584.449C584.449 261.095 570.201 270.164 570.201 283.12C570.201 296.075 549.476 447.652 549.476 447.652L571.496 451.539L590.926 345.305L605.174 316.803L593.516 261.095Z" fill="#6666B7"/>
<path d="M679.007 271.46H703.618C703.618 271.46 711.39 279.233 715.276 297.371C719.162 315.508 723.048 386.763 723.048 386.763L720.457 451.539H701.027L698.437 367.33L685.484 312.917L679.007 271.46Z" fill="#6666B7"/>
<path d="M173.844 117.5L130.674 192H44.3263L1.15576 117.5L44.3263 43H130.674L173.844 117.5Z" fill="#FCFCFF" stroke="#25254B" stroke-width="2"/>
<path d="M261.842 169L232.676 219H174.324L145.158 169L174.324 119H232.676L261.842 169Z" fill="#FCFCFF" stroke="#25254B" stroke-width="2"/>
<path d="M350.842 118L321.676 168H263.324L234.158 118L263.324 68H321.676L350.842 118Z" fill="#FCFCFF" stroke="#25254B" stroke-width="2"/>
<path d="M453.844 176L420.174 234H352.826L319.156 176L352.826 118H420.174L453.844 176Z" fill="#FCFCFF" stroke="#25254B" stroke-width="2"/>
<path d="M452.844 59L419.174 117H351.826L318.156 59L351.826 1H419.174L452.844 59Z" fill="#FCFCFF" stroke="#25254B" stroke-width="2"/>
<path d="M522.845 117L497.423 161H446.577L421.155 117L446.577 73H497.423L522.845 117Z" fill="#FCFCFF" stroke="#25254B" stroke-width="2"/>
<path d="M557.844 235L523.674 294H455.326L421.156 235L455.326 176H523.674L557.844 235Z" fill="#FCFCFF" stroke="#25254B" stroke-width="2"/>
<path d="M34.964 129.314C35.576 129.398 36.008 129.44 36.26 129.44C36.848 129.44 37.25 129.296 37.466 129.008C37.682 128.72 37.79 128.204 37.79 127.46V115.184H40.112V127.46C40.112 128.828 39.854 129.818 39.338 130.43C38.822 131.054 37.94 131.366 36.692 131.366C36.116 131.366 35.54 131.318 34.964 131.222V129.314ZM51.4039 124.994H45.1399L43.8439 128H41.5039L47.2999 115.184H49.1899L55.0039 128H52.6819L51.4039 124.994ZM50.6299 123.194L48.2719 117.704L45.9139 123.194H50.6299ZM66.9134 115.184L61.2074 128H59.3174L53.6114 115.184H56.0234L60.2894 125.084L64.5554 115.184H66.9134ZM75.4156 124.994H69.1516L67.8556 128H65.5156L71.3116 115.184H73.2016L79.0156 128H76.6936L75.4156 124.994ZM74.6416 123.194L72.2836 117.704L69.9256 123.194H74.6416ZM84.5814 128.162C83.5974 128.162 82.6734 128.03 81.8094 127.766C80.9574 127.502 80.2314 127.124 79.6314 126.632L80.4234 124.94C81.0474 125.408 81.6954 125.756 82.3674 125.984C83.0514 126.2 83.7954 126.308 84.5994 126.308C85.4874 126.308 86.1714 126.152 86.6514 125.84C87.1434 125.528 87.3894 125.09 87.3894 124.526C87.3894 124.046 87.1614 123.68 86.7054 123.428C86.2614 123.164 85.5234 122.918 84.4914 122.69C82.8834 122.342 81.7134 121.892 80.9814 121.34C80.2494 120.788 79.8834 119.984 79.8834 118.928C79.8834 118.172 80.0874 117.5 80.4954 116.912C80.9034 116.324 81.4794 115.862 82.2234 115.526C82.9794 115.19 83.8494 115.022 84.8334 115.022C85.7334 115.022 86.5854 115.16 87.3894 115.436C88.2054 115.7 88.8714 116.072 89.3874 116.552L88.6134 118.244C87.4734 117.332 86.2134 116.876 84.8334 116.876C84.0054 116.876 83.3514 117.05 82.8714 117.398C82.3914 117.734 82.1514 118.196 82.1514 118.784C82.1514 119.288 82.3614 119.672 82.7814 119.936C83.2134 120.2 83.9454 120.446 84.9774 120.674C86.0454 120.926 86.9154 121.202 87.5874 121.502C88.2594 121.79 88.7754 122.168 89.1354 122.636C89.4954 123.092 89.6754 123.668 89.6754 124.364C89.6754 125.132 89.4714 125.804 89.0634 126.38C88.6554 126.944 88.0674 127.382 87.2994 127.694C86.5314 128.006 85.6254 128.162 84.5814 128.162ZM97.6414 128.162C96.3814 128.162 95.2774 127.892 94.3294 127.352C93.3934 126.812 92.6734 126.05 92.1694 125.066C91.6654 124.07 91.4134 122.906 91.4134 121.574C91.4134 120.254 91.6654 119.102 92.1694 118.118C92.6734 117.122 93.3934 116.36 94.3294 115.832C95.2774 115.292 96.3814 115.022 97.6414 115.022C98.5054 115.022 99.3154 115.16 100.071 115.436C100.839 115.7 101.475 116.072 101.979 116.552L101.223 118.244C100.647 117.776 100.071 117.44 99.4954 117.236C98.9314 117.02 98.3254 116.912 97.6774 116.912C96.4414 116.912 95.4814 117.314 94.7974 118.118C94.1254 118.922 93.7894 120.074 93.7894 121.574C93.7894 123.086 94.1254 124.25 94.7974 125.066C95.4694 125.87 96.4294 126.272 97.6774 126.272C98.3254 126.272 98.9314 126.17 99.4954 125.966C100.071 125.75 100.647 125.408 101.223 124.94L101.979 126.632C101.475 127.112 100.839 127.49 100.071 127.766C99.3154 128.03 98.5054 128.162 97.6414 128.162ZM114.698 128H112.25L110.612 123.734C110.468 123.338 110.246 123.062 109.946 122.906C109.646 122.75 109.256 122.672 108.776 122.672H106.454V128H104.15V115.184H109.64C111.092 115.184 112.196 115.502 112.952 116.138C113.708 116.774 114.086 117.686 114.086 118.874C114.086 119.726 113.858 120.452 113.402 121.052C112.958 121.64 112.322 122.06 111.494 122.312C112.25 122.468 112.796 122.996 113.132 123.896L114.698 128ZM109.316 120.872C110.192 120.872 110.84 120.71 111.26 120.386C111.68 120.062 111.89 119.57 111.89 118.91C111.89 118.262 111.68 117.782 111.26 117.47C110.852 117.146 110.204 116.984 109.316 116.984H106.418V120.872H109.316ZM116.788 115.184H119.11V128H116.788V115.184ZM121.886 115.184H127.448C128.828 115.184 129.902 115.52 130.67 116.192C131.438 116.852 131.822 117.758 131.822 118.91C131.822 120.062 131.432 120.974 130.652 121.646C129.884 122.318 128.816 122.654 127.448 122.654H124.208V128H121.886V115.184ZM127.178 120.854C127.982 120.854 128.588 120.692 128.996 120.368C129.416 120.032 129.626 119.552 129.626 118.928C129.626 118.292 129.422 117.812 129.014 117.488C128.606 117.152 127.994 116.984 127.178 116.984H124.208V120.854H127.178ZM136.581 117.092H132.405V115.184H143.115V117.092H138.921V128H136.581V117.092Z" fill="#19192E"/>
<path d="M193.2 176.162C191.94 176.162 190.836 175.892 189.888 175.352C188.952 174.812 188.232 174.05 187.728 173.066C187.224 172.07 186.972 170.906 186.972 169.574C186.972 168.254 187.224 167.102 187.728 166.118C188.232 165.122 188.952 164.36 189.888 163.832C190.836 163.292 191.94 163.022 193.2 163.022C194.064 163.022 194.874 163.16 195.63 163.436C196.398 163.7 197.034 164.072 197.538 164.552L196.782 166.244C196.206 165.776 195.63 165.44 195.054 165.236C194.49 165.02 193.884 164.912 193.236 164.912C192 164.912 191.04 165.314 190.356 166.118C189.684 166.922 189.348 168.074 189.348 169.574C189.348 171.086 189.684 172.25 190.356 173.066C191.028 173.87 191.988 174.272 193.236 174.272C193.884 174.272 194.49 174.17 195.054 173.966C195.63 173.75 196.206 173.408 196.782 172.94L197.538 174.632C197.034 175.112 196.398 175.49 195.63 175.766C194.874 176.03 194.064 176.162 193.2 176.162ZM203.8 176.162C202.816 176.162 201.892 176.03 201.028 175.766C200.176 175.502 199.45 175.124 198.85 174.632L199.642 172.94C200.266 173.408 200.914 173.756 201.586 173.984C202.27 174.2 203.014 174.308 203.818 174.308C204.706 174.308 205.39 174.152 205.87 173.84C206.362 173.528 206.608 173.09 206.608 172.526C206.608 172.046 206.38 171.68 205.924 171.428C205.48 171.164 204.742 170.918 203.71 170.69C202.102 170.342 200.932 169.892 200.2 169.34C199.468 168.788 199.102 167.984 199.102 166.928C199.102 166.172 199.306 165.5 199.714 164.912C200.122 164.324 200.698 163.862 201.442 163.526C202.198 163.19 203.068 163.022 204.052 163.022C204.952 163.022 205.804 163.16 206.608 163.436C207.424 163.7 208.09 164.072 208.606 164.552L207.832 166.244C206.692 165.332 205.432 164.876 204.052 164.876C203.224 164.876 202.57 165.05 202.09 165.398C201.61 165.734 201.37 166.196 201.37 166.784C201.37 167.288 201.58 167.672 202 167.936C202.432 168.2 203.164 168.446 204.196 168.674C205.264 168.926 206.134 169.202 206.806 169.502C207.478 169.79 207.994 170.168 208.354 170.636C208.714 171.092 208.894 171.668 208.894 172.364C208.894 173.132 208.69 173.804 208.282 174.38C207.874 174.944 207.286 175.382 206.518 175.694C205.75 176.006 204.844 176.162 203.8 176.162ZM215.384 176.162C214.4 176.162 213.476 176.03 212.612 175.766C211.76 175.502 211.034 175.124 210.434 174.632L211.226 172.94C211.85 173.408 212.498 173.756 213.17 173.984C213.854 174.2 214.598 174.308 215.402 174.308C216.29 174.308 216.974 174.152 217.454 173.84C217.946 173.528 218.192 173.09 218.192 172.526C218.192 172.046 217.964 171.68 217.508 171.428C217.064 171.164 216.326 170.918 215.294 170.69C213.686 170.342 212.516 169.892 211.784 169.34C211.052 168.788 210.686 167.984 210.686 166.928C210.686 166.172 210.89 165.5 211.298 164.912C211.706 164.324 212.282 163.862 213.026 163.526C213.782 163.19 214.652 163.022 215.636 163.022C216.536 163.022 217.388 163.16 218.192 163.436C219.008 163.7 219.674 164.072 220.19 164.552L219.416 166.244C218.276 165.332 217.016 164.876 215.636 164.876C214.808 164.876 214.154 165.05 213.674 165.398C213.194 165.734 212.954 166.196 212.954 166.784C212.954 167.288 213.164 167.672 213.584 167.936C214.016 168.2 214.748 168.446 215.78 168.674C216.848 168.926 217.718 169.202 218.39 169.502C219.062 169.79 219.578 170.168 219.938 170.636C220.298 171.092 220.478 171.668 220.478 172.364C220.478 173.132 220.274 173.804 219.866 174.38C219.458 174.944 218.87 175.382 218.102 175.694C217.334 176.006 216.428 176.162 215.384 176.162Z" fill="#19192E"/>
<path d="M282.546 113.184V126H280.242V120.438H273.672V126H271.386V113.184H273.672V118.548H280.242V113.184H282.546ZM288.331 115.092H284.155V113.184H294.865V115.092H290.671V126H288.331V115.092ZM308.962 113.184V126H306.91V118.044L303.508 126H301.978L298.558 118.134V126H296.506V113.184H298.342L302.752 123.21L307.126 113.184H308.962ZM311.763 113.184H314.085V124.092H320.079V126H311.763V113.184Z" fill="#19192E"/>
<path d="M361.386 173.184H369.756V175.038H363.69V178.548H369.396V180.42H363.69V186H361.386V173.184ZM371.687 173.184H374.009V186H371.687V173.184ZM387.476 179.07V185.226C386.888 185.514 386.18 185.742 385.352 185.91C384.524 186.078 383.678 186.162 382.814 186.162C381.494 186.162 380.348 185.898 379.376 185.37C378.404 184.842 377.66 184.086 377.144 183.102C376.628 182.118 376.37 180.942 376.37 179.574C376.37 178.23 376.628 177.066 377.144 176.082C377.66 175.098 378.392 174.342 379.34 173.814C380.3 173.286 381.422 173.022 382.706 173.022C383.606 173.022 384.446 173.154 385.226 173.418C386.018 173.682 386.678 174.054 387.206 174.534L386.414 176.226C385.814 175.758 385.226 175.422 384.65 175.218C384.074 175.014 383.444 174.912 382.76 174.912C381.44 174.912 380.438 175.308 379.754 176.1C379.082 176.892 378.746 178.05 378.746 179.574C378.746 181.146 379.094 182.334 379.79 183.138C380.486 183.93 381.524 184.326 382.904 184.326C383.744 184.326 384.572 184.212 385.388 183.984V180.744H382.616V179.07H387.476ZM402.583 173.184V186H400.531V178.044L397.129 186H395.599L392.179 178.134V186H390.127V173.184H391.963L396.373 183.21L400.747 173.184H402.583ZM413.898 182.994H407.634L406.338 186H403.998L409.794 173.184H411.684L417.498 186H415.176L413.898 182.994ZM413.124 181.194L410.766 175.704L408.408 181.194H413.124Z" fill="#19192E"/>
<path d="M364.078 63.07V69.226C363.49 69.514 362.782 69.742 361.954 69.91C361.126 70.078 360.28 70.162 359.416 70.162C358.096 70.162 356.95 69.898 355.978 69.37C355.006 68.842 354.262 68.086 353.746 67.102C353.23 66.118 352.972 64.942 352.972 63.574C352.972 62.23 353.23 61.066 353.746 60.082C354.262 59.098 354.994 58.342 355.942 57.814C356.902 57.286 358.024 57.022 359.308 57.022C360.208 57.022 361.048 57.154 361.828 57.418C362.62 57.682 363.28 58.054 363.808 58.534L363.016 60.226C362.416 59.758 361.828 59.422 361.252 59.218C360.676 59.014 360.046 58.912 359.362 58.912C358.042 58.912 357.04 59.308 356.356 60.1C355.684 60.892 355.348 62.05 355.348 63.574C355.348 65.146 355.696 66.334 356.392 67.138C357.088 67.93 358.126 68.326 359.506 68.326C360.346 68.326 361.174 68.212 361.99 67.984V64.744H359.218V63.07H364.078ZM366.693 57.184H369.015V70H366.693V57.184ZM374.796 59.092H370.62V57.184H381.33V59.092H377.136V70H374.796V59.092ZM394.095 57.184V70H391.791V64.438H385.221V70H382.935V57.184H385.221V62.548H391.791V57.184H394.095ZM402.166 70.162C400.402 70.162 399.064 69.712 398.152 68.812C397.252 67.9 396.802 66.568 396.802 64.816V57.184H399.088V64.942C399.088 66.046 399.346 66.886 399.862 67.462C400.378 68.026 401.146 68.308 402.166 68.308C403.162 68.308 403.918 68.02 404.434 67.444C404.962 66.868 405.226 66.034 405.226 64.942V57.184H407.512V64.816C407.512 66.556 407.056 67.882 406.144 68.794C405.232 69.706 403.906 70.162 402.166 70.162ZM418.083 63.376C418.827 63.592 419.397 63.97 419.793 64.51C420.201 65.05 420.405 65.716 420.405 66.508C420.405 67.6 420.015 68.458 419.235 69.082C418.467 69.694 417.393 70 416.013 70H410.199V57.184H415.833C417.153 57.184 418.191 57.484 418.947 58.084C419.703 58.672 420.081 59.488 420.081 60.532C420.081 61.204 419.901 61.792 419.541 62.296C419.193 62.788 418.707 63.148 418.083 63.376ZM412.467 62.584H415.455C417.063 62.584 417.867 61.984 417.867 60.784C417.867 60.184 417.669 59.734 417.273 59.434C416.877 59.134 416.271 58.984 415.455 58.984H412.467V62.584ZM415.761 68.2C416.601 68.2 417.213 68.05 417.597 67.75C417.993 67.45 418.191 66.976 418.191 66.328C418.191 65.668 417.993 65.182 417.597 64.87C417.213 64.558 416.601 64.402 415.761 64.402H412.467V68.2H415.761Z" fill="#19192E"/>
<path d="M471.078 121.07V127.226C470.49 127.514 469.782 127.742 468.954 127.91C468.126 128.078 467.28 128.162 466.416 128.162C465.096 128.162 463.95 127.898 462.978 127.37C462.006 126.842 461.262 126.086 460.746 125.102C460.23 124.118 459.972 122.942 459.972 121.574C459.972 120.23 460.23 119.066 460.746 118.082C461.262 117.098 461.994 116.342 462.942 115.814C463.902 115.286 465.024 115.022 466.308 115.022C467.208 115.022 468.048 115.154 468.828 115.418C469.62 115.682 470.28 116.054 470.808 116.534L470.016 118.226C469.416 117.758 468.828 117.422 468.252 117.218C467.676 117.014 467.046 116.912 466.362 116.912C465.042 116.912 464.04 117.308 463.356 118.1C462.684 118.892 462.348 120.05 462.348 121.574C462.348 123.146 462.696 124.334 463.392 125.138C464.088 125.93 465.126 126.326 466.506 126.326C467.346 126.326 468.174 126.212 468.99 125.984V122.744H466.218V121.07H471.078ZM473.693 115.184H476.015V128H473.693V115.184ZM481.796 117.092H477.62V115.184H488.33V117.092H484.136V128H481.796V117.092Z" fill="#19192E"/>
<path d="M463.14 235.184L457.434 248H455.544L449.838 235.184H452.25L456.516 245.084L460.782 235.184H463.14ZM468.451 248.162C467.467 248.162 466.543 248.03 465.679 247.766C464.827 247.502 464.101 247.124 463.501 246.632L464.293 244.94C464.917 245.408 465.565 245.756 466.237 245.984C466.921 246.2 467.665 246.308 468.469 246.308C469.357 246.308 470.041 246.152 470.521 245.84C471.013 245.528 471.259 245.09 471.259 244.526C471.259 244.046 471.031 243.68 470.575 243.428C470.131 243.164 469.393 242.918 468.361 242.69C466.753 242.342 465.583 241.892 464.851 241.34C464.119 240.788 463.753 239.984 463.753 238.928C463.753 238.172 463.957 237.5 464.365 236.912C464.773 236.324 465.349 235.862 466.093 235.526C466.849 235.19 467.719 235.022 468.703 235.022C469.603 235.022 470.455 235.16 471.259 235.436C472.075 235.7 472.741 236.072 473.257 236.552L472.483 238.244C471.343 237.332 470.083 236.876 468.703 236.876C467.875 236.876 467.221 237.05 466.741 237.398C466.261 237.734 466.021 238.196 466.021 238.784C466.021 239.288 466.231 239.672 466.651 239.936C467.083 240.2 467.815 240.446 468.847 240.674C469.915 240.926 470.785 241.202 471.457 241.502C472.129 241.79 472.645 242.168 473.005 242.636C473.365 243.092 473.545 243.668 473.545 244.364C473.545 245.132 473.341 245.804 472.933 246.38C472.525 246.944 471.937 247.382 471.169 247.694C470.401 248.006 469.495 248.162 468.451 248.162ZM486.45 248.162C485.19 248.162 484.086 247.892 483.138 247.352C482.202 246.812 481.482 246.05 480.978 245.066C480.474 244.07 480.222 242.906 480.222 241.574C480.222 240.254 480.474 239.102 480.978 238.118C481.482 237.122 482.202 236.36 483.138 235.832C484.086 235.292 485.19 235.022 486.45 235.022C487.314 235.022 488.124 235.16 488.88 235.436C489.648 235.7 490.284 236.072 490.788 236.552L490.032 238.244C489.456 237.776 488.88 237.44 488.304 237.236C487.74 237.02 487.134 236.912 486.486 236.912C485.25 236.912 484.29 237.314 483.606 238.118C482.934 238.922 482.598 240.074 482.598 241.574C482.598 243.086 482.934 244.25 483.606 245.066C484.278 245.87 485.238 246.272 486.486 246.272C487.134 246.272 487.74 246.17 488.304 245.966C488.88 245.75 489.456 245.408 490.032 244.94L490.788 246.632C490.284 247.112 489.648 247.49 488.88 247.766C488.124 248.03 487.314 248.162 486.45 248.162ZM498.4 248.162C497.164 248.162 496.084 247.898 495.16 247.37C494.248 246.83 493.54 246.068 493.036 245.084C492.544 244.088 492.298 242.918 492.298 241.574C492.298 240.242 492.544 239.084 493.036 238.1C493.528 237.104 494.23 236.342 495.142 235.814C496.066 235.286 497.152 235.022 498.4 235.022C499.648 235.022 500.728 235.286 501.64 235.814C502.564 236.342 503.266 237.104 503.746 238.1C504.238 239.084 504.484 240.242 504.484 241.574C504.484 242.918 504.238 244.088 503.746 245.084C503.254 246.068 502.552 246.83 501.64 247.37C500.728 247.898 499.648 248.162 498.4 248.162ZM498.4 246.308C499.588 246.308 500.512 245.9 501.172 245.084C501.832 244.268 502.162 243.098 502.162 241.574C502.162 240.062 501.832 238.904 501.172 238.1C500.512 237.284 499.588 236.876 498.4 236.876C497.212 236.876 496.288 237.278 495.628 238.082C494.968 238.886 494.638 240.05 494.638 241.574C494.638 243.098 494.968 244.268 495.628 245.084C496.288 245.9 497.212 246.308 498.4 246.308ZM506.863 235.184H511.579C513.679 235.184 515.305 235.742 516.457 236.858C517.621 237.974 518.203 239.546 518.203 241.574C518.203 243.614 517.621 245.198 516.457 246.326C515.305 247.442 513.679 248 511.579 248H506.863V235.184ZM511.435 246.11C514.387 246.11 515.863 244.598 515.863 241.574C515.863 238.574 514.387 237.074 511.435 237.074H509.185V246.11H511.435ZM520.574 235.184H529.142V237.02H522.842V240.566H528.764V242.402H522.842V246.164H529.142V248H520.574V235.184Z" fill="#19192E"/>
</svg>
