<svg viewBox="0 0 53 47" fill="none" xmlns="http://www.w3.org/2000/svg">
<path d="M52.2637 22.1507C52.2637 27.4712 49.9163 32.3263 46.0536 36.0711V45.2719L36.8526 41.7524C33.6835 42.9142 30.186 43.5666 26.5 43.5666C12.2715 43.5666 0.736328 33.9786 0.736328 22.1522C0.736328 10.3258 12.2715 0.736298 26.5 0.736298C40.7286 0.736298 52.2637 10.3243 52.2637 22.1507Z" fill="#2069B1"/>
<path d="M46.0536 46.0081C45.9638 46.0081 45.8754 45.9919 45.79 45.9595L36.8452 42.5387C33.5554 43.7109 30.0755 44.3044 26.5 44.3044C11.8886 44.3029 0 34.3658 0 22.1522C0 9.93851 11.8886 0 26.5 0C41.1129 0 53 9.93704 53 22.1507C53 27.3504 50.7969 32.3911 46.7899 36.3803V45.2718C46.7899 45.5148 46.6706 45.7401 46.4704 45.8786C46.3481 45.9625 46.2009 46.0081 46.0536 46.0081ZM36.8526 41.0161C36.9424 41.0161 37.0308 41.0323 37.1162 41.0647L45.3173 44.2013V36.0711C45.3173 35.8708 45.3983 35.6809 45.5411 35.5424C49.4009 31.8006 51.5259 27.0441 51.5259 22.1507C51.5259 10.7484 40.2986 1.47259 26.4985 1.47259C12.6985 1.47259 1.47263 10.7484 1.47263 22.1522C1.47263 33.5559 12.7 42.8318 26.5 42.8318C29.9975 42.8318 33.3963 42.2368 36.5993 41.0617C36.6818 41.0308 36.7672 41.0161 36.8526 41.0161Z" fill="#2069B1"/>
<path d="M21.51 20.48V23H18.99V20.48H21.51ZM27.9176 20.48V23H25.3976V20.48H27.9176ZM34.3252 20.48V23H31.8052V20.48H34.3252Z" fill="#F5F5F5"/>
</svg>
