<svg width="410" height="270" viewBox="0 0 410 270" fill="none" xmlns="http://www.w3.org/2000/svg">
<path d="M1 241.822C35.5678 243.376 104.175 238.093 102.061 204.535C99.9476 170.976 59.1268 166.582 47.8978 179.899C34.0266 196.349 28.4781 253.275 77.6217 267.124C126.765 280.974 185.288 214.744 208.407 179.899C215.012 170.133 224.26 143.544 208.407 115.312C192.554 87.0802 166.133 111.983 166.133 135.287C166.133 148.239 200.348 179.632 255.305 159.923C310.261 140.214 315.413 115.312 324 98" stroke="#EFEFFD"/>
<path d="M332.261 68.4902C340.744 70.6269 349.518 71.2808 358.541 70.4392C360.998 70.21 364.484 69.3286 366.735 70.1114C369.017 70.9053 366.577 68.4598 365.373 68.3389C356.077 67.4052 346.063 64.3604 336.377 63.1825C325.392 61.8465 357.893 67.8578 369.018 68.4995C373.86 68.7788 369.519 66.5914 367.951 65.8606C360.752 62.5036 353.604 59.6738 345.8 57.8735C345.385 57.7778 338.073 55.2833 338.374 55.1466C344.012 52.5862 351.188 53.808 356.713 54.0623C357.374 54.0927 366.515 54.5898 362.945 55.3622C357.54 56.5318 352.276 56.3338 346.917 57.1225C337.589 58.4952 365.466 56.178 374.734 55.7736C384.344 55.3543 356.441 51.8172 347.559 49.0575C346.329 48.6754 353.546 50.359 354.131 50.4492C362.574 51.7505 371.367 51.6635 379.609 53.7644C381.134 54.1531 382.432 54.6239 383.859 55.2105C383.985 55.2624 383.58 55.1885 383.448 55.1528C377.564 53.5667 370.75 54.7913 364.549 54.9726C363.459 55.0045 355.931 54.6435 361.706 54.3829C366.26 54.1774 374.786 55.6598 379.237 52.9214C379.343 52.8562 367.706 49.8656 366.342 49.7193C359.42 48.9771 352.52 48.134 345.594 47.4052C342.144 47.0421 331.839 47.8567 335.268 46.2037C341.694 43.1064 351.527 44.0017 358.131 43.7488C358.272 43.7434 364.23 43.3032 364.175 43.2216C362.678 40.9636 354.558 41.0055 352.045 40.3757C351.61 40.2665 343.361 37.8784 346.821 39.144C354.009 41.7737 362.813 41.0861 370.463 41.9379C375.988 42.553 391.807 46.8716 386.855 44.5624C383.099 42.8113 379.023 42.172 374.865 41.6484C370.976 41.1587 367.103 40.6848 363.249 40.0461C361.96 39.8324 358.479 38.7962 359.283 39.8697C361.273 42.5254 369.647 41.7111 372.459 41.9986C377.304 42.4939 390.67 44.2267 377.799 42.7486C364.572 41.2297 325.147 35.5602 338.374 37.0791C347.801 38.1616 357.397 38.4387 366.836 39.5103C373.208 40.2338 379.568 41.1599 386.044 41.3738C386.058 41.3743 391.054 41.6581 387.994 40.4764C380.349 37.5245 371.66 36.6275 363.669 34.6877C357.117 33.0973 350.664 31.2427 344.19 29.4185C343.516 29.2287 336.363 26.3732 334.671 27.1884C329.069 29.8886 345.985 28.206 351.71 28.3079C355.797 28.3806 367.639 29.7131 364.037 28.0336C360.706 26.4806 356.338 26.8891 352.665 26.6119C347.048 26.188 361.91 27.8394 362.984 27.9443C366.852 28.322 372.831 30.9826 376.885 29.809C382.105 28.2978 366.526 29.7175 361.368 29.5328C357.172 29.3826 349.443 28.9268 358.571 29.9012C364.751 30.561 375.342 33.6045 381.724 30.928C382.664 30.5339 379.875 30.6525 378.939 30.5661C373.783 30.09 368.661 29.4942 363.537 28.8711C359.47 28.3765 354.443 26.975 350.137 27.5745C348.031 27.8678 354.079 28.585 356.119 28.8247C364.443 29.8035 372.864 30.726 381.365 30.7604C388.24 30.7882 375.139 28.3556 374.279 28.1252C366.385 26.0124 357.554 24.609 350.171 21.1664C345.007 18.7583 361.733 22.2717 367.473 23.011C370.391 23.3868 376.297 24.3655 369.719 23.5901C358.546 22.273 347.5 20.4367 336.296 19.2467C332.748 18.8699 329.193 18.5273 325.643 18.1602C323.615 17.9506 319.241 15.5565 319.501 17.8393C319.865 21.0208 342.913 23.848 344.783 24.2749C359.497 27.6335 374.292 30.7646 389.208 33.4141C396.009 34.622 376.968 31.1252 376.527 31.0471C369.024 29.7198 365.425 29.0101 357.677 27.9456C354.667 27.5319 351.651 27.1333 348.609 26.8621C346.339 26.6597 340.624 25.0602 341.653 27.2321C342.848 29.7533 351.346 30.7178 353.361 31.2192C358.926 32.6041 364.575 33.7226 370.125 35.1553C379.464 37.5659 361.351 36.2779 360.859 36.255C345.897 35.5588 331.169 34.7736 315.971 35.7331C309.236 36.1584 312.393 37.2454 316.416 37.9478C328.897 40.1277 341.725 40.6176 354.165 43.1039C361.078 44.4855 367.75 45.4203 356.34 43.2484C341.105 40.3485 326.319 35.9038 311.067 33.1116C304.036 31.8243 312.108 32.3663 314.397 32.1883C320.19 31.7377 336.712 32.9321 331.811 30.2714C327.416 27.885 320.888 27.8882 315.953 27.092C306.182 25.5158 313.877 28.7569 318.137 30.3857C332.898 36.0298 348.146 40.6541 363.189 45.572C364.385 45.9633 383.671 49.1113 373.318 49.8939C365.599 50.4773 357.903 52.1031 350.187 54.0973C344.403 55.5923 338.615 57.0734 332.832 58.5849C331.779 58.86 325.591 59.78 324.498 61.3235C323.91 62.1534 326.171 61.6255 327.033 61.6356C330.615 61.6778 334.181 61.8754 337.775 61.8269C339.289 61.8064 353.636 60.7955 345.308 60.923C334.313 61.0914 323.483 60.4362 312.721 59.2446C306.813 58.5905 287.883 55.8981 305.789 57.2168C318.857 58.1791 331.566 60.8342 344.68 61.5668C354.362 62.1077 351.479 60.3519 345.191 57.6561C335.449 53.4801 324.946 51.2033 314.665 48.5073C313.951 48.3201 313.199 48.2253 312.534 47.9151C311.291 47.3356 315.31 48.2104 316.692 48.3821C323.985 49.2878 331.305 49.9339 338.698 50.3458C345.895 50.7468 367.326 52.401 360.407 50.833C349.001 48.248 337.109 47.1533 325.162 47.1121C322.244 47.102 315.05 47.2756 311.917 47.36C309.4 47.4279 302.417 46.3678 304.333 47.9052C306.153 49.3665 312.402 49.2032 314.254 49.3867C320.07 49.9629 325.917 50.4458 331.819 50.5508C333.794 50.586 338.328 50.5301 334.173 48.9049C325.745 45.6081 315.776 44.7248 306.698 43.6546C302.56 43.1669 297.75 43.7972 304.638 43.9656C316.966 44.267 329.531 44.0731 341.972 43.4411C351.113 42.9767 347.948 42.4005 341.24 42.899C330.945 43.6642 320.283 44.437 309.94 46.9066C309.257 47.0698 307.731 47.3526 308.003 48.0108C308.951 50.3039 318.773 53.5237 319.417 53.8015C329.313 58.0692 339.356 61.9597 349.412 65.848C350.829 66.3956 357.982 68.3586 352.193 68.6837C343.186 69.1895 334.277 69.0426 325.235 69.8313C324.112 69.9292 308.392 72.2559 318.299 71.2143C327.05 70.2944 335.779 69.5454 344.505 68.9802C350.747 68.5759 356.036 68.8584 346.52 68.1797C336.858 67.4905 326.008 66.1721 316.09 67.9756C313.022 68.5334 321.944 69.0148 324.857 69.5877C330.588 70.7151 336.278 71.9923 341.98 73.2228C348.1 74.5438 347.374 73.9482 342.506 72.3303C334.341 69.617 324.721 68.3534 315.77 69.3655C311.255 69.8759 323.093 74.2368 327.286 75.4049C337.333 78.204 347.618 80.2714 357.926 82.1978C363.121 83.1686 370.142 85.4427 375.806 84.9143C388.88 83.6949 325.913 76.5719 337.57 81.2712C342.188 83.1325 349.69 82.3404 354.769 81.93C358.291 81.6454 361.89 80.9298 365.42 80.205C366.275 80.0296 368.561 79.7015 367.928 79.1664C360.106 72.5541 328.536 69.2999 338.846 70.0886C346.522 70.6758 354.452 70.4176 362.218 70.4139C363.675 70.4132 387.043 70.9887 377.796 67.0384C367.094 62.4666 355.281 60.0527 343.753 57.9227C340.682 57.3552 331.285 56.4837 334.473 56.4728C338.642 56.4585 342.849 56.8867 346.961 57.1435C360.567 57.993 374.122 59.9476 387.885 59.8318C397.607 59.75 382.427 59.164 380.422 59.2959C373.482 59.7522 366.217 59.3292 359.246 60.5967C357.908 60.84 360.939 60.6946 361.595 60.4874" stroke="#5555FF" stroke-width="10" stroke-linecap="round"/>
<path d="M275.317 49L263 58.4095" stroke="#EFEFFD"/>
<path d="M291.893 43L276 55.142" stroke="#EFEFFD"/>
<path d="M408.893 80L393 92.142" stroke="#EFEFFD"/>
<path d="M399.919 93L388 102.106" stroke="#EFEFFD"/>
<path d="M384.536 101L375 108.285" stroke="#EFEFFD"/>
<path d="M369.622 92.1436L302.365 60.7812C301.611 60.4297 301.285 59.5339 301.636 58.7803L324.679 9.36456C325.031 8.61091 325.926 8.28487 326.68 8.6363L393.937 39.9988C394.691 40.3502 395.017 41.246 394.665 41.9996L371.622 91.4154C371.271 92.169 370.375 92.495 369.622 92.1436Z" stroke="#EFEFFD" stroke-width="2" stroke-miterlimit="10"/>
<path d="M394.712 40.8388L356.175 54.1318L347.584 57.0954C345.883 57.6818 344.023 56.8145 343.379 55.1345L340.127 46.6486L325.539 8.58276" stroke="#EFEFFD" stroke-width="2" stroke-miterlimit="10"/>
<path d="M330.297 50.0393L301.59 59.9412" stroke="#EFEFFD" stroke-width="2" stroke-miterlimit="10"/>
<path d="M370.763 92.1976L359.896 63.8416" stroke="#EFEFFD" stroke-width="2" stroke-miterlimit="10"/>
</svg>
