<svg viewBox="0 0 279 206" fill="none" xmlns="http://www.w3.org/2000/svg">
<mask id="mask0" style="mask-type:alpha" maskUnits="userSpaceOnUse" x="0" y="0" width="279" height="206">
<rect width="279" height="206" fill="#C4C4C4"/>
</mask>
<g mask="url(#mask0)">
<path d="M259.731 25.5762C283.951 43.2441 279.439 73.4224 277.32 98.6986C275.202 123.975 275.479 144.247 259.178 158.647C242.878 172.996 209.908 181.421 174.453 190.561C138.997 199.753 101.055 209.659 71.3086 204.655C41.6547 199.599 20.2892 179.685 -1.35265 159.515C-22.9945 139.345 -45.0047 118.971 -52.8326 92.4179C-60.5684 65.9161 -54.214 33.1847 -21.4289 16.3849C11.3562 -0.363828 70.5719 -1.28296 126.656 0.810625C182.649 2.90421 235.51 7.95946 259.731 25.5762Z" fill="#0A181F"/>
</g>
<path d="M52.7 120.7L52.5 120.95C51.7 121.15 50.65 121.25 49.35 121.25L46.15 121.2C46.05 121.233 45.9167 121.25 45.75 121.25C45.55 121.25 45.4 121.217 45.3 121.15C45.2333 121.117 45.1833 121.083 45.15 121.05C44.8833 119.25 44.75 116.883 44.75 113.95C44.75 113.65 44.7333 112.8 44.7 111.4C44.6667 110 44.5667 108.667 44.4 107.4C43.4667 107.233 42.6333 107.15 41.9 107.15C40.9667 107.15 40 107.25 39 107.45C38.8667 108.383 38.8 109.45 38.8 110.65C38.8 111.35 38.8333 112.433 38.9 113.9C38.9667 115.367 39 116.45 39 117.15C39 118.55 38.9167 119.75 38.75 120.75C38.6833 120.75 38.65 120.783 38.65 120.85C38.1833 121.15 37.5667 121.3 36.8 121.3C36.3667 121.3 35.7167 121.233 34.85 121.1C33.9833 120.967 33.4 120.9 33.1 120.9C32.6667 120.9 32.25 120.983 31.85 121.15C31.2833 120.95 31 119.067 31 115.5V112.6C31 110.3 30.9333 106.883 30.8 102.35C30.6667 97.8167 30.6 94.3833 30.6 92.05C30.6 91.15 30.6167 89.9333 30.65 88.4C30.6833 86.8333 30.7167 86.05 30.75 86.05V86.1L31 85.8C31.3333 85.8 31.65 85.8167 31.95 85.85C32.2833 85.8833 32.6333 85.9 33 85.9L34.45 85.85C35.1167 85.7833 35.6167 85.75 35.95 85.75C36.9833 85.75 37.5833 85.9 37.75 86.2C37.9167 87.3 38.0333 88.4833 38.1 89.75C38.1667 91.0167 38.2 91.8167 38.2 92.15C38.2667 94.9167 38.4167 96.9833 38.65 98.35H38.6L38.75 99.15C39.4167 99.2833 40.1833 99.35 41.05 99.35C41.95 99.35 42.8667 99.2667 43.8 99.1C44.0333 96 44.15 93.3167 44.15 91.05C44.15 89.4833 44.1 87.9 44 86.3C44.3 86 45 85.75 46.1 85.55C47.2 85.35 48.1833 85.25 49.05 85.25C49.65 85.25 50.1333 85.3167 50.5 85.45H51.1C51.1 85.45 51.1833 85.5333 51.35 85.7L52.7 120.7ZM50.5 120.65C51.0667 120.65 51.6333 120.6 52.2 120.5L50.85 85.95C50.6167 85.95 50.4167 85.9333 50.25 85.9C48.25 85.9 46.3333 86.0833 44.5 86.45C44.6 87.95 44.65 89.45 44.65 90.95C44.65 93.3167 44.5333 96.1 44.3 99.3C44.1333 99.4667 44.05 99.55 44.05 99.55H44.15C43.8833 99.55 43.3167 99.6 42.45 99.7C41.6167 99.8 40.95 99.85 40.45 99.85C39.6167 99.85 38.9 99.7 38.3 99.4C38.0667 97.9 37.8833 95.6667 37.75 92.7C37.6167 89.9 37.45 87.8 37.25 86.4C37.0167 86.3667 36.6667 86.35 36.2 86.35C35.8 86.35 35.2 86.3833 34.4 86.45C33.6 86.5167 33.0333 86.55 32.7 86.55C32.1333 86.55 31.65 86.4833 31.25 86.35C31.15 88.75 31.1 91.1333 31.1 93.5C31.1 98.4667 31.1333 102.833 31.2 106.6C31.3 110.333 31.4833 114 31.75 117.6C31.75 118.033 31.7667 118.367 31.8 118.6C31.8 119.5 31.8333 120.167 31.9 120.6C32.2667 120.5 32.6167 120.45 32.95 120.45C33.35 120.45 33.9833 120.517 34.85 120.65C35.65 120.783 36.2667 120.85 36.7 120.85C37.3 120.85 37.8167 120.733 38.25 120.5C38.4167 119.5 38.5 118.267 38.5 116.8L38.45 113.65C38.3833 112.25 38.35 111.2 38.35 110.5C38.35 109.267 38.4167 108.167 38.55 107.2C38.8167 107.067 39.3667 106.933 40.2 106.8C41.0333 106.667 41.8667 106.6 42.7 106.6C43.7333 106.6 44.4333 106.733 44.8 107C44.9 107.1 44.9833 107.6 45.05 108.5C45.1167 109.4 45.15 110.083 45.15 110.55C45.15 112.817 45.1667 114.717 45.2 116.25C45.2667 117.75 45.4 119.25 45.6 120.75H45.9C46.3333 120.617 46.9167 120.55 47.65 120.55C48.25 120.55 48.7167 120.567 49.05 120.6L50.5 120.65ZM65.9012 95.05C67.2678 95.05 68.4678 95.1667 69.5012 95.4C70.5345 95.6333 71.5845 96.0833 72.6512 96.75C73.8845 97.5167 74.6678 98.7167 75.0012 100.35C75.3345 101.983 75.5012 104.017 75.5012 106.45C75.5012 108.983 75.4345 111.083 75.3012 112.75C75.2012 114.383 74.9512 116.017 74.5512 117.65C74.1512 119.15 73.2512 120.217 71.8512 120.85C70.4512 121.483 68.8512 121.8 67.0512 121.8C66.5178 121.8 66.0512 121.783 65.6512 121.75C65.2845 121.717 64.9845 121.683 64.7512 121.65L63.4012 121.55C62.2012 121.483 61.3178 121.4 60.7512 121.3C60.1845 121.2 59.6012 120.95 59.0012 120.55C58.4012 120.15 57.6678 119.5 56.8012 118.6C55.5678 117.3 54.9512 114.833 54.9512 111.2V106.5C54.9512 103.967 55.0178 102.083 55.1512 100.85C55.1845 100.483 55.3345 99.9667 55.6012 99.3L55.9512 98.15C56.3178 97.05 57.2178 96.2667 58.6512 95.8C60.0845 95.3333 61.4178 95.1 62.6512 95.1L65.9012 95.05ZM55.6512 100.95C55.4845 102.517 55.4012 104.917 55.4012 108.15V109.7C55.4012 112.433 55.6845 114.75 56.2512 116.65C56.8512 118.55 58.1512 119.85 60.1512 120.55C60.6512 120.717 61.1678 120.833 61.7012 120.9C62.2678 120.967 62.8178 121.017 63.3512 121.05C63.5512 121.05 63.8012 121.05 64.1012 121.05C64.4012 121.083 64.7512 121.133 65.1512 121.2C65.7178 121.3 66.3678 121.35 67.1012 121.35C69.1012 121.35 70.6178 121.05 71.6512 120.45C72.6845 119.817 73.3845 119.017 73.7512 118.05C74.1512 117.05 74.4178 115.767 74.5512 114.2L74.6512 113.15C74.8845 110.35 75.0012 108.2 75.0012 106.7C75.0012 102.567 74.4512 99.65 73.3512 97.95C72.0845 96.95 70.9512 96.3 69.9512 96C68.9845 95.7 67.7678 95.55 66.3012 95.55L62.7012 95.6C61.6678 95.6 60.4345 95.7833 59.0012 96.15C57.6012 96.5167 56.7512 97.2333 56.4512 98.3L56.1012 99.4C55.8345 100.067 55.6845 100.583 55.6512 100.95ZM65.4012 102.55C66.7345 102.55 67.7012 103.067 68.3012 104.1C68.9345 105.133 69.2512 106.733 69.2512 108.9C69.2512 110.9 68.9512 112.367 68.3512 113.3C67.7845 114.233 66.8345 114.7 65.5012 114.7C64.4345 114.7 63.4845 114.467 62.6512 114C61.8512 113.5 61.4512 112.817 61.4512 111.95L61.5012 110.4L61.4512 107.65C61.4512 105.717 61.7345 104.467 62.3012 103.9C62.6345 103.467 63.0845 103.133 63.6512 102.9C64.2178 102.667 64.8012 102.55 65.4012 102.55ZM62.0012 110.65C62.0012 110.85 61.9845 111.067 61.9512 111.3C61.9178 111.5 61.9012 111.717 61.9012 111.95C61.9012 112.65 62.2512 113.2 62.9512 113.6C63.6845 114 64.5178 114.2 65.4512 114.2C66.6845 114.2 67.5345 113.783 68.0012 112.95C68.4678 112.083 68.7012 110.7 68.7012 108.8C68.7012 106.733 68.4345 105.267 67.9012 104.4C67.3678 103.533 66.5178 103.1 65.3512 103.1C64.8512 103.1 64.3512 103.2 63.8512 103.4C63.3845 103.6 62.9845 103.883 62.6512 104.25C62.1845 104.717 61.9512 105.95 61.9512 107.95L62.0012 110.65ZM83.5285 96.15C83.5618 96.85 83.6952 97.6167 83.9285 98.45L84.1785 99.85C84.7785 105.05 85.5618 109.283 86.5285 112.55C87.0618 111.017 87.5118 109.367 87.8785 107.6C88.2785 105.8 88.5118 104.717 88.5785 104.35C88.8118 102.917 89.1118 101.467 89.4785 100C89.5452 99.7333 89.5952 99.4833 89.6285 99.25C89.6618 98.9833 89.6952 98.75 89.7285 98.55C89.8618 96.8833 90.1285 95.95 90.5285 95.75C90.8285 95.85 91.1618 95.9 91.5285 95.9C91.7952 95.9 92.0785 95.8833 92.3785 95.85C92.7118 95.7833 92.9619 95.75 93.1285 95.75C93.6285 95.65 94.1452 95.6 94.6785 95.6C95.6118 95.6 96.1452 95.75 96.2785 96.05C96.4118 96.9167 96.5952 98.0333 96.8285 99.4C97.1285 101.167 97.3785 102.85 97.5785 104.45C97.9452 108.05 98.4952 110.767 99.2285 112.6C99.6618 111.533 100.012 110.4 100.279 109.2C100.545 107.967 100.829 106.417 101.129 104.55C101.429 102.717 101.712 101.15 101.979 99.85C102.279 98.55 102.662 97.3 103.129 96.1L103.329 95.95C103.929 95.95 104.829 95.9167 106.029 95.85C106.995 95.75 107.929 95.7 108.829 95.7C109.562 95.7 109.979 95.85 110.079 96.15C109.245 98.4167 108.529 100.733 107.929 103.1C107.329 105.467 106.645 108.483 105.879 112.15C104.979 116.383 104.295 119.383 103.829 121.15C103.529 121.45 102.595 121.6 101.029 121.6C100.229 121.6 99.0952 121.567 97.6285 121.5C96.2952 121.433 95.3452 121.4 94.7785 121.4L94.5285 121.2L93.6785 116.05C93.5118 114.917 93.2285 113.217 92.8285 110.95C92.5618 112.317 92.3618 113.683 92.2285 115.05C92.1952 115.35 92.0785 116.167 91.8785 117.5C91.6785 118.8 91.4285 120.017 91.1285 121.15C90.7952 121.483 89.8785 121.65 88.3785 121.65L85.1285 121.6C83.0285 121.6 81.7285 121.467 81.2285 121.2C79.9285 112.967 78.1952 104.583 76.0285 96.05L76.3285 95.75C76.9285 95.85 77.5452 95.9 78.1785 95.9L79.8285 95.85C80.1952 95.8167 80.7452 95.8 81.4785 95.8C82.3118 95.8 82.9285 95.8333 83.3285 95.9L83.5285 96.15ZM83.0285 96.4C82.6952 96.3667 82.1785 96.35 81.4785 96.35L78.3285 96.4C77.5618 96.4 76.9952 96.3667 76.6285 96.3C78.8285 105.3 80.5118 113.5 81.6785 120.9L84.0785 120.95C85.7452 121.017 87.0118 121.05 87.8785 121.05C89.2452 121.05 90.1785 120.983 90.6785 120.85C91.0452 119.55 91.3952 117.5 91.7285 114.7C91.7618 114.367 91.8618 113.65 92.0285 112.55C92.1952 111.417 92.3785 110.4 92.5785 109.5L93.1285 109.45L93.0785 109.6C93.5118 111.9 94.1452 115.667 94.9785 120.9L97.1785 120.95C98.7119 121.017 99.9119 121.05 100.779 121.05C102.079 121.05 102.945 120.983 103.379 120.85C103.912 118.817 104.612 115.733 105.479 111.6C106.212 108.2 106.862 105.35 107.429 103.05C107.995 100.75 108.679 98.4833 109.479 96.25C109.212 96.2167 108.812 96.2 108.279 96.2C107.779 96.2 106.995 96.2333 105.929 96.3C105.129 96.4 104.312 96.45 103.479 96.45C103.012 97.6167 102.645 98.8333 102.379 100.1C102.112 101.333 101.829 102.883 101.529 104.75C101.229 106.583 100.929 108.167 100.629 109.5C100.362 110.833 99.9785 112.117 99.4785 113.35H99.0285C98.5952 112.317 98.2452 111.217 97.9785 110.05C97.7452 108.85 97.5119 107.417 97.2785 105.75L97.0785 104.5C96.4785 100.833 96.0452 98.0833 95.7785 96.25C95.4118 96.1833 94.8618 96.15 94.1285 96.15C93.6952 96.2833 93.1619 96.35 92.5285 96.35L90.6285 96.3C90.4952 96.9333 90.2785 98.1 89.9785 99.8C89.4118 102.9 88.8952 105.45 88.4285 107.45C87.9952 109.417 87.4452 111.383 86.7785 113.35H86.3285C85.8952 112.317 85.5452 111.217 85.2785 110.05C85.0452 108.85 84.8118 107.417 84.5785 105.75C84.5118 105.483 84.4452 105.083 84.3785 104.55L83.8785 101.55C83.4785 99.2833 83.1952 97.5667 83.0285 96.4ZM130.34 85.85C130.34 88.4833 130.324 90.8 130.29 92.8C130.257 94.8 130.224 96.45 130.19 97.75C130.057 103.017 129.99 106.983 129.99 109.65C129.99 114.083 130.09 117.783 130.29 120.75C129.99 121.05 129.607 121.25 129.14 121.35C128.674 121.483 128.09 121.55 127.39 121.55C126.724 121.55 125.757 121.483 124.49 121.35C124.157 121.317 123.79 121.283 123.39 121.25C123.024 121.217 122.64 121.2 122.24 121.2C121.74 121.2 121.374 121.25 121.14 121.35L120.69 121.15C120.824 118.617 120.89 115.783 120.89 112.65C120.89 109.717 120.84 106.8 120.74 103.9C120.707 102.9 120.674 101.667 120.64 100.2C120.607 98.7 120.59 96.95 120.59 94.95C120.59 93.2833 120.64 91.6 120.74 89.9C120.874 87.1333 121.074 85.6167 121.34 85.35C122.274 85.35 123.207 85.4 124.14 85.5C124.474 85.5333 124.874 85.5667 125.34 85.6C125.807 85.6333 126.357 85.65 126.99 85.65L130.09 85.6L130.34 85.85ZM129.49 109.7C129.49 107.1 129.507 104.817 129.54 102.85C129.574 100.883 129.607 99.25 129.64 97.95C129.774 92.6833 129.84 88.7333 129.84 86.1L126.94 86.15C126.54 86.15 126.057 86.1333 125.49 86.1C124.957 86.0667 124.557 86.0333 124.29 86C123.39 85.9 122.49 85.85 121.59 85.85C121.29 88.3833 121.14 91.3167 121.14 94.65C121.14 96.4167 121.157 97.9833 121.19 99.35C121.224 100.683 121.257 101.783 121.29 102.65C121.39 105.283 121.44 107.95 121.44 110.65C121.44 113.65 121.357 117.067 121.19 120.9C121.657 120.833 122.074 120.8 122.44 120.8C122.84 120.8 123.574 120.833 124.64 120.9C125.774 120.967 126.624 121 127.19 121C127.557 121 128.074 120.933 128.74 120.8C129.107 120.7 129.457 120.65 129.79 120.65C129.59 117.717 129.49 114.067 129.49 109.7ZM156.838 85.6C157.772 85.3667 158.955 85.25 160.388 85.25C162.222 85.25 163.222 85.4333 163.388 85.8C163.388 88.8333 163.455 93.3833 163.588 99.45C163.722 105.583 163.788 110.15 163.788 113.15C163.788 116.617 163.755 119.217 163.688 120.95C163.388 121.25 161.722 121.4 158.688 121.4C157.922 121.4 157.372 121.35 157.038 121.25C156.738 121.183 156.522 121.033 156.388 120.8V120.2C156.322 120.067 156.288 119.883 156.288 119.65L156.338 118.95L156.288 118.85C155.522 120.383 154.222 121.15 152.388 121.15C148.488 121.15 145.905 119.767 144.638 117C143.405 114.2 142.788 110.733 142.788 106.6C142.788 101.333 143.972 98.0167 146.338 96.65C147.505 95.9833 149.272 95.65 151.638 95.65C152.705 95.65 153.622 95.7 154.388 95.8C155.188 95.9 155.855 96.15 156.388 96.55C156.388 95.9833 156.372 95.4833 156.338 95.05C156.272 93.65 156.238 92.4833 156.238 91.55C156.238 90.2167 156.305 89.0167 156.438 87.95C156.538 87.35 156.588 86.6667 156.588 85.9L156.838 85.6ZM159.888 85.8C158.755 85.8 157.822 85.8833 157.088 86.05C157.055 86.9167 157.005 88.05 156.938 89.45C156.905 90.8167 156.888 92.0167 156.888 93.05C156.888 94.9167 156.905 96.3167 156.938 97.25C156.738 97.3167 156.588 97.35 156.488 97.35C156.022 96.55 154.555 96.15 152.088 96.15C150.388 96.15 148.938 96.3167 147.738 96.65C146.572 96.9833 145.638 97.6833 144.938 98.75C144.372 99.65 143.938 100.85 143.638 102.35C143.338 103.85 143.188 105.467 143.188 107.2C143.188 111.867 143.955 115.283 145.488 117.45C147.022 119.583 149.372 120.65 152.538 120.65C153.305 120.65 153.938 120.5 154.438 120.2C154.638 120.1 154.938 119.75 155.338 119.15C155.405 119.083 155.538 118.917 155.738 118.65C155.938 118.383 156.105 118.25 156.238 118.25H156.288C156.588 118.583 156.755 118.883 156.788 119.15C156.855 119.383 156.888 119.783 156.888 120.35C156.888 120.683 157.388 120.85 158.388 120.85L160.738 120.8C161.805 120.733 162.622 120.7 163.188 120.7C163.255 119 163.288 116.433 163.288 113C163.288 110 163.222 105.5 163.088 99.5C162.955 93.5 162.888 89 162.888 86C161.622 85.8667 160.622 85.8 159.888 85.8ZM153.838 101.45C155.205 101.45 156.105 101.833 156.538 102.6C157.005 103.333 157.238 104.383 157.238 105.75C157.238 107.783 157.155 109.433 156.988 110.7C156.855 111.933 156.505 112.95 155.938 113.75C155.372 114.55 154.505 114.95 153.338 114.95C151.838 114.95 150.638 114.25 149.738 112.85C148.838 111.45 148.388 109.85 148.388 108.05C148.388 106.983 148.538 106.033 148.838 105.2C149.038 103.967 149.588 103.033 150.488 102.4C151.388 101.767 152.505 101.45 153.838 101.45ZM149.338 105.35C149.038 106.15 148.888 107.083 148.888 108.15C148.888 109.917 149.322 111.417 150.188 112.65C151.055 113.85 152.155 114.45 153.488 114.45C154.455 114.45 155.172 114.1 155.638 113.4C156.105 112.667 156.388 111.75 156.488 110.65C156.622 109.55 156.688 108.083 156.688 106.25C156.688 105.15 156.638 104.317 156.538 103.75C156.438 103.183 156.172 102.733 155.738 102.4C155.338 102.033 154.672 101.85 153.738 101.85C152.672 101.85 151.705 102.167 150.838 102.8C149.972 103.4 149.472 104.217 149.338 105.25V105.35ZM177.083 95.05C178.449 95.05 179.649 95.1667 180.683 95.4C181.716 95.6333 182.766 96.0833 183.833 96.75C185.066 97.5167 185.849 98.7167 186.183 100.35C186.516 101.983 186.683 104.017 186.683 106.45C186.683 108.983 186.616 111.083 186.483 112.75C186.383 114.383 186.133 116.017 185.733 117.65C185.333 119.15 184.433 120.217 183.033 120.85C181.633 121.483 180.033 121.8 178.233 121.8C177.699 121.8 177.233 121.783 176.833 121.75C176.466 121.717 176.166 121.683 175.933 121.65L174.583 121.55C173.383 121.483 172.499 121.4 171.933 121.3C171.366 121.2 170.783 120.95 170.183 120.55C169.583 120.15 168.849 119.5 167.983 118.6C166.749 117.3 166.133 114.833 166.133 111.2V106.5C166.133 103.967 166.199 102.083 166.333 100.85C166.366 100.483 166.516 99.9667 166.783 99.3L167.133 98.15C167.499 97.05 168.399 96.2667 169.833 95.8C171.266 95.3333 172.599 95.1 173.833 95.1L177.083 95.05ZM166.833 100.95C166.666 102.517 166.583 104.917 166.583 108.15V109.7C166.583 112.433 166.866 114.75 167.433 116.65C168.033 118.55 169.333 119.85 171.333 120.55C171.833 120.717 172.349 120.833 172.883 120.9C173.449 120.967 173.999 121.017 174.533 121.05C174.733 121.05 174.983 121.05 175.283 121.05C175.583 121.083 175.933 121.133 176.333 121.2C176.899 121.3 177.549 121.35 178.283 121.35C180.283 121.35 181.799 121.05 182.833 120.45C183.866 119.817 184.566 119.017 184.933 118.05C185.333 117.05 185.599 115.767 185.733 114.2L185.833 113.15C186.066 110.35 186.183 108.2 186.183 106.7C186.183 102.567 185.633 99.65 184.533 97.95C183.266 96.95 182.133 96.3 181.133 96C180.166 95.7 178.949 95.55 177.483 95.55L173.883 95.6C172.849 95.6 171.616 95.7833 170.183 96.15C168.783 96.5167 167.933 97.2333 167.633 98.3L167.283 99.4C167.016 100.067 166.866 100.583 166.833 100.95ZM176.583 102.55C177.916 102.55 178.883 103.067 179.483 104.1C180.116 105.133 180.433 106.733 180.433 108.9C180.433 110.9 180.133 112.367 179.533 113.3C178.966 114.233 178.016 114.7 176.683 114.7C175.616 114.7 174.666 114.467 173.833 114C173.033 113.5 172.633 112.817 172.633 111.95L172.683 110.4L172.633 107.65C172.633 105.717 172.916 104.467 173.483 103.9C173.816 103.467 174.266 103.133 174.833 102.9C175.399 102.667 175.983 102.55 176.583 102.55ZM173.183 110.65C173.183 110.85 173.166 111.067 173.133 111.3C173.099 111.5 173.083 111.717 173.083 111.95C173.083 112.65 173.433 113.2 174.133 113.6C174.866 114 175.699 114.2 176.633 114.2C177.866 114.2 178.716 113.783 179.183 112.95C179.649 112.083 179.883 110.7 179.883 108.8C179.883 106.733 179.616 105.267 179.083 104.4C178.549 103.533 177.699 103.1 176.533 103.1C176.033 103.1 175.533 103.2 175.033 103.4C174.566 103.6 174.166 103.883 173.833 104.25C173.366 104.717 173.133 105.95 173.133 107.95L173.183 110.65ZM206.355 86.8C206.488 87.2 206.555 87.9667 206.555 89.1L206.505 91.5C206.505 91.8 206.188 92.0167 205.555 92.15C204.921 92.2833 204.288 92.35 203.655 92.35C201.055 92.35 199.588 92.1667 199.255 91.8C199.255 91.1 199.221 90.05 199.155 88.65C199.055 87.5833 199.005 86.5167 199.005 85.45C199.005 85.0833 199.105 84.8333 199.305 84.7L206.105 84.85L206.355 85.1V86.8ZM205.805 86.25C205.805 85.85 205.821 85.55 205.855 85.35L199.555 85.2L199.505 86.1C199.505 87.0333 199.555 87.95 199.655 88.85C199.721 90.05 199.755 90.9667 199.755 91.6L201.255 91.7C202.855 91.8 203.721 91.85 203.855 91.85C204.955 91.85 205.671 91.7 206.005 91.4C206.005 90.4333 205.988 89.7 205.955 89.2L205.905 87.05C205.838 86.8833 205.805 86.6167 205.805 86.25ZM206.555 95.85C206.555 97.75 206.521 100.6 206.455 104.4C206.355 107.233 206.305 110.083 206.305 112.95C206.305 115.817 206.371 118.4 206.505 120.7C206.505 120.933 206.255 121.1 205.755 121.2C205.288 121.333 204.771 121.4 204.205 121.4C203.738 121.4 203.038 121.367 202.105 121.3C201.171 121.233 200.538 121.2 200.205 121.2C199.738 121.2 199.421 121.217 199.255 121.25L198.955 120.95C199.055 119.817 199.105 118.117 199.105 115.85L199.055 109.2C198.988 106.2 198.955 103.95 198.955 102.45C198.955 101.717 198.971 100.4 199.005 98.5C199.071 96.5667 199.155 95.6 199.255 95.6V95.75L199.505 95.45L202.855 95.5C204.388 95.5667 205.538 95.6 206.305 95.6L206.555 95.85ZM205.805 112.95C205.805 110.117 205.855 107.3 205.955 104.5C206.021 100.767 206.055 97.9667 206.055 96.1C205.321 96.1 204.255 96.0667 202.855 96L199.755 95.95C199.588 97.9167 199.505 100.25 199.505 102.95C199.505 104.317 199.538 106.3 199.605 108.9L199.655 114.9C199.655 116.8 199.605 118.733 199.505 120.7C199.971 120.7 200.705 120.733 201.705 120.8C202.505 120.9 203.288 120.95 204.055 120.95C204.788 120.95 205.438 120.833 206.005 120.6C205.871 118.333 205.805 115.783 205.805 112.95ZM218.956 96.05C219.923 96.05 221.373 95.9833 223.306 95.85C224.006 95.7833 224.99 95.7167 226.256 95.65C226.723 96.15 226.956 96.9 226.956 97.9C226.956 98.4333 226.906 98.9833 226.806 99.55C226.74 100.283 226.706 100.817 226.706 101.15C226.706 101.483 226.723 101.733 226.756 101.9L226.856 102.5L219.056 102.4V107.25C219.056 109.417 219.073 111.05 219.106 112.15C219.54 112.85 220.356 113.35 221.556 113.65C222.756 113.917 224.023 114.05 225.356 114.05C225.923 114.05 226.323 114.033 226.556 114C226.956 114.8 227.156 116.4 227.156 118.8C227.156 119.633 227.04 120.4 226.806 121.1C226.573 121.233 226.073 121.3 225.306 121.3C222.206 121.3 219.556 121.017 217.356 120.45C215.19 119.883 213.623 118.633 212.656 116.7C212.356 116.133 212.156 115.283 212.056 114.15C211.956 112.983 211.89 111.95 211.856 111.05C211.856 110.15 211.856 109.6 211.856 109.4C211.79 107.6 211.756 106.267 211.756 105.4C211.756 104.133 211.773 103.183 211.806 102.55C211.506 102.583 211.14 102.6 210.706 102.6C210.306 102.6 210.023 102.6 209.856 102.6C208.99 102.6 208.44 102.483 208.206 102.25V101.75V99.6C208.206 97.3 208.356 96.0833 208.656 95.95C209.023 95.9833 209.556 96 210.256 96H211.906C211.906 95.3 211.873 94.15 211.806 92.55C211.706 91.2833 211.656 90.0333 211.656 88.8C211.656 88.0333 211.74 87.4333 211.906 87C212.073 86.5667 212.44 86.35 213.006 86.35C213.44 86.35 213.823 86.3667 214.156 86.4C214.523 86.4333 214.823 86.4667 215.056 86.5C215.99 86.6333 216.706 86.7 217.206 86.7C217.74 86.7 218.14 86.6667 218.406 86.6L218.956 86.5V96.05ZM218.406 87.15C217.94 87.2167 217.59 87.25 217.356 87.25C216.89 87.25 216.19 87.1833 215.256 87.05C214.256 86.9167 213.54 86.85 213.106 86.85C212.773 86.85 212.556 86.9167 212.456 87.05C212.356 87.15 212.306 87.3167 212.306 87.55L212.356 91.9C212.39 92.8667 212.406 94.3167 212.406 96.25C212.173 96.4833 211.69 96.6 210.956 96.6C210.556 96.6 210.19 96.5833 209.856 96.55C209.523 96.5167 209.19 96.5 208.856 96.5L208.706 102.05C209.74 102.05 210.956 101.983 212.356 101.85C212.29 102.717 212.256 104.067 212.256 105.9C212.256 108.767 212.39 111.333 212.656 113.6C212.69 113.833 212.723 114.25 212.756 114.85C212.823 115.417 212.923 115.933 213.056 116.4C213.19 116.867 213.39 117.267 213.656 117.6C215.356 119.733 218.873 120.8 224.206 120.8C225.206 120.8 225.923 120.783 226.356 120.75C226.556 120.083 226.656 119.417 226.656 118.75C226.656 118.017 226.606 117.217 226.506 116.35C226.406 115.45 226.34 114.833 226.306 114.5C226.106 114.533 225.74 114.55 225.206 114.55C223.706 114.55 222.206 114.333 220.706 113.9C219.24 113.433 218.506 112.717 218.506 111.75L218.556 110.8L218.606 106.35C218.606 104.683 218.59 103.533 218.556 102.9C218.523 102.267 218.523 101.933 218.556 101.9H226.206C226.14 101.567 226.106 101.3 226.106 101.1C226.106 100.6 226.156 100.083 226.256 99.55C226.256 99.3833 226.273 99.1167 226.306 98.75C226.373 98.3833 226.406 98.0667 226.406 97.8C226.406 97.1 226.306 96.55 226.106 96.15L223.856 96.3C223.39 96.3333 222.573 96.3833 221.406 96.45C220.273 96.5167 219.273 96.55 218.406 96.55V87.15ZM238.192 100.1C238.892 99.2 239.442 98.4 239.842 97.7C240.242 97 240.442 96.3333 240.442 95.7C240.442 95 240.176 94.45 239.642 94.05C239.109 93.6167 238.359 93.4 237.392 93.4C237.026 93.5333 236.742 93.7167 236.542 93.95C236.342 94.15 236.092 94.45 235.792 94.85C235.426 95.4167 235.026 95.85 234.592 96.15C234.192 96.45 233.526 96.6 232.592 96.6C231.526 96.6 230.492 96.55 229.492 96.45C228.526 96.35 227.959 96.2167 227.792 96.05C227.792 94.15 228.292 92.3833 229.292 90.75C230.326 89.0833 231.676 87.7667 233.342 86.8C235.042 85.8 236.826 85.3 238.692 85.3C240.392 85.3 242.042 85.6667 243.642 86.4C245.242 87.1333 246.542 88.1833 247.542 89.55C248.542 90.9167 249.042 92.5167 249.042 94.35C249.042 96.6167 248.126 98.95 246.292 101.35C246.126 101.55 245.642 102.1 244.842 103C243.776 104.133 243.042 105.067 242.642 105.8C242.409 106.233 242.209 106.75 242.042 107.35C241.876 107.917 241.726 108.467 241.592 109C241.426 109.967 241.209 110.733 240.942 111.3V111.85C240.976 111.883 240.992 111.95 240.992 112.05C240.826 112.317 240.209 112.45 239.142 112.45L237.292 112.4C236.892 112.367 236.292 112.35 235.492 112.35C234.859 112.35 234.459 112.3 234.292 112.2C234.159 112.1 234.092 111.817 234.092 111.35C234.092 110.917 234.126 110.167 234.192 109.1C234.426 107.533 234.776 106.167 235.242 105C235.742 103.833 236.459 102.567 237.392 101.2L238.192 100.1ZM234.692 109.15C234.692 109.35 234.659 109.667 234.592 110.1C234.526 110.5 234.492 110.85 234.492 111.15C234.492 111.383 234.526 111.633 234.592 111.9L238.642 111.95C239.442 111.95 240.042 111.917 240.442 111.85C240.409 111.783 240.392 111.683 240.392 111.55C240.392 110.45 240.659 109.217 241.192 107.85C241.759 106.45 242.426 105.2 243.192 104.1C243.559 103.6 244.026 103.067 244.592 102.5C245.192 101.9 245.626 101.417 245.892 101.05C247.659 98.65 248.542 96.4167 248.542 94.35C248.542 92.65 248.059 91.15 247.092 89.85C246.159 88.55 244.926 87.5667 243.392 86.9C241.892 86.2 240.342 85.85 238.742 85.85C236.976 85.85 235.292 86.3333 233.692 87.3C232.092 88.2333 230.792 89.4667 229.792 91C228.792 92.5333 228.292 94.15 228.292 95.85C228.792 95.85 229.392 95.9 230.092 96C230.392 96.0333 230.742 96.0667 231.142 96.1C231.576 96.1333 232.076 96.15 232.642 96.15C233.442 96.15 233.992 96.0667 234.292 95.9C234.626 95.7 234.992 95.25 235.392 94.55C235.726 94.0167 236.026 93.6167 236.292 93.35C236.592 93.05 236.942 92.9 237.342 92.9C238.509 92.9 239.409 93.2167 240.042 93.85C240.676 94.45 240.992 95.0667 240.992 95.7C240.992 96.4 240.742 97.1833 240.242 98.05C239.742 98.8833 239.076 99.8333 238.242 100.9C237.609 101.7 237.176 102.3 236.942 102.7C236.276 103.833 235.776 104.883 235.442 105.85C235.142 106.817 234.892 107.95 234.692 109.25V109.15ZM234.392 121.2C234.059 121.067 233.892 120.367 233.892 119.1C233.892 118.6 233.926 117.85 233.992 116.85C234.059 116.05 234.092 115.5 234.092 115.2L234.242 114.9C234.576 114.767 235.059 114.65 235.692 114.55C236.359 114.45 237.042 114.4 237.742 114.4C239.542 114.4 240.576 114.65 240.842 115.15C240.642 116.383 240.542 118.333 240.542 121C240.376 121.167 240.292 121.25 240.292 121.25L234.542 121.2H234.392ZM240.042 120.75C240.042 120.517 240.042 119.8 240.042 118.6C240.042 117.4 240.126 116.267 240.292 115.2C239.592 115 238.842 114.9 238.042 114.9C237.076 114.9 235.926 115.033 234.592 115.3C234.592 115.6 234.559 116.183 234.492 117.05C234.392 117.75 234.342 118.467 234.342 119.2C234.342 119.833 234.409 120.333 234.542 120.7L240.042 120.75Z" fill="#F5F5F5"/>
</svg>
