<svg width="1584" height="658" viewBox="0 0 1584 658" fill="none" xmlns="http://www.w3.org/2000/svg">
<path d="M1407.75 0H234.5C201.087 0 174 27.0868 174 60.5V158C174 206.049 135.049 245 87 245H34.25C15.3342 245 0 260.334 0 279.25C0 298.166 15.3342 313.5 34.25 313.5H61.25C83.2033 313.5 101 331.297 101 353.25V354.5C101 375.763 83.763 393 62.5 393C41.237 393 24 410.237 24 431.5V439.25C24 464.793 44.7068 485.5 70.25 485.5H128.75C153.741 485.5 174 505.759 174 530.75V546C174 562.569 160.569 576 144 576C127.431 576 114 589.431 114 606V616.75C114 639.256 132.244 657.5 154.75 657.5H1331.25C1368.67 657.5 1399 627.167 1399 589.75C1399 552.333 1429.33 522 1466.75 522H1534.75C1561.95 522 1584 499.95 1584 472.75C1584 445.55 1561.95 423.5 1534.75 423.5H1491.5C1440.41 423.5 1399 382.086 1399 331V260V228.75C1399 198.512 1423.51 174 1453.75 174H1477.25C1494.51 174 1508.5 160.009 1508.5 142.75C1508.5 125.491 1494.51 111.5 1477.25 111.5H1420.5C1408.63 111.5 1399 101.874 1399 90C1399 78.1259 1408.63 68.5 1420.5 68.5C1432.37 68.5 1442 58.8741 1442 47V34.25C1442 15.3342 1426.67 0 1407.75 0Z" fill="#FCFCFF"/>
</svg>
